<!-- icon666.com - MILLIONS OF FREE VECTOR ICONS --><svg id="_3flat_light" viewBox="0 0 64 64" xmlns="http://www.w3.org/2000/svg" data-name="3flat light"><path d="m42 19a9 9 0 0 0 18 0z" fill="#d2a555"></path><path d="m32 17 11-3 2.621-10.486a2 2 0 0 1 1.94-1.514 2 2 0 0 1 1.961 2.392l-1.522 7.608 6.447-4.836a1.837 1.837 0 0 1 2.63.451 1.836 1.836 0 0 1 -.365 2.439l-7.891 6.456a12.005 12.005 0 0 1 -4.07 2.182l-10.751 3.308" fill="#d56b00"></path><path d="m22 19a9 9 0 0 1 -18 0z" fill="#d2a555"></path><path d="m32 17-11-3-2.621-10.486a2 2 0 0 0 -1.94-1.514 2 2 0 0 0 -1.961 2.392l1.522 7.608-6.447-4.836a1.837 1.837 0 0 0 -2.63.451 1.836 1.836 0 0 0 .365 2.439l7.891 6.456a12.005 12.005 0 0 0 4.07 2.182l10.751 3.308" fill="#d56b00"></path><path d="m28 12h8v6h-8z" fill="#d2a555"></path><circle cx="32" cy="40" fill="#e1be6e" r="23"></circle><path d="m32 57a25.494 25.494 0 0 1 -22.812-14.107 22.994 22.994 0 0 0 45.624 0 25.494 25.494 0 0 1 -22.812 14.107z" fill="#d2a555"></path><path d="m32 17h-.3c-18.636.242-19.41 28.455-.8 29.468q.549.03 1.105.03a20 20 0 0 0 19.895-18.024 22.985 22.985 0 0 0 -19.9-11.474z" fill="#edd28c"></path><circle cx="38.5" cy="29.5" fill="#f8ecbb" r="7.5"></circle><circle cx="32" cy="46" fill="#ff2f13" r="5"></circle><path d="m30.9 46.47a16.15 16.15 0 0 1 -3.873-.688c0 .074-.022.143-.022.218a5 5 0 0 0 10 0c0-.05-.013-.1-.015-.147a19.986 19.986 0 0 1 -4.99.647q-.556 0-1.1-.03z" fill="#e11b00"></path><circle cx="23" cy="38" fill="#dfeaf0" r="2"></circle><path d="m23 41a3 3 0 1 1 3-3 3 3 0 0 1 -3 3zm0-4a1 1 0 1 0 1 1 1 1 0 0 0 -1-1z" fill="#284250"></path><circle cx="41" cy="38" fill="#dfeaf0" r="2"></circle><path d="m41 41a3 3 0 1 1 3-3 3 3 0 0 1 -3 3zm0-4a1 1 0 1 0 1 1 1 1 0 0 0 -1-1z" fill="#284250"></path><path d="m41 35a3 3 0 0 0 -2.811 1.984c.1 0 .206.016.311.016a7.461 7.461 0 0 0 4.315-1.372 2.968 2.968 0 0 0 -1.815-.628z" fill="#475e68"></path><g fill="#e1be6e"><path d="m27.5 11h3a0 0 0 0 1 0 0v2.25a1.5 1.5 0 0 1 -1.5 1.5 1.5 1.5 0 0 1 -1.5-1.5v-2.25a0 0 0 0 1 0 0z"></path><path d="m30.5 11h3a0 0 0 0 1 0 0v2.25a1.5 1.5 0 0 1 -1.5 1.5 1.5 1.5 0 0 1 -1.5-1.5v-2.25a0 0 0 0 1 0 0z"></path><path d="m33.5 11h3a0 0 0 0 1 0 0v2.25a1.5 1.5 0 0 1 -1.5 1.5 1.5 1.5 0 0 1 -1.5-1.5v-2.25a0 0 0 0 1 0 0z"></path></g><ellipse cx="32" cy="11" fill="#edd28c" rx="4.5" ry="1"></ellipse><path d="m32 11c-2.243 0-4-2.416-4-5.5s1.757-5.5 4-5.5 4 2.416 4 5.5-1.757 5.5-4 5.5zm0-9c-.946 0-2 1.438-2 3.5s1.054 3.5 2 3.5 2-1.437 2-3.5-1.054-3.5-2-3.5z" fill="#e1be6e"></path><path d="m32 10c-1.683 0-3-1.977-3-4.5s1.317-4.5 3-4.5 3 1.977 3 4.5-1.317 4.5-3 4.5zm0-8c-1.084 0-2 1.6-2 3.5s.916 3.5 2 3.5 2-1.6 2-3.5-.916-3.5-2-3.5z" fill="#d2a555"></path></svg>