<!-- icon666.com - MILLIONS OF FREE VECTOR ICONS --><svg id="_3flat_light" viewBox="0 0 64 64" xmlns="http://www.w3.org/2000/svg" data-name="3flat light"><path d="m54.389 34.74h-44.778a23 23 0 1 0 44.778 0z" fill="#e11b00"></path><path d="m28 12h8v6h-8z" fill="#e11b00"></path><path d="m32 57a25.494 25.494 0 0 1 -22.812-14.107 22.994 22.994 0 0 0 45.624 0 25.494 25.494 0 0 1 -22.812 14.107z" fill="#be0000"></path><path d="m17.58 34.74a13.67 13.67 0 0 0 13.32 11.73q.549.03 1.105.03a19.981 19.981 0 0 0 18.195-11.76z" fill="#ff2f13"></path><circle cx="38.5" cy="29.5" fill="#ff7341" r="7.5"></circle><path d="m9.911 33.593 4.089 4.407 4.5-4 4.5 4 4.5-4 4.5 4 4.5-4 4.5 4 4.5-4 4.5 4 4.089-4.407a23 23 0 0 0 -44.178 0z" fill="#dfeaf0"></path><path d="m51.9 28.474a22.983 22.983 0 0 0 -19.9-11.474h-.3c-10.775.14-15.565 9.628-14.1 17.805l.9-.805 4.5 4 4.5-4 4.5 4 4.5-4 4.5 4 4.5-4 3.468 3.082a19.865 19.865 0 0 0 2.932-8.608z" fill="#f0f5f9"></path><path d="m46 29.5a7.5 7.5 0 1 0 -11.539 6.313l2.039-1.813 3.249 2.888a7.5 7.5 0 0 0 6.251-7.388z" fill="#fff"></path><path d="m27.5 11h3a0 0 0 0 1 0 0v2.25a1.5 1.5 0 0 1 -1.5 1.5 1.5 1.5 0 0 1 -1.5-1.5v-2.25a0 0 0 0 1 0 0z" fill="#d2a555"></path><path d="m30.5 11h3a0 0 0 0 1 0 0v2.25a1.5 1.5 0 0 1 -1.5 1.5 1.5 1.5 0 0 1 -1.5-1.5v-2.25a0 0 0 0 1 0 0z" fill="#e1be6e"></path><path d="m33.5 11h3a0 0 0 0 1 0 0v2.25a1.5 1.5 0 0 1 -1.5 1.5 1.5 1.5 0 0 1 -1.5-1.5v-2.25a0 0 0 0 1 0 0z" fill="#d2a555"></path><path d="m50.97 38.424 3.419-3.684q-.249-1.064-.6-2.087a.978.978 0 0 0 -.439.26l-3.417 3.687-3.494-3.1c-.619-9.226-6.853-16.5-14.439-16.5s-13.82 7.274-14.439 16.5l-3.494 3.1-3.422-3.69a.978.978 0 0 0 -.439-.26q-.345 1.023-.595 2.087l3.419 3.684c.542 13.679 8.843 24.579 18.97 24.579s18.428-10.9 18.97-24.576zm-6.518-4.83-3.452 3.068-3.518-3.127c-.123-5.473-.93-10.984-2.51-14.059 5.116 1.606 9.009 7.238 9.48 14.118zm-15.424-14.118c-1.58 3.075-2.387 8.586-2.51 14.059l-3.518 3.127-3.452-3.068c.471-6.88 4.364-12.512 9.48-14.118zm-13.986 18.935 3.458-3.073 3.521 3.13c.187 9.584 2.186 17.486 5.185 21.554-6.739-2.802-11.739-11.351-12.164-21.611zm15.958 22.362c-3.359-1.477-6.724-10.191-6.973-22.349l3.473-3.086 3.5 3.11zm-2.48-27.2c.201-9.438 2.349-14.573 3.48-14.573s3.279 5.135 3.48 14.569l-3.48 3.093zm4.48 27.2v-22.325l3.5-3.11 3.475 3.089c-.248 12.158-3.616 20.873-6.975 22.346zm3.794-.751c3-4.069 5-11.971 5.187-21.556l3.519-3.128 3.458 3.073c-.425 10.26-5.425 18.809-12.164 21.611z" fill="#e1be6e"></path><path d="m17.561 33.5-.137.122a16.087 16.087 0 0 0 .41 2.311l.666-.592 3.521 3.13c.032 1.641.121 3.228.255 4.759a12.955 12.955 0 0 0 2.182 1.487c-.234-1.967-.385-4.069-.431-6.29l3.473-3.089 3.5 3.11v8.025c.332.016.664.027 1 .027s.667-.031 1-.047v-8.005l3.5-3.11 3.475 3.089a63.733 63.733 0 0 1 -.47 6.609 19.7 19.7 0 0 0 2.149-1.036c.176-1.766.289-3.612.327-5.53l3.519-3.132 2.9 2.575a19.876 19.876 0 0 0 1.074-1.72l-3.033-2.7c-.621-9.219-6.855-16.493-14.441-16.493s-13.82 7.274-14.439 16.5zm26.891.1-3.452 3.062-3.518-3.127c-.123-5.473-.93-10.984-2.51-14.059 5.116 1.606 9.009 7.238 9.48 14.118zm-12.452-14.6c1.131 0 3.279 5.135 3.48 14.569l-3.48 3.093-3.48-3.093c.201-9.434 2.349-14.569 3.48-14.569zm-2.972.476c-1.58 3.075-2.387 8.586-2.51 14.059l-3.518 3.127-3.452-3.068c.471-6.88 4.364-12.512 9.48-14.118z" fill="#edd28c"></path><path d="m40.922 36.593-3.44-3.058a47.456 47.456 0 0 0 -1.412-11.125 7.516 7.516 0 0 0 -1.828.919 45.552 45.552 0 0 1 1.238 10.24l-1.841 1.636a7.479 7.479 0 0 0 1.755 1.116l1.106-.983 1.862 1.655c.047 0 .092.007.138.007a7.5 7.5 0 0 0 2.422-.407z" fill="#f8ecbb"></path><path d="m45.964 30.208a19.8 19.8 0 0 0 -2.715-6.508 7.465 7.465 0 0 0 -3.943-1.651 17.337 17.337 0 0 1 5.146 11.549l-3.265 2.9a7.5 7.5 0 0 0 4.777-6.29z" fill="#f8ecbb"></path><path d="m43.941 54.029a17.028 17.028 0 0 1 -7.147 5.993 18.531 18.531 0 0 0 2.148-3.987 25.443 25.443 0 0 1 -2.493.562c-1.058 2.191-2.249 3.65-3.449 4.176v-3.809c-.333.013-.664.036-1 .036s-.667-.023-1-.036v3.809c-1.2-.526-2.391-1.985-3.448-4.176a25.378 25.378 0 0 1 -2.493-.562 18.487 18.487 0 0 0 2.147 3.987 17.028 17.028 0 0 1 -7.147-5.993 25.58 25.58 0 0 1 -3.8-2.485c3.424 6.905 9.2 11.456 15.741 11.456s12.317-4.551 15.736-11.456a25.58 25.58 0 0 1 -3.795 2.485z" fill="#d2a555"></path><ellipse cx="32" cy="11" fill="#edd28c" rx="4.5" ry="1"></ellipse><path d="m32 11c-2.243 0-4-2.416-4-5.5s1.757-5.5 4-5.5 4 2.416 4 5.5-1.757 5.5-4 5.5zm0-9c-.946 0-2 1.438-2 3.5s1.054 3.5 2 3.5 2-1.437 2-3.5-1.054-3.5-2-3.5z" fill="#e1be6e"></path><path d="m32 10c-1.683 0-3-1.977-3-4.5s1.317-4.5 3-4.5 3 1.977 3 4.5-1.317 4.5-3 4.5zm0-8c-1.084 0-2 1.6-2 3.5s.916 3.5 2 3.5 2-1.6 2-3.5-.916-3.5-2-3.5z" fill="#d2a555"></path></svg>