<!-- icon666.com - MILLIONS OF FREE VECTOR ICONS --><svg id="Layer_1" enable-background="new 0 0 46 63" viewBox="0 0 46 63" xmlns="http://www.w3.org/2000/svg"><path d="m19 12h8v6h-8z" fill="#dfeaf0"></path><circle cx="23" cy="40" fill="#dfeaf0" r="23"></circle><path d="m23 17c-.1 0-.2 0-.3 0-18.64.24-19.41 28.46-.8 29.47.37.02.73.03 1.1.03 10.28 0 18.89-7.8 19.9-18.03-4.11-7.1-11.69-11.47-19.9-11.47z" fill="#f0f5f9"></path><path d="m34.74 28.48c-1.49 3.39-3.4 7.41-5.46 11.52 2.06 4.11 3.97 8.14 5.46 11.52 2.2-3.71 4.16-7.56 5.86-11.52-1.7-3.96-3.66-7.81-5.86-11.52z" fill="#e1be6e"></path><path d="m11.26 28.48c-2.2 3.71-4.16 7.56-5.86 11.52 1.7 3.96 3.66 7.81 5.86 11.52 1.49-3.39 3.4-7.41 5.46-11.52-2.06-4.11-3.97-8.14-5.46-11.52z" fill="#e1be6e"></path><circle cx="29.5" cy="29.5" fill="#fff" r="7.5"></circle><path d="m23 57c-9.66 0-18.5-5.46-22.81-14.11 1.59 12.6 13.1 21.52 25.7 19.93 10.41-1.32 18.6-9.52 19.92-19.93-4.31 8.65-13.15 14.11-22.81 14.11z" fill="#bed7e1"></path><path d="m43.99 30.6c-.93 3.2-2.06 6.34-3.39 9.4 1.33 3.06 2.46 6.2 3.39 9.4 2.68-5.98 2.68-12.82 0-18.8z" fill="#177537"></path><path d="m16.72 40c2.06 4.11 4.26 8.28 6.28 11.88 2.02-3.6 4.22-7.78 6.28-11.88z" fill="#177537"></path><path d="m16.72 40c1.05 2.09 2.13 4.2 3.21 6.24.65.11 1.3.19 1.96.23.37.02.73.03 1.1.03 1.03-.01 2.05-.09 3.06-.25 1.08-2.04 2.17-4.15 3.21-6.25-2.06-4.11-4.26-8.28-6.28-11.88-2 3.6-4.2 7.77-6.26 11.88z" fill="#1b8c4b"></path><path d="m39.56 37.68c-1.44-3.15-3.05-6.22-4.82-9.2-1.49 3.39-3.4 7.41-5.46 11.52.78 1.55 1.53 3.08 2.25 4.58 3.24-1.54 6.02-3.92 8.03-6.9z" fill="#edd28c"></path><path d="m11.26 28.48c-.98 1.64-1.93 3.38-2.84 5.13.34 4.31 2.63 8.22 6.21 10.63.67-1.39 1.37-2.81 2.09-4.24-2.06-4.11-3.97-8.14-5.46-11.52z" fill="#edd28c"></path><path d="m2.01 49.4c.93-3.2 2.06-6.34 3.39-9.4-1.33-3.06-2.46-6.2-3.39-9.4-2.68 5.98-2.68 12.82 0 18.8z" fill="#177537"></path><path d="m29.48 17.93c-.46.52-.88 1.07-1.28 1.64 2.51 2.71 4.71 5.7 6.54 8.91 1.13-2.55 2.02-4.74 2.63-6.43-2.34-1.88-5.02-3.27-7.89-4.12z" fill="#177537"></path><path d="m20.42 17.15c-.87.76-1.83 1.62-2.63 2.42 1.35 1.92 3.18 4.94 5.2 8.55 2.02-3.61 3.85-6.63 5.2-8.55-.8-.8-1.75-1.67-2.63-2.42-1.7-.2-3.42-.2-5.14 0z" fill="#edd28c"></path><path d="m11.26 28.48c1.83-3.21 4.02-6.2 6.54-8.91-.39-.57-.82-1.12-1.28-1.64-2.87.84-5.55 2.24-7.89 4.11.61 1.7 1.5 3.88 2.63 6.44z" fill="#177537"></path><path d="m34.74 51.52c-1.83 3.21-4.02 6.2-6.54 8.91.39.57.82 1.12 1.28 1.64 2.87-.84 5.55-2.24 7.89-4.11-.61-1.7-1.5-3.88-2.63-6.44z" fill="#177537"></path><path d="m17.8 60.43c.8.8 1.75 1.67 2.63 2.42 1.71.2 3.44.2 5.15 0 .87-.76 1.83-1.62 2.63-2.42-1.35-1.92-3.18-4.94-5.2-8.54-2.03 3.6-3.86 6.62-5.21 8.54z" fill="#e1be6e"></path><path d="m20.13 56.82c-.87 1.43-1.66 2.65-2.33 3.6.8.8 1.75 1.67 2.63 2.42 1.71.2 3.44.2 5.15 0 .87-.76 1.83-1.62 2.63-2.42-.67-.95-1.46-2.17-2.33-3.6-1.92.24-3.84.24-5.75 0z" fill="#d2a555"></path><path d="m8.63 57.95c2.34 1.87 5.01 3.27 7.89 4.11.46-.52.88-1.07 1.28-1.64-2.51-2.71-4.71-5.7-6.54-8.91-1.13 2.57-2.02 4.75-2.63 6.44z" fill="#177537"></path><path d="m18.5 11h3v2.25c0 .83-.67 1.5-1.5 1.5-.83 0-1.5-.67-1.5-1.5z" fill="#d2a555"></path><path d="m21.5 11h3v2.25c0 .83-.67 1.5-1.5 1.5-.83 0-1.5-.67-1.5-1.5z" fill="#e1be6e"></path><path d="m24.5 11h3v2.25c0 .83-.67 1.5-1.5 1.5-.83 0-1.5-.67-1.5-1.5z" fill="#d2a555"></path><g fill="#005023"><path d="m45.81 42.9c-.72 1.44-1.58 2.8-2.56 4.08.27.84.53 1.65.74 2.42.93-2.07 1.54-4.26 1.82-6.5z"></path><path d="m2.75 46.98c-.98-1.28-1.84-2.64-2.56-4.08.28 2.25.9 4.44 1.82 6.5.22-.77.47-1.59.74-2.42z"></path><path d="m29.48 62.07c2.87-.84 5.55-2.24 7.89-4.11-.43-1.21-1.02-2.67-1.72-4.33-1.05.6-2.14 1.13-3.26 1.57-1.24 1.86-2.64 3.61-4.19 5.23.4.57.82 1.12 1.28 1.64z"></path><path d="m16.52 62.07c.46-.52.88-1.07 1.28-1.64-1.55-1.62-2.95-3.37-4.19-5.23-1.12-.45-2.21-.97-3.26-1.57-.7 1.66-1.28 3.12-1.72 4.33 2.34 1.87 5.02 3.26 7.89 4.11z"></path></g><path d="m28.2 19.57c2.51 2.71 4.71 5.7 6.54 8.91 1.13-2.55 2.02-4.74 2.63-6.43-2.34-1.87-5.01-3.27-7.89-4.11-.46.51-.88 1.06-1.28 1.63z" fill="#1b8c4b"></path><path d="m17.8 19.57c-.39-.55-.73-1-1.03-1.36-3.09 1.34-5.57 3.79-6.95 6.86.43 1.04.91 2.18 1.45 3.4 1.82-3.2 4.01-6.19 6.53-8.9z" fill="#1b8c4b"></path><path d="m27.63 36.75c-1.55-3.02-3.14-5.98-4.63-8.64-.32.57-.65 1.18-.98 1.78.17 3.27 2.44 6.05 5.61 6.86z" fill="#4fd278"></path><path d="m30.82 36.88c2.72-.49 4.95-2.43 5.81-5.05-.61-1.14-1.24-2.26-1.89-3.34-1.11 2.51-2.46 5.39-3.92 8.39z" fill="#f8ecbb"></path><path d="m26.09 22.83c-1.73.89-3.05 2.41-3.68 4.24.2.34.39.69.59 1.05 1.1-1.97 2.14-3.76 3.09-5.29z" fill="#f8ecbb"></path><path d="m30.38 22.06c1.59 2.05 3.05 4.19 4.36 6.42.44-1 .84-1.92 1.2-2.8-1.19-2.01-3.25-3.35-5.56-3.62z" fill="#4fd278"></path><ellipse cx="23" cy="11" fill="#edd28c" rx="4.5" ry="1"></ellipse><path d="m23 11c-2.24 0-4-2.42-4-5.5s1.76-5.5 4-5.5 4 2.42 4 5.5-1.76 5.5-4 5.5zm0-9c-.95 0-2 1.44-2 3.5s1.05 3.5 2 3.5 2-1.44 2-3.5-1.05-3.5-2-3.5z" fill="#e1be6e"></path><path d="m23 10c-1.68 0-3-1.98-3-4.5s1.32-4.5 3-4.5 3 1.98 3 4.5-1.32 4.5-3 4.5zm0-8c-1.08 0-2 1.6-2 3.5s.92 3.5 2 3.5 2-1.6 2-3.5-.92-3.5-2-3.5z" fill="#d2a555"></path></svg>