<!-- icon666.com - MILLIONS OF FREE VECTOR ICONS --><svg viewBox="0 0 64 64" xmlns="http://www.w3.org/2000/svg"><g isolation="isolate"><g id="_3flat_light" data-name="3flat light"><path d="m28 12h8v6h-8z" fill="#e11b00"></path><circle cx="32" cy="40" fill="#dfeaf0" r="23"></circle><path d="m32 57a25.494 25.494 0 0 1 -22.812-14.107 22.994 22.994 0 0 0 45.624 0 25.494 25.494 0 0 1 -22.812 14.107z" fill="#bed7e1"></path><path d="m9.911 33.593 6.089 4.407 8.055-5.318 7.945 5.318 7.945-5.318 8.055 5.318 6.089-4.407a23 23 0 0 0 -44.178 0z" fill="#2850b4"></path><path d="m9.911 33.593 6.089 4.407 8.055-5.318 7.945 5.318 7.945-5.318 8.055 5.318 6.089-4.407" fill="#2850b4"></path><path d="m24.07 32.7 7.93 5.3 7.93-5.3c-1.11-9.125-4.24-15.7-7.93-15.7s-6.82 6.575-7.93 15.7z" fill="#2850b4"></path><path d="m32 39.2-9-6.018.075-.61c1.225-10.066 4.73-16.572 8.925-16.572s7.7 6.506 8.923 16.575l.075.61zm-6.86-7 6.86 4.6 6.86-4.589c-1.241-9.334-4.36-14.211-6.86-14.211s-5.619 4.877-6.86 14.208z" fill="#e1be6e"></path><path d="m48 38-8.055-5.318-7.945 5.318-7.945-5.318-6.026 3.978a13.571 13.571 0 0 0 12.871 9.81q.549.03 1.105.03a19.962 19.962 0 0 0 16.679-8.991z" fill="#f0f5f9"></path><circle cx="38.5" cy="29.5" fill="#fff" r="7.5"></circle><path d="m32 38 7.945-5.318 8.055 5.318.679-.491a19.865 19.865 0 0 0 3.221-9.035 22.983 22.983 0 0 0 -19.9-11.474h-.3c-11.6.153-16.28 11.14-13.671 19.66l6.026-3.978z" fill="#3c78d2"></path><path d="m46 29.5a7.5 7.5 0 1 0 -11.116 6.57l5.061-3.388 3.587 2.368a7.473 7.473 0 0 0 2.468-5.55z" fill="#6eaaff"></path><path d="m54.363 34.629q-.249-1.041-.591-2.042l-5.8 4.2-7.472-4.94a1 1 0 0 0 -1.107 0l-7.393 4.953-7.389-4.946a1 1 0 0 0 -1.107 0l-7.478 4.938-5.8-4.2q-.341 1-.591 2.042l5.4 3.905c.518 13.62 7.928 24.461 16.965 24.461s16.447-10.841 16.968-24.466zm-26.229 18.171a1 1 0 0 0 0-2 1.135 1.135 0 0 1 -1.134-1.133 1.669 1.669 0 0 1 1.667-1.667 2.336 2.336 0 0 1 2.333 2.333v4.132a3.726 3.726 0 0 0 -1.777-.465 3.225 3.225 0 0 0 -3.223 3.222 2.781 2.781 0 0 0 2.777 2.778 1 1 0 0 0 0-2 .779.779 0 0 1 -.777-.778 1.224 1.224 0 0 1 1.223-1.222 1.779 1.779 0 0 1 1.777 1.778v3.163c-5.852-.62-10.8-6.631-12.9-14.952a6.453 6.453 0 0 0 3.456 1.011 5.45 5.45 0 0 0 5.444-5.444 4.561 4.561 0 0 0 -4.556-4.556 3.848 3.848 0 0 0 -3.844 3.844 3.28 3.28 0 0 0 3.276 3.276 1 1 0 0 0 0-2 1.277 1.277 0 0 1 -1.276-1.276 1.846 1.846 0 0 1 1.844-1.844 2.558 2.558 0 0 1 2.556 2.556 3.448 3.448 0 0 1 -3.444 3.444 4.546 4.546 0 0 1 -4.2-2.841c-.163-1.186-.251-2.412-.3-3.656l7-4.621 6.944 4.652v8.159a4.3 4.3 0 0 0 -2.333-.693 3.671 3.671 0 0 0 -3.667 3.667 3.137 3.137 0 0 0 3.134 3.133zm13.99-8.68a3.28 3.28 0 0 0 3.276-3.276 3.848 3.848 0 0 0 -3.844-3.844 4.561 4.561 0 0 0 -4.556 4.556 5.45 5.45 0 0 0 5.444 5.444 6.468 6.468 0 0 0 3.456-1.006c-2.11 8.319-7.052 14.327-12.9 14.947v-3.163a1.779 1.779 0 0 1 1.777-1.778 1.224 1.224 0 0 1 1.223 1.222.779.779 0 0 1 -.777.778 1 1 0 0 0 0 2 2.781 2.781 0 0 0 2.777-2.778 3.225 3.225 0 0 0 -3.223-3.222 3.726 3.726 0 0 0 -1.777.465v-4.132a2.336 2.336 0 0 1 2.333-2.333 1.669 1.669 0 0 1 1.667 1.667 1.135 1.135 0 0 1 -1.134 1.133 1 1 0 0 0 0 2 3.137 3.137 0 0 0 3.134-3.133 3.671 3.671 0 0 0 -3.667-3.667 4.3 4.3 0 0 0 -2.333.693v-8.159l6.949-4.652 7 4.621c-.05 1.244-.138 2.47-.3 3.656a4.546 4.546 0 0 1 -4.205 2.841 3.448 3.448 0 0 1 -3.444-3.444 2.558 2.558 0 0 1 2.556-2.556 1.846 1.846 0 0 1 1.844 1.844 1.277 1.277 0 0 1 -1.276 1.276 1 1 0 0 0 0 2z" fill="#e1be6e"></path><path d="m41.434 28.959-6.934 1.223a13.843 13.843 0 0 0 -2.5-14.182 14.884 14.884 0 0 1 7.11 5.57 13.916 13.916 0 0 1 2.324 7.389z" fill="#e11b00"></path><path d="m22.566 28.959 6.934 1.223a13.843 13.843 0 0 1 2.5-14.182 14.884 14.884 0 0 0 -7.11 5.57 13.916 13.916 0 0 0 -2.324 7.389z" fill="#e11b00"></path><path d="m32 16-11.143 6.5a12.107 12.107 0 0 1 -1.857-6.5 12.268 12.268 0 0 1 1.857-6.5z" fill="#ff2f13"></path><path d="m32 16 11.143 6.5a12.107 12.107 0 0 0 1.857-6.5 12.268 12.268 0 0 0 -1.857-6.5z" fill="#ff2f13"></path><path d="m33.8 16 4.85 1.65a1.768 1.768 0 0 0 2.35-1.579c0-.023 0-.047 0-.07s0-.067 0-.109a1.763 1.763 0 0 0 -2.343-1.543z" fill="#f01b00"></path><path d="m30.2 16-4.85-1.65a1.768 1.768 0 0 0 -2.35 1.579v.07s0 .067 0 .109a1.763 1.763 0 0 0 2.343 1.543z" fill="#f01b00"></path><circle cx="32" cy="16" fill="#e11b00" r="3.5"></circle><path d="m27.5 11h3a0 0 0 0 1 0 0v2.25a1.5 1.5 0 0 1 -1.5 1.5 1.5 1.5 0 0 1 -1.5-1.5v-2.25a0 0 0 0 1 0 0z" fill="#d2a555"></path><path d="m30.5 11h3a0 0 0 0 1 0 0v2.25a1.5 1.5 0 0 1 -1.5 1.5 1.5 1.5 0 0 1 -1.5-1.5v-2.25a0 0 0 0 1 0 0z" fill="#e1be6e"></path><path d="m33.5 11h3a0 0 0 0 1 0 0v2.25a1.5 1.5 0 0 1 -1.5 1.5 1.5 1.5 0 0 1 -1.5-1.5v-2.25a0 0 0 0 1 0 0z" fill="#d2a555"></path><g fill="#edd28c"><path d="m39 41.556a2.558 2.558 0 0 1 2.556-2.556 1.846 1.846 0 0 1 1.844 1.844 1.277 1.277 0 0 1 -1.276 1.276 1 1 0 0 0 -1 1 .989.989 0 0 0 .537.872 20.028 20.028 0 0 0 3.685-2.607 3.317 3.317 0 0 0 .054-.541 3.848 3.848 0 0 0 -3.844-3.844 4.561 4.561 0 0 0 -4.556 4.556 5.423 5.423 0 0 0 1.569 3.817 19.574 19.574 0 0 0 2.121-.87 3.432 3.432 0 0 1 -1.69-2.947z" opacity=".5" mix-blend-mode="overlay"></path><path d="m33.477 46.43a20.042 20.042 0 0 0 2.591-.356 3.7 3.7 0 0 0 -.735-.074 4.251 4.251 0 0 0 -1.856.43z" opacity=".5" mix-blend-mode="overlay"></path><path d="m22.444 37a3.835 3.835 0 0 0 -3.417 2.12 13.319 13.319 0 0 0 3.712 4.48.984.984 0 0 0 .137-.477 1 1 0 0 0 -1-1 1.277 1.277 0 0 1 -1.276-1.279 1.846 1.846 0 0 1 1.844-1.844 2.558 2.558 0 0 1 2.556 2.556 3.428 3.428 0 0 1 -1.335 2.7 13.435 13.435 0 0 0 1.886.983 5.42 5.42 0 0 0 1.449-3.683 4.561 4.561 0 0 0 -4.556-4.556z" opacity=".5" mix-blend-mode="overlay"></path><path d="m49.913 35.381-1.939 1.4-7.474-4.934a1 1 0 0 0 -1.107 0l-7.393 4.953-7.389-4.946a1 1 0 0 0 -1.107 0l-5.747 3.8a15.42 15.42 0 0 0 .615 1.99l5.679-3.75 6.949 4.64v7.939c.332.016.664.027 1 .027s.667-.031 1-.047v-7.919l6.949-4.652 7 4.621c-.018.457-.049.908-.079 1.359a20.044 20.044 0 0 0 3.043-4.481z" opacity=".5" mix-blend-mode="overlay"></path><path d="m28.057 46.062a16.587 16.587 0 0 0 2.47.37 4.252 4.252 0 0 0 -1.86-.432 3.614 3.614 0 0 0 -.61.062z" opacity=".5" mix-blend-mode="overlay"></path></g><path d="m36 57.222a.779.779 0 0 1 -.777.778 1 1 0 0 0 0 2 2.781 2.781 0 0 0 2.777-2.778 3.145 3.145 0 0 0 -.147-.909c-.651.153-1.31.286-1.98.388a1.206 1.206 0 0 1 .127.521z" fill="#d2a555"></path><path d="m45.242 53.281a25.4 25.4 0 0 1 -3.342 1.708c-2.41 3.4-5.5 5.591-8.9 5.952v-3.163a1.762 1.762 0 0 1 .21-.821c-.4.018-.8.043-1.21.043s-.808-.025-1.21-.043a1.762 1.762 0 0 1 .21.821v3.163c-3.4-.361-6.493-2.552-8.9-5.952a25.4 25.4 0 0 1 -3.339-1.708c2.93 5.565 7.325 9.25 12.282 9.674.32.014.636.045.96.045s.64-.031.96-.045c4.954-.424 9.349-4.109 12.279-9.674z" fill="#d2a555"></path><path d="m26.147 56.313a3.145 3.145 0 0 0 -.147.909 2.781 2.781 0 0 0 2.777 2.778 1 1 0 0 0 0-2 .779.779 0 0 1 -.777-.778 1.206 1.206 0 0 1 .127-.521c-.67-.101-1.327-.235-1.98-.388z" fill="#d2a555"></path><path d="m39.949 33.882 2.762 1.824a7.528 7.528 0 0 0 1.531-1.385l-3.742-2.474a1 1 0 0 0 -1.107 0l-5.411 3.622a7.479 7.479 0 0 0 1.985 1.078z" fill="#f8ecbb"></path><ellipse cx="32" cy="11" fill="#edd28c" rx="4.5" ry="1"></ellipse><path d="m32 11c-2.243 0-4-2.416-4-5.5s1.757-5.5 4-5.5 4 2.416 4 5.5-1.757 5.5-4 5.5zm0-9c-.946 0-2 1.438-2 3.5s1.054 3.5 2 3.5 2-1.437 2-3.5-1.054-3.5-2-3.5z" fill="#e1be6e"></path><path d="m32 10c-1.683 0-3-1.977-3-4.5s1.317-4.5 3-4.5 3 1.977 3 4.5-1.317 4.5-3 4.5zm0-8c-1.084 0-2 1.6-2 3.5s.916 3.5 2 3.5 2-1.6 2-3.5-.916-3.5-2-3.5z" fill="#d2a555"></path></g></g></svg>