<!-- icon666.com - MILLIONS OF FREE VECTOR ICONS --><svg viewBox="0 0 64 64" xmlns="http://www.w3.org/2000/svg"><g id="_12-christmas_ball" data-name="12-christmas ball"><path d="m35 7h-6a1 1 0 0 1 -1-1c0-3.131 1.5-5 4-5s4 1.869 4 5a1 1 0 0 1 -1 1zm-4.933-2h3.866c-.3-2-1.5-2-1.933-2s-1.636 0-1.933 2z" fill="#ebd23f"></path><path d="m27 8h10v10h-10z" fill="#d4e5e6"></path><circle cx="32" cy="39" fill="#e0f2f3" r="24"></circle><path d="m32 47 7-4v-8l-7-4-7 4v8z" fill="#a8d7e4"></path><path d="m34 9-2 2-2-2v-4h4z" fill="#fcea81"></path><path d="m38 9-2 2-2-2v-4h3a1 1 0 0 1 1 1z" fill="#e0c62b"></path><path d="m30 9-2 2-2-2v-3a1 1 0 0 1 1-1h3z" fill="#e0c62b"></path><g fill="#84c4d6"><path d="m45.856 31a1 1 0 0 0 -1.366-.366l-1.845 1.066.112-1.733a1 1 0 0 0 -2-.129l-.2 3.064-1.6.925-5.957-3.407v-1.885l2.555-1.7a1 1 0 1 0 -1.11-1.664l-1.445.961v-2.132a1 1 0 0 0 -2 0v2.132l-1.445-.964a1 1 0 0 0 -1.11 1.664l2.555 1.703v1.885l-5.961 3.406-1.6-.925-.2-3.064a1 1 0 0 0 -2 .129l.112 1.733-1.841-1.065a1 1 0 0 0 -1 1.732l1.845 1.066-1.555.768a1 1 0 0 0 .887 1.793l2.752-1.361 1.563.9v6.928l-1.563.9-2.752-1.361a1 1 0 0 0 -.887 1.801l1.557.77-1.847 1.064a1 1 0 1 0 1 1.732l1.845-1.066-.112 1.733a1 1 0 0 0 .934 1.062h.065a1 1 0 0 0 1-.935l.2-3.064 1.6-.925 5.958 3.409v1.885l-2.555 1.7a1 1 0 0 0 1.11 1.664l1.445-.961v2.132a1 1 0 0 0 2 0v-2.132l1.445.964a1 1 0 1 0 1.11-1.664l-2.555-1.703v-1.885l5.961-3.406 1.6.925.2 3.064a1 1 0 0 0 1 .935h.065a1 1 0 0 0 .934-1.062l-.115-1.736 1.845 1.065a1 1 0 1 0 1-1.732l-1.845-1.066 1.555-.767a1 1 0 0 0 -.887-1.793l-2.752 1.361-1.561-.904v-6.928l1.563-.9 2.752 1.361a1 1 0 0 0 .885-1.797l-1.557-.77 1.845-1.066a1 1 0 0 0 .368-1.364zm-8.9 3.984-3.956 2.284v-4.545zm-5.956-2.261v4.545l-3.956-2.284zm-5 3.968 4 2.309-4 2.309zm1.044 6.325 3.956-2.284v4.545zm5.956 2.261v-4.545l3.956 2.284zm5-3.968-4-2.309 4-2.309z"></path><path d="m20 25h1v1a1 1 0 0 0 2 0v-1h1a1 1 0 0 0 0-2h-1v-1a1 1 0 0 0 -2 0v1h-1a1 1 0 0 0 0 2z"></path><path d="m16 38h-1v-1a1 1 0 0 0 -2 0v1h-1a1 1 0 0 0 0 2h1v1a1 1 0 0 0 2 0v-1h1a1 1 0 0 0 0-2z"></path><path d="m24 53h-1v-1a1 1 0 0 0 -2 0v1h-1a1 1 0 0 0 0 2h1v1a1 1 0 0 0 2 0v-1h1a1 1 0 0 0 0-2z"></path><path d="m40 25h1v1a1 1 0 0 0 2 0v-1h1a1 1 0 0 0 0-2h-1v-1a1 1 0 0 0 -2 0v1h-1a1 1 0 0 0 0 2z"></path><path d="m52 38h-1v-1a1 1 0 0 0 -2 0v1h-1a1 1 0 0 0 0 2h1v1a1 1 0 0 0 2 0v-1h1a1 1 0 0 0 0-2z"></path><path d="m44 53h-1v-1a1 1 0 0 0 -2 0v1h-1a1 1 0 0 0 0 2h1v1a1 1 0 0 0 2 0v-1h1a1 1 0 0 0 0-2z"></path><path d="m31 19h2v2h-2z"></path><path d="m31 57h2v2h-2z"></path><path d="m15 48h2v2h-2z"></path><path d="m15 28h2v2h-2z"></path><path d="m47 48h2v2h-2z"></path><path d="m47 28h2v2h-2z"></path></g><path d="m48.964 29a1.049 1.049 0 0 1 -.866-.448 21.193 21.193 0 0 0 -3.747-3.8.975.975 0 0 1 -.091-1.412 1.064 1.064 0 0 1 1.463-.088 22.813 22.813 0 0 1 4.105 4.2.978.978 0 0 1 -.293 1.386 1.063 1.063 0 0 1 -.571.162z" fill="#fff"></path><path d="m42 21h2v2h-2z" fill="#fff"></path></g></svg>