<!-- icon666.com - MILLIONS OF FREE VECTOR ICONS --><svg id="Layer_1" viewBox="0 0 64 64" xmlns="http://www.w3.org/2000/svg"><g><path d="m28 41c0-1.1-.9-2-2-2s-2 .9-2 2 .9 2 2 2 2-.9 2-2zm0-8c0-1.1-.9-2-2-2s-2 .9-2 2 .9 2 2 2 2-.9 2-2zm4 8v6h-5-16.91c-.71-2.21-1.09-4.56-1.09-7 0-6.84 2.99-12.99 7.74-17.19l7.26-.81v5l5-2 3 4v4z" fill="#4aa553"></path><path d="m36 14v3.36c-1.3-.24-2.64-.36-4-.36s-2.7.12-4 .36v-3.36l4-2z" fill="#e28d30"></path><path d="m38 7 1 5-3 2-4-2v-5h3z" fill="#f7a539"></path><path d="m32 7v5l-4 2-3-2 1-5h3z" fill="#ffcc3e"></path><path d="m28 17.36c1.3-.24 2.64-.36 4-.36s2.7.12 4 .36c4.28.74 8.15 2.68 11.26 5.45l-7.26-.81v5l-5-2-3 4-3-4-5 2v-5l-7.26.81c3.11-2.77 6.98-4.71 11.26-5.45z" fill="#e2bf88"></path><path d="m27 47v5h-14.62c-.95-1.55-1.73-3.23-2.29-5z" fill="#9c6127"></path><path d="m32 41v-8-4l3-4 5 2v-5l7.26.81c4.75 4.2 7.74 10.35 7.74 17.19 0 2.44-.38 4.79-1.09 7h-16.91-5zm4 0c0 1.1.9 2 2 2s2-.9 2-2-.9-2-2-2-2 .9-2 2zm0-8c0 1.1.9 2 2 2s2-.9 2-2-.9-2-2-2-2 .9-2 2z" fill="#009245"></path><path d="m37 47h16.91c-.56 1.77-1.34 3.45-2.29 5h-14.62z" fill="#9c6127"></path><path d="m37 47v5c0 1.1-.89 2-2 2h-5.99c-1.11 0-2.01-.9-2.01-2v-5h5z" fill="#f7a539"></path><path d="m32 63c-8.3 0-15.58-4.4-19.62-11h14.62c0 1.1.9 2 2.01 2h5.99c1.11 0 2-.9 2-2h14.62c-4.04 6.6-11.32 11-19.62 11z" fill="#d33"></path><circle cx="18.369" cy="27.297" fill="#009245" r="1"></circle><path d="m36 7h-2v-3c0-.532-.208-1.034-.587-1.413s-.881-.587-1.413-.587c-1.103 0-2 .897-2 2v3h-2v-3c0-2.206 1.794-4 4-4 1.066 0 2.071.416 2.827 1.173.757.756 1.173 1.761 1.173 2.827z" fill="#e28d30"></path><path d="m13.369 42.49c-.521 0-.961-.404-.997-.932-.285-4.192.768-8.283 3.046-11.83.299-.464.917-.6 1.383-.3.464.298.599.917.301 1.382-2.045 3.182-2.99 6.852-2.733 10.611.037.552-.379 1.028-.93 1.066-.024.002-.047.003-.07.003z" fill="#009245"></path><path d="m32 63c.336 0 .667-.019 1-.033v-3.247l2.316-.772c.523-.174.807-.74.632-1.265-.175-.523-.736-.808-1.265-.632l-2.683.895-2.684-.895c-.527-.176-1.09.108-1.265.632s.108 1.091.632 1.265l2.317.772v3.247c.333.014.664.033 1 .033z" fill="#b72929"></path><path d="m37 34h-10c-.553 0-1-.447-1-1s.447-1 1-1h10c.553 0 1 .447 1 1s-.447 1-1 1z" fill="#9c6127"></path><path d="m37 42h-10c-.553 0-1-.447-1-1s.447-1 1-1h10c.553 0 1 .447 1 1s-.447 1-1 1z" fill="#9c6127"></path><g fill="#f7a539"><circle cx="26" cy="33" r="2"></circle><circle cx="26" cy="41" r="2"></circle><circle cx="38" cy="41" r="2"></circle><circle cx="38" cy="33" r="2"></circle></g></g></svg>