<!-- icon666.com - MILLIONS OF FREE VECTOR ICONS --><svg viewBox="0 0 64 64" xmlns="http://www.w3.org/2000/svg"><g id="_25-christmas_ball" data-name="25-christmas ball"><path d="m35 7h-6a1 1 0 0 1 -1-1c0-3.131 1.5-5 4-5s4 1.869 4 5a1 1 0 0 1 -1 1zm-4.933-2h3.866c-.3-2-1.5-2-1.933-2s-1.636 0-1.933 2z" fill="#ebd23f"></path><path d="m27 8h10v10h-10z" fill="#d95952"></path><circle cx="32" cy="39" fill="#f5b3bd" r="24"></circle><g fill="#e36861"><path d="m42 37c0 5.523-10 13-10 13s-10-7.477-10-13 7-6 10-2c3-4 10-3.523 10 2z"></path><path d="m8.645 33.481a23.968 23.968 0 0 0 1.023 14.308c2.962-2.634 7.332-7.138 7.332-10.789 0-4.669-4.995-5.718-8.355-3.519z"></path><path d="m25 25c0 2.209-4 5-4 5s-4-2.791-4-5a2.121 2.121 0 0 1 4-1 2.121 2.121 0 0 1 4 1z"></path><path d="m25 51c0 2.209-4 5-4 5s-4-2.791-4-5a2.121 2.121 0 0 1 4-1 2.121 2.121 0 0 1 4 1z"></path><path d="m39 25c0 2.209 4 5 4 5s4-2.791 4-5a2.121 2.121 0 0 0 -4-1 2.121 2.121 0 0 0 -4 1z"></path><path d="m39 51c0 2.209 4 5 4 5s4-2.791 4-5a2.121 2.121 0 0 0 -4-1 2.121 2.121 0 0 0 -4 1z"></path><path d="m55.355 33.481c-3.355-2.199-8.355-1.15-8.355 3.519 0 3.651 4.37 8.155 7.332 10.789a23.968 23.968 0 0 0 1.023-14.308z"></path></g><path d="m34 9-2 2-2-2v-4h4z" fill="#fcea81"></path><path d="m38 9-2 2-2-2v-4h3a1 1 0 0 1 1 1z" fill="#e0c62b"></path><path d="m30 9-2 2-2-2v-3a1 1 0 0 1 1-1h3z" fill="#e0c62b"></path><path d="m30 25h1v1a1 1 0 0 0 2 0v-1h1a1 1 0 0 0 0-2h-1v-1a1 1 0 0 0 -2 0v1h-1a1 1 0 0 0 0 2z" fill="#e0f2f3"></path><path d="m34 55h-1v-1a1 1 0 0 0 -2 0v1h-1a1 1 0 0 0 0 2h1v1a1 1 0 0 0 2 0v-1h1a1 1 0 0 0 0-2z" fill="#e0f2f3"></path><path d="m48.964 29a1.049 1.049 0 0 1 -.866-.448 21.193 21.193 0 0 0 -3.747-3.8.975.975 0 0 1 -.091-1.412 1.064 1.064 0 0 1 1.463-.088 22.813 22.813 0 0 1 4.105 4.2.978.978 0 0 1 -.293 1.386 1.063 1.063 0 0 1 -.571.162z" fill="#f6f0e5"></path><path d="m42 21h2v2h-2z" fill="#f6f0e5"></path></g></svg>