<!-- icon666.com - MILLIONS OF FREE VECTOR ICONS --><svg id="_3flat_light" viewBox="0 0 64 64" xmlns="http://www.w3.org/2000/svg" data-name="3flat light"><path d="m28 12h8v6h-8z" fill="#e11b00"></path><circle cx="32" cy="40" fill="#e11b00" r="23"></circle><path d="m32 17h-.3c-18.636.242-19.41 28.455-.8 29.468q.549.03 1.105.03a20 20 0 0 0 19.895-18.024 22.985 22.985 0 0 0 -19.9-11.474z" fill="#ff2f13"></path><path d="m32 57a25.494 25.494 0 0 1 -22.812-14.107 22.994 22.994 0 0 0 45.624 0 25.494 25.494 0 0 1 -22.812 14.107z" fill="#be0000"></path><circle cx="38.5" cy="29.5" fill="#ff7341" r="7.5"></circle><g fill="#e1be6e"><path d="m41.05 35.05h9.899v9.899h-9.899z" transform="matrix(.707 -.707 .707 .707 -14.811 44.243)"></path><path d="m27.05 35.05h9.899v9.899h-9.899z" transform="matrix(.707 -.707 .707 .707 -18.912 34.343)"></path><path d="m13.05 35.05h9.899v9.899h-9.899z" transform="matrix(.707 -.707 .707 .707 -23.012 24.444)"></path><path d="m54.914 41.914c.053-.631.086-1.269.086-1.914s-.033-1.283-.086-1.914l-1.914 1.914z"></path><path d="m9.086 41.914 1.914-1.914-1.914-1.914c-.053.631-.086 1.269-.086 1.914s.033 1.283.086 1.914z"></path><path d="m12.62 27.62 5.38 5.38 7-7-5.38-5.38a23.116 23.116 0 0 0 -7 7z"></path></g><path d="m39 40 3.512 3.512a20.084 20.084 0 0 0 6.859-7.141l-3.371-3.371z" fill="#edd28c"></path><path d="m44.38 20.62-5.38 5.38 7 7 5.38-5.38a23.116 23.116 0 0 0 -7-7z" fill="#edd28c"></path><path d="m27.05 21.05h9.899v9.899h-9.899z" fill="#edd28c" transform="matrix(.707 -.707 .707 .707 -9.012 30.243)"></path><path d="m32 33-7 7 6.486 6.486c.171 0 .342.014.514.014s.349-.02.525-.025l6.475-6.475z" fill="#edd28c"></path><path d="m42.087 22.913-3.087 3.087 6.413 6.413a7.506 7.506 0 0 0 -3.326-9.5z" fill="#f8ecbb"></path><path d="m39 26-3.413-3.413a7.484 7.484 0 0 0 -3.84 10.16l.253.253z" fill="#f8ecbb"></path><path d="m18 33-.58.58a14.491 14.491 0 0 0 4.592 9.408l2.988-2.988z" fill="#edd28c"></path><path d="m25 26-4.143-4.143a15.686 15.686 0 0 0 -3.517 10.483l.66.66z" fill="#edd28c"></path><path d="m31.913 33.087a7.52 7.52 0 0 0 3.34 3.166l-3.253-3.253z" fill="#f8ecbb"></path><path d="m51.38 52.38-5.38-5.38-7 7 5.38 5.38a23.116 23.116 0 0 0 7-7z" fill="#d2a555"></path><path d="m27.05 49.05h9.899v9.899h-9.899z" fill="#d2a555" transform="matrix(.707 -.707 .707 .707 -28.811 38.444)"></path><path d="m12.62 52.38a23.116 23.116 0 0 0 7 7l5.38-5.38-7-7z" fill="#d2a555"></path><path d="m27.5 11h3a0 0 0 0 1 0 0v2.25a1.5 1.5 0 0 1 -1.5 1.5 1.5 1.5 0 0 1 -1.5-1.5v-2.25a0 0 0 0 1 0 0z" fill="#d2a555"></path><path d="m30.5 11h3a0 0 0 0 1 0 0v2.25a1.5 1.5 0 0 1 -1.5 1.5 1.5 1.5 0 0 1 -1.5-1.5v-2.25a0 0 0 0 1 0 0z" fill="#e1be6e"></path><path d="m33.5 11h3a0 0 0 0 1 0 0v2.25a1.5 1.5 0 0 1 -1.5 1.5 1.5 1.5 0 0 1 -1.5-1.5v-2.25a0 0 0 0 1 0 0z" fill="#d2a555"></path><path d="m49.253 50.253-3.253-3.253-7 7 1.527 1.527a25.457 25.457 0 0 0 8.726-5.274z" fill="#e1be6e"></path><path d="m32 57a25.541 25.541 0 0 0 4.393-.393l2.607-2.607-7-7-7 7 2.607 2.607a25.541 25.541 0 0 0 4.393.393z" fill="#e1be6e"></path><path d="m25 54-7-7-3.253 3.253a25.457 25.457 0 0 0 8.726 5.274z" fill="#e1be6e"></path><ellipse cx="32" cy="11" fill="#edd28c" rx="4.5" ry="1"></ellipse><path d="m32 11c-2.243 0-4-2.416-4-5.5s1.757-5.5 4-5.5 4 2.416 4 5.5-1.757 5.5-4 5.5zm0-9c-.946 0-2 1.438-2 3.5s1.054 3.5 2 3.5 2-1.437 2-3.5-1.054-3.5-2-3.5z" fill="#e1be6e"></path><path d="m32 10c-1.683 0-3-1.977-3-4.5s1.317-4.5 3-4.5 3 1.977 3 4.5-1.317 4.5-3 4.5zm0-8c-1.084 0-2 1.6-2 3.5s.916 3.5 2 3.5 2-1.6 2-3.5-.916-3.5-2-3.5z" fill="#d2a555"></path></svg>