<!-- icon666.com - MILLIONS OF FREE VECTOR ICONS --><svg id="_3flat_light" viewBox="0 0 64 64" xmlns="http://www.w3.org/2000/svg" data-name="3flat light"><circle cx="32.041" cy="40" fill="#dfeaf0" r="23"></circle><path d="m32 17h-.3c-18.636.242-19.41 28.455-.8 29.468q.549.03 1.105.03a20 20 0 0 0 19.895-18.024 22.985 22.985 0 0 0 -19.9-11.474z" fill="#f0f5f9"></path><circle cx="38.5" cy="29.5" fill="#fff" r="7.5"></circle><path d="m32 57a25.494 25.494 0 0 1 -22.812-14.107 22.994 22.994 0 0 0 45.624 0 25.494 25.494 0 0 1 -22.812 14.107z" fill="#bed7e1"></path><path d="m51.87 28.351-4.829 11.711 4.859 11.538a22.985 22.985 0 0 0 -.029-23.251z" fill="#e11b00"></path><path d="m42.015 28-4.974 12.062 5.026 11.938 4.974-12.062z" fill="#177537"></path><path d="m46.962 39.751-4.947-11.751-4.974 12.062 2.147 5.1a20.012 20.012 0 0 0 7.774-5.411z" fill="#1b8c4b"></path><path d="m44.523 33.956-2.508-5.956-3.707 8.99c.064 0 .127.01.192.01a7.482 7.482 0 0 0 6.023-3.044z" fill="#4fd278"></path><path d="m32.015 28-4.974 12.062 5.026 11.938 4.974-12.062z" fill="#e11b00"></path><path d="m32.015 28-4.974 12.062 2.646 6.284c.4.049.792.1 1.208.124q.549.03 1.105.03a20.029 20.029 0 0 0 2.4-.16l2.64-6.4z" fill="#ff2f13"></path><path d="m31.05 30.341a7.506 7.506 0 0 0 4.5 6.055l-3.535-8.396z" fill="#ff7341"></path><path d="m22.016 28-4.975 12.062 5.026 11.938 4.974-12.062z" fill="#177537"></path><path d="m22.016 28-3.8 9.209a13.369 13.369 0 0 0 6.743 7.774l2.08-5.045z" fill="#1b8c4b"></path><path d="m12.183 28.4a22.983 22.983 0 0 0 .029 23.25l4.829-11.71z" fill="#e11b00"></path><circle cx="32" cy="40" fill="#edd28c" r="1"></circle><circle cx="42" cy="40" fill="#edd28c" r="1"></circle><circle cx="12" cy="40" fill="#e1be6e" r="1"></circle><circle cx="22" cy="40" fill="#edd28c" r="1"></circle><circle cx="52" cy="40" fill="#e1be6e" r="1"></circle><path d="m35 14 6.03-9.8a6.727 6.727 0 0 1 5.728-3.2 6.725 6.725 0 0 1 4.035 1.345l3.807 2.855a6 6 0 0 1 2.4 4.8h-5.132a29.994 29.994 0 0 0 -9.487 1.54z" fill="#177537"></path><path d="m35 17v-3l7.381-2.46a29.994 29.994 0 0 1 9.487-1.54h5.132v6.394a11.91 11.91 0 0 1 -2 6.606 10.855 10.855 0 0 0 -9.708-6z" fill="#e11b00"></path><path d="m35 19 10.126 3.116a20.006 20.006 0 0 0 5.881.884h3.993a10.855 10.855 0 0 0 -9.708-6h-10.292z" fill="#177537"></path><path d="m29 14-6.03-9.8a6.727 6.727 0 0 0 -5.728-3.2 6.725 6.725 0 0 0 -4.035 1.345l-3.807 2.855a6 6 0 0 0 -2.4 4.8h5.132a29.994 29.994 0 0 1 9.487 1.54z" fill="#177537"></path><path d="m29 17v-3l-7.381-2.46a29.994 29.994 0 0 0 -9.487-1.54h-5.132v6.394a11.91 11.91 0 0 0 2 6.606 10.855 10.855 0 0 1 9.708-6z" fill="#e11b00"></path><path d="m29 19-10.126 3.116a20.006 20.006 0 0 1 -5.881.884h-3.993a10.855 10.855 0 0 1 9.708-6h10.292z" fill="#177537"></path><path d="m35 19a5.409 5.409 0 0 1 -6 0v-8h6z" fill="#ff2f13"></path><path d="m27.5 11h3a0 0 0 0 1 0 0v2.25a1.5 1.5 0 0 1 -1.5 1.5 1.5 1.5 0 0 1 -1.5-1.5v-2.25a0 0 0 0 1 0 0z" fill="#d2a555"></path><path d="m30.5 11h3a0 0 0 0 1 0 0v2.25a1.5 1.5 0 0 1 -1.5 1.5 1.5 1.5 0 0 1 -1.5-1.5v-2.25a0 0 0 0 1 0 0z" fill="#e1be6e"></path><path d="m33.5 11h3a0 0 0 0 1 0 0v2.25a1.5 1.5 0 0 1 -1.5 1.5 1.5 1.5 0 0 1 -1.5-1.5v-2.25a0 0 0 0 1 0 0z" fill="#d2a555"></path><path d="m54.845 43.01c-.012-.039-.02-.078-.033-.117a25.544 25.544 0 0 1 -4.093 5.907l1.18 2.8a22.88 22.88 0 0 0 2.946-8.59z" fill="#be0000"></path><path d="m13.356 48.875a25.559 25.559 0 0 1 -4.114-5.883 22.865 22.865 0 0 0 2.97 8.656z" fill="#be0000"></path><path d="m48.124 40.058 4.365-10.584q-.52-1.01-1.135-1.958a.984.984 0 0 0 -.409.454l-3.888 9.43-4.12-9.787a1 1 0 0 0 -.921-.613 1 1 0 0 0 -.921.619l-4.038 9.781-4.12-9.787a1 1 0 0 0 -.921-.613 1 1 0 0 0 -.921.619l-4.038 9.781-4.12-9.787a1 1 0 0 0 -.921-.613 1 1 0 0 0 -.921.619l-4.038 9.781-3.952-9.39a.975.975 0 0 0 -.407-.448q-.61.948-1.128 1.956l4.388 10.424-4.365 10.584q.524 1.015 1.143 1.97a1 1 0 0 0 .4-.466l3.889-9.43 4.121 9.787a1 1 0 0 0 .921.612 1 1 0 0 0 .921-.619l4.037-9.78 4.12 9.786a1 1 0 0 0 .921.612 1 1 0 0 0 .921-.619l4.034-9.78 4.12 9.787a1 1 0 0 0 .921.612 1 1 0 0 0 .921-.619l4.034-9.78 3.953 9.389a.982.982 0 0 0 .4.46q.615-.953 1.137-1.969zm-26.066 9.342-3.934-9.342 3.9-9.458 3.933 9.342zm10 0-3.933-9.342 3.9-9.458 3.933 9.342zm10 0-3.933-9.342 3.9-9.458 3.933 9.342z" fill="#e1be6e"></path><path d="m51.9 28.474c-.009-.023-.02-.044-.029-.067-.174-.3-.331-.6-.517-.891a.984.984 0 0 0 -.409.454l-3.888 9.43-4.12-9.787a1 1 0 0 0 -.921-.613 1 1 0 0 0 -.921.619l-4.038 9.781-4.12-9.787a1 1 0 0 0 -.921-.613 1 1 0 0 0 -.921.619l-4.038 9.781-4.12-9.787a1 1 0 0 0 -.921-.613 1 1 0 0 0 -.921.619l-3.324 8.06a15.226 15.226 0 0 0 .986 2.855l3.268-7.934 3.933 9.342-1.878 4.558a13.405 13.405 0 0 0 1.8.888l1.145-2.788 1.5 3.555a16.808 16.808 0 0 0 2.3.305l-2.7-6.4 3.9-9.458 3.933 9.342-2.68 6.5a19.781 19.781 0 0 0 2.273-.264l1.474-3.58 1.214 2.885a19.621 19.621 0 0 0 1.867-.72l-1.982-4.708 3.9-9.458 3.933 9.342-.586 1.422a19.953 19.953 0 0 0 6.529-12.889z" fill="#edd28c"></path><path d="m13.137 52.03.978-2.372c-.523-.516-1.02-1.058-1.5-1.617l-1.025 2.485q.524 1.015 1.143 1.97a1 1 0 0 0 .404-.466z" fill="#d2a555"></path><path d="m51.451 47.959c-.474.56-.969 1.1-1.489 1.619l1.016 2.412a.982.982 0 0 0 .4.46q.615-.953 1.137-1.969z" fill="#d2a555"></path><path d="m32.937 27.612a1 1 0 0 0 -.921-.612.99.99 0 0 0 -.678.282 7.448 7.448 0 0 0 .108 4.733l.583-1.415 2.1 4.981a7.464 7.464 0 0 0 2.683 1.22z" fill="#f8ecbb"></path><path d="m42.016 27a1 1 0 0 0 -.921.619l-3.828 9.271a7.478 7.478 0 0 0 1.233.11 7.384 7.384 0 0 0 .91-.061l2.615-6.339 1.775 4.209a7.53 7.53 0 0 0 1.374-1.892l-2.234-5.305a1 1 0 0 0 -.924-.612z" fill="#f8ecbb"></path><ellipse cx="32" cy="11" fill="#edd28c" rx="4.5" ry="1"></ellipse><path d="m32 11c-2.243 0-4-2.416-4-5.5s1.757-5.5 4-5.5 4 2.416 4 5.5-1.757 5.5-4 5.5zm0-9c-.946 0-2 1.438-2 3.5s1.054 3.5 2 3.5 2-1.437 2-3.5-1.054-3.5-2-3.5z" fill="#e1be6e"></path><path d="m32 10c-1.683 0-3-1.977-3-4.5s1.317-4.5 3-4.5 3 1.977 3 4.5-1.317 4.5-3 4.5zm0-8c-1.084 0-2 1.6-2 3.5s.916 3.5 2 3.5 2-1.6 2-3.5-.916-3.5-2-3.5z" fill="#d2a555"></path></svg>