<!-- icon666.com - MILLIONS OF FREE VECTOR ICONS --><svg id="_3flat_light" viewBox="0 0 64 64" xmlns="http://www.w3.org/2000/svg" data-name="3flat light"><path d="m51.745 28.2a23 23 0 0 0 -39.491 0v23.6a23 23 0 0 0 39.491 0z" fill="#e11b00"></path><path d="m28 12h8v6h-8z" fill="#e11b00"></path><path d="m32 17h-.3c-18.636.242-19.41 28.455-.8 29.468q.549.03 1.105.03a20 20 0 0 0 19.895-18.024 22.985 22.985 0 0 0 -19.9-11.474z" fill="#ff2f13"></path><path d="m51.746 51.794v-4.183a25.458 25.458 0 0 1 -39.491 0v4.189a23 23 0 0 0 39.491 0z" fill="#be0000"></path><circle cx="38.5" cy="29.5" fill="#ff7341" r="7.5"></circle><path d="m51.745 28.2c-.9 1.342-1.548 3.1-3.249 3.1-2.749 0-2.749-4.6-5.5-4.6s-2.749 4.6-5.5 4.6-2.75-4.6-5.5-4.6-2.748 4.6-5.5 4.6-2.751-4.6-5.5-4.6-2.753 4.6-5.506 4.6c-1.7 0-2.347-1.752-3.242-3.094a23 23 0 0 0 0 23.59c.9-1.342 1.548-3.1 3.249-3.1 2.749 0 2.749 4.6 5.5 4.6s2.749-4.6 5.5-4.6 2.75 4.6 5.5 4.6 2.748-4.6 5.5-4.6 2.751 4.6 5.5 4.6 2.753-4.6 5.506-4.6c1.7 0 2.347 1.752 3.242 3.094a23 23 0 0 0 0-23.59z" fill="#dfeaf0"></path><path d="m30.9 46.47q.549.03 1.105.03a20 20 0 0 0 19.895-18.026c-.051-.089-.109-.172-.162-.26-.894 1.341-1.546 3.086-3.238 3.086-2.749 0-2.749-4.6-5.5-4.6s-2.749 4.6-5.5 4.6-2.75-4.6-5.5-4.6-2.748 4.6-5.5 4.6-2.751-4.6-5.5-4.6c-1.91 0-2.5 2.211-3.593 3.567-.742 7.571 3.675 15.669 13.493 16.203z" fill="#f0f5f9"></path><path d="m43 26.7c-2.749 0-2.749 4.6-5.5 4.6s-2.75-4.6-5.5-4.6a2.235 2.235 0 0 0 -.473.05 7.5 7.5 0 1 0 14.473 2.75c0-.03 0-.059-.005-.089-.78-1.269-1.458-2.711-2.995-2.711z" fill="#fff"></path><path d="m12.27 51.772a15.206 15.206 0 0 1 1.611-2.355 25.575 25.575 0 0 1 -4.693-6.524 22.828 22.828 0 0 0 3.082 8.879z" fill="#bed7e1"></path><path d="m50.121 49.414a14.98 14.98 0 0 1 1.61 2.356 22.823 22.823 0 0 0 3.081-8.877 25.552 25.552 0 0 1 -4.691 6.521z" fill="#bed7e1"></path><path d="m49.713 40 4.387-6.377q-.312-1.086-.727-2.126a.972.972 0 0 0 -.48.353l-4.393 6.385-4.676-6.8a1.037 1.037 0 0 0 -1.648 0l-4.676 6.8-4.676-6.8a1.037 1.037 0 0 0 -1.648 0l-4.676 6.8-4.676-6.8a1.037 1.037 0 0 0 -1.648 0l-4.676 6.8-4.39-6.385a.968.968 0 0 0 -.48-.353q-.414 1.039-.727 2.126l4.384 6.377-4.387 6.377q.312 1.084.726 2.124a.96.96 0 0 0 .481-.351l4.39-6.385 4.676 6.8a1 1 0 0 0 1.648 0l4.676-6.8 4.676 6.8a1 1 0 0 0 1.648 0l4.676-6.8 4.676 6.8a1 1 0 0 0 1.648 0l4.676-6.8 4.39 6.385a.96.96 0 0 0 .481.351q.413-1.038.726-2.124zm-28.713 6.235-4.287-6.235 4.287-6.235 4.287 6.235zm11 0-4.287-6.235 4.287-6.235 4.287 6.235zm11 0-4.287-6.235 4.287-6.235 4.287 6.235z" fill="#e1be6e"></path><path d="m11.11 48.15.728-1.058c-.435-.561-.841-1.145-1.229-1.743l-.709 1.028q.312 1.084.726 2.124a.96.96 0 0 0 .484-.351z" fill="#d2a555"></path><path d="m53.371 48.5q.413-1.038.726-2.124l-.706-1.028c-.388.6-.794 1.182-1.229 1.743l.728 1.058a.96.96 0 0 0 .481.351z" fill="#d2a555"></path><path d="m43.824 31.434a1.037 1.037 0 0 0 -1.648 0l-4.676 6.8-4.676-6.8a1.037 1.037 0 0 0 -1.648 0l-4.676 6.8-4.676-6.8a1.037 1.037 0 0 0 -1.648 0l-2.529 3.678a15.59 15.59 0 0 0 .714 2.491l2.639-3.838 4.287 6.235-2.5 3.633a12.924 12.924 0 0 0 1.68 1.087l2.033-2.955 3.146 4.577c.41.052.819.105 1.249.128q.549.03 1.105.03a20.25 20.25 0 0 0 2.35-.152l3.15-4.583 2.191 3.187a19.856 19.856 0 0 0 1.824-.877l-2.802-4.075 4.287-6.235 4.046 5.885a19.851 19.851 0 0 0 1.292-1.65zm-11.824 14.801-4.287-6.235 4.287-6.235 4.287 6.235z" fill="#edd28c"></path><path d="m32.824 31.434a1.029 1.029 0 0 0 -1.578-.059 7.5 7.5 0 0 0 5.205 5.335z" fill="#f8ecbb"></path><path d="m42.176 31.434-3.822 5.559c.049 0 .1.007.146.007a7.455 7.455 0 0 0 2.6-.473l1.9-2.762.748 1.088a7.522 7.522 0 0 0 1.28-1.668l-1.2-1.751a1.037 1.037 0 0 0 -1.652 0z" fill="#f8ecbb"></path><path d="m27.5 11h3a0 0 0 0 1 0 0v2.25a1.5 1.5 0 0 1 -1.5 1.5 1.5 1.5 0 0 1 -1.5-1.5v-2.25a0 0 0 0 1 0 0z" fill="#d2a555"></path><path d="m30.5 11h3a0 0 0 0 1 0 0v2.25a1.5 1.5 0 0 1 -1.5 1.5 1.5 1.5 0 0 1 -1.5-1.5v-2.25a0 0 0 0 1 0 0z" fill="#e1be6e"></path><path d="m33.5 11h3a0 0 0 0 1 0 0v2.25a1.5 1.5 0 0 1 -1.5 1.5 1.5 1.5 0 0 1 -1.5-1.5v-2.25a0 0 0 0 1 0 0z" fill="#d2a555"></path><ellipse cx="32" cy="11" fill="#edd28c" rx="4.5" ry="1"></ellipse><path d="m32 11c-2.243 0-4-2.416-4-5.5s1.757-5.5 4-5.5 4 2.416 4 5.5-1.757 5.5-4 5.5zm0-9c-.946 0-2 1.438-2 3.5s1.054 3.5 2 3.5 2-1.437 2-3.5-1.054-3.5-2-3.5z" fill="#e1be6e"></path><path d="m32 10c-1.683 0-3-1.977-3-4.5s1.317-4.5 3-4.5 3 1.977 3 4.5-1.317 4.5-3 4.5zm0-8c-1.084 0-2 1.6-2 3.5s.916 3.5 2 3.5 2-1.6 2-3.5-.916-3.5-2-3.5z" fill="#d2a555"></path></svg>