<!-- icon666.com - MILLIONS OF FREE VECTOR ICONS --><svg id="_3flat_light" viewBox="0 0 64 64" xmlns="http://www.w3.org/2000/svg" data-name="3flat light"><path d="m28 12h8v6h-8z" fill="#e11b00"></path><circle cx="32" cy="40" fill="#ffc8b8" r="23"></circle><path d="m32 17h-.3c-18.636.242-19.41 28.455-.8 29.468q.549.03 1.105.03a20 20 0 0 0 19.895-18.024 22.985 22.985 0 0 0 -19.9-11.474z" fill="#ffdcc8"></path><circle cx="38.5" cy="29.5" fill="#ffede5" r="7.5"></circle><path d="m32 57a25.494 25.494 0 0 1 -22.812-14.107 22.994 22.994 0 0 0 45.624 0 25.494 25.494 0 0 1 -22.812 14.107z" fill="#fab496"></path><path d="m50.99 27.026a23 23 0 0 0 -37.98 0 90.546 90.546 0 0 1 37.98 0z" fill="#e11b00"></path><path d="m18.4 26.048a90.532 90.532 0 0 1 32.58.975 22.961 22.961 0 0 0 -18.98-10.023h-.3a13.784 13.784 0 0 0 -13.3 9.048z" fill="#ff2f13"></path><path d="m13.01 27.026a22.9 22.9 0 0 0 -3.179 6.849 86.961 86.961 0 0 1 44.338 0 22.9 22.9 0 0 0 -3.179-6.849 90.546 90.546 0 0 0 -37.98 0z" fill="#dfeaf0"></path><path d="m18.4 26.048a16.445 16.445 0 0 0 -1.057 6.212 86.744 86.744 0 0 1 33.526.823 19.825 19.825 0 0 0 1.031-4.609c-.288-.5-.6-.979-.924-1.451a90.532 90.532 0 0 0 -32.576-.975z" fill="#f0f5f9"></path><circle cx="23" cy="38" fill="#dfeaf0" r="2"></circle><path d="m23 41a3 3 0 1 1 3-3 3 3 0 0 1 -3 3zm0-4a1 1 0 1 0 1 1 1 1 0 0 0 -1-1z" fill="#284250"></path><path d="m47.033 47s-.122.367-.282.844a3.164 3.164 0 0 1 -2.985 2.161h-.074a3.037 3.037 0 0 1 -3.019-2.6l-.026-.176a4.961 4.961 0 0 0 -4.967-4.249l-1.647.02-2.016 4.033-2.017-4.033-1.647-.02a4.961 4.961 0 0 0 -4.967 4.249l-.026.176a3.037 3.037 0 0 1 -3.019 2.6h-.074a3.164 3.164 0 0 1 -2.985-2.161c-.16-.477-.282-.844-.282-.844a7.318 7.318 0 0 0 6.986 9.5 8.359 8.359 0 0 0 7.374-4.424l.657-1.232.656 1.232a8.359 8.359 0 0 0 7.374 4.424 7.318 7.318 0 0 0 6.986-9.5z" fill="#dfeaf0"></path><path d="m30.9 46.47c.282.015.567.02.852.023l-1.752-3.493-1.647-.02a4.949 4.949 0 0 0 -3.843 1.764 15.043 15.043 0 0 0 6.39 1.726z" fill="#f0f5f9"></path><path d="m39.683 44.956a4.945 4.945 0 0 0 -4-1.976l-1.65.02-1.743 3.486a19.883 19.883 0 0 0 7.393-1.53z" fill="#f0f5f9"></path><path d="m17.429 52.41a7.289 7.289 0 0 0 6.557 4.09 8.292 8.292 0 0 0 1.939-.244 25.34 25.34 0 0 1 -8.496-3.846z" fill="#bed7e1"></path><path d="m38.09 56.253a8.34 8.34 0 0 0 1.957.247 7.288 7.288 0 0 0 6.574-4.124 25.359 25.359 0 0 1 -8.531 3.877z" fill="#bed7e1"></path><circle cx="32" cy="45" fill="#e11b00" r="5"></circle><path d="m32 40a5 5 0 0 0 -5 5 4.907 4.907 0 0 0 .081.8 16.132 16.132 0 0 0 3.814.67q.549.03 1.105.03a19.987 19.987 0 0 0 4.912-.629 4.941 4.941 0 0 0 -4.912-5.871z" fill="#ff2f13"></path><path d="m27.5 11h3a0 0 0 0 1 0 0v2.25a1.5 1.5 0 0 1 -1.5 1.5 1.5 1.5 0 0 1 -1.5-1.5v-2.25a0 0 0 0 1 0 0z" fill="#d2a555"></path><path d="m30.5 11h3a0 0 0 0 1 0 0v2.25a1.5 1.5 0 0 1 -1.5 1.5 1.5 1.5 0 0 1 -1.5-1.5v-2.25a0 0 0 0 1 0 0z" fill="#e1be6e"></path><path d="m33.5 11h3a0 0 0 0 1 0 0v2.25a1.5 1.5 0 0 1 -1.5 1.5 1.5 1.5 0 0 1 -1.5-1.5v-2.25a0 0 0 0 1 0 0z" fill="#d2a555"></path><path d="m31 29.5a7.54 7.54 0 0 0 .158 1.535 86.692 86.692 0 0 1 14.372 1.058 7.441 7.441 0 0 0 -.4-6.1 90.4 90.4 0 0 0 -12.648-.954 7.451 7.451 0 0 0 -1.482 4.461z" fill="#fff"></path><path d="m45.12 25.978a7.489 7.489 0 0 0 -12.62-.959 90.519 90.519 0 0 1 12.62.959z" fill="#ff7341"></path><circle cx="41" cy="38" fill="#dfeaf0" r="2"></circle><path d="m41 41a3 3 0 1 1 3-3 3 3 0 0 1 -3 3zm0-4a1 1 0 1 0 1 1 1 1 0 0 0 -1-1z" fill="#284250"></path><path d="m41 35a3 3 0 0 0 -2.811 1.984c.1 0 .206.016.311.016a7.461 7.461 0 0 0 4.315-1.372 2.968 2.968 0 0 0 -1.815-.628z" fill="#698291"></path><ellipse cx="32" cy="11" fill="#edd28c" rx="4.5" ry="1"></ellipse><path d="m32 11c-2.243 0-4-2.416-4-5.5s1.757-5.5 4-5.5 4 2.416 4 5.5-1.757 5.5-4 5.5zm0-9c-.946 0-2 1.438-2 3.5s1.054 3.5 2 3.5 2-1.437 2-3.5-1.054-3.5-2-3.5z" fill="#e1be6e"></path><path d="m32 10c-1.683 0-3-1.977-3-4.5s1.317-4.5 3-4.5 3 1.977 3 4.5-1.317 4.5-3 4.5zm0-8c-1.084 0-2 1.6-2 3.5s.916 3.5 2 3.5 2-1.6 2-3.5-.916-3.5-2-3.5z" fill="#d2a555"></path></svg>