<!-- icon666.com - MILLIONS OF FREE VECTOR ICONS --><svg id="Layer_1" enable-background="new 0 0 512 512" viewBox="0 0 512 512" xmlns="http://www.w3.org/2000/svg"><g><g><path d="m409.5 208.5h-153.5l-48.64 26.034v108.966l48.64 45h153.5c24.853 0 45-20.147 45-45v-90c0-24.853-20.147-45-45-45z" fill="#fff1d4"></path><path d="m237.36 253.5c0-16.287 6.213-32.574 18.64-45h-153.5c-24.853 0-45 20.147-45 45v90c0 24.853 20.147 45 45 45h153.5c-12.426-12.426-18.64-28.713-18.64-45z" fill="#fce3a0"></path></g><g><path d="m474.5 343.5h-237.14l-49.708 30.878 67.63 99.122h115.718c43.24 0 79.352-30.228 88.017-70.527h15.483c16.568 0 30-13.314 30-29.737s-13.432-29.736-30-29.736z" fill="#ffb39d"></path><path d="m237.653 402.973c-17.902-17.745-18.194-41.729-.292-59.473h-199.861c-16.569 0-30 13.313-30 29.737 0 16.423 13.431 29.737 30 29.737h15.483c8.665 40.298 44.777 70.526 88.017 70.526h183.652c-43.24 0-78.335-30.228-86.999-70.527z" fill="#ff8f71"></path></g><g><path d="m399.241 217.921c-15.168-15.168-58.257-58.257-76.331-76.331-13.408-13.408-32.86-17.077-49.585-11.025l-52.292-77.601v-.001h-18.81v64.675l42.765 41.242c-6.07 16.733-2.406 36.202 11.012 49.62h6.847c24.853 0 45 20.147 45 45v6.847c25.238 25.238 66.156 25.238 91.394 0 11.716-11.716 11.716-30.711 0-42.426z" fill="#9ea2e3"></path><path d="m221.033 52.964c-7.293-9.065-18.288-14.464-29.912-14.464-21.056 0-38.186 17.13-38.186 38.186 0 11.623 5.198 22.472 14.263 29.765.097.077.196.151.299.22l77.49 52.209c-25.13-29.06-34.16-68.874-23.954-105.916z" fill="#8288cb"></path></g><g><g><g><ellipse cx="104.491" cy="303.529" fill="#ff8e9e" rx="23.047" ry="28.941" transform="matrix(.005 -1 1 .005 -199.5 406.666)"></ellipse></g><g><ellipse cx="261.361" cy="304.228" fill="#ff8e9e" rx="23.047" ry="28.941" transform="matrix(.005 -1 1 .005 -44.027 564.232)"></ellipse></g></g></g><g><path d="m474.5 336h-12.5v-32.5c0-4.142-3.357-7.5-7.5-7.5s-7.5 3.358-7.5 7.5v32.5h-382v-82.5c0-20.678 16.822-37.5 37.5-37.5h160.347c20.678 0 37.5 16.822 37.5 37.5v26.847c0 4.142 3.357 7.5 7.5 7.5s7.5-3.358 7.5-7.5v-4.533c27.99 17.481 65.123 13.911 89.198-10.164 13.749-13.751 14.417-35.132 2.99-49.65h1.965c20.678 0 37.5 16.822 37.5 37.5v20c0 4.142 3.357 7.5 7.5 7.5s7.5-3.358 7.5-7.5v-20c0-28.949-23.552-52.5-52.5-52.5h-16.572l-64.714-64.713c-13.561-13.561-33.334-18.951-51.752-14.487-.283-.421-49.268-73.142-49.585-73.538-8.827-10.97-21.859-17.262-35.756-17.262-25.191 0-45.686 20.495-45.686 45.686 0 15.908 8.66 29.98 17.872 36.206l72.911 49.124c-3.216 13.226-1.347 27.157 4.984 38.985h-138.702c-28.948-.001-52.5 23.55-52.5 52.499v82.5h-12.5c-20.678 0-37.5 16.704-37.5 37.237 0 20.532 16.822 37.236 37.5 37.236h9.636c3.383 11.908 9.113 23.224 16.771 33.023 2.552 3.264 7.265 3.841 10.527 1.291 3.264-2.551 3.842-7.264 1.291-10.528-5.584-7.145-9.954-15.241-12.882-23.786h70.14c4.143 0 7.5-3.358 7.5-7.5s-3.357-7.5-7.5-7.5c-11.501 0-83.199 0-95.483 0-12.406 0-22.5-9.975-22.5-22.236s10.094-22.237 22.5-22.237h437c12.406 0 22.5 9.976 22.5 22.237s-10.094 22.236-22.5 22.236c-13.456 0-89.954 0-105.483 0-4.143 0-7.5 3.358-7.5 7.5s3.357 7.5 7.5 7.5h80.13c-11.183 32.666-42.651 55.527-78.147 55.527h-230c-16.09 0-31.677-4.587-45.076-13.265-3.478-2.25-8.12-1.257-10.372 2.219-2.252 3.477-1.259 8.121 2.218 10.372 15.834 10.254 34.241 15.674 53.23 15.674h230c43.816 0 82.058-28.979 93.85-70.527h9.65c20.678 0 37.5-16.704 37.5-37.236 0-20.533-16.822-37.237-37.5-37.237zm-222.462-174.563c1.173-3.235-.006-6.854-2.86-8.777l-77.377-52.134c-7.225-5.862-11.365-14.544-11.365-23.841 0-16.92 13.766-30.686 30.686-30.686 9.233 0 17.919 4.163 23.879 11.431l52.105 77.325c1.922 2.853 5.539 4.031 8.771 2.861 14.479-5.24 30.856-1.597 41.73 9.276 65.257 65.257 72.435 72.436 76.33 76.331 8.773 8.773 8.773 23.047 0 31.82-21.709 21.71-56.261 22.21-78.591 2.08v-3.623c0-28.949-23.552-52.5-52.5-52.5h-3.574c-9.284-10.815-12.146-26.021-7.234-39.563z"></path><path d="m244.617 268.875c-4.126 0-7.48 3.336-7.499 7.466l-.021 4.787c-.019 4.142 3.324 7.515 7.467 7.534h.034c4.126 0 7.48-3.336 7.499-7.466l.021-4.787c.019-4.142-3.324-7.515-7.467-7.534-.01 0-.022 0-.034 0z"></path><path d="m121.48 268.326c-4.126 0-7.48 3.336-7.499 7.466l-.021 4.787c-.019 4.142 3.324 7.515 7.467 7.534h.034c4.126 0 7.48-3.336 7.499-7.466l.021-4.787c.019-4.142-3.324-7.515-7.467-7.534-.01 0-.022 0-.034 0z"></path><path d="m183.629 260.225c-4.143 0-7.5 3.358-7.5 7.5s3.357 7.5 7.5 7.5c4.703 0 4.705 7.12 0 7.12-4.143 0-7.5 3.358-7.5 7.5s3.357 7.5 7.5 7.5c4.703 0 4.706 7.119 0 7.119-4.143 0-7.5 3.358-7.5 7.5s3.357 7.5 7.5 7.5c15.185 0 23.997-17.38 14.869-29.619 9.112-12.219.336-29.62-14.869-29.62z"></path></g></g></svg>