<!-- icon666.com - MILLIONS OF FREE VECTOR ICONS --><svg id="Capa_1" enable-background="new 0 0 512 512" viewBox="0 0 512 512" xmlns="http://www.w3.org/2000/svg"><g><g><g><path d="m159.215 411.601h170.757v64.755h-170.757z" fill="#d7d0d6"></path><path d="m322.785 411.601h30v64.755h-30z" fill="#c9bfc8"></path><g fill="#bc7c63"><path d="m33.538 307.891h53.485l27.461-51.891-34.941 10.401h-46.005c-11.457 0-20.745 9.288-20.745 20.745 0 11.457 9.288 20.745 20.745 20.745z"></path><path d="m468.462 266.401h-36.005l-17.48-10-10 51.49h63.485c11.457 0 20.745-9.288 20.745-20.745 0-11.457-9.288-20.745-20.745-20.745z"></path><path d="m256 107.841c-3.606 0-6.994-.176-10.002 1.282-8.799 4.266-14.352 13.964-12.65 24.375l4.308 26.341 26.687 10 4.308-36.341c2.285-13.97 1.504-25.657-12.651-25.657z"></path></g><path d="m256 106.841c-3.607 0-6.992.827-10 2.286 8.798 4.266 14.354 13.961 12.651 24.371l-4.308 26.341 10.051 10 9.949-10 4.308-26.341c2.285-13.97-8.496-26.657-22.651-26.657z" fill="#aa6a51"></path><path d="m359.972 431.487h-207.945c-35.901 0-65.004-29.103-65.004-65.004v-100.082h337.954v100.082c0 35.901-29.104 65.004-65.005 65.004z" fill="#fe76a8"></path><path d="m173.696 159.838h144.609c35.901 0 65.004 29.104 65.004 65.005v25.608l-274.617-20v-5.608c-.001-35.901 29.103-65.005 65.004-65.005z" fill="#ffe270"></path><path d="m349.972 431.487h-197.945c-35.901 0-65.004-29.103-65.004-65.004v-100.082l327.954-20v120.082c0 35.901-29.104 65.004-65.005 65.004z" fill="#fe76a8"></path><path d="m394.977 256.401v110.082c0 35.901-29.104 65.004-65.005 65.004h30c35.901 0 65.005-29.103 65.005-65.004v-100.082z" fill="#fd3581"></path><path d="m338.304 159.838h-30c35.901 0 65.004 29.104 65.004 65.004v25.609l30-20v-5.609c.001-35.9-29.103-65.004-65.004-65.004z" fill="#ffd251"></path><path d="m478.462 266.401h-30c11.457 0 20.745 9.288 20.745 20.745 0 11.457-9.288 20.745-20.745 20.745h30c11.457 0 20.745-9.288 20.745-20.745 0-11.457-9.288-20.745-20.745-20.745z" fill="#aa6a51"></path><path d="m398.542 504.5h-295.084c-10.533 0-19.072-8.539-19.072-19.072 0-10.533 8.539-19.072 19.072-19.072h295.084c10.533 0 19.072 8.539 19.072 19.072 0 10.533-8.539 19.072-19.072 19.072z" fill="#f9f7f8"></path><path d="m408.542 466.356h-30c10.533 0 19.072 8.539 19.072 19.072s-8.539 19.072-19.072 19.072h30c10.533 0 19.072-8.539 19.072-19.072s-8.539-19.072-19.072-19.072z" fill="#e5e1e5"></path><path d="m422.457 230.451h-342.914c-9.927 0-17.975 8.048-17.975 17.975 0 9.927 8.048 17.975 17.975 17.975h342.914c9.927 0 17.975-8.048 17.975-17.975 0-9.927-8.048-17.975-17.975-17.975z" fill="#f9f7f8"></path><path d="m432.457 230.451h-30c9.927 0 17.975 8.048 17.975 17.975s-8.048 17.975-17.975 17.975h30c9.927 0 17.975-8.047 17.975-17.975 0-9.927-8.048-17.975-17.975-17.975z" fill="#e5e1e5"></path></g></g><g><path d="m206.305 54.609c-3.404 2.992-8.548 7.515-8.548 16.182 0 4.143 3.358 7.5 7.5 7.5s7.5-3.357 7.5-7.5c0-1.636.452-2.278 3.452-4.916 3.404-2.992 8.548-7.515 8.548-16.182s-5.144-13.19-8.548-16.182c-3.001-2.638-3.452-3.281-3.452-4.917 0-1.634.452-2.277 3.451-4.913 3.404-2.992 8.549-7.515 8.549-16.182 0-4.143-3.358-7.5-7.5-7.5s-7.5 3.357-7.5 7.5c0 1.635-.452 2.277-3.452 4.915-3.404 2.991-8.548 7.514-8.548 16.18 0 8.668 5.144 13.19 8.548 16.183 3 2.638 3.452 3.28 3.452 4.916-.001 1.636-.452 2.279-3.452 4.916z"></path><path d="m251.048 54.609c-3.404 2.992-8.548 7.515-8.548 16.182 0 4.143 3.358 7.5 7.5 7.5s7.5-3.357 7.5-7.5c0-1.636.452-2.278 3.452-4.916 3.404-2.992 8.548-7.515 8.548-16.182s-5.144-13.19-8.548-16.182c-3-2.638-3.452-3.281-3.452-4.917 0-1.634.452-2.277 3.451-4.913 3.404-2.992 8.549-7.515 8.549-16.182 0-4.143-3.358-7.5-7.5-7.5s-7.5 3.357-7.5 7.5c0 1.635-.452 2.277-3.452 4.915-3.404 2.991-8.548 7.514-8.548 16.18 0 8.668 5.144 13.19 8.548 16.183 3 2.638 3.452 3.28 3.452 4.916s-.452 2.279-3.452 4.916z"></path><path d="m295.791 54.609c-3.404 2.992-8.548 7.515-8.548 16.182 0 4.143 3.358 7.5 7.5 7.5s7.5-3.357 7.5-7.5c0-1.636.452-2.278 3.452-4.916 3.404-2.992 8.548-7.515 8.548-16.182s-5.144-13.19-8.548-16.182c-3-2.638-3.452-3.281-3.452-4.917 0-1.634.452-2.277 3.451-4.913 3.404-2.992 8.549-7.515 8.549-16.182 0-4.143-3.358-7.5-7.5-7.5s-7.5 3.357-7.5 7.5c0 1.635-.452 2.277-3.452 4.915-3.404 2.991-8.548 7.514-8.548 16.18 0 8.668 5.144 13.19 8.548 16.183 3 2.638 3.452 3.28 3.452 4.916s-.452 2.279-3.452 4.916z"></path><path d="m478.462 258.901h-22.793c1.449-3.198 2.263-6.742 2.263-10.476 0-14.047-11.428-25.475-25.475-25.475h-21.696c-1.01-39.106-33.112-70.613-72.456-70.613h-55.135l2.883-17.63c1.444-8.834-1.051-17.812-6.847-24.634-5.796-6.821-14.255-10.733-23.206-10.733s-17.41 3.912-23.206 10.733-8.291 15.8-6.847 24.633l2.883 17.631h-23.083c-4.142 0-7.5 3.357-7.5 7.5s3.358 7.5 7.5 7.5h132.557c31.074 0 56.453 24.779 57.456 55.613h-279.521c1.004-30.834 26.383-55.613 57.456-55.613 4.142 0 7.5-3.357 7.5-7.5s-3.358-7.5-7.5-7.5c-39.345 0-71.447 31.507-72.456 70.613h-21.696c-14.047 0-25.475 11.428-25.475 25.475 0 3.733.814 7.278 2.263 10.476h-22.793c-15.574 0-28.245 12.67-28.245 28.244s12.67 28.245 28.245 28.245h45.985v51.092c0 39.875 32.357 72.327 72.192 72.497v19.877h-48.257c-14.652 0-26.572 11.92-26.572 26.571 0 14.652 11.92 26.572 26.572 26.572h305.084c14.652 0 26.572-11.92 26.572-26.572 0-14.651-11.92-26.571-26.572-26.571h-48.257v-19.877c39.835-.17 72.192-32.622 72.192-72.497v-51.092h45.985c15.574 0 28.245-12.671 28.245-28.245s-12.67-28.244-28.245-28.244zm-237.712-126.615c-.733-4.481.533-9.037 3.474-12.499 2.941-3.461 7.233-5.446 11.775-5.446s8.834 1.985 11.775 5.446c2.941 3.462 4.207 8.018 3.474 12.499l-3.279 20.052h-23.941zm-207.212 168.105c-7.303 0-13.245-5.941-13.245-13.245 0-7.303 5.941-13.244 13.245-13.244h45.985v26.489zm386.576 185.037c0 6.381-5.191 11.572-11.572 11.572h-305.084c-6.381 0-11.572-5.191-11.572-11.572s5.191-11.571 11.572-11.571h305.084c6.381-.001 11.572 5.19 11.572 11.571zm-60.141-61.441h-126.931c-4.142 0-7.5 3.357-7.5 7.5s3.358 7.5 7.5 7.5h112.243v19.869h-178.57v-19.869h34.198c4.142 0 7.5-3.357 7.5-7.5s-3.358-7.5-7.5-7.5h-48.886c-31.708 0-57.504-25.797-57.504-57.505v-92.581h233.066c4.142 0 7.5-3.357 7.5-7.5s-3.358-7.5-7.5-7.5h-248.046c-5.776 0-10.475-4.699-10.475-10.476 0-5.775 4.699-10.475 10.475-10.475h352.914c5.776 0 10.475 4.699 10.475 10.475s-4.699 10.476-10.475 10.476h-71.142c-4.142 0-7.5 3.357-7.5 7.5s3.358 7.5 7.5 7.5h56.162v92.581c0 31.708-25.796 57.505-57.504 57.505zm118.489-123.596h-45.985v-26.489h45.985c7.303 0 13.245 5.941 13.245 13.244s-5.941 13.245-13.245 13.245z"></path></g></g></svg>