<!-- icon666.com - MILLIONS OF FREE VECTOR ICONS --><svg id="Capa_1" enable-background="new 0 0 512 512" viewBox="0 0 512 512" xmlns="http://www.w3.org/2000/svg"><g><path d="m346 67.5v-15h-90l60 452h45c24.853 0 45-20.147 45-45v-203.5c0-94.25-60-94.25-60-188.5z" fill="#8ae7ff"></path><path d="m376 256c0-38.386-11.168-55.929-25.307-78.139-16.261-25.545-34.693-54.497-34.693-110.361v-15h-150v15c0 94.25-60 94.25-60 188.5v203.5c0 24.853 20.147 45 45 45h180c24.853 0 45-20.147 45-45l-30-109.25z" fill="#c4f3ff"></path><path d="m331 7.5h-30v45h45v-30c0-8.284-6.716-15-15-15z" fill="#8ae7ff"></path><path d="m301 7.5h-120c-8.284 0-15 6.716-15 15v30h150v-30c0-8.284-6.716-15-15-15z" fill="#c4f3ff"></path><path d="m346 37.5h-30v30h30c8.284 0 15-6.716 15-15s-6.716-15-15-15z" fill="#c4f3ff"></path><path d="m331 52.5c0-8.284-6.716-15-15-15h-150c-8.284 0-15 6.716-15 15s6.716 15 15 15h150c8.284 0 15-6.716 15-15z" fill="#fff"></path><path d="m346 256-.241 1.552c.079-.009.161-.016.241-.024z" fill="#fff"></path><path d="m346 257.528-30 216.972h45c8.271 0 15-6.729 15-15v-203.5c-10.94 0-20.873.546-30 1.528z" fill="#ffe7b5"></path><path d="m345.759 257.552c-90.767 9.857-100.794 63.448-209.759 63.448v138.5c0 8.271 6.729 15 15 15h180c8.271 0 15-6.729 15-15v-201.972c-.079.008-.161.015-.241.024z" fill="#fff"></path><path d="m382.327 157.722c-14.128-22.191-27.498-43.226-28.726-84.047 8.677-3.124 14.899-11.435 14.899-21.175 0-9.778-6.27-18.12-15-21.215v-8.785c0-12.407-10.094-22.5-22.5-22.5h-150c-12.407 0-22.5 10.093-22.5 22.5v8.785c-8.73 3.095-15 11.437-15 21.215 0 9.74 6.222 18.051 14.899 21.176-1.227 40.821-14.598 61.855-28.725 84.047-15.326 24.073-31.174 48.967-31.174 98.277v203.5c0 28.949 23.551 52.5 52.5 52.5h210c28.948 0 52.5-23.551 52.5-52.5v-203.5c0-49.31-15.848-74.204-31.173-98.278zm-216.327-112.722c4.142 0 7.5-3.358 7.5-7.5v-15c0-4.136 3.364-7.5 7.5-7.5h150c4.136 0 7.5 3.364 7.5 7.5v7.5h-142.5c-4.142 0-7.5 3.358-7.5 7.5s3.358 7.5 7.5 7.5h150c4.136 0 7.5 3.364 7.5 7.5s-3.364 7.5-7.5 7.5h-180c-4.136 0-7.5-3.364-7.5-7.5s3.364-7.5 7.5-7.5zm232.5 414.5c0 20.678-16.822 37.5-37.5 37.5h-210c-20.678 0-37.5-16.822-37.5-37.5v-203.5c0-44.94 14.002-66.936 28.827-90.222 14.527-22.819 29.513-46.39 31.037-90.778h165.273c1.524 44.387 16.51 67.958 31.036 90.778 14.825 23.286 28.827 45.282 28.827 90.222z"></path><path d="m136 313.5c-4.142 0-7.5 3.358-7.5 7.5v138.5c0 12.407 10.093 22.5 22.5 22.5h210c12.406 0 22.5-10.093 22.5-22.5v-203.5c0-4.142-3.357-7.5-7.5-7.5-61.9 0-93.253 16.982-123.572 33.405-29.996 16.248-58.329 31.595-116.428 31.595zm232.5-49.912v195.912c0 4.136-3.364 7.5-7.5 7.5h-210c-4.136 0-7.5-3.364-7.5-7.5v-131.085c56.985-1.313 87.002-17.573 116.072-33.32 28.676-15.533 55.832-30.242 108.928-31.507z"></path></g></svg>