<!-- icon666.com - MILLIONS OF FREE VECTOR ICONS --><svg id="Capa_1" enable-background="new 0 0 512.006 512.006" viewBox="0 0 512.006 512.006" xmlns="http://www.w3.org/2000/svg"><path d="m236.429 273.334c0-54.889-44.497-145.67-99.386-145.67s-99.386 90.78-99.386 145.67c0 54.889 44.497 99.386 99.386 99.386 54.889.001 99.386-44.496 99.386-99.386z" fill="#fcf2d0"></path><path d="m221.943 325.027c-.199-.001-.391-.004-.591-.005-109.932-.231-124.911-129.631-105.956-192.663-44.479 19.253-77.739 93.521-77.739 140.975 0 54.89 44.497 99.386 99.386 99.386 35.955.001 67.449-19.093 84.9-47.693z" fill="#f6e3a3"></path><path d="m275.576 273.334c0-54.889 44.497-145.67 99.386-145.67 54.89 0 99.386 90.78 99.386 145.67 0 54.889-44.497 99.386-99.386 99.386-54.889.001-99.386-44.496-99.386-99.386z" fill="#fcf2d0"></path><path d="m459.862 325.027c-.199-.001-.391-.004-.591-.005-109.931-.231-124.911-129.631-105.956-192.663-44.479 19.253-77.739 93.521-77.739 140.975 0 54.89 44.497 99.386 99.386 99.386 35.956.001 67.45-19.093 84.9-47.693z" fill="#f6e3a3"></path><path d="m190.277 384.341h-106.468c-16.157 0-30.316-10.812-34.571-26.399l-15.935-58.377h207.482l-15.936 58.377c-4.256 15.588-18.415 26.399-34.572 26.399z" fill="#7c899a"></path><path d="m321.729 384.341h106.468c16.157 0 30.316-10.812 34.571-26.399l15.936-58.377h-207.482l15.936 58.377c4.254 15.588 18.413 26.399 34.571 26.399z" fill="#7c899a"></path><g fill="#9ca9ba"><path d="m484.586 315.434h-457.166c-12.982 0-22.49-12.225-19.295-24.807l2.156-8.488c2.242-8.827 10.187-15.007 19.294-15.007h452.855c9.107 0 17.053 6.18 19.294 15.007l2.156 8.488c3.196 12.582-6.313 24.807-19.294 24.807z"></path><path d="m96.907 360.08c-1.919 0-3.839-.732-5.303-2.197-2.929-2.929-2.929-7.678 0-10.606l7.091-7.091c2.929-2.929 7.678-2.929 10.606 0 2.929 2.929 2.929 7.678 0 10.607l-7.091 7.091c-1.465 1.463-3.384 2.196-5.303 2.196z"></path><path d="m167.482 354.27c-1.919 0-3.839-.732-5.303-2.197-2.929-2.929-2.929-7.678 0-10.606l2.539-2.539c2.929-2.929 7.678-2.929 10.607 0s2.929 7.678 0 10.607l-2.539 2.539c-1.465 1.463-3.384 2.196-5.304 2.196z"></path><path d="m347.336 358.779c-1.92 0-3.839-.732-5.304-2.197-2.929-2.929-2.929-7.678.001-10.607l4.14-4.139c2.929-2.929 7.678-2.927 10.606 0 2.929 2.929 2.929 7.678-.001 10.607l-4.14 4.139c-1.463 1.465-3.383 2.197-5.302 2.197z"></path><path d="m417.101 358.983c-1.919 0-3.838-.732-5.303-2.196-2.93-2.929-2.93-7.677-.001-10.606l2.964-2.964c2.928-2.93 7.677-2.93 10.606-.001 2.93 2.929 2.93 7.677.001 10.607l-2.964 2.964c-1.463 1.463-3.384 2.196-5.303 2.196z"></path></g><ellipse cx="323.744" cy="230.736" fill="#eda1ab" rx="18.899" ry="15.05"></ellipse><ellipse cx="426.181" cy="230.736" fill="#eda1ab" rx="18.899" ry="15.05"></ellipse><ellipse cx="85.824" cy="230.736" fill="#eda1ab" rx="18.899" ry="15.05"></ellipse><ellipse cx="188.261" cy="230.736" fill="#eda1ab" rx="18.899" ry="15.05"></ellipse><path d="m407.667 208.523v7.726c0 4.142 3.357 7.5 7.5 7.5 4.142 0 7.5-3.358 7.5-7.5v-7.726c0-4.142-3.358-7.5-7.5-7.5-4.143 0-7.5 3.358-7.5 7.5zm-310.829-7.5c-4.142 0-7.5 3.358-7.5 7.5v7.726c0 4.142 3.358 7.5 7.5 7.5s7.5-3.358 7.5-7.5v-7.726c0-4.142-3.358-7.5-7.5-7.5zm55.732 9.341c-3.123-2.721-7.86-2.396-10.581.727-1.25 1.434-3.052 2.256-4.945 2.256s-3.696-.822-4.945-2.256c-2.722-3.123-7.459-3.448-10.582-.727s-3.448 7.458-.727 10.582c4.099 4.704 10.023 7.402 16.254 7.402 6.23 0 12.155-2.698 16.254-7.402 2.72-3.123 2.395-7.86-.728-10.582zm227.338.728c-1.25 1.434-3.052 2.256-4.945 2.256-1.894 0-3.695-.822-4.945-2.256-2.721-3.123-7.459-3.448-10.581-.727-3.123 2.721-3.449 7.458-.728 10.582 4.099 4.704 10.023 7.402 16.254 7.402 6.23 0 12.155-2.698 16.254-7.402 2.722-3.123 2.396-7.86-.728-10.582-3.122-2.722-7.861-2.397-10.581.727zm-202.661-10.069c-4.142 0-7.5 3.358-7.5 7.5v7.726c0 4.142 3.358 7.5 7.5 7.5s7.5-3.358 7.5-7.5v-7.726c0-4.142-3.358-7.5-7.5-7.5zm150.012 7.5v7.726c0 4.142 3.357 7.5 7.5 7.5 4.142 0 7.5-3.358 7.5-7.5v-7.726c0-4.142-3.358-7.5-7.5-7.5-4.143 0-7.5 3.358-7.5 7.5zm183.891 80.257-2.156-8.487c-3.089-12.165-14.012-20.661-26.564-20.661h-1.369c-3.434-31.892-17.92-68.973-37.961-96.448-2.441-3.346-7.132-4.08-10.479-1.64-3.347 2.441-4.08 7.133-1.64 10.479 17.969 24.635 31.494 58.842 34.978 87.608h-182.004c3.051-25.485 13.839-54.997 29.074-78.924 25.23-39.626 49.633-45.544 61.934-45.544 10.817 0 21.816 4.168 32.691 12.389 3.304 2.498 8.008 1.843 10.505-1.46 2.498-3.305 1.845-8.008-1.46-10.506-13.537-10.234-27.58-15.423-41.736-15.423-26.548 0-53.036 18.641-74.587 52.487-16.713 26.251-28.463 58.909-31.508 86.98h-25.731c-3.045-28.071-14.794-60.729-31.507-86.98-21.55-33.847-48.039-52.487-74.587-52.487s-53.037 18.641-74.587 52.487c-16.714 26.251-28.463 58.909-31.507 86.98h-1.373c-12.551 0-23.475 8.496-26.563 20.661l-2.156 8.488c-2.097 8.257-.3 16.849 4.93 23.573s13.115 10.581 21.634 10.581h4.487l10.096 36.983c3.54 12.969 12.687 23.384 25.093 28.574.946.396 1.926.583 2.891.583 2.933 0 5.719-1.732 6.922-4.608 1.599-3.821-.204-8.215-4.025-9.813-8.114-3.394-14.096-10.205-16.411-18.686l-9.017-33.033h179.173l-9.017 33.033c-3.355 12.29-14.596 20.874-27.336 20.874h-84.226c-4.142 0-7.5 3.358-7.5 7.5s3.358 7.5 7.5 7.5h84.226c19.484 0 36.675-13.128 41.806-31.924l10.096-36.983h27.647l10.095 36.983c5.131 18.796 22.322 31.924 41.807 31.924h106.469c19.484 0 36.676-13.128 41.807-31.924l10.095-36.983h4.487c8.519 0 16.404-3.856 21.634-10.581 5.23-6.723 7.027-15.315 4.93-23.572zm-436.041-108.072c25.23-39.626 49.633-45.544 61.934-45.544s36.704 5.917 61.934 45.544c15.234 23.927 26.023 53.439 29.073 78.924h-182.015c3.051-25.485 13.84-54.997 29.074-78.924zm380.424 175.259c-3.354 12.29-14.596 20.874-27.336 20.874h-106.469c-12.74 0-23.982-8.584-27.336-20.874l-9.017-33.033h179.175zm38.847-52.823c-2.368 3.044-5.938 4.79-9.794 4.79h-457.166c-3.857 0-7.426-1.746-9.794-4.79s-3.181-6.933-2.232-10.671l2.156-8.488c1.399-5.507 6.344-9.353 12.025-9.353h452.855c5.682 0 10.626 3.846 12.024 9.353l2.156 8.488c.95 3.738.137 7.627-2.23 10.671z"></path></svg>