<!-- icon666.com - MILLIONS OF FREE VECTOR ICONS --><svg id="Capa_1" enable-background="new 0 0 512.003 512.003" viewBox="0 0 512.003 512.003" xmlns="http://www.w3.org/2000/svg"><path d="m469.296 171.054c-20.034-42.226-133.957-163.552-213.294-163.552s-193.261 121.326-213.294 163.552l213.294 35.903z" fill="#fcf2d0"></path><g fill="#f6e3a3"><path d="m223.891 13.126c-75.022 24.335-163.731 121.142-181.183 157.928l213.294 35.903 29.036-4.887c-61.315-32.011-86.407-129.81-61.147-188.944z"></path><ellipse cx="277.138" cy="46.546" rx="7.901" ry="7.901" transform="matrix(.707 -.707 .707 .707 48.259 209.599)"></ellipse><path d="m240.022 59.534c0-4.363-3.537-7.901-7.901-7.901-4.363 0-7.9 3.537-7.9 7.901s3.537 7.9 7.9 7.9c4.364 0 7.901-3.537 7.901-7.9z"></path><ellipse cx="389.25" cy="124.063" rx="7.901" ry="7.901" transform="matrix(.707 -.707 .707 .707 26.283 311.578)"></ellipse></g><circle cx="124.174" cy="123.689" fill="#fcf2d0" r="7.901"></circle><path d="m256.002 200.183c91.466 0 178.597-15.454 211.605-21.566 26.646 66.36 38.229 162.942 14.663 245.607 11.728 8.97 18.592 20.426 21.65 30.383 2.047 6.666-1.459 13.715-8.025 16.063-18.774 6.715-38.457 4.988-52.781.896-38.421 20.826-124.591 32.936-187.111 32.936s-148.69-12.11-187.111-32.936c-14.324 4.092-34.006 5.819-52.781-.896-6.566-2.348-10.072-9.397-8.025-16.063 3.057-9.957 9.922-21.413 21.65-30.383-23.568-82.664-11.985-179.247 14.661-245.607 33.008 6.112 120.139 21.566 211.605 21.566z" fill="#e1b89a"></path><path d="m68.891 471.566c35.24 19.102 110.645 30.869 171.131 32.687-101.673-48.92-86.608-224.097-69.246-308.04-56.672-5.003-103.984-13.449-126.379-17.595-26.646 66.359-38.229 162.942-14.663 245.607-11.728 8.97-18.592 20.426-21.65 30.383-2.047 6.666 1.459 13.715 8.025 16.063 18.775 6.714 38.458 4.987 52.782.895z" fill="#d2996f"></path><path d="m256.002 229.878c-82.845 0-182.182-15.291-219.176-25.862-15.769-4.506-24.9-20.942-20.395-36.711 4.505-15.768 20.942-24.9 36.711-20.395 33.644 9.613 129.396 23.576 202.859 23.576s169.215-13.964 202.859-23.576c15.771-4.504 32.204 4.625 36.711 20.395 4.506 15.769-4.625 32.205-20.395 36.711-36.992 10.571-136.329 25.862-219.174 25.862z" fill="#d2896f"></path><path d="m53.143 146.911c-15.769-4.506-32.206 4.626-36.711 20.395-4.506 15.769 4.625 32.205 20.395 36.711 35.652 10.187 129.206 24.756 210.1 25.8-14.266-11.619-15.328-45.143-5.183-59.494-71.128-1.594-157.096-14.41-188.601-23.412z" fill="#b36d3a"></path><ellipse cx="167.145" cy="128.583" fill="#eda1ab" rx="32.786" ry="26.11"></ellipse><ellipse cx="344.859" cy="128.583" fill="#eda1ab" rx="32.786" ry="26.11"></ellipse><path d="m232.516 377.968c10.244 10.244 12.195 25.96 12.497 33.775.103 2.669-2.088 4.861-4.757 4.757-7.814-.302-23.53-2.253-33.774-12.497s-12.195-25.961-12.497-33.775c-.103-2.669 2.088-4.861 4.757-4.757 7.814.302 23.53 2.253 33.774 12.497z" fill="#f7ef87"></path><path d="m232.516 298.982c10.244 10.244 12.195 25.961 12.497 33.775.103 2.669-2.088 4.861-4.757 4.757-7.814-.302-23.53-2.253-33.774-12.497s-12.195-25.961-12.497-33.775c-.103-2.669 2.088-4.861 4.757-4.757 7.814.302 23.53 2.253 33.774 12.497z" fill="#f7ef87"></path><path d="m279.487 377.968c-10.244 10.244-12.195 25.96-12.497 33.775-.103 2.669 2.088 4.861 4.757 4.757 7.814-.302 23.531-2.253 33.775-12.497s12.195-25.961 12.497-33.775c.103-2.669-2.088-4.861-4.758-4.757-7.813.302-23.529 2.253-33.774 12.497z" fill="#f7ef87"></path><path d="m279.487 298.982c-10.244 10.244-12.195 25.961-12.497 33.775-.103 2.669 2.088 4.861 4.757 4.757 7.814-.302 23.531-2.253 33.775-12.497s12.195-25.961 12.497-33.775c.103-2.669-2.088-4.861-4.758-4.757-7.813.302-23.529 2.253-33.774 12.497z" fill="#f7ef87"></path><path d="m70.247 425.432c-1.919 0-3.839-.732-5.303-2.197-2.929-2.929-2.929-7.678 0-10.606l22.215-22.215c2.929-2.929 7.678-2.929 10.606 0 2.929 2.929 2.929 7.678 0 10.607l-22.215 22.215c-1.464 1.464-3.383 2.196-5.303 2.196z" fill="#e1b89a"></path><path d="m123.569 434.624c-1.92 0-3.839-.733-5.303-2.197-2.929-2.929-2.929-7.678 0-10.607l32.313-32.313c2.929-2.929 7.678-2.929 10.607 0s2.929 7.678 0 10.606l-32.314 32.314c-1.464 1.465-3.383 2.197-5.303 2.197z" fill="#e1b89a"></path><path d="m409.462 306.584c-1.919 0-3.839-.732-5.303-2.197-2.929-2.929-2.929-7.678 0-10.607l25.331-25.331c2.929-2.929 7.678-2.93 10.606 0 2.929 2.929 2.929 7.678 0 10.607l-25.331 25.331c-1.464 1.464-3.384 2.197-5.303 2.197z" fill="#d2996f"></path><path d="m170.647 107.672c4.142 0 7.5-3.358 7.5-7.5 0-4.47 3.636-8.106 8.105-8.106 4.47 0 8.106 3.636 8.106 8.106 0 4.142 3.358 7.5 7.5 7.5s7.5-3.358 7.5-7.5c0-12.741-10.365-23.106-23.106-23.106-12.74 0-23.105 10.365-23.105 23.106 0 4.142 3.358 7.5 7.5 7.5zm340.442 344.734c-2.127-6.928-7.508-19.615-20.293-30.879.927-3.465 1.804-6.984 2.62-10.51.933-4.036-1.583-8.063-5.619-8.996-4.035-.933-8.063 1.581-8.997 5.618-1.134 4.906-2.393 9.794-3.743 14.53-.844 2.963.209 6.142 2.656 8.013 12.35 9.445 17.228 20.737 19.037 26.627.867 2.825-.618 5.812-3.382 6.8-20.363 7.284-40.488 2.949-48.194.747-1.888-.54-3.91-.317-5.635.618-36.987 20.049-122.364 32.029-183.537 32.029s-146.55-11.98-183.537-32.029c-1.726-.935-3.748-1.156-5.635-.618-7.707 2.202-27.832 6.536-48.195-.747-2.763-.988-4.248-3.975-3.381-6.799 1.809-5.89 6.688-17.182 19.037-26.627 2.448-1.872 3.501-5.05 2.657-8.014-17.857-62.64-16.425-140.357 3.657-209.364 41.197 10.566 135.898 24.574 215.398 24.574 79.493 0 174.187-14.006 215.388-24.572 14.675 50.583 19.615 108.269 13.53 159.481-.489 4.113 2.45 7.844 6.563 8.332.3.036.599.053.894.053 3.747 0 6.985-2.803 7.438-6.616 6.349-53.44 1.137-113.66-14.281-166.336 14.479-8.312 22.038-25.718 17.25-42.476-5.541-19.389-25.579-30.779-44.997-25.8-18.011-23.677-49.247-57.771-86.691-87.148-30.41-23.857-75.061-52.295-115.095-52.295-19.573 0-42.066 6.778-66.855 20.145-3.646 1.966-5.008 6.516-3.042 10.161 1.966 3.646 6.516 5.006 10.161 3.042 22.577-12.175 42.675-18.348 59.736-18.348 19.733 0 54.112 8.518 105.834 49.096 33.708 26.445 62.179 56.763 80.014 79.277-41.323 9.012-122.009 19.613-185.848 19.613-63.838 0-144.522-10.6-185.846-19.612 21.07-26.611 56.516-63.553 97.119-91.985 3.393-2.376 4.217-7.053 1.841-10.446s-7.052-4.215-10.446-1.841c-44.679 31.288-83.347 72.593-104.45 100.341-9.256-2.379-18.911-1.154-27.3 3.505-8.686 4.825-14.972 12.743-17.701 22.295-4.786 16.755 2.771 34.159 17.246 42.472-20.579 70.118-22.535 149.146-5.256 213.809-12.785 11.264-18.167 23.952-20.295 30.88-3.226 10.507 2.339 21.632 12.669 25.326 21.681 7.755 42.435 4.863 54.424 1.837 41.647 21.077 127.164 32.433 187.994 32.433s146.347-11.355 187.994-32.433c11.989 3.026 32.743 5.918 54.423-1.837 10.332-3.694 15.897-14.819 12.671-25.326zm-485.507-266.164c-2.879-5.183-3.568-11.176-1.939-16.877 1.628-5.7 5.379-10.424 10.563-13.304 3.344-1.858 7.024-2.803 10.747-2.803 2.047 0 4.107.286 6.129.864 34.057 9.73 130.816 23.865 204.92 23.865s170.863-14.135 204.919-23.865c11.765-3.359 24.077 3.477 27.44 15.244 1.629 5.7.94 11.694-1.939 16.876s-7.604 8.934-13.305 10.563c-36.58 10.452-134.945 25.573-217.115 25.573s-180.535-15.121-217.115-25.573c-5.701-1.629-10.426-5.38-13.305-10.563zm230.42-52.789c8.512 0 16.606-3.687 22.208-10.114 2.721-3.123 2.396-7.86-.727-10.582-3.123-2.721-7.86-2.396-10.582.727-2.752 3.158-6.725 4.969-10.899 4.969s-8.148-1.811-10.899-4.969c-2.721-3.124-7.459-3.448-10.582-.727s-3.448 7.459-.727 10.582c5.601 6.427 13.696 10.114 22.208 10.114zm15.574 211.565c.153 0 .308-.003.462-.009 9.362-.362 26.851-2.751 38.788-14.689 11.937-11.936 14.326-29.425 14.689-38.789.129-3.354-1.158-6.639-3.531-9.012s-5.663-3.655-9.01-3.529c-9.362.362-26.851 2.751-38.788 14.688-5.125 5.125-8.482 11.274-10.683 17.364v-20.484c0-4.142-3.358-7.5-7.5-7.5s-7.5 3.358-7.5 7.5v20.484c-2.2-6.09-5.557-12.239-10.683-17.364-11.937-11.938-29.426-14.327-38.787-14.688-3.347-.135-6.638 1.156-9.011 3.529-2.374 2.373-3.661 5.658-3.531 9.013.362 9.362 2.752 26.852 14.689 38.788 11.938 11.938 29.426 14.327 38.788 14.689.154.006.308.009.462.009 2.978 0 5.861-1.122 8.074-3.109v48.119c-2.2-6.09-5.557-12.239-10.683-17.364-11.936-11.936-29.425-14.326-38.789-14.688-3.352-.128-6.638 1.158-9.011 3.53-2.373 2.373-3.66 5.658-3.53 9.012.362 9.363 2.752 26.852 14.689 38.788 11.938 11.938 29.426 14.326 38.787 14.688.155.006.309.009.464.009 2.977 0 5.86-1.121 8.073-3.108v18.761c0 4.142 3.358 7.5 7.5 7.5s7.5-3.358 7.5-7.5v-18.761c2.213 1.987 5.095 3.108 8.072 3.108.154 0 .309-.003.464-.009 9.362-.362 26.85-2.751 38.788-14.688 11.937-11.936 14.326-29.425 14.689-38.789.129-3.353-1.158-6.638-3.53-9.011-2.373-2.373-5.645-3.657-9.012-3.53-9.363.362-26.852 2.752-38.788 14.688-5.125 5.125-8.482 11.274-10.683 17.364v-48.119c2.211 1.987 5.093 3.109 8.072 3.109zm13.215-40.732c7.297-7.297 18.685-9.462 25.521-10.092-.63 6.834-2.795 18.223-10.092 25.52-7.298 7.298-18.687 9.463-25.521 10.092.629-6.834 2.795-18.223 10.092-25.52zm-73.006 15.428c-7.297-7.297-9.462-18.686-10.092-25.52 6.835.629 18.223 2.794 25.52 10.092 7.297 7.297 9.463 18.686 10.093 25.521-6.835-.63-18.223-2.795-25.521-10.093zm0 78.986c-7.297-7.297-9.462-18.687-10.092-25.521 6.835.63 18.224 2.795 25.52 10.092 7.297 7.297 9.463 18.687 10.093 25.521-6.835-.63-18.224-2.795-25.521-10.092zm73.006-15.429c7.297-7.297 18.686-9.462 25.521-10.092-.63 6.835-2.795 18.224-10.092 25.521s-18.686 9.462-25.521 10.092c.63-6.836 2.795-18.224 10.092-25.521zm32.854-283.099c0-4.47 3.636-8.106 8.106-8.106 4.469 0 8.105 3.636 8.105 8.106 0 4.142 3.358 7.5 7.5 7.5s7.5-3.358 7.5-7.5c0-12.741-10.365-23.106-23.105-23.106-12.741 0-23.106 10.365-23.106 23.106 0 4.142 3.358 7.5 7.5 7.5s7.5-3.358 7.5-7.5z"></path></svg>