<!-- icon666.com - MILLIONS OF FREE VECTOR ICONS --><svg id="Layer_1" enable-background="new 0 0 512 512" viewBox="0 0 512 512" xmlns="http://www.w3.org/2000/svg"><g><g><path d="m412.067 161.057c15.23-3.178 26.626-16.797 26.356-33.032-.303-18.204-15.605-32.603-33.811-32.603h-132.027c-18.518 0-36.277 7.356-49.372 20.45l-62.117 62.117v197.566c0 70.908 57.483 128.391 128.391 128.391h49.432c20.558-2.068 40.172-10.09 56.169-23.392 48.612-40.422 79.343-101.611 78.576-169.952-.653-58.348-23.992-110.952-61.597-149.545z" fill="#b9f0ff"></path><g><path d="m282.817 480.606c-14.849-12.338-28.026-26.618-39.154-42.443-24.883-35.386-39.499-78.515-39.499-125.062v-.001c0-59.14 23.595-112.76 61.871-151.991-15.181-3.041-26.619-16.443-26.619-32.519 0-18.318 14.85-33.168 33.168-33.168h-165.842c-18.319 0-33.168 14.85-33.168 33.168 0 16.076 11.438 29.478 26.619 32.519-38.276 39.231-61.871 92.851-61.871 151.991 0 67.362 30.598 127.577 78.653 167.506 18.72 15.555 42.393 23.894 66.732 23.894h144.587c3.562 0 7.106-.2 10.625-.554-20.53-2.064-40.122-10.062-56.102-23.34z" fill="#7ce3ff"></path></g></g><g><path d="m294.81 228.492c-14.634-8.479-31.615-13.339-49.71-13.339-49.896 0-90.769 36.47-98.291 83.754-1.293 8.131-8.161 14.195-16.394 14.195h-25.757c0 45.137 19.941 87.593 54.711 116.483 6.659 5.532 15.302 8.579 24.338 8.579h59.957v-121.084z" fill="#ffb357"></path><path d="m343.362 299.196c-4.725-30.201-23.075-55.942-48.552-70.704l-48.849 84.609h-41.796c0 46.309 14.491 89.499 39.499 125.062h84.631c9.041 0 17.7-3.06 24.382-8.616 34.798-28.935 54.644-71.294 54.652-116.446h-47.606c-8.125 0-15.106-5.878-16.361-13.905z" fill="#ffce71"></path></g><g><path d="m420.467 10.837c-11.897-6.869-27.111-2.794-33.981 9.105l-132.237 229.043c-2.917-.402-5.89-.633-8.918-.643l-22.048 22.048v86.784h70.71l7.162-7.162c6.486-10.258 10.25-22.391 10.25-35.372 0-15.355-5.249-29.524-14.058-40.797l132.225-229.024c6.871-11.899 2.794-27.113-9.105-33.982z" fill="#d6948c"></path><path d="m235.116 283.682c0-12.997 3.753-25.109 10.214-35.341-.816-.003-1.631-.01-2.454.017-35.62 1.159-64.146 30.379-64.146 66.281 0 36.637 29.7 66.337 66.337 66.337 23.662 0 44.348-12.4 56.087-30.965-36.499-.162-66.038-29.792-66.038-66.329z" fill="#bd7669"></path></g><g><path d="m425.097 164.083c12.544-7.056 20.829-20.538 20.829-35.492l-.005-.69c-.322-19.266-14.518-35.392-33.052-39.15l5.892-10.205c2.071-3.587.842-8.174-2.745-10.245-3.59-2.07-8.175-.843-10.245 2.745l-9.744 16.877h-40.129l37.083-64.229c3.096-5.362 8.87-8.692 15.07-8.692 13.277 0 21.713 14.485 15.026 26.068l-2.307 3.995c-2.071 3.587-.842 8.174 2.745 10.245 3.584 2.069 8.174.842 10.245-2.745l2.307-3.995c12.456-21.577-3.232-48.57-28.016-48.57-11.543 0-22.295 6.205-28.061 16.192l-41.413 71.729h-231.834c-22.425 0-40.669 18.244-40.669 40.669 0 15.071 8.359 28.593 21.021 35.606-36.37 41.172-56.273 93.617-56.273 148.903 0 28.719 5.334 56.696 15.854 83.155 1.53 3.85 5.895 5.73 9.74 4.199 3.85-1.53 5.729-5.892 4.199-9.74-9.816-24.688-14.793-50.802-14.793-77.614 0-54.132 20.451-105.333 57.635-144.544h11.779c4.143 0 7.5-3.357 7.5-7.5s-3.357-7.5-7.5-7.5h-14.376c-11.509-2.7-19.786-13.054-19.786-24.966 0-14.154 11.515-25.669 25.669-25.669h223.175l-61.906 107.223c-60.669-13.304-119.053 27.508-128.61 87.583-.726 4.562-4.505 7.873-8.986 7.873h-18.046c1.718-33.207 14.803-64.713 37.294-89.412 2.789-3.063 2.567-7.807-.495-10.595-3.063-2.79-7.806-2.568-10.595.495-60.56 66.505-54.247 170.893 16.003 229.263 8.002 6.648 18.348 10.311 29.13 10.311h144.588c10.789 0 21.15-3.676 29.177-10.35 70.861-58.921 76.058-163.557 16.262-229.223-2.789-3.063-7.533-3.284-10.595-.496-3.063 2.789-3.284 7.533-.495 10.596 22.492 24.7 35.575 56.206 37.293 89.411h-40.214c-4.428 0-8.275-3.252-8.95-7.564-3.263-20.859-12.471-39.913-26.709-55.469 26.168-45.326 69.583-120.523 80.623-139.644 14.242.04 26.006 11.34 26.237 25.18l.004.487c0 11.877-8.282 22.263-19.772 24.966h-14.13c-4.143 0-7.5 3.357-7.5 7.5s3.357 7.5 7.5 7.5h11.826c36.924 39.029 57.328 90.312 57.328 144.544 0 62.654-27.659 121.587-75.885 161.688-17.227 14.324-39.246 22.213-62.001 22.213h-144.587c-22.742 0-44.739-7.871-61.938-22.163-19.663-16.338-36.022-35.863-48.624-58.034-2.046-3.602-6.626-4.86-10.227-2.814-3.602 2.047-4.861 6.626-2.814 10.227 13.499 23.748 31.021 44.661 52.079 62.159 19.885 16.524 45.286 25.625 71.524 25.625h144.588c26.251 0 51.676-9.119 71.589-25.679 51.664-42.959 81.295-106.096 81.295-173.221-.001-55.278-19.803-107.884-56.082-149.017zm-89.145 136.272c1.836 11.731 11.833 20.246 23.771 20.246h39.905c-2.077 40.07-20.672 77.34-51.745 103.179-5.338 4.438-12.294 6.883-19.587 6.883h-144.589c-7.288 0-14.229-2.432-19.544-6.848-31.115-25.854-49.728-63.138-51.801-103.214h18.053c11.9 0 21.91-8.629 23.801-20.517 8.06-50.67 55.408-84.516 105.863-76.201l-9.897 17.143c-42.905-3.012-78.952 31.104-78.952 73.612 0 40.714 33.123 73.837 73.837 73.837 59.43 0 94.031-66.682 61.211-115.104 2.149-3.723 5.562-9.634 9.856-17.072 10.456 12.671 17.262 27.721 19.818 44.056zm-147.548-1.529c2.698-9.664 7.798-18.329 14.622-25.304l98.688 56.978c-2.77 9.859-7.947 18.442-14.633 25.297zm85.873 66.899c-8.738 5.011-18.749 7.751-29.21 7.751-32.357 0-58.692-26.257-58.831-58.582zm16.574-95.631c-1.529 2.647-1.297 5.958.585 8.367 8.115 10.385 12.421 22.823 12.464 35.98l-88.056-50.839c11.032-6.333 23.954-9.036 37.381-7.188 3.028.42 5.994-1.039 7.519-3.68l86.494-149.813h40.129c-22.69 39.301-93.36 161.705-96.516 167.173z"></path><path d="m187.712 386.12c-4.143 0-7.5 3.357-7.5 7.5v12c0 4.143 3.357 7.5 7.5 7.5s7.5-3.357 7.5-7.5v-12c0-4.142-3.357-7.5-7.5-7.5z"></path><path d="m312.61 386.12c-4.143 0-7.5 3.357-7.5 7.5v12c0 4.143 3.357 7.5 7.5 7.5s7.5-3.357 7.5-7.5v-12c0-4.142-3.358-7.5-7.5-7.5z"></path><path d="m271.552 399.608c-3.123-2.722-7.86-2.397-10.581.728-5.726 6.57-15.899 6.563-21.62-.001-2.723-3.124-7.46-3.447-10.582-.727-3.123 2.722-3.447 7.46-.727 10.582 11.728 13.454 32.57 13.391 44.237-.001 2.722-3.122 2.396-7.86-.727-10.581z"></path></g></g></svg>