<!-- icon666.com - MILLIONS OF FREE VECTOR ICONS --><svg id="Capa_1" enable-background="new 0 0 512 512" viewBox="0 0 512 512" xmlns="http://www.w3.org/2000/svg"><g><g><path d="m468.25 57.132-.004-.004c-27.949-27.617-73.259-27.194-101.32.593-4.566 4.566-56.124 56.124-97.962 97.962l33.844 33.844c36.181-36.181 77.801-77.801 97.962-97.962l.299-.299c9.15-9.15 24.017-9.291 33.334-.287 9.53 9.198 9.446 24.764-.004 34.214l-10.703 10.703c-9.44 9.44-9.345 24.809.291 34.126 9.436 9.126 24.554 8.716 33.832-.561l10.424-10.424.299-.299c27.997-27.998 27.956-73.676-.292-101.606z" fill="#ff8997"></path><g><g><path d="m413.444 479.199h-93.212v-46.849h93.212c17.321 0 31.412-14.092 31.412-31.413s-14.091-31.412-31.412-31.412h-93.212v-46.848h93.212c43.153 0 78.26 35.108 78.26 78.26 0 43.154-35.108 78.262-78.26 78.262z" fill="#ffedde"></path></g></g><path d="m302.808 189.526c23.509-23.51 49.31-49.31 70.033-70.033-.035-.022-.07-.045-.105-.067-6.238-3.988-10.059-10.91-9.732-18.308.505-11.43-1.306-22.196-5.438-32.227-.176-.427-.371-.836-.553-1.257-17.846 17.846-55.828 55.827-88.049 88.049z" fill="#ff6f7f"></path><path d="m225.195 16.445c-11.332-9.272-26.812-11.572-40.263-5.788-30.05 12.922-73.16 37.909-83.804 77.822l6.808 27.197 107.101 47.576 108.882-30.705c40.714-86.508-64.814-88.357-98.724-116.102z" fill="#f9e3c6"></path><path d="m135.241 123.686c0-54.12 40.764-98.712 93.261-104.766-1.164-.803-2.27-1.626-3.307-2.475-11.332-9.272-26.812-11.572-40.263-5.788-30.05 12.922-73.16 37.909-83.804 77.822l6.808 27.197 27.394 12.169c-.053-1.38-.089-2.765-.089-4.159z" fill="#f9d8b0"></path><path id="XMLID_26_" d="m57.25 224.035c-51.733-93.505 43.924-135.526 43.924-135.526 29.331 40.504 330.718-6.524 278.141 135.526l-161.032 35.798z" fill="#ffedde"></path><g><g><g><path d="m423.054 430.841c-3.031.976-6.259 1.509-9.61 1.509h-93.212v46.848h82.476c9.887-14.29 16.941-30.681 20.346-48.357z" fill="#f9e3c6"></path></g><g><path d="m320.231 322.677v46.848h93.212c4.219 0 8.244.842 11.923 2.357v-48.298c-3.889-.597-7.87-.907-11.923-.907z" fill="#f9e3c6"></path></g></g></g><path d="m38.885 259.833v146.772c0 54.066 43.829 97.895 97.895 97.895h160.692c54.066 0 97.895-43.829 97.895-97.895v-146.772z" fill="#ffedde"></path><path d="m86.118 300.76c0-13.985 1.312-27.662 3.794-40.927h-51.027v146.772c0 54.066 43.829 97.895 97.895 97.895h36.627c-58.645-39.959-87.289-118.658-87.289-203.74z" fill="#f9e3c6"></path><g><g><g><ellipse cx="128.733" cy="398.354" fill="#ff8997" rx="32.615" ry="25.973"></ellipse></g><g><ellipse cx="305.519" cy="398.354" fill="#ff8997" rx="32.615" ry="25.973"></ellipse></g></g></g><g><g><g><path d="m90.409 184.629c0-34.786 18.791-65.179 46.772-81.597-17.911-3.194-30.971-7.568-36.008-14.523 0 0-95.657 42.021-43.924 135.526l47.424 10.542c-9.037-14.494-14.264-31.609-14.264-49.948z" fill="#f9e3c6"></path></g></g></g><g><path d="m92.748 173.847c-6.838-6.838-6.838-17.925 0-24.763l12.679-12.679c6.838-6.838 17.925-6.838 24.763 0s6.838 17.925 0 24.763l-12.679 12.679c-6.838 6.837-17.925 6.838-24.763 0z" fill="#f67561"></path></g><g><path d="m236.606 115.104c-6.838-6.838-6.838-17.925 0-24.763l12.679-12.679c6.838-6.838 17.925-6.838 24.763 0s6.838 17.925 0 24.763l-12.679 12.679c-6.838 6.837-17.925 6.838-24.763 0z" fill="#f67561"></path></g><g><path d="m131.817 24.34c6.838-6.838 17.925-6.838 24.763 0l12.679 12.679c6.838 6.838 6.838 17.925 0 24.763s-17.925 6.838-24.763 0l-12.679-12.679c-6.837-6.838-6.838-17.924 0-24.763z" fill="#fb8978"></path></g><g><path d="m319.294 192.892c-6.838 6.838-17.925 6.838-24.763 0l-12.679-12.679c-6.838-6.838-6.838-17.925 0-24.763s17.925-6.838 24.763 0l12.679 12.679c6.837 6.838 6.838 17.925 0 24.763z" fill="#fb8978"></path></g><path d="m378.158 224.035h-322.064c-19.771 0-35.798 16.027-35.798 35.798 0 19.771 16.027 35.798 35.798 35.798h322.064c19.771 0 35.798-16.027 35.798-35.798.001-19.77-16.027-35.798-35.798-35.798z" fill="#ff8997"></path><path d="m99.792 224.035h-43.698c-19.771 0-35.798 16.027-35.798 35.798 0 19.771 16.027 35.798 35.798 35.798h30.088c.572-25.123 5.332-49.211 13.61-71.596z" fill="#ff6f7f"></path></g><g><path d="m147.744 352.523c-4.142 0-7.5 3.358-7.5 7.5v13.333c0 4.142 3.358 7.5 7.5 7.5s7.5-3.358 7.5-7.5v-13.333c0-4.143-3.358-7.5-7.5-7.5z"></path><path d="m286.51 352.523c-4.142 0-7.5 3.358-7.5 7.5v13.333c0 4.142 3.358 7.5 7.5 7.5s7.5-3.358 7.5-7.5v-13.333c0-4.143-3.358-7.5-7.5-7.5z"></path><path d="m240.348 367.304c-3.123-2.721-7.86-2.396-10.582.727-3.19 3.662-7.797 5.761-12.638 5.761-4.842 0-9.448-2.1-12.638-5.761-2.721-3.123-7.459-3.448-10.581-.727-3.123 2.721-3.448 7.459-.727 10.581 6.04 6.931 14.768 10.906 23.947 10.906 9.178 0 17.906-3.975 23.947-10.905 2.719-3.123 2.394-7.86-.728-10.582z"></path><path d="m135.497 131.112c-9.751-9.752-25.618-9.751-35.369 0l-12.679 12.678c-9.75 9.751-9.75 25.617 0 35.369 9.75 9.749 25.616 9.751 35.369 0l12.679-12.678c9.75-9.751 9.75-25.617 0-35.369zm-10.607 24.763-12.678 12.678c-3.904 3.903-10.255 3.903-14.157 0-3.903-3.903-3.903-10.254 0-14.156l12.678-12.678c3.903-3.902 10.253-3.903 14.156 0 3.904 3.902 3.904 10.253.001 14.156z"></path><path d="m289.227 198.205c9.753 9.751 25.617 9.75 35.369 0 9.751-9.75 9.751-25.616 0-35.369l-12.678-12.679c-9.752-9.75-25.618-9.75-35.369 0-9.751 9.751-9.751 25.617 0 35.369zm-2.073-37.441c3.902-3.902 10.253-3.904 14.156 0l12.678 12.678c3.903 3.904 3.903 10.254 0 14.156-3.902 3.903-10.253 3.903-14.156 0l-12.678-12.678c-3.902-3.903-3.902-10.254 0-14.156z"></path><path d="m136.784 512h160.688c26.093 0 49.999-9.536 68.424-25.301h47.544c47.287 0 85.758-38.471 85.758-85.758s-38.471-85.758-85.758-85.758h-10.576v-19.817c11.225-7.831 18.589-20.83 18.589-35.525 0-20.059-13.712-36.97-32.254-41.865 6.219-21.605 4.657-40.389-4.688-55.931-5.233-8.703-12.648-15.961-21.551-22.054l43.409-43.409c6.239-6.239 16.476-6.327 22.822-.193 6.488 6.262 6.422 16.993-.099 23.513l-10.702 10.702c-12.431 12.431-12.262 32.595.38 44.82 12.283 11.877 32.176 11.521 44.348-.65l10.722-10.722c31.007-31.007 30.866-81.404-.32-112.239-.001-.001-.005-.005-.006-.006-30.707-30.342-80.89-30.074-111.892.625l-24.915 24.915c-10.852-26.135-41.813-38.056-69.137-48.574-15.032-5.786-29.231-11.252-37.622-18.118-13.591-11.12-31.973-13.753-47.974-6.873-8.519 3.663-16.639 7.669-24.224 11.933-9.682-6.24-22.761-5.132-31.23 3.336-6.594 6.594-8.722 15.984-6.397 24.39-12.329 12.275-20.81 25.612-25.251 39.75-10.612 5.411-43.876 24.826-56.032 60.838-7.697 22.801-5.385 47.582 6.839 73.792-18.854 4.679-32.873 21.74-32.873 42.02 0 14.694 7.364 27.694 18.589 35.525v111.243c-.003 58.113 47.276 105.391 105.389 105.391zm266.079-134.971h10.576c13.185 0 23.911 10.727 23.911 23.911 0 13.185-10.727 23.912-23.911 23.912h-12.161c1.039-5.928 1.585-12.024 1.585-18.245zm10.576-46.847c39.016 0 70.758 31.742 70.758 70.759s-31.742 70.759-70.758 70.759h-33.069c7.751-9.854 13.495-20.868 17.134-31.847h15.936c21.455 0 38.911-17.456 38.911-38.912 0-21.455-17.456-38.911-38.911-38.911h-10.576v-31.848zm-171.529-220.37c-3.838-3.838-3.958-10.198 0-14.156l12.678-12.678c3.903-3.902 10.253-3.903 14.155 0 3.903 3.903 3.903 10.254 0 14.156-13.478 13.476-12.82 12.871-13.65 13.513-.001 0-.001.001-.002.001-3.941 3.053-9.619 2.726-13.181-.836zm130.29-46.749c25.162-24.916 65.88-25.179 90.737-.619l.004.004c.01.01.02.02.03.03 25.313 25.028 25.337 65.891.261 90.968l-10.722 10.722c-6.452 6.451-16.912 6.665-23.315.473-6.606-6.387-6.703-16.929-.201-23.431l10.702-10.702c12.28-12.28 12.591-32.672-.087-44.909-12.19-11.781-31.86-11.612-43.848.376l-46.212 46.212c-.018-.009-.037-.018-.055-.026-4.648-2.316-9.538-4.415-14.608-6.322 3.715-9.874 6.174-20.535 5.654-31.115zm-235.076-33.405c3.904-3.903 10.255-3.903 14.157 0 18.29 18.29-1.641-1.642 12.69 12.691 3.894 3.91 3.877 10.243-.012 14.143-3.907 3.907-10.258 3.899-14.156 0l-12.677-12.677c-3.818-3.818-3.973-10.186-.002-14.157zm-8.67 26.698 10.742 10.742c9.822 9.821 25.875 9.758 35.597-.24 9.568-9.814 9.434-25.459-.217-35.118-.004-.004-.007-.008-.011-.011l-5.255-5.255c5.897-3.148 12.118-6.131 18.587-8.913 10.836-4.661 23.309-2.859 32.55 4.702 10.255 8.39 25.545 14.276 41.732 20.507 25.745 9.91 52.368 20.158 60.713 40.416 4.956 12.032 2.374 25.675-2.257 37.893-14.539-4.305-29.942-7.374-44.886-9.737l3.602-3.602c9.75-9.751 9.75-25.617 0-35.369-9.75-9.751-25.618-9.752-35.369 0l-12.679 12.679c-5.185 5.185-7.908 12.481-7.237 19.931-7.557-.743-16.425-1.557-23.993-2.249-27.609-2.521-76.645-6.202-90.475-16.346 3.535-10.479 9.856-20.543 18.856-30.03zm-72.354 175.187h71.032c4.142 0 7.5-3.358 7.5-7.5s-3.358-7.5-7.5-7.5h-65.383c-12.641-24.501-15.581-47.228-8.737-67.612 9.582-28.534 36.028-45.461 46.645-51.281 16.862 13.633 63.013 16.727 98.164 19.938 11.46 1.042 22.749 2.085 33.914 3.252 4.487 4.283 10.635 6.891 17.251 6.891 4.321 0 8.641-1.115 12.494-3.335 34.881 4.856 91.929 15.031 110.174 45.377 7.577 12.604 8.346 27.942 2.315 46.77h-216.838c-4.142 0-7.5 3.358-7.5 7.5s3.358 7.5 7.5 7.5h221.024c15.603 0 28.298 12.694 28.298 28.298 0 15.577-12.682 28.298-28.298 28.298h-49.456c-4.142 0-7.5 3.358-7.5 7.5s3.358 7.5 7.5 7.5h49.456c3.313 0 6.752-.422 9.709-1.103v104.573c0 49.971-40.674 90.392-90.392 90.392h-160.688c-49.842 0-90.392-40.55-90.392-90.392v-104.574c3.028.698 6.427 1.103 9.709 1.103h242.6c4.142 0 7.5-3.358 7.5-7.5s-3.358-7.5-7.5-7.5h-242.601c-15.588 0-28.298-12.695-28.298-28.298 0-15.602 12.695-28.297 28.298-28.297z"></path></g></g></svg>