<!-- icon666.com - MILLIONS OF FREE VECTOR ICONS --><svg version="1.1" id="Capa_1" xmlns="http://www.w3.org/2000/svg" xmlns:xlink="http://www.w3.org/1999/xlink" x="0px" y="0px" viewBox="0 0 512.001 512.001" style="enable-background:new 0 0 512.001 512.001;" xml:space="preserve"><g><path style="fill:#EB98A3;" d="M369.049,7.5H142.952c-16.325,0-29.56,13.234-29.56,29.56v48.462L256.001,134.1l142.608-48.579 V37.06C398.609,20.734,385.375,7.5,369.049,7.5z"></path><polygon style="fill:#EB98A3;" points="329.421,237.146 201.349,192.984 44.204,237.146 44.204,432.934 186.812,459.432 329.421,432.934 370.639,335.04 "></polygon></g><path style="fill:#EEECED;" d="M113.393,85.521l-59.788,83.958c-6.114,8.586-9.4,18.865-9.4,29.405v38.262h285.216v195.788H44.204 v39.814c0,17.536,14.216,31.752,31.752,31.752h253.465l69.188-65.677V85.521H113.393z"></path><path style="fill:#D4D2D3;" d="M467.797,237.147v-38.262c0-10.541-3.286-20.819-9.4-29.406l-59.788-83.958l-59.788,83.958 c-6.114,8.586-9.4,18.865-9.4,29.406V504.5h106.625c17.536,0,31.752-14.216,31.752-31.752v-39.814L398.61,335.04L467.797,237.147z"></path><rect x="329.421" y="237.15" style="fill:#FA7578;" width="138.38" height="195.79"></rect><path d="M123.266,309.913c-4.142,0-7.5,3.358-7.5,7.5v11.409c0,4.142,3.358,7.5,7.5,7.5s7.5-3.358,7.5-7.5v-11.409 C130.766,313.271,127.408,309.913,123.266,309.913z"></path><path d="M249.349,309.913c-4.142,0-7.5,3.358-7.5,7.5v11.409c0,4.142,3.358,7.5,7.5,7.5s7.5-3.358,7.5-7.5v-11.409 C256.849,313.271,253.491,309.913,249.349,309.913z"></path><path d="M210.361,323.149c-3.119-2.727-7.857-2.408-10.583,0.71c-3.275,3.746-8.185,5.895-13.471,5.895s-10.196-2.148-13.471-5.895 c-2.726-3.119-7.464-3.437-10.583-0.71c-3.119,2.726-3.437,7.464-0.71,10.583c6.123,7.005,15.149,11.022,24.764,11.022 c9.614,0,18.64-4.017,24.764-11.021C213.797,330.614,213.48,325.875,210.361,323.149z"></path><path d="M406.109,83.124V37.06c0-20.435-16.625-37.06-37.06-37.06H142.953c-20.435,0-37.06,16.625-37.06,37.06v46.064 l-58.397,82.005c-7.06,9.913-10.792,21.585-10.792,33.756v273.864c0,21.644,17.608,39.252,39.252,39.252h360.089 c21.644,0,39.252-17.608,39.252-39.251V198.884c0-12.17-3.731-23.843-10.791-33.756L406.109,83.124z M460.297,198.884v30.762 H336.921v-30.762c0-9.033,2.77-17.697,8.01-25.055l53.679-75.378l53.679,75.378C457.528,181.188,460.297,189.851,460.297,198.884z M460.297,425.435H336.921V244.646h123.376L460.297,425.435L460.297,425.435z M51.705,244.646h270.216v180.788H51.705V244.646z M51.705,198.884c0-9.033,2.77-17.697,8.01-25.055l57.545-80.808h41.486c4.142,0,7.5-3.358,7.5-7.5s-3.358-7.5-7.5-7.5h-37.853 V37.06c0-12.164,9.896-22.06,22.06-22.06H369.05c12.164,0,22.06,9.896,22.06,22.06v40.962H188.746c-4.142,0-7.5,3.358-7.5,7.5 s3.358,7.5,7.5,7.5h195.315l-51.349,72.107c-7.06,9.913-10.792,21.585-10.792,33.756v30.762H51.705V198.884z M51.705,472.748 v-32.313h270.216V497H75.957C62.584,497,51.705,486.121,51.705,472.748z M436.045,497h-99.124v-56.565h123.376v32.314 C460.297,486.121,449.418,497,436.045,497z"></path></svg>