<!-- icon666.com - MILLIONS OF FREE VECTOR ICONS --><svg id="Capa_1" enable-background="new 0 0 512 512" viewBox="0 0 512 512" xmlns="http://www.w3.org/2000/svg"><path d="m321.171 119.168v-44.745h-130.342v44.745c0 20.351-7.597 39.969-21.304 55.012l-31.963 35.079c-13.707 15.043-21.304 34.661-21.304 55.012v173.853c0 36.658 29.717 66.375 66.375 66.375h146.735c36.658 0 66.375-29.717 66.375-66.375v-173.852c0-20.351-7.597-39.969-21.304-55.012l-31.963-35.079c-13.707-15.044-21.305-34.662-21.305-55.013z" fill="#a3defe"></path><path d="m217.653 74.423h-26.825v44.745c0 20.351-7.597 39.969-21.304 55.012l-31.963 35.08c-13.707 15.043-21.304 34.661-21.304 55.012v173.853c0 36.658 29.717 66.375 66.375 66.375h114.515c-88.298-52.504-83.231-245.851-79.494-430.077z" fill="#7acefa"></path><path d="m329.367 504.5c36.658 0 66.375-29.717 66.375-66.375v-173.853c0-20.351-7.597-39.969-21.304-55.012l-31.963-35.079c-13.707-15.043-21.304-34.661-21.304-55.012 0 16.697-47.906 15.214-67.174 9.219-11.995-3.732-39.832-10.313-63.169-10.206v.987c0 20.351-7.597 39.969-21.304 55.012l-31.963 35.079c-13.707 15.043-21.304 34.661-21.304 55.012v173.853c0 36.658 29.717 66.375 66.375 66.375z" fill="#fcf2d0"></path><path d="m216.753 120.212c-8.595-1.244-17.549-2.069-25.925-2.031v.987c0 20.351-7.597 39.969-21.304 55.012l-31.963 35.08c-13.707 15.043-21.304 34.661-21.304 55.012v173.853c0 36.658 29.717 66.375 66.375 66.375h114.516c-80.999-48.164-83.432-214.846-80.395-384.288z" fill="#f6e3a3"></path><path d="m216.753 120.212c-8.595-1.244-17.549-2.069-25.925-2.031v.987c0 20.351-7.597 39.969-21.304 55.012l-31.963 35.08c-13.707 15.043-21.304 34.661-21.304 55.012v173.853c0 36.658 29.717 66.375 66.375 66.375h114.516c-80.999-48.164-83.432-214.846-80.395-384.288z" fill="#f6e3a3"></path><path d="m194.094 232.264c-.821-32.723-9.318-49.267-23.193-59.666-.457.529-.904 1.065-1.376 1.583l-31.963 35.079c-13.707 15.043-21.304 34.661-21.304 55.012v12.212c6.25-.798 12.851-.353 20.171 1.529 19.221 4.943 58.763-1.98 57.665-45.749z" fill="#4e5660"></path><path d="m395.743 264.272c0-4.09-.321-8.147-.923-12.147-7.644 10.087-19.611 20.199-37.615 27.259-38.035 14.915-34.326 61.888-1.759 75.242 12.795 5.246 27.884 10.631 40.297 17.115z" fill="#4e5660"></path><path d="m302.571 388.147h-92.301c-12.742 0-23.071 10.329-23.071 23.071v22.885c0 12.742 10.329 23.071 23.071 23.071h92.302c12.742 0 23.071-10.329 23.071-23.071v-22.885c-.001-12.742-10.33-23.071-23.072-23.071z" fill="#a3defe"></path><path d="m210.269 388.147c-12.742 0-23.071 10.329-23.071 23.071v22.885c0 12.741 10.329 23.071 23.071 23.071h44.281c-10.309-19.405-17.97-42.751-23.626-69.026h-20.655z" fill="#7acefa"></path><path d="m314.041 7.5h-116.082c-18.271 0-33.083 14.812-33.083 33.083v19.243c0 8.062 6.535 14.597 14.597 14.597h153.056c8.062 0 14.597-6.535 14.597-14.597v-19.243c-.001-18.271-14.813-33.083-33.085-33.083z" fill="#9ca9ba"></path><path d="m262.786 74.423c-14.45-12.121-17.393-44.175-13.5-66.923h-51.328c-18.271 0-33.083 14.812-33.083 33.083v19.243c0 8.062 6.535 14.597 14.597 14.597z" fill="#7c899a"></path><path d="m276.282 430.16h-39.723c-4.142 0-7.5-3.358-7.5-7.5s3.358-7.5 7.5-7.5h39.723c4.142 0 7.5 3.358 7.5 7.5s-3.358 7.5-7.5 7.5z" fill="#fff"></path><ellipse cx="256" cy="326.171" fill="#d2896f" rx="22.593" ry="24.153"></ellipse><path d="m270.568 246.189h-29.136c-5.12 0-9.553 3.556-10.664 8.555l-11.197 50.388c-1.169 5.259 1.942 10.523 7.113 12.035 19.143 5.6 39.49 5.6 58.633 0 5.171-1.512 8.282-6.776 7.113-12.035l-11.197-50.388c-1.112-4.999-5.545-8.555-10.665-8.555z" fill="#efd176"></path><path d="m402.268 251.313c-.021-.192-.051-.382-.086-.572-2.389-15.466-8.811-30.19-18.701-42.452-2.6-3.225-7.322-3.73-10.546-1.129-3.224 2.6-3.73 7.322-1.129 10.546 7.598 9.421 12.733 20.59 15.041 32.378-7.965 9.504-18.837 17.008-32.38 22.318-19.96 7.828-31.968 24.349-32.121 44.194-.152 19.72 11.723 37.372 30.254 44.971 3.403 1.395 6.872 2.763 10.545 4.211 8.506 3.354 17.25 6.809 25.098 10.599v61.749c0 32.464-26.412 58.875-58.876 58.875h-146.734c-24.585 0-46.799-15.496-55.278-38.56-1.43-3.888-5.741-5.879-9.627-4.452-3.888 1.43-5.881 5.74-4.452 9.627 10.64 28.94 38.512 48.384 69.357 48.384h146.734c40.735 0 73.876-33.14 73.876-73.875v-66.482c0-.008 0-.017 0-.025v-107.346c0-4.353-.342-8.682-.975-12.959zm-14.025 108.542c-6.414-2.833-13.074-5.461-19.595-8.032-3.625-1.43-7.048-2.779-10.356-4.136-12.829-5.26-21.05-17.419-20.946-30.976.104-13.493 8.552-24.837 22.597-30.345 10.873-4.263 20.336-9.793 28.3-16.518zm-208.544 51.362v22.885c0 16.857 13.714 30.571 30.571 30.571h92.302c16.857 0 30.571-13.714 30.571-30.571v-22.885c0-16.857-13.714-30.571-30.571-30.571h-92.302c-16.857.001-30.571 13.714-30.571 30.571zm138.443 0v22.885c0 8.586-6.985 15.571-15.571 15.571h-92.302c-8.586 0-15.571-6.985-15.571-15.571v-22.885c0-8.586 6.985-15.571 15.571-15.571h92.302c8.586.001 15.571 6.985 15.571 15.571zm-194.385 14.169v-141.745c3.443.124 7.018.663 10.803 1.636 4.062 1.044 8.714 1.629 13.638 1.629 11.714 0 24.958-3.311 35.396-11.616 8.534-6.79 18.584-19.8 17.997-43.214-.713-28.42-7.05-47.463-20.337-60.463 9.751-13.39 15.564-29.194 16.802-45.761 20.997 1.044 43.75 6.597 53.713 9.697 7.865 2.447 21.589 4.499 35.242 4.499 10.302 0 20.554-1.175 28.225-4.226 3.049 16.094 10.49 31.111 21.695 43.409l10.559 11.588c1.48 1.624 3.509 2.449 5.546 2.449 1.803 0 3.612-.646 5.049-1.956 3.062-2.79 3.282-7.534.493-10.595l-10.559-11.588c-12.477-13.693-19.348-31.436-19.348-49.961v-37.245h3.856c12.184 0 22.097-9.913 22.097-22.097v-19.243c0-22.377-18.205-40.583-40.583-40.583h-116.083c-22.377 0-40.583 18.206-40.583 40.583v19.243c0 12.184 9.913 22.097 22.097 22.097h3.856v37.245c0 18.525-6.871 36.268-19.348 49.961l-31.963 35.08c-14.999 16.461-23.26 37.793-23.26 60.063v161.114c0 4.142 3.358 7.5 7.5 7.5s7.5-3.358 7.5-7.5zm189.914-306.218c0 .363-.548.843-1.009 1.182-8.497 6.257-40.394 5.868-56.437.876-10.685-3.324-35.182-9.298-57.897-10.375v-28.928h115.343zm-134.199-52.245c-3.913 0-7.097-3.184-7.097-7.097v-19.243c0-14.107 11.477-25.583 25.583-25.583h116.083c14.106 0 25.583 11.477 25.583 25.583v19.243c0 3.913-3.184 7.097-7.097 7.097zm-55.715 197.349c0-18.524 6.871-36.268 19.348-49.961l28.424-31.195c9.887 10.218 14.468 25.476 15.067 49.336.347 13.845-3.805 24.309-12.341 31.1-10.254 8.158-25.851 9.795-35.96 7.197-5.041-1.296-9.853-2-14.539-2.124v-4.353zm175.994 39.233-11.197-50.388c-1.888-8.495-9.284-14.428-17.986-14.428h-29.136c-8.702 0-16.098 5.933-17.986 14.428l-11.197 50.388c-2.019 9.084 3.397 18.247 12.329 20.86.458.134.919.249 1.379.377-.02.476-.049.951-.049 1.429 0 17.454 13.499 31.653 30.093 31.653s30.093-14.199 30.093-31.653c0-.478-.029-.953-.049-1.429.459-.128.921-.243 1.379-.377 8.93-2.613 14.345-11.776 12.327-20.86zm-43.751 39.319c-7.809 0-14.251-6.578-15.016-14.975 4.985.677 10 1.027 15.016 1.027s10.031-.35 15.016-1.027c-.765 8.397-7.207 14.975-15.016 14.975zm27.211-32.855c-2.279.667-4.574 1.245-6.882 1.741-.038.007-.076.016-.115.023-13.34 2.85-27.091 2.849-40.431-.001-.038-.007-.076-.016-.114-.022-2.307-.496-4.603-1.074-6.881-1.741-1.375-.402-2.208-1.813-1.898-3.21l11.197-50.388c.351-1.579 1.726-2.682 3.343-2.682h29.136c1.618 0 2.992 1.103 3.343 2.682l11.197 50.388c.313 1.397-.521 2.807-1.895 3.21z"></path></svg>