<!-- icon666.com - MILLIONS OF FREE VECTOR ICONS --><svg id="Capa_1" enable-background="new 0 0 512.004 512.004" viewBox="0 0 512.004 512.004" xmlns="http://www.w3.org/2000/svg"><g><g><path d="m449.983 504.5h-387.966c-30.108 0-54.517-24.408-54.517-54.517v-387.966c0-30.108 24.409-54.517 54.517-54.517h387.966c30.109 0 54.517 24.408 54.517 54.517v387.966c0 30.109-24.408 54.517-54.517 54.517z" fill="#c2eafb"></path><path d="m125.291 214.598c0-76.736 23.376-148.012 63.392-207.098h-126.665c-30.109 0-54.518 24.408-54.518 54.517v387.966c0 30.109 24.408 54.517 54.517 54.517h203.487c-85.421-67.734-140.213-172.417-140.213-289.902z" fill="#91d4f2"></path></g><g><path d="m394.089 458.654h-276.177c-29.068 0-52.632-23.564-52.632-52.632v-156.951h381.44v156.952c.001 29.067-23.564 52.631-52.631 52.631z" fill="#ff758f"></path><path d="m126.882 249.071h-61.601v156.952c0 29.068 23.564 52.632 52.632 52.632h99.358c-50.139-57.027-82.995-129.614-90.389-209.584z" fill="#ff5f7f"></path></g><path d="m226.821 304.384h-43.999v-69.283h58.999v54.283c0 8.284-6.715 15-15 15z" fill="#00c780"></path><g><path d="m449.983 7.5h-387.965c-30.109 0-54.518 24.408-54.518 54.517v105.004h497v-105.004c0-30.109-24.408-54.517-54.517-54.517z" fill="#5972a5"></path><path d="m188.683 7.5h-126.665c-30.109 0-54.518 24.408-54.518 54.517v105.004h120.825c7.524-58.568 28.748-112.847 60.358-159.521z" fill="#3b5a9b"></path></g><circle cx="99.014" cy="97.697" fill="#c2eafb" r="30.853"></circle><circle cx="412.987" cy="97.697" fill="#c2eafb" r="30.853"></circle><circle cx="255.996" cy="118.165" fill="#78cbed" r="12.915"></circle><path d="m443.397 259.339h-374.793c-9.924 0-17.97-8.045-17.97-17.97v-14.376c0-9.924 8.045-17.97 17.97-17.97h374.793c9.924 0 17.97 8.045 17.97 17.97v14.376c-.001 9.925-8.046 17.97-17.97 17.97z" fill="#5972a5"></path><path d="m125.291 214.598c0-1.862.018-3.719.045-5.574h-56.732c-9.924 0-17.969 8.045-17.969 17.969v14.376c0 9.924 8.045 17.969 17.969 17.969h59.373c-1.769-14.666-2.686-29.596-2.686-44.74z" fill="#3b5a9b"></path><g><path d="m186.271 337.816h-72.683c-8.284 0-15-6.716-15-15v-108.792c0-8.284 6.716-15 15-15h72.683c8.284 0 15 6.716 15 15v108.792c0 8.284-6.716 15-15 15z" fill="#36d49b"></path><path d="m125.291 214.598c0-5.218.114-10.409.328-15.574h-12.031c-8.284 0-15 6.716-15 15v108.792c0 8.284 6.716 15 15 15h32.731c-13.617-38.541-21.028-80.014-21.028-123.218z" fill="#00c780"></path></g><g fill="#fff"><ellipse cx="174.196" cy="405.169" rx="29.355" ry="23.377"></ellipse><ellipse cx="333.31" cy="405.169" rx="29.355" ry="23.377"></ellipse></g></g><g><path d="m494.195 18.583c-11.26-11.459-26.916-18.583-44.212-18.583h-295.98c-4.143 0-7.5 3.357-7.5 7.5v.002s0 .001 0 .002c0 4.143 3.357 7.5 7.5 7.5h295.98c13.773 0 26.183 5.952 34.79 15.418 7.594 8.354 12.228 19.444 12.228 31.596v97.504h-481.998v-97.508c0-25.921 21.089-47.01 47.01-47.01h56.99c4.143 0 7.5-3.357 7.5-7.5 0-.519-.053-1.026-.153-1.515-.7-3.418-3.723-5.989-7.348-5.989h-56.984c-34.197 0-62.017 27.821-62.017 62.018l.002 387.967c0 34.197 27.817 62.02 62.01 62.02h285.121c4.143 0 7.5-3.357 7.5-7.5s-3.357-7.5-7.5-7.5h-285.121c-25.921 0-47.01-21.093-47.01-47.02v-275.464h482v275.463c0 25.927-21.093 47.02-47.02 47.02h-67.85c-4.143 0-7.5 3.357-7.5 7.5s3.357 7.5 7.5 7.5h67.85c34.197 0 62.02-27.822 62.02-62.02v-387.97c0-16.9-6.805-32.235-17.808-43.431z"></path><path d="m311.019 75.371c2.782 3.067 7.525 3.298 10.594.514 3.067-2.783 3.298-7.526.514-10.594-16.925-18.652-41.028-29.35-66.13-29.35-25.105 0-49.207 10.698-66.123 29.352-2.782 3.068-2.551 7.812.518 10.594 1.436 1.303 3.238 1.944 5.036 1.944 2.042 0 4.077-.829 5.558-2.462 14.079-15.524 34.13-24.428 55.012-24.428 20.877 0 40.933 8.905 55.021 24.43z"></path><path d="m289.039 101.518c2.419 3.363 7.107 4.125 10.468 1.706 3.362-2.419 4.126-7.106 1.706-10.468-10.461-14.535-27.364-23.213-45.217-23.213-17.854 0-34.756 8.682-45.211 23.225-2.418 3.363-1.651 8.05 1.712 10.468 1.325.952 2.855 1.411 4.372 1.411 2.331 0 4.63-1.085 6.096-3.123 7.644-10.633 19.992-16.98 33.031-16.98 13.04-.001 25.393 6.345 33.043 16.974z"></path><path d="m235.581 118.165c0 11.257 9.158 20.415 20.415 20.415 11.258 0 20.416-9.158 20.416-20.415 0-11.258-9.158-20.416-20.416-20.416-11.257 0-20.415 9.158-20.415 20.416zm25.831 0c0 2.986-2.43 5.415-5.416 5.415s-5.415-2.429-5.415-5.415 2.429-5.416 5.415-5.416 5.416 2.43 5.416 5.416z"></path><path d="m99.014 38.471c-4.143 0-7.5 3.357-7.5 7.5v14.114c-17.57 3.498-30.854 19.03-30.854 37.612 0 21.148 17.205 38.354 38.354 38.354s38.354-17.205 38.354-38.354c0-18.582-13.284-34.115-30.854-37.612v-14.114c0-4.143-3.358-7.5-7.5-7.5zm23.353 59.226c0 12.877-10.477 23.354-23.354 23.354s-23.353-10.477-23.353-23.354 10.477-23.354 23.354-23.354 23.353 10.477 23.353 23.354z"></path><path d="m450.6 105.197h14.113c4.143 0 7.5-3.357 7.5-7.5s-3.357-7.5-7.5-7.5h-14.113c-3.498-17.569-19.03-30.854-37.612-30.854-21.148 0-38.354 17.205-38.354 38.354s17.205 38.354 38.354 38.354c18.581 0 34.114-13.284 37.612-30.854zm-60.966-7.5c0-12.877 10.477-23.354 23.354-23.354s23.354 10.477 23.354 23.354-10.477 23.354-23.354 23.354-23.354-10.477-23.354-23.354z"></path><path d="m117.913 466.154h276.18c33.155 0 60.13-26.974 60.13-60.13v-141.61c8.756-4.11 14.641-12.99 14.641-23.04v-14.38c0-14.044-11.426-25.47-25.471-25.47h-238.425c-4.107-6.136-11.077-10-18.695-10h-72.68c-7.626 0-14.601 3.87-18.7 10h-26.29c-14.044 0-25.47 11.426-25.47 25.47v14.38c0 10.057 5.886 18.937 14.65 23.044v141.606c0 33.157 26.975 60.13 60.13 60.13zm276.18-15h-276.18c-24.885 0-45.13-20.245-45.13-45.13v-139.19h18.31v55.98c0 12.406 10.094 22.5 22.5 22.5h72.68c12.406 0 22.5-10.094 22.5-22.5v-10.931h18.051c12.406 0 22.5-10.094 22.5-22.5v-22.55h189.899v139.19c0 24.886-20.245 45.131-45.13 45.131zm-185.321-184.32h25.551v22.55c0 4.136-3.364 7.5-7.5 7.5h-18.051zm245.091-39.84v14.38c0 5.032-3.583 9.354-8.501 10.274-.676.125-1.319.186-1.97.186h-234.62v-35.31h234.62c5.774 0 10.471 4.697 10.471 10.47zm-347.77-12.97c0-.857.143-1.69.435-2.509 1.052-2.985 3.891-4.991 7.065-4.991h72.68c3.175 0 6.015 2.006 7.076 5.019.281.789.424 1.624.424 2.481v108.79c0 4.136-3.364 7.5-7.5 7.5h-72.68c-4.136 0-7.5-3.364-7.5-7.5zm-47.96 12.97c0-5.773 4.696-10.47 10.47-10.47h22.49v35.31h-22.49c-.634 0-1.293-.062-1.948-.184-4.938-.918-8.521-5.24-8.521-10.276v-14.38z"></path><path d="m191.304 363.166c-4.143 0-7.5 3.357-7.5 7.5v12c0 4.143 3.357 7.5 7.5 7.5s7.5-3.357 7.5-7.5v-12c0-4.143-3.358-7.5-7.5-7.5z"></path><path d="m316.201 363.166c-4.143 0-7.5 3.357-7.5 7.5v12c0 4.143 3.357 7.5 7.5 7.5s7.5-3.357 7.5-7.5v-12c0-4.143-3.357-7.5-7.5-7.5z"></path><path d="m275.144 376.654c-3.123-2.721-7.86-2.396-10.581.728-2.729 3.132-6.669 4.928-10.81 4.928s-8.08-1.796-10.81-4.928c-2.721-3.124-7.459-3.448-10.581-.728-3.123 2.721-3.449 7.459-.728 10.581 5.578 6.402 13.641 10.074 22.118 10.074s16.54-3.672 22.118-10.074c2.723-3.122 2.397-7.86-.726-10.581z"></path></g></svg>