<!-- icon666.com - MILLIONS OF FREE VECTOR ICONS --><svg id="Capa_1" enable-background="new 0 0 511.983 511.983" viewBox="0 0 511.983 511.983" xmlns="http://www.w3.org/2000/svg"><path d="m97.97 283.875c-6.321 0-12.574-1.977-17.83-5.796-8.098-5.883-12.769-15.369-12.494-25.376l1.549-56.316-34.355-44.65c-6.105-7.935-7.902-18.355-4.809-27.875s10.671-16.894 20.273-19.724l54.04-15.929 31.849-46.472c5.66-8.258 15.014-13.187 25.024-13.187 10.009 0 19.364 4.929 25.023 13.186l31.849 46.473 54.038 15.929c9.602 2.832 17.181 10.205 20.275 19.725 3.093 9.519 1.295 19.939-4.809 27.873l-34.356 44.651 1.548 56.316c.276 10.006-4.395 19.492-12.493 25.376-8.098 5.886-18.564 7.394-27.996 4.04l-53.081-18.875-53.082 18.875c-3.307 1.177-6.745 1.756-10.163 1.756zm64.191-20.967c-.001 0-.001 0-.002 0l-.005.002c.003-.001.005-.001.007-.002zm-98.543-128.135 32.462 42.19c4.242 5.516 6.473 12.381 6.282 19.334l-1.463 53.212 50.156-17.835h-.002c6.555-2.331 13.776-2.331 20.331 0l50.154 17.835-1.463-53.212c-.191-6.953 2.04-13.818 6.281-19.332l32.463-42.192-51.061-15.051c-6.675-1.968-12.514-6.211-16.446-11.948l-30.094-43.911-30.093 43.91c-3.934 5.739-9.773 9.981-16.443 11.948zm92.989 112.518h.011z" fill="#9ca9ba"></path><path d="m286.902 504.483c-8.575 0-17.147-3.263-23.675-9.79l-30.497-30.497c-13.055-13.055-13.055-34.298-.001-47.353l24.817-24.817c-14.534-21.026-23.346-39.365-28.96-51.047-3.881-8.075-3.316-17.402 1.51-24.949 4.826-7.549 13.073-11.963 22.015-11.839l48.991.733c-5.387-9.727-9.393-18.064-12.319-24.153-3.879-8.075-3.314-17.401 1.512-24.946 4.826-7.546 13.002-11.988 22.012-11.836l131.745 1.973c20.667.31 37.099 16.742 37.409 37.408l1.973 131.746c.134 8.96-4.293 17.188-11.839 22.014-7.545 4.824-16.867 5.387-24.942 1.51-6.089-2.926-14.426-6.931-24.155-12.319l.734 48.991c.134 8.961-4.294 17.191-11.841 22.016-7.55 4.825-16.874 5.389-24.949 1.508-11.683-5.614-30.021-14.426-51.045-28.958l-24.817 24.817c-6.528 6.523-15.103 9.787-23.678 9.788zm103.183-28.679h.011zm-126.282-138.285c6.267 12.41 15.332 28.729 28.646 46.156 5.042 6.599 4.421 15.911-1.451 21.782l-34.827 34.826c-.13.129-.13.342.001.472l30.496 30.496c.131.129.341.127.473-.001l34.825-34.826c5.873-5.874 15.184-6.491 21.783-1.451 17.425 13.312 33.743 22.378 46.154 28.645l-1.003-67.022c-.093-6.201 3.283-11.934 8.749-14.861 5.468-2.928 12.11-2.557 17.22.957 13.275 9.135 25.411 15.771 35.238 20.728l-1.79-119.555c-.04-2.629-2.13-4.719-4.76-4.759l-119.553-1.79c4.958 9.828 11.594 21.965 20.727 35.237 3.515 5.109 3.885 11.752.958 17.22-2.928 5.466-8.673 8.793-14.862 8.75z" fill="#9ca9ba"></path><path d="m263.587 150.575-33.123-15.745c-13.471-6.404-16.311-24.337-5.478-34.59l26.636-25.211c3.546-3.356 5.827-7.833 6.458-12.674l4.739-36.368c1.927-14.79 18.105-23.033 31.204-15.899l32.207 17.542c4.288 2.336 9.25 3.121 14.05 2.225l36.052-6.731c14.662-2.737 27.501 10.102 24.764 24.763l-6.731 36.052c-.896 4.8-.11 9.762 2.225 14.05l17.542 32.208c7.134 13.098-1.109 29.276-15.899 31.204l-36.368 4.739c-4.842.631-9.318 2.912-12.674 6.458l-25.211 26.636c-10.253 10.833-28.186 7.992-34.59-5.478l-15.746-33.123c-2.095-4.409-5.648-7.962-10.057-10.058z" fill="#e1b89a"></path><path d="m273.645 160.633 15.746 33.123c6.403 13.471 24.337 16.311 34.59 5.479l18.658-19.714c-49.564-31.305-59.833-124.466-52.86-171.182-12.121-3.556-25.236 4.424-26.96 17.648l-4.739 36.368c-.631 4.842-2.912 9.318-6.458 12.674l-26.636 25.21c-10.833 10.253-7.992 28.186 5.479 34.59l33.123 15.746c4.408 2.096 7.961 5.649 10.057 10.058z" fill="#d2996f"></path><path d="m283.068 353.725c15.521-3.286 28.395-7.372 38.492-10.831 8.918-3.055 11.458-14.447 4.694-21.012l-84.033-81.554c-9.509-9.228-24.63-9.228-34.139 0l-84.033 81.554c-6.765 6.565-4.224 17.958 4.694 21.012 10.097 3.459 22.971 7.545 38.492 10.831 3.02.639 4.107 4.391 1.892 6.541l-45.072 43.742c-6.768 6.569-4.223 17.965 4.7 21.02 13.675 4.684 32.442 10.516 55.976 13.955 1.895.277 3.308 1.888 3.308 3.804v40.313c0 11.14 9.031 20.17 20.17 20.17h33.887c11.14 0 20.17-9.03 20.17-20.17v-40.313c0-1.915 1.413-3.527 3.308-3.804 23.534-3.439 42.301-9.271 55.976-13.955 8.923-3.056 11.468-14.452 4.7-21.02l-45.072-43.742c-2.218-2.15-1.131-5.902 1.89-6.541z" fill="#e1b89a"></path><path d="m246.604 502.746c-37.268-32.916-66.342-172.554-43.383-257.703l-79.174 76.838c-6.765 6.565-4.224 17.957 4.694 21.012 10.097 3.459 22.971 7.545 38.492 10.831 3.02.64 4.107 4.392 1.892 6.542l-45.072 43.743c-6.768 6.568-4.223 17.964 4.7 21.02 13.675 4.684 32.442 10.516 55.976 13.955 1.895.277 3.308 1.888 3.308 3.804v40.313c0 11.14 9.031 20.17 20.17 20.17h33.887c1.552 0 3.058-.192 4.51-.525z" fill="#d2996f"></path><ellipse cx="168.745" cy="333.365" fill="#fff" rx="20.812" ry="16.574"></ellipse><ellipse cx="281.555" cy="333.365" fill="#fff" rx="20.812" ry="16.574"></ellipse><path d="m180.875 324.91c-4.142 0-7.5-3.357-7.5-7.5v-8.508c0-4.143 3.358-7.5 7.5-7.5s7.5 3.357 7.5 7.5v8.508c0 4.143-3.358 7.5-7.5 7.5z" fill="#4e5660"></path><path d="m269.425 324.91c-4.143 0-7.5-3.357-7.5-7.5v-8.508c0-4.143 3.357-7.5 7.5-7.5s7.5 3.357 7.5 7.5v8.508c0 4.143-3.357 7.5-7.5 7.5z" fill="#4e5660"></path><path d="m225.15 329.976c-6.642 0-12.958-2.876-17.327-7.892-2.721-3.122-2.395-7.86.727-10.581s7.861-2.396 10.581.728c1.52 1.744 3.714 2.745 6.019 2.745s4.498-1.001 6.018-2.746c2.722-3.123 7.458-3.447 10.582-.727 3.122 2.722 3.448 7.459.727 10.582-4.37 5.015-10.686 7.891-17.327 7.891z" fill="#4e5660"></path><g fill="#d2996f"><path d="m240.565 276.134c0-3.988-3.233-7.222-7.222-7.222-3.988 0-7.222 3.233-7.222 7.222s3.233 7.222 7.222 7.222c3.988 0 7.222-3.234 7.222-7.222z"></path><path d="m261.048 378.521c0-3.989-3.233-7.222-7.222-7.222s-7.222 3.233-7.222 7.222c0 3.988 3.233 7.222 7.222 7.222s7.222-3.234 7.222-7.222z"></path><path d="m233.343 453.815c0-3.989-3.233-7.222-7.222-7.222-3.988 0-7.222 3.233-7.222 7.222 0 3.988 3.233 7.222 7.222 7.222 3.988 0 7.222-3.233 7.222-7.222z"></path></g><circle cx="177.935" cy="398.872" fill="#e1b89a" r="7.222"></circle><path d="m372.583 58.315c0-3.988-3.233-7.222-7.222-7.222s-7.222 3.233-7.222 7.222 3.233 7.222 7.222 7.222 7.222-3.233 7.222-7.222z" fill="#d2996f"></path><circle cx="324.763" cy="147.697" fill="#d2996f" r="7.222"></circle><path d="m275.068 112.563c0-3.989-3.233-7.222-7.222-7.222s-7.222 3.233-7.222 7.222 3.233 7.222 7.222 7.222 7.222-3.234 7.222-7.222z" fill="#e1b89a"></path><ellipse cx="286.049" cy="63.818" fill="#fff" rx="15.449" ry="19.399" transform="matrix(.707 -.707 .707 .707 38.657 220.961)"></ellipse><ellipse cx="360.402" cy="138.171" fill="#fff" rx="15.449" ry="19.399" transform="matrix(.707 -.707 .707 .707 7.858 295.312)"></ellipse><path d="m340.606 105.539c.502 0 1.007-.018 1.511-.052 4.133-.284 7.252-3.865 6.968-7.997s-3.874-7.234-7.997-6.968c-2.004.142-3.966-.594-5.381-2.01-1.415-1.415-2.147-3.376-2.01-5.382.283-4.132-2.837-7.712-6.97-7.995-4.132-.285-7.712 2.836-7.995 6.97-.435 6.333 1.888 12.534 6.368 17.014 4.124 4.126 9.705 6.42 15.506 6.42zm22.317 21.621c1.919 0 3.839-.732 5.304-2.196l5.607-5.607c2.929-2.93 2.929-7.678 0-10.607-2.93-2.928-7.678-2.928-10.607 0l-5.607 5.607c-2.929 2.93-2.929 7.678 0 10.607 1.464 1.464 3.384 2.196 5.303 2.196zm-121.172 184.343c-3.124-2.721-7.86-2.396-10.582.727-1.52 1.745-3.714 2.746-6.018 2.746s-4.498-1.001-6.019-2.745c-2.721-3.124-7.459-3.448-10.581-.728s-3.448 7.459-.727 10.581c4.37 5.016 10.685 7.892 17.327 7.892 6.641 0 12.956-2.876 17.327-7.891 2.72-3.123 2.395-7.86-.727-10.582zm247.21-28.247c-.37-24.748-20.047-44.425-44.796-44.795l-131.729-1.973c-11.588-.177-22.209 5.522-28.458 15.294-2.724 4.259-4.397 8.957-5 13.767l-16.782-16.287-1.386-50.417 14.029-18.233 7.779 16.363c4.069 8.562 12.089 14.559 21.452 16.041 1.501.238 3.005.355 4.5.355 7.826 0 15.388-3.201 20.858-8.982l25.21-26.636c2.164-2.286 5.074-3.77 8.196-4.176l36.368-4.739c9.399-1.226 17.58-6.999 21.884-15.445s4.166-18.459-.367-26.783l-17.543-32.21c-1.506-2.763-2.017-5.989-1.439-9.084l6.73-36.053c1.739-9.318-1.224-18.883-7.927-25.586s-16.267-9.669-25.586-7.927l-36.052 6.731c-3.097.579-6.323.066-9.087-1.439l-32.205-17.541c-8.323-4.534-18.338-4.673-26.783-.367-8.446 4.303-14.22 12.484-15.445 21.885l-4.739 36.367c-.407 3.121-1.89 6.032-4.176 8.196l-15.446 14.618-8.253-2.432-30.342-44.273c-7.059-10.298-18.726-16.445-31.21-16.445-12.483 0-24.15 6.148-31.21 16.447l-30.34 44.271-25.956 7.65c-3.973 1.171-6.245 5.342-5.073 9.314.962 3.266 3.951 5.382 7.19 5.382.702 0 1.416-.1 2.124-.308l28.514-8.404c1.655-.488 3.091-1.531 4.066-2.954l31.848-46.472c4.262-6.217 11.304-9.928 18.838-9.928 7.535 0 14.577 3.711 18.837 9.926l31.849 46.474c.975 1.423 2.412 2.466 4.066 2.954l2.525.744c-4.294 4.637-6.898 10.519-7.504 16.711l-1.114-.328c-5.023-1.482-9.42-4.676-12.38-8.995l-30.094-43.911c-1.398-2.04-3.713-3.26-6.187-3.26s-4.788 1.22-6.186 3.26l-30.092 43.91c-2.961 4.319-7.357 7.514-12.378 8.994l-51.063 15.052c-2.373.7-4.248 2.524-5.012 4.877-.765 2.353-.32 4.931 1.189 6.891l32.461 42.188c3.193 4.152 4.873 9.321 4.729 14.556l-1.463 53.212c-.068 2.473 1.087 4.819 3.089 6.273 1.299.944 2.846 1.433 4.409 1.433.845 0 1.695-.143 2.512-.434l50.155-17.835c4.934-1.756 10.37-1.754 15.305 0l22.012 7.827-14.528 14.099-9.061-3.222c-2.047-1.926-5.024-2.554-7.702-1.583-.075.027-.149.056-.223.085-.063.025-.126.052-.188.079-.16.045-.319.096-.476.151l-53.083 18.875c-2.467.878-5.041 1.323-7.651 1.323-4.852 0-9.492-1.509-13.422-4.365-6.096-4.428-9.612-11.569-9.405-19.102l1.549-56.316c.047-1.725-.501-3.412-1.553-4.779l-34.355-44.649c-4.595-5.974-5.949-13.818-3.62-20.984 1.586-4.885 4.816-9.138 9.092-11.975 3.452-2.29 4.394-6.944 2.104-10.396-2.29-3.453-6.945-4.395-10.396-2.104-7.087 4.701-12.439 11.747-15.067 19.839-3.858 11.873-1.617 24.869 5.998 34.767l32.729 42.536-1.476 53.65c-.343 12.481 5.483 24.312 15.582 31.649 6.508 4.729 14.198 7.229 22.239 7.229 4.328 0 8.593-.737 12.678-2.19l50.569-17.981 3.132 1.114-45.526 44.182c-5.065 4.917-7.169 11.964-5.627 18.851 1.541 6.882 6.443 12.353 13.114 14.64 8.392 2.874 19.409 6.444 32.751 9.592l-40.232 39.046c-5.066 4.916-7.171 11.963-5.629 18.851 1.541 6.885 6.446 12.36 13.123 14.647 13.399 4.588 31.527 10.238 54.214 13.809v37.167c0 15.257 12.413 27.67 27.67 27.67h33.887c7.449 0 14.215-2.964 19.195-7.769 7.239 5.815 16.178 8.98 25.615 8.98 10.957-.001 21.249-4.259 28.979-11.987l20.44-20.44c19.378 12.828 36.373 20.993 46.87 26.037 10.432 5.013 22.482 4.288 32.236-1.946 3.49-2.23 4.512-6.868 2.282-10.358-2.231-3.491-6.87-4.511-10.358-2.282-5.347 3.417-11.948 3.813-17.663 1.067-11.741-5.642-29.485-14.168-50.028-28.368-2.978-2.058-7.006-1.695-9.567.866l-24.817 24.816c-4.897 4.897-11.423 7.594-18.374 7.595-6.758 0-13.111-2.557-17.959-7.201.533-2.141.82-4.377.82-6.681v-18.147l11.64 11.64c1.513 1.489 3.505 2.235 5.499 2.235 1.975 0 3.951-.732 5.46-2.196.027-.026.054-.053.081-.08l34.824-34.825c3.201-3.203 8.327-3.543 11.927-.795 14.243 10.881 29.725 20.491 47.327 29.38 2.345 1.184 5.135 1.056 7.359-.337 2.225-1.393 3.56-3.847 3.521-6.471l-1.004-67.022c-.051-3.41 1.784-6.528 4.79-8.137 3.007-1.61 6.618-1.408 9.429.524 11.261 7.748 22.735 14.499 36.111 21.245 2.343 1.181 5.133 1.054 7.358-.339s3.558-3.846 3.52-6.47l-1.79-119.557c-.102-6.707-5.438-12.042-12.147-12.144l-119.552-1.79c-.038-.001-.075-.001-.112-.001-2.581 0-4.985 1.328-6.357 3.521-1.393 2.225-1.521 5.015-.339 7.357 6.751 13.383 13.501 24.857 21.244 36.109 1.933 2.81 2.134 6.423.525 9.428-.437.816-.999 1.536-1.642 2.166-.56-4.456-2.605-8.645-5.958-11.899l-32.153-31.204c-1.418-2.871-2.685-5.498-3.78-7.775-2.746-5.715-2.346-12.315 1.07-17.656 3.423-5.354 9.273-8.497 15.582-8.378l131.744 1.973c16.587.249 29.773 13.436 30.023 30.021l1.973 131.745c.095 6.342-3.038 12.167-8.38 15.582-5.339 3.414-11.94 3.814-17.654 1.069-6-2.882-14.217-6.83-23.77-12.12-2.339-1.295-5.192-1.247-7.487.126-2.295 1.375-3.684 3.867-3.646 6.541l.569 39.997c.059 4.105 3.404 7.393 7.497 7.393.036 0 .072 0 .108-.001 4.142-.059 7.452-3.464 7.393-7.605l-.389-27.317c5.103 2.604 9.567 4.749 13.229 6.508 10.433 5.009 22.482 4.279 32.229-1.953 9.752-6.235 15.471-16.869 15.298-28.444zm-241.666-91.443c-1.052 1.367-1.6 3.055-1.553 4.779l1.038 37.74c-5.29-4.861-11.753-7.636-18.386-8.315l-.823-29.925c-.144-5.234 1.536-10.402 4.728-14.553l21.145-27.482 6.925 3.291c2.843 1.353 5.152 3.662 6.504 6.505l.739 1.555zm-17.155-86.126 26.636-25.21c4.785-4.528 7.889-10.62 8.74-17.153l4.739-36.366c.594-4.56 3.284-8.371 7.38-10.459 1.991-1.014 4.116-1.52 6.238-1.52 2.245 0 4.486.566 6.561 1.696l32.206 17.542c5.784 3.151 12.537 4.22 19.015 3.013l36.053-6.731c4.517-.848 8.974.535 12.226 3.787 3.251 3.251 4.631 7.708 3.787 12.228l-6.729 36.052c-1.21 6.477-.141 13.229 3.011 19.013l17.542 32.208c2.199 4.038 2.264 8.703.176 12.799-2.087 4.097-5.898 6.787-10.457 7.381l-36.367 4.739c-6.534.852-12.626 3.956-17.153 8.74l-25.21 26.636c-3.16 3.339-7.572 4.843-12.118 4.122-4.541-.719-8.277-3.513-10.251-7.665l-15.746-33.123c-2.827-5.949-7.661-10.783-13.61-13.612h-.001l-12.309-5.851c-.02-.01-.04-.019-.06-.028l-20.755-9.866c-4.152-1.974-6.946-5.71-7.665-10.251-.721-4.544.782-8.961 4.121-12.121zm-56.244 118.921c-8.176-2.908-17.181-2.908-25.355 0l-39.845 14.168 1.163-42.273c.238-8.672-2.544-17.234-7.835-24.113l-25.788-33.517 40.567-11.958c8.32-2.453 15.603-7.745 20.509-14.901l23.906-34.884 23.908 34.885c4.904 7.155 12.189 12.448 20.512 14.902l8.781 2.588c2.865 5.206 7.308 9.475 12.826 12.097l12.342 5.867-19.176 24.924c-5.289 6.876-8.071 15.438-7.832 24.11l.868 31.579c-3.816 1.512-7.41 3.789-10.557 6.835zm113.006 236.272-15.256-15.257c15.536-2.552 28.883-6.053 39.984-9.472zm43.92-114.857h.126c8.976 0 17.146-4.857 21.353-12.711 4.268-7.975 3.735-17.558-1.392-25.011-5.138-7.466-9.821-15.049-14.375-23.296l104.322 1.561 1.562 104.323c-8.244-4.552-15.828-9.236-23.299-14.376-7.451-5.128-17.035-5.66-25.011-1.392-7.974 4.27-12.844 12.54-12.708 21.586l.814 54.382c-9.589-5.295-21.341-12.472-33.914-22.077-4.149-3.169-9.064-4.786-13.993-4.908 1.294-1.988 2.253-4.218 2.792-6.626 1.542-6.888-.563-13.935-5.628-18.852l-40.233-39.046c13.342-3.147 24.358-6.718 32.751-9.592 2.573-.88 4.878-2.239 6.833-3.965zm-9.792-18.76c1.864 1.809 1.626 3.966 1.438 4.81-.09.403-.305 1.082-.766 1.772-.098.125-.198.247-.288.378-.505.621-1.224 1.212-2.284 1.575-9.341 3.2-22.058 7.296-37.615 10.59 0 0 0 0-.001 0-4.115.872-7.396 3.925-8.561 7.968-1.165 4.039-.015 8.367 3.001 11.292l45.072 43.743c1.864 1.81 1.627 3.968 1.438 4.811-.189.842-.892 2.892-3.344 3.732-13.393 4.586-31.705 10.279-54.632 13.629-5.543.811-9.723 5.637-9.723 11.225v40.314c0 1.836-.401 3.578-1.107 5.155-.015.029-.027.058-.042.087-1.999 4.375-6.406 7.428-11.521 7.428h-33.887c-6.986 0-12.67-5.684-12.67-12.67v-40.314c0-5.588-4.18-10.414-9.724-11.225-22.926-3.35-41.238-9.043-54.629-13.629-2.454-.84-3.157-2.89-3.345-3.732-.189-.844-.427-3.001 1.438-4.811l45.072-43.742c3.017-2.927 4.167-7.255 3.002-11.294-1.166-4.043-4.447-7.096-8.563-7.967-15.558-3.295-28.274-7.39-37.615-10.59-2.447-.838-3.149-2.884-3.338-3.726-.188-.843-.427-3.001 1.437-4.81l84.033-81.554c2.443-2.37 5.394-3.861 8.48-4.488.374-.034.74-.089 1.096-.175.754-.102 1.512-.172 2.271-.172 4.262 0 8.525 1.612 11.847 4.835l12.55 12.179c.007.007.014.013.021.02zm-140.155-25.86c-4.142 0-7.5 3.357-7.5 7.5v8.508c0 4.143 3.358 7.5 7.5 7.5s7.5-3.357 7.5-7.5v-8.508c0-4.143-3.358-7.5-7.5-7.5zm88.55 23.507c4.143 0 7.5-3.357 7.5-7.5v-8.508c0-4.143-3.357-7.5-7.5-7.5s-7.5 3.357-7.5 7.5v8.508c0 4.143 3.357 7.5 7.5 7.5zm35.134-256.113c1.919 0 3.839-.733 5.304-2.196l5.608-5.608c2.929-2.93 2.929-7.678 0-10.608-2.93-2.928-7.678-2.928-10.607 0l-5.608 5.608c-2.929 2.93-2.929 7.678 0 10.607 1.464 1.465 3.384 2.197 5.303 2.197z"></path></svg>