<!-- icon666.com - MILLIONS OF FREE VECTOR ICONS --><svg id="Capa_1" enable-background="new 0 0 512 512" viewBox="0 0 512 512" xmlns="http://www.w3.org/2000/svg"><path d="m379.822 7.5h-247.644c-29.345 0-53.133 23.789-53.133 53.134v45.095h353.91v-45.095c0-29.345-23.788-53.134-53.133-53.134z" fill="#d2896f"></path><path d="m233.801 7.5h-101.623c-29.345 0-53.133 23.789-53.133 53.134v45.095h165.542c-12.045-22.275-15.969-64.091-10.786-98.229z" fill="#b36d3a"></path><g fill="#4e5660"><path d="m195.035 71.701h-53.277c-7.821 0-14.161 6.34-14.161 14.161v19.866h81.599v-19.866c0-7.821-6.34-14.161-14.161-14.161z"></path><path d="m316.965 71.701h53.277c7.821 0 14.161 6.34 14.161 14.161v19.866h-81.599v-19.866c0-7.821 6.34-14.161 14.161-14.161z"></path><path d="m148.76 504.5h-51.446c-5.436 0-9.843-4.407-9.843-9.843v-26.117h71.133v26.117c0 5.436-4.407 9.843-9.844 9.843z"></path><path d="m363.24 504.5h51.447c5.436 0 9.843-4.407 9.843-9.843v-26.117h-71.133v26.117c-.001 5.436 4.406 9.843 9.843 9.843z"></path></g><path d="m434.398 468.54h-356.796c-24.306 0-44.009-19.703-44.009-44.009v-274.794c0-24.306 19.703-44.009 44.009-44.009h356.796c24.306 0 44.009 19.703 44.009 44.009v274.794c0 24.305-19.704 44.009-44.009 44.009z" fill="#fcf2d0"></path><path d="m155.741 105.728h-78.139c-24.306 0-44.009 19.703-44.009 44.009v274.794c0 24.305 19.703 44.009 44.009 44.009h136.063c-50.184-55.933-68.187-209.529-57.924-362.812z" fill="#f6e3a3"></path><path d="m33.593 347.733v76.798c0 24.305 19.703 44.009 44.009 44.009h356.796c24.305 0 44.009-19.703 44.009-44.009v-76.798z" fill="#e8899e"></path><path d="m166.038 347.733h-132.445v76.798c0 24.305 19.703 44.009 44.009 44.009h136.063c-21.89-24.398-37.658-67.371-47.627-120.807z" fill="#e26e7e"></path><path d="m395.993 282.911h-279.986v99.608c0 16.588 13.447 30.036 30.036 30.036h219.914c16.588 0 30.036-13.447 30.036-30.036z" fill="#a3defe"></path><path d="m274.804 412.555 121.189-121.189v-8.455h-144.925l-123.377 123.377c5.076 3.925 11.439 6.267 18.352 6.267z" fill="#7acefa"></path><path d="m402.655 282.911h-293.309c-9.171 0-15.815-8.745-13.358-17.58l1.878-6.753c3.025-10.875 12.929-18.4 24.217-18.4h267.834c11.288 0 21.192 7.525 24.217 18.4l1.879 6.753c2.457 8.836-4.187 17.58-13.358 17.58z" fill="#9ca9ba"></path><path d="m230.905 240.178h-108.822c-11.288 0-21.192 7.525-24.217 18.4l-1.878 6.753c-2.458 8.836 4.187 17.58 13.358 17.58h128.449c-5.629-9.913-9.938-26.252-6.89-42.733z" fill="#7c899a"></path><ellipse cx="104.062" cy="174.126" fill="#4e5660" rx="23.575" ry="23.575" transform="matrix(.924 -.383 .383 .924 -58.714 53.078)"></ellipse><ellipse cx="185.661" cy="174.126" fill="#4e5660" rx="23.575" ry="23.575" transform="matrix(.57 -.822 .822 .57 -63.246 227.37)"></ellipse><ellipse cx="407.938" cy="174.126" fill="#4e5660" rx="23.575" ry="23.575" transform="matrix(.23 -.973 .973 .23 144.745 531.145)"></ellipse><ellipse cx="326.339" cy="174.126" fill="#4e5660" rx="23.575" ry="23.575" transform="matrix(.887 -.463 .463 .887 -43.533 170.664)"></ellipse><path d="m280.126 54.052h-48.252c-4.142 0-7.5-3.358-7.5-7.5s3.358-7.5 7.5-7.5h48.252c4.142 0 7.5 3.358 7.5 7.5s-3.357 7.5-7.5 7.5z" fill="#fff"></path><ellipse cx="169.659" cy="361.001" fill="#fff" rx="25.371" ry="31.859" transform="matrix(.005 -1 1 .005 -192.097 529.046)"></ellipse><ellipse cx="342.341" cy="361.771" fill="#fff" rx="25.371" ry="31.859" transform="matrix(.005 -1 1 .005 -20.95 702.498)"></ellipse><path d="m323.854 343.879h.034c4.126 0 7.481-3.336 7.5-7.467l.023-5.269c.019-4.142-3.325-7.515-7.467-7.533h-.034c-4.126 0-7.481 3.336-7.5 7.467l-.023 5.269c-.018 4.142 3.325 7.514 7.467 7.533zm84.084-200.828c-17.135 0-31.075 13.94-31.075 31.075s13.94 31.075 31.075 31.075 31.075-13.94 31.075-31.075-13.941-31.075-31.075-31.075zm0 47.15c-8.864 0-16.075-7.211-16.075-16.075s7.211-16.075 16.075-16.075 16.075 7.211 16.075 16.075-7.212 16.075-16.075 16.075zm-81.599-47.15c-17.135 0-31.075 13.94-31.075 31.075s13.94 31.075 31.075 31.075 31.075-13.94 31.075-31.075-13.94-31.075-31.075-31.075zm0 47.15c-8.864 0-16.075-7.211-16.075-16.075s7.211-16.075 16.075-16.075 16.075 7.211 16.075 16.075-7.211 16.075-16.075 16.075zm114.116-91.605v-37.962c0-33.434-27.2-60.634-60.633-60.634h-247.644c-33.433 0-60.633 27.2-60.633 60.634v37.962c-25.556 3.009-45.452 24.789-45.452 51.141v274.793c0 28.402 23.107 51.509 51.509 51.509h2.369v18.617c0 9.563 7.78 17.343 17.343 17.343h51.446c9.563 0 17.343-7.78 17.343-17.343v-18.616h179.793v18.617c0 9.563 7.78 17.343 17.343 17.343h51.446c9.563 0 17.344-7.78 17.344-17.343v-18.617h2.368c20.747 0 39.376-12.348 47.458-31.457 1.613-3.815-.171-8.216-3.986-9.83-3.814-1.613-8.215.171-9.83 3.986-5.73 13.547-18.936 22.301-33.643 22.301h-356.794c-20.131 0-36.509-16.378-36.509-36.509v-69.297h67.414v27.286c0 20.697 16.838 37.536 37.536 37.536h219.914c20.697 0 37.536-16.838 37.536-37.536v-27.286h67.414v50.482c0 4.142 3.358 7.5 7.5 7.5s7.5-3.358 7.5-7.5v-255.979c0-26.352-19.896-48.132-45.452-51.141zm-79.559 377.444h56.133v18.617c0 1.292-1.051 2.343-2.344 2.343h-51.445c-1.292 0-2.343-1.051-2.343-2.343v-18.617zm-265.925 0h56.133v18.617c0 1.292-1.051 2.343-2.343 2.343h-51.447c-1.292 0-2.343-1.051-2.343-2.343zm-8.426-415.406c0-25.163 20.471-45.634 45.633-45.634h247.644c25.162 0 45.633 20.471 45.633 45.634v37.594h-33.553v-12.366c0-11.944-9.717-21.661-21.661-21.661h-53.276c-11.944 0-21.661 9.717-21.661 21.661v12.366h-78.607v-12.366c0-11.944-9.717-21.661-21.661-21.661h-53.276c-11.944 0-21.661 9.717-21.661 21.661v12.366h-33.554zm290.357 25.228v12.366h-66.599v-12.366c0-3.673 2.988-6.661 6.661-6.661h53.276c3.674 0 6.662 2.989 6.662 6.661zm-175.206 0v12.366h-66.599v-12.366c0-3.673 2.988-6.661 6.661-6.661h53.276c3.674 0 6.662 2.989 6.662 6.661zm186.797 296.658c0 12.426-10.109 22.536-22.536 22.536h-219.914c-12.426 0-22.536-10.109-22.536-22.536v-92.108h264.985v92.108zm14.161-107.108h-293.308c-2.007 0-3.854-.917-5.068-2.514-1.214-1.598-1.602-3.623-1.064-5.557l1.878-6.753c2.115-7.602 9.102-12.91 16.991-12.91h267.834c7.89 0 14.877 5.309 16.991 12.91l1.878 6.753c.538 1.934.15 3.959-1.064 5.557-1.214 1.597-3.061 2.514-5.068 2.514zm68.253 64.821h-67.414v-49.846c6.409-.245 12.268-3.276 16.173-8.415 4.075-5.363 5.378-12.162 3.572-18.651l-1.878-6.753c-3.913-14.066-16.842-23.89-31.442-23.89h-267.835c-14.6 0-27.529 9.824-31.442 23.89l-1.878 6.753c-1.805 6.49-.503 13.288 3.572 18.651 3.905 5.139 9.764 8.17 16.173 8.415v49.846h-67.415v-190.496c0-20.131 16.378-36.509 36.509-36.509h356.796c20.131 0 36.509 16.378 36.509 36.509zm-285.246-197.182c-17.135 0-31.075 13.94-31.075 31.075s13.94 31.075 31.075 31.075 31.075-13.94 31.075-31.075-13.94-31.075-31.075-31.075zm0 47.15c-8.864 0-16.075-7.211-16.075-16.075s7.212-16.075 16.075-16.075c8.864 0 16.075 7.211 16.075 16.075s-7.211 16.075-16.075 16.075zm-81.598-47.15c-17.135 0-31.075 13.94-31.075 31.075s13.94 31.075 31.075 31.075 31.075-13.94 31.075-31.075-13.941-31.075-31.075-31.075zm0 47.15c-8.864 0-16.075-7.211-16.075-16.075s7.211-16.075 16.075-16.075 16.075 7.211 16.075 16.075-7.212 16.075-16.075 16.075zm152.711 172.585c-4.142 0-7.5 3.358-7.5 7.5s3.358 7.5 7.5 7.5c10.849 0 19.674-8.826 19.674-19.674 0-4.597-1.597-8.822-4.249-12.174 2.652-3.353 4.249-7.577 4.249-12.175 0-10.849-8.826-19.674-19.674-19.674-4.142 0-7.5 3.358-7.5 7.5s3.358 7.5 7.5 7.5c2.578 0 4.674 2.097 4.674 4.674 0 2.578-2.097 4.675-4.674 4.675-4.142 0-7.5 3.358-7.5 7.5s3.358 7.5 7.5 7.5c2.578 0 4.674 2.097 4.674 4.674 0 2.578-2.096 4.674-4.674 4.674zm-68.469-19.511h.034c4.126 0 7.481-3.336 7.499-7.467l.023-5.27c.019-4.142-3.325-7.515-7.467-7.533h-.034c-4.126 0-7.481 3.336-7.499 7.467l-.023 5.27c-.018 4.142 3.325 7.515 7.467 7.533z"></path></svg>