<!-- icon666.com - MILLIONS OF FREE VECTOR ICONS --><svg viewBox="0 0 464.2473 464" xmlns="http://www.w3.org/2000/svg"><path d="m347.808594 218.453125c-1.089844-2.058594-3.023438-3.542969-5.296875-4.058594-1.710938-.382812-3.40625-.800781-5.101563-1.183593-2.546875-.597657-5.046875-1.386719-7.480468-2.351563-1.417969-.476563-2.808594-1.039063-4.160157-1.679687-1.136719-.488282-2.128906-.910157-3.199219-1.433594l-.753906-.367188c-.671875-.335937-1.3125-.640625-2.320312-1.199218-1.597656-.800782-3.078125-1.65625-4.511719-2.519532-2.027344-1.214844-4.484375-1.46875-6.71875-.695312-2.234375.769531-4.011719 2.488281-4.855469 4.695312l-62.601562 160.464844c-.355469.917969-.542969 1.894531-.542969 2.878906v69.121094c-.058594 3.671875-2.570313 6.855469-6.128906 7.765625-.671875.195313-1.316407.480469-1.910157.847656-.597656-.367187-1.242187-.652343-1.914062-.847656-3.558594-.894531-6.050781-4.097656-6.046875-7.765625v-69.839844c0-.996094-.183594-1.984375-.542969-2.914062l-62.65625-160.472656c-.855468-2.199219-2.640625-3.90625-4.875-4.667969-2.234375-.765625-4.6875-.5-6.710937.71875-1.414063.855469-2.910157 1.710937-4.953125 2.742187-.597656.351563-1.238282.65625-1.910156.984375l-.753907.375c-.839843.417969-1.671875.800781-2.597656 1.183594l-.761719.335937c-1.269531.601563-2.605468 1.136719-4 1.601563-2.496094.878906-5.070312 1.6875-7.621094 2.335937-1.539062.390626-3.203124.800782-4.921874 1.152344-2.273438.511719-4.207032 1.992188-5.300782 4.050782-1.09375 2.058593-1.234375 4.488281-.386718 6.660156l87.769531 224.800781c2.535156 8.894531 10.6875 15.007813 19.933593 14.953125 2.085938.027344 4.171876-.203125 6.199219-.6875.734375-.1875 1.4375-.480469 2.089844-.867188.636719.382813 1.324219.675782 2.039063.867188 1.933593.445312 3.910156.675781 5.894531.6875h.363281c9.097656.347656 17.28125-5.492188 19.910156-14.210938l87.769532-224.796874c.832031-2.179688.675781-4.613282-.433594-6.664063zm0 0" fill="#ffb74f"></path><path d="m253.425781 192.652344c-1.808593-1.503906-4.175781-2.148438-6.496093-1.777344-9.707032 1.65625-19.621094 1.65625-29.328126 0-2.320312-.375-4.691406.273438-6.496093 1.777344-1.800781 1.519531-2.839844 3.753906-2.839844 6.109375v241.363281c0 13.253906 10.746094 24 24 24s24-10.746094 24-24v-241.363281c0-2.355469-1.039063-4.589844-2.839844-6.109375zm0 0" fill="#ffc473"></path><path d="m434.351562 55.234375c-34.1875-34.714844-87.890624-41.050781-129.222656-15.246094-1.886718 1.183594-3.195312 3.101563-3.609375 5.292969-.410156 2.1875.109375 4.453125 1.433594 6.242188 14.59375 19.675781 20.324219 44.542968 15.816406 68.621093-4.511719 24.082031-18.851562 45.191407-39.578125 58.25-1.871094 1.183594-3.171875 3.085938-3.589844 5.261719-.417968 2.175781.085938 4.429688 1.390626 6.21875 8.015624 11.046875 18.140624 20.394531 29.792968 27.503906 1.777344 1.066406 3.632813 2.121094 5.160156 2.878906.902344.523438 1.863282 1 3.535157 1.808594 1.25.632813 2.496093 1.175782 3.679687 1.6875 1.800782.855469 3.652344 1.597656 5.546875 2.226563 2.664063.949219 5.660157 1.878906 8.988281 2.792969 1.648438.40625 3.464844.796874 5.378907 1.246093 6.6875 1.398438 13.5 2.128907 20.335937 2.183594h.800782c41.921874.015625 79.757812-25.144531 95.957031-63.8125 16.203125-38.667969 7.601562-83.28125-21.816407-113.15625zm0 0" fill="#ca80de"></path><path d="m185.066406 177.996094c-20.714844-13.101563-35-34.273438-39.390625-58.386719s1.507813-48.960937 16.269531-68.527344c1.335938-1.78125 1.871094-4.042969 1.472657-6.234375-.398438-2.191406-1.695313-4.121094-3.578125-5.316406-16.792969-10.730469-36.351563-16.335938-56.277344-16.128906-57.460938.265625-103.828125 47.0625-103.5625 104.519531.265625 57.460937 47.0625 103.828125 104.519531 103.5625h.640625c6.855469-.0625 13.683594-.796875 20.394532-2.191406 1.832031-.417969 3.65625-.800781 5.375-1.273438 3.246093-.847656 6.152343-1.785156 8.953124-2.742187 1.855469-.65625 3.71875-1.402344 5.8125-2.402344 1.195313-.527344 2.273438-1 4-1.847656 1.050782-.511719 2.035157-1.007813 2.488282-1.289063 1.945312-.976562 3.816406-2.039062 5.648437-3.132812 11.476563-7.050781 21.480469-16.253907 29.457031-27.105469 1.324219-1.789062 1.84375-4.050781 1.429688-6.238281-.410156-2.1875-1.714844-4.105469-3.597656-5.289063zm0 0" fill="#00ceb4"></path><path d="m416.265625 128.125c-2.121094 0-4.15625-.84375-5.65625-2.34375l-16-16c-3.03125-3.140625-2.988281-8.128906.097656-11.214844 3.085938-3.085937 8.074219-3.128906 11.214844-.097656l16 16c2.285156 2.285156 2.96875 5.726562 1.734375 8.714844-1.238281 2.992187-4.15625 4.9375-7.390625 4.941406zm0 0" fill="#edcff4"></path><path d="m400.265625 184.125c-2.570313 0-4.988281-1.234375-6.492187-3.320312-1.503907-2.085938-1.914063-4.769532-1.101563-7.210938l8-24c1.398437-4.195312 5.933594-6.464844 10.128906-5.070312 4.199219 1.394531 6.46875 5.929687 5.074219 10.128906l-8 24c-1.09375 3.273437-4.160156 5.480468-7.609375 5.472656zm0 0" fill="#edcff4"></path><path d="m344.265625 184.125c-3.917969-.011719-7.253906-2.855469-7.878906-6.71875-.628907-3.867188 1.636719-7.621094 5.351562-8.867188l24-8c4.195313-1.394531 8.730469.875 10.125 5.074219 1.398438 4.195313-.871093 8.730469-5.070312 10.125l-24 8c-.816407.265625-1.671875.394531-2.527344.386719zm0 0" fill="#edcff4"></path><path d="m376.265625 136.125c-1.238281 0-2.460937-.289062-3.570313-.839844l-16-8c-3.953124-1.976562-5.558593-6.78125-3.582031-10.738281 1.976563-3.953125 6.78125-5.558594 10.734375-3.582031l16 8c3.328125 1.65625 5.074219 5.382812 4.21875 9-.855468 3.613281-4.085937 6.164062-7.800781 6.160156zm0 0" fill="#edcff4"></path><path d="m360.265625 88.125c-3.917969-.011719-7.253906-2.855469-7.878906-6.71875-.628907-3.867188 1.636719-7.621094 5.351562-8.867188l24-8c4.195313-1.394531 8.730469.875 10.125 5.074219 1.398438 4.195313-.871093 8.730469-5.070312 10.125l-24 8c-.816407.265625-1.671875.394531-2.527344.386719zm0 0" fill="#edcff4"></path><path d="m48.265625 144.125c-3.234375-.003906-6.152344-1.949219-7.390625-4.941406-1.238281-2.988282-.554688-6.429688 1.734375-8.714844l16-16c3.140625-3.03125 8.128906-2.988281 11.214844.097656 3.085937 3.085938 3.128906 8.074219.097656 11.214844l-16 16c-1.5 1.5-3.535156 2.34375-5.65625 2.34375zm0 0" fill="#77fef6"></path><path d="m104.265625 192.125c-1.578125-.003906-3.121094-.46875-4.433594-1.34375l-24-16c-3.675781-2.453125-4.667969-7.421875-2.214843-11.097656 2.453124-3.675782 7.417968-4.667969 11.097656-2.214844l24 16c2.933594 1.957031 4.238281 5.601562 3.214844 8.976562-1.023438 3.375-4.136719 5.683594-7.664063 5.679688zm0 0" fill="#77fef6"></path><path d="m96.265625 136.125c-2.773437-.003906-5.34375-1.4375-6.800781-3.796875-1.457032-2.359375-1.589844-5.300781-.351563-7.78125l8-16c1.976563-3.953125 6.78125-5.558594 10.734375-3.582031 3.957032 1.972656 5.558594 6.78125 3.585938 10.734375l-8 16c-1.355469 2.714843-4.132813 4.429687-7.167969 4.425781zm0 0" fill="#77fef6"></path><path d="m104.265625 88.125c-.859375-.003906-1.714844-.144531-2.527344-.417969l-24-8c-4.199219-1.394531-6.46875-5.929687-5.074219-10.128906 1.398438-4.195313 5.933594-6.464844 10.128907-5.070313l24 8c3.765625 1.210938 6.082031 4.988282 5.449219 8.894532-.632813 3.90625-4.023438 6.761718-7.976563 6.722656zm0 0" fill="#77fef6"></path><path d="m328.265625 96.125h-22.71875c-13.957031.011719-25.269531 11.324219-25.28125 25.277344v6.722656c-.003906 2.367188-1.058594 4.613281-2.878906 6.132812-1.824219 1.515626-4.222657 2.144532-6.554688 1.722657-4-.960938-6.753906-4.628907-6.566406-8.738281.066406-6.082032-2.320313-11.933594-6.617187-16.238282-4.351563-4.417968-10.300782-6.898437-16.503907-6.878906h-24.878906c-2.785156-9.34375-11.292969-15.816406-21.039063-16h-18.082031c-13.734375.015625-24.863281 11.144531-24.878906 24.878906-.003906 3.929688-3.191406 7.117188-7.121094 7.121094h-5.839843c-2.476563 0-4.8125 1.144531-6.328126 3.101562-1.515624 1.960938-2.035156 4.507813-1.414062 6.90625 12.324219 45.609376 53.460938 77.46875 100.703125 77.992188 57.410156-.066406 103.933594-46.589844 104-104 0-4.417969-3.582031-8-8-8zm0 0" fill="#ffb2d4"></path><path d="m232.265625.125c-32.171875-.003906-62.53125 14.878906-82.230469 40.3125-19.703125 25.433594-26.523437 58.554688-18.472656 89.703125.917969 3.523437 4.101562 5.984375 7.742188 5.984375h5.839843c12.765625-.015625 23.105469-10.359375 23.121094-23.121094-.023437-2.363281.90625-4.632812 2.578125-6.304687 1.667969-1.667969 3.941406-2.597657 6.300781-2.574219h18.082031c3.796876 0 5.542969 4.070312 5.925782 5.167969 2.175781 6.488281 8.265625 10.855469 15.113281 10.832031h24.878906c1.929688-.003906 3.78125.769531 5.136719 2.144531 1.277344 1.269531 1.992188 2.996094 1.984375 4.796875-.289063 6.546875 2.113281 12.925782 6.644531 17.660156 4.53125 4.730469 10.800782 7.402344 17.355469 7.398438 13.253906 0 24-10.746094 24-24v-6.722656c.007813-5.121094 4.15625-9.269532 9.28125-9.277344h22.71875c4.417969 0 8-3.582031 8-8-.066406-57.410156-46.589844-103.933594-104-104zm0 0" fill="#ff73af"></path><path d="m182.335938 72.125c-3.078126 0-5.882813-1.765625-7.214844-4.542969-1.328125-2.773437-.949219-6.066406.976562-8.464843 9.746094-12.113282 23.125-20.777344 38.167969-24.714844 4.234375-.996094 8.488281 1.578125 9.578125 5.789062 1.085938 4.210938-1.390625 8.519532-5.578125 9.699219-11.695313 3.058594-22.101563 9.789063-29.6875 19.199219-1.511719 1.910156-3.808594 3.023437-6.242187 3.035156zm0 0" fill="#eee"></path><g fill="#451152"><path d="m182.335938 72.125c2.425781 0 4.722656-1.101562 6.242187-2.992188 7.585937-9.414062 17.992187-16.140624 29.6875-19.199218 4.1875-1.179688 6.664063-5.492188 5.578125-9.703125-1.089844-4.210938-5.34375-6.78125-9.578125-5.785157-15.042969 3.933594-28.421875 12.597657-38.167969 24.710938-1.902344 2.398438-2.265625 5.675781-.9375 8.4375 1.328125 2.757812 4.113282 4.519531 7.175782 4.53125zm0 0"></path><path d="m434.351562 55.234375c-19.328124-19.738281-45.753906-30.914063-73.382812-31.03125-17.378906-.09375-34.503906 4.136719-49.839844 12.3125-19.613281-23-48.289062-36.289063-78.515625-36.386719-30.226562-.097656-58.988281 13.007813-78.75 35.882813-15.40625-8.449219-32.730469-12.792969-50.300781-12.609375-57.460938.265625-103.828125 47.0625-103.5625 104.519531.265625 57.460937 47.0625 103.828125 104.519531 103.5625h.640625c4.523438-.082031 9.035156-.453125 13.511719-1.105469l85.425781 218.824219c2.542969 8.863281 10.660156 14.957031 19.878906 14.921875 1.328126-.039062 2.648438-.1875 3.953126-.441406 1.429687.28125 2.878906.429687 4.335937.441406 1.417969-.019531 2.835937-.160156 4.230469-.425781 1.210937.226562 2.433594.367187 3.664062.425781h.359375c9.097657.347656 17.285157-5.492188 19.914063-14.210938l85.429687-218.8125c4.492188.652344 9.019531 1.023438 13.554688 1.101563h.800781c41.921875.011719 79.753906-25.148437 95.953125-63.816406 16.195313-38.664063 7.59375-83.277344-21.820313-113.152344zm-115.140624 61.914063c-.363282 2.398437-.820313 4.773437-1.371094 7.121093-.230469.972657-.429688 1.964844-.695313 2.925781-.824219 3.085938-1.816406 6.125-2.976562 9.105469-.253907.648438-.574219 1.253907-.847657 1.894531-.996093 2.378907-2.097656 4.703126-3.304687 6.976563-.519531.984375-1.078125 1.953125-1.597656 2.917969-1.226563 2.113281-2.542969 4.1875-3.953125 6.195312-.457032.65625-.878906 1.328125-1.351563 1.972656-2.015625 2.726563-4.183593 5.332032-6.496093 7.808594-.136719.152344-.289063.28125-.425782.425782-2.417968 2.550781-4.988281 4.953124-7.695312 7.199218l-.230469.167969c-2.878906 2.363281-5.90625 4.546875-9.054687 6.535156-.152344.097657-.234376.265625-.378907.367188-10.53125 6.570312-22.34375 10.820312-34.648437 12.464843-1.382813.183594-2.765625.402344-4.152344.527344-2.085938.1875-4.207031.265625-6.335938.304688-2.597656 0-5.191406 0-7.78125-.214844-14.621093-1.292969-28.714843-6.105469-41.074218-14.023438-2.023438-1.289062-4-2.664062-5.871094-4.097656-.878906-.664062-1.726562-1.390625-2.589844-2.085937-1.121094-.914063-2.234375-1.832031-3.296875-2.792969-.800781-.71875-1.601562-1.472656-2.402343-2.222656-1.132813-1.105469-2.246094-2.234375-3.320313-3.394532-.605469-.664062-1.222656-1.3125-1.8125-1.992187-1.3125-1.511719-2.570313-3.070313-3.769531-4.664063-.304688-.40625-.632813-.796874-.929688-1.199218-3.117187-4.273438-5.835937-8.828125-8.125-13.597656-.144531-.304688-.265625-.632813-.402344-.9375-.800781-1.710938-1.511718-3.464844-2.191406-5.230469 1.3125-.296875 2.597656-.707031 3.839844-1.226563.359375-.144531.671875-.351562 1.015625-.511718.929687-.425782 1.828125-.917969 2.6875-1.464844.441406-.285156.839844-.613282 1.257813-.925782.703124-.515624 1.375-1.070312 2.015624-1.664062.40625-.386719.800782-.800781 1.160157-1.207031.570312-.617188 1.105469-1.269531 1.601562-1.945313.335938-.457031.652344-.914062.957031-1.402344.453126-.726562.863282-1.480468 1.234376-2.253906.230468-.496094.480468-.976562.6875-1.488281.335937-.894531.617187-1.808594.847656-2.734375.121094-.457031.273437-.898438.367187-1.371094.296875-1.449218.453125-2.925781.464844-4.40625-.023437-2.363281.90625-4.632812 2.578125-6.304687 1.667969-1.667969 3.941406-2.597657 6.300781-2.574219h18.082031c3.796876 0 5.542969 4.070312 5.925782 5.167969 2.175781 6.488281 8.265625 10.855469 15.113281 10.832031h24.878906c1.929688-.003906 3.78125.769531 5.136719 2.144531 1.277344 1.269531 1.992188 2.996094 1.984375 4.796875-.289063 6.546875 2.113281 12.925782 6.644531 17.660156 4.53125 4.730469 10.800782 7.402344 17.355469 7.398438.214844 0 .421875-.050781.640625-.058594.613281 0 1.199219-.09375 1.808594-.160156.988281-.09375 1.972656-.25 2.941406-.46875.609375-.136719 1.199219-.289062 1.800781-.480469.996094-.316406 1.96875-.703125 2.910157-1.152343.488281-.226563.976562-.417969 1.449218-.671876 1.421875-.753906 2.761719-1.648437 4-2.671874 5.375-4.574219 8.464844-11.28125 8.449219-18.335938v-6.722656c.007813-5.121094 4.15625-9.269532 9.28125-9.277344h14.214844c-.066407.648438-.054688 1.300781-.128907 1.941406-.113281 1.035156-.273437 2.058594-.421874 3.082032zm-18.074219 96.390624-44.871094 114.96875v-123.289062c8.839844-2.074219 17.371094-5.300781 25.367187-9.597656 5.703126 6.789062 12.257813 12.8125 19.503907 17.917968zm-61.441407 229.382813c-.1875.433594-.417968.851563-.6875 1.242187-.214843.386719-.464843.757813-.742187 1.105469-.949219 1.078125-2.167969 1.886719-3.527344 2.351563-1.632812.691406-3.472656.691406-5.105469 0-.328124-.117188-.652343-.261719-.960937-.425782-.847656-.445312-1.617187-1.023437-2.277344-1.710937-.445312-.5-.820312-1.058594-1.121093-1.65625-.136719-.265625-.3125-.496094-.425782-.800781-.371094-.921875-.570312-1.90625-.582031-2.902344v-232.3125c1.878906.144531 3.75.167969 5.597656.214844.800781 0 1.601563.097656 2.402344.097656h.625c2.453125 0 4.910156-.097656 7.375-.28125v232.28125c-.015625.957031-.207031 1.90625-.570313 2.796875zm-56.910156-247.910156c8.039063 4.398437 16.597656 7.765625 25.480469 10.023437v122.753906l-44.878906-114.96875c7.195312-5.089843 13.714843-11.074218 19.398437-17.808593zm49.480469-178.886719c39.082031.046875 73.464844 25.832031 84.464844 63.335938l.222656.796874c.617187 2.1875 1.128906 4.410157 1.601563 6.664063.101562.503906.214843 1 .300781 1.503906.394531 2.136719.671875 4.304688.90625 6.496094.039062.410156.101562.800781.144531 1.226563h-14.359375c-13.949219.011718-25.253906 11.308593-25.28125 25.253906v6.722656c-.003906 2.367188-1.058594 4.613281-2.878906 6.132812-1.824219 1.515626-4.222657 2.144532-6.554688 1.722657-4-.960938-6.753906-4.628907-6.566406-8.738281.066406-6.082032-2.320313-11.933594-6.617187-16.238282-4.351563-4.417968-10.300782-6.898437-16.503907-6.878906h-24.878906c-2.785156-9.34375-11.292969-15.816406-21.039063-16h-18.082031c-13.734375.015625-24.863281 11.144531-24.878906 24.878906-.003906.929688-.1875 1.847656-.542969 2.703125-.140625.253907-.296875.496094-.464844.730469-.273437.539062-.609374 1.039062-1.007812 1.496094-.253906.21875-.519531.421875-.800781.605468-.414063.355469-.867188.660157-1.351563.914063-.355468.125-.71875.222656-1.089844.292969-.367187.113281-.746093.1875-1.125.234375-.1875-1.039063-.441406-2.066407-.59375-3.121094-.136718-.917969-.28125-1.832031-.382812-2.757813-.398438-3.3125-.613281-6.644531-.640625-9.976562 0-2.808594.160156-5.601562.421875-8.328125.066406-.6875.167969-1.371094.25-2.050781.253906-2.175782.566406-4.328125.984375-6.445313.101563-.570312.222656-1.136719.34375-1.707031.535156-2.503906 1.160156-4.972656 1.902344-7.390625l.089843-.304687c11.515626-36.71875 45.523438-61.726563 84.007813-61.773438zm-127.25 199.359375h-.542969c-48.621094.21875-88.21875-39.015625-88.441406-87.640625-.21875-48.625 39.019531-88.21875 87.640625-88.441406h.371094c13.894531-.027344 27.601562 3.230468 40 9.511718-8.238281 13.175782-13.390625 28.042969-15.074219 43.488282-.078125.707031-.152344 1.410156-.214844 2.113281-.289062 3.199219-.488281 6.398437-.488281 9.601563-.011719 8.773437 1.097656 17.511718 3.296875 26.007812.796875 2.992188 1.695312 5.925781 2.726562 8.796875.417969 1.179687.910157 2.289063 1.367188 3.441406.648438 1.601563 1.273438 3.199219 2 4.800781.640625 1.414063 1.359375 2.769532 2.066406 4.136719.703125 1.367188 1.269532 2.511719 1.964844 3.734375.800781 1.359375 1.601562 2.664063 2.402344 4 .800781 1.335938 1.519531 2.402344 2.328125 3.601563.808593 1.199219 1.597656 2.222656 2.398437 3.320312.992188 1.328125 2.007813 2.636719 3.066406 3.917969.679688.800781 1.382813 1.601562 2.085938 2.402344 1.320312 1.503906 2.679688 2.972656 4.097656 4.398437.480469.480469.964844.953125 1.453125 1.425781 1.6875 1.628907 3.429688 3.207032 5.226563 4.734376l.800781.648437c1.191406.984375 2.335937 2.007813 3.574219 2.941406-5.714844 6.425781-12.335938 11.988281-19.648438 16.515625-1.414062.855469-2.910156 1.710938-4.953125 2.742188-.597656.351562-1.238281.65625-1.910156.984375l-.753906.375c-.839844.417969-1.671875.800781-2.597657 1.183593l-.761718.335938c-1.246094.59375-2.566406 1.113281-3.886719 1.601562-2.398437.800782-4.921875 1.597657-7.695313 2.398438-1.527343.394531-3.199218.800781-4.90625 1.152344-5.59375 1.140625-11.28125 1.734375-16.992187 1.769531zm29.519531 11.527344.730469-.230469c1.597656-.496094 3.121094-.992188 4.617187-1.503906 1.855469-.65625 3.71875-1.402344 5.8125-2.402344 1.136719-.503906 2.203126-.976562 3.769532-1.75l58.800781 150.664062v44.085938zm121.730469 189.59375v-44.089844l58.800781-150.648437.414063.199218c1.25.632813 2.496093 1.175782 3.679687 1.6875 1.722656.820313 3.492188 1.53125 5.296875 2.136719h.089844l.160156.058594c.207031.078125.453125.152343.671875.222656 1.535156.582031 3.070313 1.136719 4.597656 1.601563zm165.695313-225.746094c-16.410157 16.265625-38.589844 25.378906-61.695313 25.34375h-.679687c-5.730469-.039063-11.441407-.644531-17.050782-1.808594-1.597656-.359375-3.246094-.726562-4.855468-1.125-2.730469-.742187-5.304688-1.542969-7.726563-2.402343-1.417969-.476563-2.808594-1.039063-4.160156-1.679688-1.136719-.488281-2.128907-.910156-3.199219-1.433594l-.753906-.367187c-.671875-.335938-1.3125-.640625-2.320313-1.199219-1.597656-.800781-3.054687-1.648438-4.476562-2.496094-7.480469-4.558594-14.222657-10.222656-20-16.800781.125-.09375.230469-.214844.359375-.3125 2.777344-2.121094 5.449218-4.382813 8-6.773437.390625-.367188.796875-.722657 1.199218-1.097657 2.671876-2.570312 5.203126-5.285156 7.582032-8.128906.097656-.101563.203125-.199219.289062-.300781 2.28125-2.777344 4.414063-5.664063 6.402344-8.65625.894531-1.335938 1.671875-2.746094 2.503906-4.121094 1.046875-1.738281 2.078125-3.472656 3.023438-5.273438.796875-1.550781 1.550781-3.136718 2.277344-4.726562.800781-1.777344 1.601562-3.566406 2.3125-5.390625.632812-1.601563 1.226562-3.203125 1.777343-4.800781.664063-1.992188 1.246094-4 1.800781-6.050782.40625-1.527343.839844-3.046874 1.183594-4.597656.527344-2.402344.902344-4.800781 1.269532-7.199218.1875-1.28125.441406-2.546876.585937-3.847657.429687-3.816406.648437-7.652343.65625-11.488281 0-3.203125-.199219-6.402344-.488281-9.601562-.0625-.671876-.136719-1.351563-.207032-2.023438-1.648437-15.25-6.671874-29.941406-14.707031-43.007812 12.449219-6.117188 26.132813-9.285157 40-9.265626 35.613281.214844 67.578125 21.886719 80.960938 54.886719 13.382812 32.996094 5.542969 70.8125-19.855469 95.769531zm0 0"></path><path d="m405.921875 98.46875c-3.140625-3.03125-8.128906-2.988281-11.214844.097656-3.085937 3.085938-3.128906 8.074219-.097656 11.214844l16 16c3.140625 3.03125 8.128906 2.988281 11.214844-.097656 3.085937-3.085938 3.128906-8.078125.097656-11.214844zm0 0"></path><path d="m410.792969 144.539062c-4.191407-1.398437-8.722657.867188-10.121094 5.054688l-8 24c-1.394531 4.199219.875 8.734375 5.074219 10.128906 4.195312 1.398438 8.730468-.875 10.128906-5.070312l8-24c1.390625-4.195313-.886719-8.722656-5.082031-10.113282zm0 0"></path><path d="m365.738281 160.539062-24 8c-4.199219 1.398438-6.46875 5.929688-5.074219 10.128907 1.398438 4.195312 5.933594 6.46875 10.128907 5.070312l24-8c4.199219-1.394531 6.46875-5.929687 5.070312-10.125-1.394531-4.199219-5.929687-6.46875-10.125-5.074219zm0 0"></path><path d="m379.839844 120.964844-16-8c-3.953125-1.976563-8.761719-.371094-10.734375 3.582031-1.976563 3.957031-.371094 8.761719 3.582031 10.738281l16 8c3.957031 1.972656 8.761719.367188 10.738281-3.585937 1.972657-3.953125.371094-8.761719-3.585937-10.734375zm0 0"></path><path d="m381.738281 64.539062-24 8c-4.199219 1.398438-6.46875 5.929688-5.074219 10.128907 1.398438 4.195312 5.933594 6.46875 10.128907 5.070312l24-8c4.199219-1.394531 6.46875-5.929687 5.070312-10.125-1.394531-4.199219-5.929687-6.46875-10.125-5.074219zm0 0"></path><path d="m58.609375 114.46875-16 16c-2.078125 2.007812-2.914063 4.980469-2.183594 7.777344.734375 2.796875 2.917969 4.984375 5.714844 5.714844 2.796875.730468 5.773437-.101563 7.78125-2.179688l16-16c3.03125-3.140625 2.988281-8.128906-.097656-11.214844-3.085938-3.085937-8.074219-3.128906-11.214844-.097656zm0 0"></path><path d="m84.707031 161.46875c-3.679687-2.453125-8.644531-1.460938-11.097656 2.214844-2.453125 3.675781-1.460937 8.644531 2.214844 11.097656l24 16c3.675781 2.449219 8.644531 1.457031 11.097656-2.21875s1.460937-8.644531-2.214844-11.09375zm0 0"></path><path d="m107.839844 104.964844c-3.953125-1.976563-8.761719-.375-10.734375 3.582031l-8 16c-1.976563 3.957031-.371094 8.761719 3.582031 10.738281 3.957031 1.972656 8.761719.367188 10.738281-3.585937l8-16c1.976563-3.953125.371094-8.761719-3.585937-10.734375zm0 0"></path><path d="m77.738281 79.707031 24 8c4.195313 1.398438 8.730469-.875 10.125-5.070312 1.398438-4.199219-.871093-8.734375-5.070312-10.128907l-24-8c-4.195313-1.394531-8.730469.875-10.128907 5.070313-1.394531 4.199219.875 8.734375 5.074219 10.128906zm0 0"></path></g></svg>