<!-- icon666.com - MILLIONS OF FREE VECTOR ICONS --><svg id="Capa_1" enable-background="new 0 0 512 512" viewBox="0 0 512 512" xmlns="http://www.w3.org/2000/svg"><g><path d="m415.298 122.925h-41.974c-49.265 0-89.202 39.937-89.202 89.202 0 49.265 39.937 89.202 89.202 89.202h41.974c49.265 0 89.202-39.937 89.202-89.202 0-49.265-39.937-89.202-89.202-89.202zm0 130.383h-41.974c-22.707 0-41.18-18.473-41.18-41.181 0-22.707 18.473-41.181 41.18-41.181h41.974c22.707 0 41.181 18.474 41.181 41.181-.001 22.707-18.475 41.181-41.181 41.181z" fill="#fcf2d0"></path><g><path d="m272.264 357.129h-119.341c-77.286 0-139.939-62.653-139.939-139.939v-89.498c0-19.058 15.45-34.508 34.508-34.508h330.204c19.058 0 34.508 15.45 34.508 34.508v89.498c-.001 77.286-62.654 139.939-139.94 139.939z" fill="#fff9e7"></path><path d="m182.488 227.619c0-49.155 13.558-95.138 37.122-134.435h-172.118c-19.058 0-34.508 15.45-34.508 34.508v89.498c0 77.286 62.653 139.939 139.939 139.939h63.801c-21.783-38.193-34.236-82.396-34.236-129.51z" fill="#fcf2d0"></path></g><g fill="#e89fa9"><ellipse cx="133.037" cy="251.719" rx="29.355" ry="23.377"></ellipse><ellipse cx="292.15" cy="251.719" rx="29.355" ry="23.377"></ellipse></g><path d="m75.063 271.337h-54.338c-7.086 0-12.831-5.745-12.831-12.831v-83.373c0-7.086 5.744-12.831 12.831-12.831h54.338c7.086 0 12.831 5.745 12.831 12.831v83.373c0 7.087-5.745 12.831-12.831 12.831z" fill="#b0da87"></path><g><path d="m362.541 418.812h-299.895c-30.456 0-55.146-24.69-55.146-55.146v-16.061c0-8.743 7.087-15.83 15.83-15.83h378.527c8.743 0 15.83 7.087 15.83 15.83v16.061c0 30.457-24.69 55.146-55.146 55.146z" fill="#fcf2d0"></path><path d="m204.046 331.776h-180.716c-8.743 0-15.83 7.087-15.83 15.83v16.061c0 30.456 24.689 55.146 55.146 55.146h202.822c-26.004-24.333-47.037-53.905-61.422-87.037z" fill="#f9eab9"></path></g></g><g><path d="m404.7 217.188c0 41.872-20.718 82.47-54.544 107.087h-275.138c-16.48-12.006-29.897-27.535-39.326-45.438h39.371c11.21 0 20.331-9.12 20.331-20.331v-83.373c0-11.21-9.12-20.331-20.331-20.331h-21.791c-.823-22.856 7.822-45.215 11.755-54.115h39.682c4.142 0 7.5-3.358 7.5-7.5s-3.358-7.5-7.5-7.5h-57.219c-23.164 0-42.01 18.841-42.01 42v34.039c-3.155 3.583-5.086 8.268-5.086 13.406v83.373c0 10.599 8.155 19.317 18.518 20.239 7.899 17.172 18.996 32.596 32.673 45.53h-28.255c-12.864 0-23.33 10.466-23.33 23.33v16.061c0 34.543 28.102 62.645 62.645 62.645h229.505c4.143 0 7.5-3.358 7.5-7.5s-3.357-7.5-7.5-7.5h-229.505c-26.272.002-47.645-21.372-47.645-47.643v-16.061c0-4.593 3.737-8.33 8.33-8.33h329.227c.017 0 .033.003.05.003.013 0 .026-.003.039-.003h49.212c4.593 0 8.329 3.737 8.329 8.33v16.061c0 26.272-21.374 47.645-47.646 47.645h-35.391c-4.143 0-7.5 3.358-7.5 7.5s3.357 7.5 7.5 7.5h35.391c34.543 0 62.646-28.103 62.646-62.645v-16.061c0-12.864-10.466-23.33-23.329-23.33h-28.278c5.07-4.797 9.796-9.956 14.157-15.447h27.563c53.32 0 96.7-43.379 96.7-96.7 0-25.83-10.06-50.116-28.326-68.383-17.653-17.652-40.933-27.636-65.799-28.281-5.289-17.358-21.535-29.775-40.175-29.775h-237.991c-4.142 0-7.5 3.358-7.5 7.5s3.358 7.5 7.5 7.5h237.991c13.42 0 24.916 10.001 26.743 23.286.173 1.227.257 2.442.257 3.714zm92.3-5.06c0 45.05-36.65 81.7-81.7 81.7h-17.056c6.322-10.358 11.3-21.408 14.883-33.02h2.173c26.843 0 48.681-21.838 48.681-48.68 0-25.358-19.493-46.239-44.28-48.471v-33.105c20.17 1.063 38.981 9.415 53.366 23.8 15.433 15.434 23.933 35.953 23.933 57.776zm-79.317 29.438c1.342-8.053 2.004-16.213 2.018-24.378v-38.454c16.501 2.162 29.28 16.313 29.28 33.394 0 18.026-14.234 32.79-32.054 33.642.274-1.397.522-2.799.756-4.204zm-370.193-140.878h1.258c-4.75 12.045-11.15 32.532-10.482 54.115h-17.541c-.083 0-.162.011-.245.012v-27.127c0-14.888 12.117-27 27.01-27zm-32.096 74.445c0-2.939 2.392-5.331 5.331-5.331h54.338c2.939 0 5.331 2.391 5.331 5.331v83.373c0 2.939-2.391 5.331-5.331 5.331h-51.163c-.032 0-.065 0-.097 0h-3.078c-2.939 0-5.331-2.391-5.331-5.331z"></path><path d="m157.644 229.216v-12c0-4.142-3.358-7.5-7.5-7.5s-7.5 3.358-7.5 7.5v12c0 4.142 3.358 7.5 7.5 7.5 4.143 0 7.5-3.358 7.5-7.5z"></path><path d="m282.542 229.216v-12c0-4.142-3.357-7.5-7.5-7.5s-7.5 3.358-7.5 7.5v12c0 4.142 3.357 7.5 7.5 7.5s7.5-3.358 7.5-7.5z"></path><path d="m212.593 243.86c8.477 0 16.54-3.671 22.119-10.073 2.721-3.123 2.396-7.86-.727-10.582-3.124-2.721-7.861-2.396-10.582.727-2.729 3.132-6.669 4.929-10.81 4.929s-8.08-1.796-10.81-4.928c-2.721-3.123-7.458-3.449-10.582-.727-3.123 2.721-3.448 7.459-.727 10.582 5.58 6.4 13.641 10.072 22.119 10.072z"></path></g></svg>