<!-- icon666.com - MILLIONS OF FREE VECTOR ICONS --><svg id="Capa_1" enable-background="new 0 0 511.999 511.999" viewBox="0 0 511.999 511.999" xmlns="http://www.w3.org/2000/svg"><path d="m416.415 203.575h-64.091c-3.326 0-5.191-3.813-3.157-6.444 15.27-19.748 24.404-44.48 24.535-71.344.312-64.275-51.767-117.388-116.037-118.276-65.769-.909-119.369 52.132-119.369 117.693 0 27.077 9.147 52.014 24.515 71.9 2.042 2.643.197 6.471-3.143 6.471h-63.081c-28.457 0-52.288 23.288-51.744 51.74.527 27.572 23.043 49.761 50.741 49.761h46.353c12.018 0 20.38 11.943 16.27 23.236l-39.006 107.168c-9.566 26.282 3.303 55.902 29.481 65.75 5.898 2.219 11.938 3.268 17.879 3.268 20.728 0 40.193-12.799 47.694-33.407l24.47-67.23c5.87-16.127 28.678-16.127 34.548 0l24.47 67.23c7.501 20.609 26.964 33.407 47.694 33.407 5.965 0 12.035-1.059 17.955-3.297 26.134-9.88 38.958-39.475 29.402-65.73l-39.003-107.16c-4.11-11.293 4.252-23.236 16.27-23.236h45.35c28.457 0 52.288-23.288 51.744-51.74-.526-27.571-23.042-49.76-50.74-49.76z" fill="#e1b89a"></path><path d="m214.256 471.093 24.47-67.23c.082-.225.179-.435.267-.654-47.548-110.625-61.167-293.874-45.044-378.037-33.408 20.768-55.653 57.8-55.653 100.031 0 27.077 9.147 52.014 24.515 71.9 2.042 2.643.197 6.471-3.143 6.471h-63.081c-28.457 0-52.288 23.288-51.744 51.74.527 27.572 23.043 49.761 50.741 49.761h46.353c12.018 0 20.38 11.943 16.27 23.236l-39.006 107.168c-9.566 26.282 3.303 55.902 29.481 65.75 5.898 2.219 11.938 3.268 17.879 3.268 20.729.002 40.195-12.797 47.695-33.404z" fill="#d2996f"></path><circle cx="256" cy="247.118" fill="#b36d3a" r="22.421"></circle><ellipse cx="256" cy="328.145" fill="#b36d3a" rx="22.421" ry="22.421" transform="matrix(.989 -.151 .151 .989 -46.657 42.464)"></ellipse><g fill="#fcf2d0"><path d="m110.668 312.578c-.474 0-.955-.045-1.437-.139-4.066-.789-6.723-4.725-5.934-8.791 2.431-12.526.471-18.244-2.01-25.482-2.085-6.083-4.448-12.977-4.448-23.84s2.363-17.757 4.448-23.84c2.481-7.239 4.441-12.956 2.01-25.481-.789-4.066 1.868-8.003 5.934-8.792 4.067-.786 8.002 1.867 8.792 5.934 3.194 16.458.276 24.971-2.546 33.203-1.871 5.457-3.638 10.612-3.638 18.976s1.767 13.519 3.638 18.976c2.822 8.233 5.74 16.746 2.546 33.204-.696 3.583-3.836 6.072-7.355 6.072z"></path><path d="m401.331 312.578c-3.519 0-6.659-2.489-7.354-6.073-3.194-16.458-.276-24.971 2.546-33.204 1.871-5.457 3.638-10.612 3.638-18.976s-1.767-13.519-3.638-18.976c-2.822-8.232-5.74-16.745-2.546-33.203.789-4.067 4.728-6.719 8.792-5.934 4.066.79 6.723 4.726 5.934 8.792-2.431 12.525-.471 18.243 2.01 25.481 2.085 6.082 4.448 12.977 4.448 23.84s-2.363 17.758-4.448 23.84c-2.482 7.238-4.441 12.956-2.01 25.482.789 4.066-1.868 8.002-5.934 8.791-.483.095-.964.14-1.438.14z"></path><path d="m219.623 463.828c-1.296 0-2.61-.336-3.807-1.043-10.784-6.371-16.825-6.484-24.473-6.628-6.497-.122-13.859-.261-24.171-4.014-10.312-3.754-16.042-8.38-21.096-12.462-5.958-4.811-10.664-8.611-23.052-10.661-4.087-.676-6.852-4.537-6.175-8.624.676-4.087 4.542-6.85 8.623-6.175 16.289 2.695 23.273 8.335 30.028 13.789 4.546 3.671 8.839 7.138 16.803 10.037 7.963 2.898 13.481 3.002 19.323 3.112 8.671.163 17.637.332 31.82 8.71 3.566 2.107 4.749 6.706 2.643 10.272-1.401 2.37-3.9 3.687-6.466 3.687z"></path><path d="m292.377 463.828c-2.566 0-5.065-1.317-6.465-3.686-2.106-3.566-.923-8.165 2.643-10.272 14.183-8.378 23.149-8.547 31.82-8.71 5.842-.11 11.36-.214 19.324-3.112 7.963-2.898 12.256-6.366 16.802-10.037 6.755-5.454 13.739-11.094 30.028-13.789 4.084-.673 7.948 2.089 8.624 6.175s-2.088 7.947-6.175 8.624c-12.388 2.05-17.094 5.85-23.052 10.661-5.055 4.082-10.784 8.708-21.096 12.462-10.313 3.753-17.675 3.892-24.172 4.014-7.648.144-13.689.257-24.473 6.628-1.198.706-2.512 1.042-3.808 1.042z"></path></g><path d="m207.618 212.564c0-3.966-3.215-7.181-7.181-7.181s-7.181 3.215-7.181 7.181 3.215 7.181 7.181 7.181 7.181-3.215 7.181-7.181z" fill="#d2996f"></path><path d="m332.933 364.825c0-3.966-3.215-7.181-7.181-7.181s-7.181 3.215-7.181 7.181 3.215 7.181 7.181 7.181 7.181-3.215 7.181-7.181z" fill="#d2996f"></path><path d="m367.334 255.999c0-3.966-3.215-7.181-7.181-7.181s-7.181 3.215-7.181 7.181 3.215 7.181 7.181 7.181c3.965.001 7.181-3.214 7.181-7.181z" fill="#d2996f"></path><path d="m165.785 269.539c0-3.966-3.215-7.181-7.181-7.181s-7.181 3.215-7.181 7.181 3.215 7.181 7.181 7.181c3.965.001 7.181-3.214 7.181-7.181z" fill="#e1b89a"></path><circle cx="193.255" cy="404.401" fill="#e1b89a" r="7.181"></circle><circle cx="285.602" cy="59.582" fill="#d2996f" r="7.181"></circle><ellipse cx="179.919" cy="133.148" fill="#fff" rx="28.072" ry="22.355"></ellipse><ellipse cx="332.08" cy="133.148" fill="#fff" rx="28.072" ry="22.355"></ellipse><path d="m190.418 108.822c0-3.232 2.629-5.861 5.862-5.861 3.232 0 5.862 2.629 5.862 5.861 0 4.142 3.358 7.5 7.5 7.5s7.5-3.358 7.5-7.5c0-11.503-9.358-20.861-20.862-20.861s-20.862 9.358-20.862 20.861c0 4.142 3.358 7.5 7.5 7.5s7.5-3.358 7.5-7.5zm186.218 374.723c-4.444 4.754-9.792 8.335-15.895 10.642-4.937 1.866-10.085 2.813-15.303 2.813-18.113 0-34.448-11.442-40.646-28.472l-24.47-67.23c-3.766-10.346-13.313-17.03-24.322-17.03s-20.556 6.685-24.322 17.03l-24.47 67.23c-6.198 17.03-22.533 28.472-40.646 28.472-5.194 0-10.321-.938-15.239-2.788-22.075-8.305-33.323-33.5-25.074-56.166l39.006-107.168c2.766-7.601 1.648-16.094-2.991-22.719-4.639-6.626-12.238-10.582-20.327-10.582h-46.352c-23.397 0-42.796-19.022-43.243-42.405-.218-11.417 4.173-22.304 12.365-30.655 8.381-8.542 20.001-13.442 31.88-13.442h63.081c4.416 0 8.368-2.46 10.312-6.419 1.952-3.976 1.479-8.626-1.234-12.138-15.014-19.428-22.95-42.705-22.95-67.314 0-23.902 7.522-46.637 21.753-65.749 2.474-3.322 1.786-8.021-1.536-10.495s-8.021-1.786-10.495 1.536c-16.173 21.72-24.722 47.553-24.722 74.708 0 25.626 7.578 49.985 21.98 70.872h-56.189c-15.881 0-31.404 6.538-42.587 17.938-11.036 11.249-16.951 25.968-16.655 41.446.292 15.322 6.481 29.679 17.424 40.428 10.959 10.763 25.454 16.69 40.816 16.69h46.353c3.247 0 6.177 1.525 8.039 4.185s2.294 5.935 1.183 8.986l-39.006 107.168c-11.048 30.354 4.154 64.149 33.888 75.335 6.612 2.488 13.516 3.749 20.52 3.749 24.396 0 46.395-15.408 54.742-38.342l24.47-67.23c2.418-6.643 8.439-7.16 10.226-7.16 1.788 0 7.808.517 10.226 7.16l24.47 67.23c8.347 22.934 30.346 38.342 54.742 38.342 7.037 0 13.971-1.272 20.607-3.782 8.272-3.127 15.522-7.982 21.549-14.43 2.829-3.026 2.668-7.772-.357-10.601-3.026-2.829-7.772-2.669-10.601.357zm80.594-270.779c-10.958-10.763-25.454-16.69-40.815-16.69h-57.191c14.279-20.711 21.855-44.854 21.978-70.252.332-68.428-55.04-124.867-123.433-125.812-27.117-.363-53.03 7.78-74.939 23.583-3.359 2.423-4.118 7.111-1.695 10.47 2.422 3.358 7.109 4.119 10.47 1.695 19.277-13.904 42.085-21.064 65.956-20.75 60.197.832 108.933 50.51 108.641 110.74-.119 24.417-8.06 47.513-22.969 66.793-2.706 3.5-3.176 8.138-1.229 12.105 1.946 3.964 5.9 6.426 10.319 6.426h64.091c23.397 0 42.796 19.022 43.243 42.405.218 11.417-4.173 22.304-12.366 30.655-8.381 8.542-20.001 13.442-31.879 13.442h-45.351c-8.088 0-15.688 3.956-20.327 10.582-4.639 6.625-5.757 15.119-2.991 22.719l39.003 107.161c1.97 5.411 2.871 11.061 2.678 16.794-.14 4.14 3.104 7.609 7.243 7.748.086.003.171.004.257.004 4.025 0 7.355-3.194 7.491-7.247.258-7.66-.944-15.207-3.573-22.43l-39.003-107.16c-1.111-3.051-.68-6.326 1.183-8.986 1.862-2.66 4.792-4.185 8.039-4.185h45.351c15.881 0 31.403-6.538 42.587-17.938 11.036-11.249 16.951-25.968 16.655-41.446-.292-15.32-6.481-29.678-17.424-40.426zm-201.23 64.273c16.498 0 29.921-13.423 29.921-29.921 0-16.499-13.423-29.921-29.921-29.921-16.499 0-29.921 13.423-29.921 29.921-.001 16.499 13.422 29.921 29.921 29.921zm0-44.842c8.227 0 14.921 6.694 14.921 14.921s-6.694 14.921-14.921 14.921c-8.228 0-14.921-6.694-14.921-14.921-.001-8.227 6.693-14.921 14.921-14.921zm53.858-123.375c0-3.232 2.629-5.861 5.862-5.861s5.862 2.629 5.862 5.861c0 4.142 3.358 7.5 7.5 7.5s7.5-3.358 7.5-7.5c0-11.503-9.358-20.861-20.862-20.861-11.503 0-20.862 9.358-20.862 20.861 0 4.142 3.358 7.5 7.5 7.5s7.5-3.358 7.5-7.5zm-53.858 29.574c7.599 0 14.826-3.291 19.827-9.029 2.722-3.123 2.396-7.86-.726-10.582s-7.86-2.398-10.582.726c-2.152 2.469-5.257 3.885-8.519 3.885-3.263 0-6.368-1.416-8.52-3.885-2.721-3.123-7.46-3.448-10.582-.726-3.122 2.721-3.448 7.459-.726 10.582 5.001 5.738 12.228 9.029 19.828 9.029zm0 219.67c16.498 0 29.921-13.423 29.921-29.921 0-16.499-13.423-29.921-29.921-29.921-16.499 0-29.921 13.423-29.921 29.921-.001 16.498 13.422 29.921 29.921 29.921zm0-44.842c8.227 0 14.921 6.694 14.921 14.921s-6.694 14.921-14.921 14.921c-8.228 0-14.921-6.694-14.921-14.921-.001-8.228 6.693-14.921 14.921-14.921z"></path></svg>