<!-- icon666.com - MILLIONS OF FREE VECTOR ICONS --><svg id="Capa_1" enable-background="new 0 0 512.008 512.008" viewBox="0 0 512.008 512.008" xmlns="http://www.w3.org/2000/svg"><g><path d="m408.448 281.548c-15.014-7.061-45.512-25.807-45.594-61.624-.002-1.069-.703-2.01-1.737-2.281-1.084-.285-2.238.179-2.793 1.154-17.702 31.089-53.443 32.406-69.979 31.169-4.043-.303-7.224 3.353-6.397 7.322 6.99 33.545-14.425 65.342-22.522 75.885-1.655 2.155-1.638 5.135-.037 7.33 17.255 23.647 6.252 50.899-2.029 65.279-3.67 6.373-2.764 14.386 2.218 19.795l36.4 39.516 51.129-16.498c6.999-2.258 11.729-8.789 11.669-16.143-.136-16.593 3.69-45.733 30.346-57.832 2.474-1.123 3.955-3.71 3.574-6.4-1.863-13.162-4.866-51.38 17.721-77.148 2.671-3.051 1.699-7.798-1.969-9.524z" fill="#05e39c"></path><path d="m298.79 313.332c-10.136 0-19.918 1.512-29.14 4.312-3.861 6.856-7.694 12.231-10.226 15.527-1.655 2.155-1.638 5.135-.037 7.33 17.255 23.647 6.252 50.899-2.029 65.279-3.67 6.373-2.764 14.386 2.218 19.795l36.4 39.516 51.13-16.498c6.999-2.258 11.729-8.79 11.669-16.143-.136-16.593 3.69-45.733 30.346-57.832.577-.262 1.094-.61 1.552-1.014-15.411-35.466-50.747-60.272-91.883-60.272z" fill="#0ed290"></path><path d="m503.713 374.897c-8.145-14.455-22.137-47.405-1.449-76.644.617-.873.591-2.046-.094-2.866-.718-.861-1.928-1.151-2.944-.678-32.442 15.08-62.335-4.558-75.094-15.148-3.12-2.589-7.831-1.454-9.457 2.26-13.742 31.389-49.62 44.894-62.329 48.795-2.597.797-4.311 3.236-4.277 5.953.152 12.371-4.182 22.342-10.377 30.254-8.463 10.809-20.396 17.777-29.104 21.773-6.684 3.067-10.589 10.123-9.663 17.418l6.767 53.298 51.231 16.182c7.012 2.215 14.652-.367 18.864-6.395 9.504-13.602 29.508-35.133 58.244-29.549 2.667.518 5.373-.732 6.621-3.145.562-1.087 1.241-2.354 2.034-3.763 7.819-13.891 26.845-41.66 57.113-48.843 3.946-.937 5.905-5.37 3.914-8.902z" fill="#05e39c"></path><path d="m442.687 432.641c7.819-13.891 26.844-41.66 57.113-48.843 3.945-.936 5.904-5.368 3.913-8.9-8.145-14.455-22.137-47.405-1.45-76.644.617-.873.591-2.046-.094-2.866-.718-.861-1.928-1.151-2.944-.678-32.442 15.08-62.335-4.558-75.094-15.148-3.12-2.589-7.831-1.454-9.457 2.26-13.742 31.389-49.62 44.894-62.329 48.795-2.598.797-4.311 3.236-4.277 5.953.152 12.371-4.182 22.342-10.377 30.254" fill="#05e39c"></path><path d="m420.261 438.883c-4.895-45.765-31.113-85.15-68.531-108.02-2.243.972-3.692 3.214-3.661 5.706.152 12.371-4.182 22.342-10.377 30.254-8.463 10.809-20.396 17.777-29.104 21.773-6.684 3.067-10.589 10.123-9.663 17.418l6.767 53.298 51.231 16.182c7.012 2.215 14.652-.367 18.864-6.395 7.903-11.311 23.07-28.087 44.474-30.216z" fill="#00c285"></path><path d="m238.195 436.27h-196.025v-257.665c0-12.867 12.384-22.109 24.718-18.448 12.612 3.743 26.24 1.591 37.085-5.858l6.779-4.657c10.136-6.962 22.144-10.689 34.44-10.689h30.47c2.578 0 5.154-.164 7.711-.491l21.558-2.755c17.646-2.255 33.263 11.493 33.263 29.283v271.28z" fill="#f3eae6"></path><path d="m173.711 75.753c0 18.612-15.164 33.682-33.811 33.529-19.573-.16-34.429-17.46-33.133-36.991 1.397-21.05 15.045-43.163 24.46-56.101 4.409-6.059 13.43-6.019 17.8.069 9.934 13.837 24.684 38.001 24.684 59.494z" fill="#feb237"></path><path d="m266.184 160.902c0 15.603-12.713 28.237-28.346 28.109-16.409-.134-28.864-14.638-27.777-31.011 1.171-17.647 12.613-36.186 20.506-47.032 3.697-5.08 11.259-5.046 14.923.058 8.328 11.6 20.694 31.858 20.694 49.876z" fill="#feb237"></path><path d="m161.77 244.436v191.834h152.613v-198.075c0-10.535-8.141-19.279-18.649-20.03l-46.364-3.315c-3.063-.219-6.135.267-8.98 1.421l-26.922 10.919c-3.751 1.521-7.875 1.874-11.83 1.01l-15.504-3.384c-12.521-2.733-24.364 6.804-24.364 19.62z" fill="#fdb4ba"></path><path d="m295.734 218.165-11.351-.812v65.304c0 67.717-54.896 122.613-122.613 122.613v31h152.613v-198.075c0-10.535-8.141-19.279-18.649-20.03z" fill="#fe99a0"></path><path d="m42.17 306.015h119.6v58.58h-119.6z" fill="#fd8087"></path><g fill="#fe646f"><ellipse cx="303.527" cy="382.676" rx="36.508" ry="36.508" transform="matrix(.23 -.973 .973 .23 -138.648 590.163)"></ellipse><ellipse cx="338.505" cy="422.235" rx="38.034" ry="38.033" transform="matrix(.383 -.924 .924 .383 -181.13 573.39)"></ellipse><circle cx="276.352" cy="422.235" r="38.034"></circle></g><path d="m414.341 500.338h-366.381c-22.345 0-40.46-18.114-40.46-40.46v-14.405c0-5.083 4.121-9.204 9.204-9.204h428.891c5.083 0 9.204 4.121 9.204 9.204v14.405c.001 22.346-18.113 40.46-40.458 40.46z" fill="#b5adb6"></path><path d="m445.596 436.27h-20.796v3.609c0 22.345-18.115 40.46-40.46 40.46h-366.38c-1.726 0-3.422-.12-5.091-.33 6.982 12.145 20.077 20.33 35.091 20.33h366.381c22.345 0 40.46-18.115 40.46-40.46v-14.405c-.001-5.083-4.122-9.204-9.205-9.204z" fill="#a79ba7"></path><path d="m510.247 371.216c-19.448-34.516-9.514-57.814-1.859-68.632 2.58-3.649 2.392-8.583-.461-12.004-2.899-3.471-7.778-4.57-11.862-2.672-12.002 5.58-36.687 11.163-67.143-14.119-3.311-2.748-7.614-3.756-11.793-2.764-2.39.567-4.507 1.749-6.22 3.378-35.181-16.851-40.526-41.34-40.556-54.501-.013-4.47-3.026-8.383-7.331-9.515-4.373-1.149-8.986.781-11.217 4.696-6.554 11.51-16.602 19.503-29.923 23.863v-.754c0-14.4-11.251-26.484-25.613-27.511l-46.364-3.315c-1.4-.1-2.809-.081-4.21.034v-11.71c6.551-1.421 12.576-4.667 17.454-9.504 6.793-6.738 10.534-15.717 10.534-25.284 0-19.395-12.019-40.207-22.101-54.25-3.123-4.35-8.18-6.956-13.526-6.974-.018 0-.035 0-.053 0-5.321 0-10.365 2.568-13.501 6.877-4.366 5.999-9.182 13.412-13.197 21.547-2.642-.033-5.916-.014-7.326.166l-21.558 2.755c-2.233.285-4.508.43-6.761.43h-27.96v-15.362c8.038-1.48 15.442-5.323 21.374-11.207 7.826-7.763 12.137-18.109 12.137-29.132 0-22.751-14.189-47.289-26.092-63.868-3.455-4.812-9.049-7.697-14.964-7.715-.021 0-.041 0-.062 0-5.972 0-11.412 2.771-14.932 7.608-10.991 15.104-24.402 37.776-25.879 60.017-.78 11.752 3.334 23.408 11.289 31.979 6.03 6.497 13.715 10.726 22.128 12.305v16.521c-9.346 1.73-18.24 5.396-26.194 10.86l-6.779 4.657c-9.021 6.196-20.212 7.964-30.705 4.85-8.167-2.424-16.773-.893-23.604 4.205-6.83 5.098-10.748 12.909-10.748 21.432v43.109c0 4.142 3.358 7.5 7.5 7.5 4.143 0 7.5-3.358 7.5-7.5v-43.109c0-3.742 1.72-7.173 4.72-9.411 2.998-2.239 6.776-2.911 10.364-1.847 14.853 4.409 30.694 1.905 43.465-6.866l6.779-4.657c8.926-6.131 19.366-9.371 30.194-9.371h30.47c2.887 0 5.801-.186 8.663-.551l20.939-2.676c-1.408 4.706-2.369 9.5-2.686 14.277-.676 10.184 2.891 20.286 9.786 27.715 5.023 5.413 11.369 9.022 18.331 10.516v16.376l-20.047 8.13c-2.361.958-4.925 1.176-7.411.633l-15.504-3.384c-8.197-1.79-16.647.203-23.182 5.465-6.534 5.262-10.282 13.092-10.282 21.482v54.08h-104.598v-46.802c0-4.142-3.357-7.5-7.5-7.5-4.142 0-7.5 3.358-7.5 7.5v177.058h-17.965c-9.211 0-16.705 7.493-16.705 16.704v14.405c0 26.445 21.515 47.96 47.96 47.96h270.059c4.143 0 7.5-3.358 7.5-7.5s-3.357-7.5-7.5-7.5h-270.059c-18.174 0-32.96-14.786-32.96-32.96v-14.405c0-.94.765-1.705 1.705-1.705h428.891c.939 0 1.704.765 1.704 1.705v14.405c0 18.174-14.785 32.96-32.959 32.96h-66.322c-4.143 0-7.5 3.358-7.5 7.5s3.357 7.5 7.5 7.5h66.322c26.444 0 47.959-21.515 47.959-47.96v-14.405c0-6.638-3.901-12.367-9.523-15.059 8.322-13.006 24.875-33.653 48.756-39.32 4.2-.997 7.601-3.834 9.327-7.783 1.722-3.939 1.499-8.348-.613-12.096zm-388.681-277.646c-5.157-5.557-7.824-13.132-7.316-20.781 1.305-19.65 14.996-41.13 23.041-52.185.906-1.245 2.142-1.434 2.806-1.434h.011c.665.002 1.916.195 2.826 1.463 8.693 12.108 23.277 35.369 23.277 55.12 0 6.993-2.734 13.557-7.7 18.482-4.965 4.924-11.554 7.617-18.55 7.548-6.999-.058-13.532-2.974-18.395-8.213zm235.236 140.177c6.392 29.941 32.365 46.6 46.272 53.53-7.139 10.643-22.446 26.814-52.929 36.169-5.714 1.754-9.651 7.189-9.575 13.215.075 6.127-1.176 11.925-3.711 17.33-4.103-4.761-9.203-8.635-14.977-11.296v-88.108c14.213-3.772 26.041-10.845 34.92-20.84zm12.236 188.488c0 2.211-.241 4.4-.706 6.535h-46.919c.311-2.156.472-4.338.472-6.535 0-7.675-1.917-14.908-5.284-21.258 5.738-5.921 13.57-9.275 21.904-9.275 16.836 0 30.533 13.697 30.533 30.533zm-122.513 6.535c-.465-2.136-.707-4.325-.707-6.535 0-16.836 13.697-30.533 30.533-30.533s30.533 13.697 30.533 30.533c0 2.212-.245 4.399-.71 6.535zm85.481-51.591c-9.233 1.318-17.781 5.421-24.592 11.806-8.142-7.611-19.064-12.284-31.062-12.284-.409 0-.812.02-1.218.031 2.75-13.154 14.436-23.064 28.394-23.064 14.115 0 25.901 10.136 28.478 23.511zm-114.461-218.682c1.073-16.169 12.419-33.954 19.087-43.116.422-.58.978-.703 1.371-.703h.006c.398.001.963.128 1.389.722 7.203 10.032 19.286 29.284 19.286 45.502 0 5.537-2.165 10.734-6.097 14.634-3.931 3.899-9.154 6.029-14.686 5.976-5.531-.045-10.695-2.353-14.542-6.498-4.099-4.415-6.217-10.435-5.814-16.517zm-48.275 85.939c0-3.827 1.71-7.399 4.691-9.799 2.981-2.401 6.837-3.309 10.574-2.493l15.504 3.384c5.454 1.191 11.074.71 16.248-1.388l26.924-10.919c1.773-.719 3.726-1.027 5.625-.89l46.364 3.315c6.552.469 11.684 5.981 11.684 12.549v100.614c-1.109-.084-2.225-.141-3.355-.141-23.334 0-42.475 18.256-43.912 41.234-16.847 6.685-28.797 23.134-28.797 42.333 0 2.194.164 4.377.474 6.535h-62.024zm-15 69.079v43.58h-104.6v-43.58zm-104.6 58.58h104.6v56.674h-104.6zm386.591 56.675h-52.697c.311-2.157.474-4.34.474-6.535 0-5.562-1.006-10.892-2.84-15.823l17.298-14.439 27.508 2.478c.228.021.456.031.682.031 3.838 0 7.11-2.931 7.461-6.828.372-4.125-2.672-7.771-6.797-8.143l-12.569-1.132 13.178-11 27.508 2.478c.228.021.456.031.682.031 3.838 0 7.11-2.931 7.461-6.828.372-4.125-2.672-7.771-6.797-8.143l-12.568-1.132 16.742-13.975c3.18-2.655 3.605-7.384.951-10.564-2.655-3.18-7.386-3.605-10.564-.951l-16.743 13.976 1.132-12.57c.371-4.125-2.672-7.771-6.797-8.142-4.125-.374-7.771 2.671-8.143 6.797l-2.477 27.509-13.177 11 1.132-12.57c.372-4.125-2.671-7.771-6.797-8.143-4.11-.375-7.772 2.671-8.143 6.797l-2.478 27.509-15.305 12.775c-6.59-7.956-15.83-13.634-26.353-15.684-.341-2.928-.97-5.768-1.859-8.493 6.719-9.485 10.152-20.092 10.205-31.591 6.823-2.161 19.14-6.721 31.568-14.606 15.695-9.957 27.006-22.179 33.644-36.352 10.018 8.022 30.104 21.177 54.065 21.175 4.686 0 9.525-.504 14.462-1.648-12.268 28.437-.33 57.413 6.968 70.914-31.351 8.285-50.975 35.814-60.017 51.822z"></path></g></svg>