<!-- icon666.com - MILLIONS OF FREE VECTOR ICONS --><svg enable-background="new 0 0 300 333" viewBox="0 0 300 333" xmlns="http://www.w3.org/2000/svg"><g id="Ghost"><path d="" fill="none" stroke="#000" stroke-miterlimit="10" stroke-width="8"></path></g><g id="Layer_4"><path d="m222.92 215.478-23.852-54.119c-1.211.848-2.605 1.483-4.168 1.799-15.932 3.216-33.183-1.664-45.093-14.654l-.007-.008-.005.006c-11.884 12.962-29.086 17.849-44.988 14.675-1.568-.313-2.968-.949-4.183-1.799l-23.765 53.968c-3.291 7.473 5.76 14.354 12.026 9.117 1.311-1.096 2.567-2.292 3.756-3.589l.004.004c15.185 17.049 41.823 17.097 57.069.102l.095-.106c15.231 16.807 41.606 16.909 56.967.221l.203-.221.01.011c1.236 1.347 2.543 2.586 3.91 3.716 6.292 5.203 15.314-1.652 12.021-9.123z" fill="#4aa022"></path><path d="m234.838 278.823-19.359-43.924-4.003-9.871c-.189-.132-.377-.273-.562-.426-1.367-1.13-2.674-2.369-3.91-3.716l-.01-.011-.203.221c-15.361 16.688-41.735 16.586-56.967-.221l-.095.106c-15.245 16.995-41.884 16.947-57.069-.102l-.004-.004c-1.073 1.171-2.208 2.248-3.381 3.255l-4.986 10.752-19.348 43.937c-3.794 8.616 3.895 17.942 13.048 15.737 6.769-1.63 13.157-5.223 18.251-10.779 14.398 15.707 39.151 15.736 53.586.064l.059-.064.106.117c14.329 15.889 39.275 15.837 53.537-.112l.005-.005.01.011c5.094 5.556 11.483 9.147 18.252 10.776 9.153 2.203 16.84-7.125 13.043-15.741z" fill="#417f1d"></path><path d="m202.98 147.387-40.35-91.552c-4.329-1.236-9.067-3.984-11.186-6.103-.505-.505-.937-1.054-1.303-1.633-.366.579-.798 1.128-1.303 1.633-2.218 2.218-7.303 5.125-11.786 6.265l-40.253 91.41c-2.915 6.621.959 14.355 8.053 15.771 15.903 3.174 33.104-1.713 44.988-14.675l.005-.006.007.008c11.91 12.99 29.161 17.87 45.093 14.654 7.086-1.431 10.95-9.158 8.035-15.772z" fill="#417f1d"></path><circle cx="174.392" cy="133.025" fill="#4aa022" r="8.465"></circle><circle cx="113.061" cy="266.792" fill="#4aa022" r="8.465"></circle><circle cx="143.109" cy="91.624" fill="#d30d0d" r="8.465"></circle><circle cx="188.614" cy="253.453" fill="#d30d0d" r="8.465"></circle><path d="m149.991 283.895-.106-.117-.059.064c-5.933 6.441-13.608 10.224-21.591 11.363v14.41c0 9.005 7.3 16.305 16.305 16.305h10.701c9.005 0 16.305-7.3 16.305-16.305v-14.211c-7.992-1.152-15.67-4.983-21.555-11.509z" fill="#f79256"></path><path d="m176.289 31.892c0-5.184-12.06-9.386-17.244-9.386-.01 0-.019.001-.029.001-1.269-5.726-4.763-13.315-8.875-13.315s-7.606 7.59-8.875 13.315c-.01 0-.019-.001-.029-.001-5.184 0-17.244 4.202-17.244 9.386 0 3.166 4.498 5.965 9.181 7.665-3.162 4.943-6.083 12.814-3.167 15.73 3.665 3.665 15.164-1.891 18.83-5.556.505-.505.937-1.054 1.303-1.633.366.579.798 1.128 1.303 1.633 3.665 3.665 15.164 9.222 18.83 5.556 2.916-2.916-.005-10.787-3.167-15.73 4.684-1.7 9.183-4.499 9.183-7.665z" fill="#ffe35a"></path><g fill="#720909"><path d="m237.583 277.613-19.324-43.842-1.774-4.375c2.034-.133 4.049-.864 5.816-2.202 4.064-3.074 5.416-8.269 3.363-12.926l-22.937-52.042c1.024-1.026 1.91-2.204 2.598-3.532 2.032-3.919 2.177-8.482.399-12.518l-38.223-86.726c1.896-.134 3.596-.745 4.893-2.042 3.839-3.838 1.672-11.13-1.01-16.399 3.795-1.841 7.903-4.826 7.903-9.118 0-7.117-11.535-11.268-17.896-12.189-1.681-5.807-5.433-13.511-11.251-13.511s-9.57 7.705-11.252 13.511c-6.361.921-17.896 5.072-17.896 12.189 0 4.292 4.108 7.277 7.903 9.118-2.682 5.269-4.849 12.561-1.01 16.399 1.117 1.117 2.597 1.777 4.388 1.994l-38.221 86.796c-1.78 4.042-1.63 8.61.41 12.533.673 1.295 1.536 2.444 2.529 3.451l-22.879 51.956c-2.057 4.671-.69 9.877 3.401 12.954 1.843 1.386 3.95 2.11 6.066 2.19l-2.036 4.391-19.347 43.937c-2.229 5.062-1.406 10.85 2.149 15.104 3.525 4.218 9.021 6.043 14.347 4.759 6.593-1.587 12.603-4.829 17.55-9.44 7.238 6.723 16.831 10.532 26.773 10.544.742-.001 1.482-.03 2.22-.073v11.109c0 10.645 8.66 19.305 19.305 19.305h10.701c10.645 0 19.305-8.66 19.305-19.305v-10.902c.719.04 1.439.066 2.163.066h.081c9.992-.021 19.584-3.896 26.766-10.72 4.945 4.603 10.95 7.838 17.536 9.423 5.327 1.284 10.823-.543 14.347-4.762 3.553-4.254 4.376-10.042 2.144-15.105zm-101.881-236.439c.491-.767.606-1.716.314-2.579s-.961-1.546-1.817-1.857c-5.092-1.849-7.205-4.068-7.205-4.846 0-2.083 8.753-6.364 14.202-6.386.024 0 .049.001.07.001 1.407 0 2.625-.978 2.929-2.351 1.387-6.256 4.563-10.965 5.947-10.965s4.56 4.708 5.946 10.964c.305 1.374 1.522 2.351 2.929 2.351.021 0 .045 0 .07-.001 5.448.021 14.202 4.303 14.202 6.386 0 .777-2.113 2.997-7.205 4.846-.856.311-1.525.994-1.817 1.857s-.177 1.812.314 2.579c3.464 5.417 4.556 11.009 3.573 11.993-1.48 1.476-10.737-1.706-14.586-5.555-.333-.334-.632-.708-.889-1.115-.55-.87-1.507-1.398-2.537-1.398s-1.987.528-2.537 1.398c-.256.406-.555.781-.888 1.114-1.397 1.396-4.706 3.505-8.326 4.832-3.863 1.416-5.886 1.099-6.261.725-.983-.984.108-6.576 3.572-11.993zm-36.157 107.442 39.694-90.139c.402-.128.8-.248 1.217-.401 3.595-1.317 7.333-3.442 9.692-5.473 2.19 1.845 6.156 4.258 10.284 5.682l39.803 90.312c1.042 2.364.956 5.038-.235 7.336-1.157 2.231-3.216 3.793-5.648 4.284-15.688 3.168-31.497-1.971-42.248-13.696-.579-.661-1.428-1.023-2.296-1.021-.832.01-1.622.368-2.18.979-10.764 11.739-26.531 16.882-42.187 13.758-2.433-.485-4.493-2.043-5.653-4.273-1.198-2.302-1.286-4.98-.243-7.348zm-19.941 67.94 22.491-51.074c.703.262 1.422.489 2.17.638 16.687 3.331 33.494-1.637 45.58-13.324 9.615 9.299 22.207 14.343 35.356 14.342 3.421 0 6.883-.342 10.337-1.039.714-.144 1.4-.359 2.072-.606l22.564 51.196c1.119 2.539-.038 4.62-1.493 5.721-1.446 1.094-3.747 1.637-5.873-.119-1.271-1.05-2.485-2.205-3.616-3.438-.567-.621-1.369-.976-2.209-.977-.002 0-.004 0-.006 0-.839 0-1.639.351-2.208.968l-.203.221c-6.752 7.335-16.33 11.485-26.313 11.482-9.97-.039-19.528-4.298-26.223-11.686-.57-.629-1.375-.962-2.229-.985-.849.002-1.658.363-2.225.995l-.097.108c-6.683 7.45-16.25 11.719-26.256 11.719-.021 0-.042 0-.063 0-10.029-.018-19.606-4.324-26.277-11.813-.039-.043-.082-.089-.123-.13-.578-.579-1.369-.9-2.186-.878-.818.018-1.593.369-2.146.972-1.083 1.181-2.249 2.296-3.468 3.314-2.102 1.757-4.396 1.221-5.841.134-1.467-1.105-2.637-3.193-1.515-5.741zm88.942 93.057c0 7.336-5.969 13.305-13.305 13.305h-10.701c-7.336 0-13.305-5.968-13.305-13.305v-11.924c6.908-1.478 13.367-4.777 18.621-9.638 5.221 4.96 11.709 8.349 18.691 9.849v11.713zm62.287-20.741c-2.083 2.493-5.201 3.529-8.337 2.775-6.444-1.551-12.234-4.97-16.744-9.889-.568-.625-1.377-.979-2.222-.979-.004 0-.008 0-.012 0-.85.003-1.66.37-2.227 1.002-6.231 6.968-15.166 10.976-24.514 10.995-.023 0-.045 0-.068 0-9.322 0-18.246-3.968-24.493-10.896l-.106-.117c-.565-.625-1.397-.952-2.241-.956-.004 0-.008 0-.013 0-.839 0-1.668.382-2.237 1-6.407 6.955-15.186 10.761-24.598 10.768-9.456-.011-18.182-3.856-24.571-10.827-1.137-1.239-3.286-1.239-4.423 0-4.509 4.918-10.298 8.338-16.741 9.89-3.138.757-6.255-.282-8.338-2.774-2.113-2.529-2.585-5.833-1.262-8.838l19.324-43.884 4.733-10.207c.289-.257.585-.504.868-.769 7.636 7.343 17.869 11.51 28.539 11.529h.074c10.688 0 20.949-4.164 28.603-11.519 7.642 7.219 17.825 11.328 28.404 11.369h.16c10.644 0 20.907-4.118 28.596-11.396.65.611 1.318 1.2 2 1.764.008.007.017.012.025.019l3.722 9.175 19.359 43.924c1.324 3.007.854 6.312-1.26 8.841z"></path><circle cx="190.363" cy="191.581" r="7.725"></circle><ellipse cx="109.418" cy="191.581" rx="7.725" ry="7.725" transform="matrix(.383 -.924 .924 .383 -109.453 219.355)"></ellipse><path d="m141.919 204.065h15.943c1.657 0 3-1.343 3-3s-1.343-3-3-3h-15.943c-1.657 0-3 1.343-3 3s1.343 3 3 3z"></path><path d="m143.109 103.089c6.322 0 11.465-5.144 11.465-11.465s-5.144-11.465-11.465-11.465-11.465 5.144-11.465 11.465 5.143 11.465 11.465 11.465zm0-16.93c3.014 0 5.465 2.452 5.465 5.465s-2.452 5.465-5.465 5.465-5.465-2.452-5.465-5.465 2.452-5.465 5.465-5.465z"></path><path d="m174.392 144.49c6.322 0 11.465-5.143 11.465-11.465s-5.144-11.465-11.465-11.465-11.465 5.144-11.465 11.465c0 6.322 5.143 11.465 11.465 11.465zm0-16.93c3.014 0 5.465 2.452 5.465 5.465s-2.452 5.465-5.465 5.465-5.465-2.452-5.465-5.465 2.451-5.465 5.465-5.465z"></path><path d="m113.061 255.327c-6.322 0-11.465 5.143-11.465 11.465s5.144 11.465 11.465 11.465 11.465-5.144 11.465-11.465-5.143-11.465-11.465-11.465zm0 16.93c-3.014 0-5.465-2.452-5.465-5.465s2.452-5.465 5.465-5.465 5.465 2.452 5.465 5.465-2.451 5.465-5.465 5.465z"></path><path d="m188.614 241.988c-6.322 0-11.465 5.144-11.465 11.465s5.144 11.465 11.465 11.465 11.465-5.144 11.465-11.465-5.143-11.465-11.465-11.465zm0 16.93c-3.014 0-5.465-2.452-5.465-5.465s2.452-5.465 5.465-5.465 5.465 2.452 5.465 5.465-2.451 5.465-5.465 5.465z"></path></g><g><path d="m260.46 181.004h-5.812c-1.657 0-3-1.343-3-3s1.343-3 3-3h5.812c1.657 0 3 1.343 3 3s-1.343 3-3 3z" fill="#720909"></path></g><g><path d="m243.895 181.004h-5.812c-1.657 0-3-1.343-3-3s1.343-3 3-3h5.812c1.657 0 3 1.343 3 3s-1.343 3-3 3z" fill="#720909"></path></g><g><path d="m249.271 175.628c-1.657 0-3-1.343-3-3v-5.812c0-1.657 1.343-3 3-3s3 1.343 3 3v5.812c0 1.657-1.343 3-3 3z" fill="#720909"></path></g><g><path d="m249.271 192.192c-1.657 0-3-1.343-3-3v-5.812c0-1.657 1.343-3 3-3s3 1.343 3 3v5.812c0 1.657-1.343 3-3 3z" fill="#720909"></path></g><g><path d="m71.604 92.888h-5.812c-1.657 0-3-1.343-3-3s1.343-3 3-3h5.812c1.657 0 3 1.343 3 3s-1.343 3-3 3z" fill="#720909"></path></g><g><path d="m55.04 92.888h-5.812c-1.657 0-3-1.343-3-3s1.343-3 3-3h5.812c1.657 0 3 1.343 3 3s-1.343 3-3 3z" fill="#720909"></path></g><g><path d="m60.416 87.512c-1.657 0-3-1.343-3-3v-5.813c0-1.657 1.343-3 3-3s3 1.343 3 3v5.813c0 1.656-1.343 3-3 3z" fill="#720909"></path></g><g><path d="m60.416 104.076c-1.657 0-3-1.343-3-3v-5.813c0-1.657 1.343-3 3-3s3 1.343 3 3v5.813c0 1.657-1.343 3-3 3z" fill="#720909"></path></g><g><path d="m274.818 102.881c-7.442 0-13.498-6.055-13.498-13.497s6.055-13.498 13.498-13.498 13.497 6.055 13.497 13.498-6.054 13.497-13.497 13.497zm0-20.994c-4.134 0-7.498 3.363-7.498 7.498 0 4.134 3.363 7.497 7.498 7.497 4.134 0 7.497-3.363 7.497-7.497 0-4.135-3.363-7.498-7.497-7.498z" fill="#720909"></path></g><g><path d="m23.54 232.866c-4.8 0-8.706-3.906-8.706-8.706s3.906-8.706 8.706-8.706c4.801 0 8.707 3.906 8.707 8.706s-3.906 8.706-8.707 8.706zm0-11.412c-1.492 0-2.706 1.214-2.706 2.706s1.214 2.706 2.706 2.706 2.707-1.214 2.707-2.706-1.215-2.706-2.707-2.706z" fill="#720909"></path></g><g><circle cx="232.271" cy="77.509" fill="#720909" r="5.899"></circle></g></g></svg>