<!-- icon666.com - MILLIONS OF FREE VECTOR ICONS --><svg viewBox="0 -19 512.001 512" xmlns="http://www.w3.org/2000/svg"><path d="m250.253906 141.738281h-99.480468v-101.335937c0-18.171875 14.730468-32.902344 32.902343-32.902344h33.675781c18.171876 0 32.902344 14.730469 32.902344 32.902344zm0 0" fill="#ffeb99"></path><path d="m504.5 111.425781c0 34.613281-28.058594 62.671875-62.671875 62.671875s-62.675781-28.058594-62.675781-62.671875 28.0625-62.671875 62.675781-62.671875 62.671875 28.058594 62.671875 62.671875zm0 0" fill="#ffbdcd"></path><path d="m441.828125 116.699219c0-25.019531 14.679687-46.617188 35.882813-56.664063-10.164063-7.109375-22.539063-11.285156-35.882813-11.285156-34.613281 0-62.675781 28.0625-62.675781 62.675781s28.0625 62.671875 62.675781 62.671875c9.59375 0 18.6875-2.15625 26.816406-6.011718-16.203125-11.328126-26.816406-30.117188-26.816406-51.386719zm0 0" fill="#ffa4ba"></path><path d="m225.082031 70.539062c-18.058593.792969-33.515625-12.746093-35.4375-30.71875-1.347656-12.628906-1.238281-25.085937-.992187-32.320312h-4.976563c-18.167969 0-32.902343 14.730469-32.902343 32.902344v101.335937h99.480468v-69.171875c-9.117187-1.945312-17.746094-2.351562-25.171875-2.027344zm0 0" fill="#ffde55"></path><path d="m215.515625 54.136719c0 8.285156-6.714844 15-15 15s-15-6.714844-15-15c0-8.285157 6.714844-15 15-15s15 6.714843 15 15zm0 0" fill="#ffcd00"></path><path d="m291.070312 465.550781c27.480469 0 52.59375-15.449219 65.105469-39.914062 23.480469-45.917969 37.351563-97.011719 37.351563-139.714844 0-106.597656-86.414063-193.015625-193.011719-193.015625-106.601563 0-193.015625 86.417969-193.015625 193.015625 0 42.703125 13.871094 93.796875 37.351562 139.714844 12.511719 24.46875 37.625 39.914062 65.109376 39.914062zm0 0" fill="#ccf8ff"></path><path d="m136.492188 285.921875c-12.167969-151.855469 83.105468-178.636719 125.28125-183.089844-19.246094-6.433593-39.851563-9.925781-61.257813-9.925781-106.601563 0-193.015625 86.417969-193.015625 193.015625 0 42.703125 13.871094 93.796875 37.351562 139.714844 12.511719 24.46875 37.625 39.914062 65.109376 39.914062h110.644531c-39.207031-35.144531-77.042969-91.414062-84.113281-179.628906zm0 0" fill="#9ff6ff"></path><path d="m109.960938 435.550781c-16.25 0-30.964844-9.035156-38.398438-23.574219-21.648438-42.332031-34.0625-88.277343-34.0625-126.054687h326.03125c0 37.777344-12.417969 83.722656-34.0625 126.054687-7.4375 14.539063-22.148438 23.574219-38.398438 23.574219zm0 0" fill="#ffa4ba"></path><path d="m126.976562 242.054688c49.417969 0 236.554688 19.640624 236.554688 43.867187s-187.136719 43.867187-236.554688 43.867187c-49.414062 0-89.476562-19.640624-89.476562-43.867187s40.0625-43.867187 89.476562-43.867187zm0 0" fill="#ffbdcd"></path><path d="m200.515625 225.160156c-15.523437 0-28.101563-12.578125-28.101563-28.097656v-20.429688c0-4.238281 3.433594-7.671874 7.671876-7.671874h40.859374c4.234376 0 7.667969 3.433593 7.667969 7.671874v20.429688c0 15.519531-12.578125 28.097656-28.097656 28.097656zm0 0" fill="#57565c"></path><path d="m136.492188 197.058594c0-13.179688-13.417969-23.867188-29.972657-23.867188-16.554687 0-29.972656 10.6875-29.972656 23.867188 0 13.183594 13.417969 23.871094 29.972656 23.871094 16.554688 0 29.972657-10.6875 29.972657-23.871094zm0 0" fill="#ffa6bb"></path><path d="m324.484375 197.058594c0-13.179688-13.417969-23.867188-29.972656-23.867188-16.554688 0-29.972657 10.6875-29.972657 23.867188 0 13.183594 13.417969 23.871094 29.972657 23.871094 16.554687 0 29.972656-10.6875 29.972656-23.871094zm0 0" fill="#ffa6bb"></path><path d="m71.5625 411.976562c7.433594 14.539063 22.148438 23.574219 38.398438 23.574219h82.34375c-27.691407-34.828125-50.488282-83.15625-55.8125-149.628906h-98.992188c0 37.777344 12.414062 83.722656 34.0625 126.054687zm0 0" fill="#ff809e"></path><path d="m136.019531 242.21875c-3.375-.109375-6.402343-.164062-9.042969-.164062-49.417968 0-89.476562 19.640624-89.476562 43.867187s40.058594 43.867187 89.476562 43.867187c4.320313 0 9.6875-.148437 15.894532-.441406-2.964844-13.535156-5.144532-27.988281-6.378906-43.425781-1.273438-15.902344-1.371094-30.425781-.472657-43.703125zm0 0" fill="#ffa4ba"></path><path d="m288.671875 176.457031v-12.449219c0-4.140624-3.355469-7.5-7.5-7.5-4.140625 0-7.5 3.359376-7.5 7.5v12.449219c0 4.144531 3.359375 7.5 7.5 7.5s7.5-3.355469 7.5-7.5zm0 0"></path><path d="m127.359375 176.457031v-12.449219c0-4.140624-3.359375-7.5-7.5-7.5-4.144531 0-7.5 3.359376-7.5 7.5v12.449219c0 4.144531 3.355469 7.5 7.5 7.5 4.140625 0 7.5-3.355469 7.5-7.5zm0 0"></path><path d="m508.84375 90.5625c-1.230469-3.957031-5.433594-6.164062-9.390625-4.933594-3.953125 1.230469-6.164063 5.433594-4.933594 9.386719 1.644531 5.289063 2.480469 10.8125 2.480469 16.410156 0 30.421875-24.75 55.171875-55.175781 55.171875-30.421875 0-55.171875-24.75-55.171875-55.171875s24.75-55.171875 55.171875-55.171875c14.21875 0 27.722656 5.394532 38.019531 15.191406 3 2.851563 7.746094 2.734376 10.605469-.269531 2.855469-3 2.734375-7.746093-.265625-10.601562-13.101563-12.460938-30.273438-19.320313-48.359375-19.320313-21.546875 0-40.847657 9.769532-53.730469 25.101563-5.632812-2.46875-11.441406-4.746094-17.453125-6.808594-24.195313-8.289063-51.4375-13.332031-80.972656-14.992187-11.3125-.636719-22.039063-.722657-31.914063-.484376 0 0 1.226563-44.070312-40.402344-44.070312h-33.675781c-22.277343 0-40.402343 18.125-40.402343 40.402344v53.339844c-27.933594 8.308593-53.929688 22.675781-76.066407 42.390624-3.09375 2.753907-3.367187 7.496094-.613281 10.589844 2.757812 3.09375 7.496094 3.367188 10.589844.613282 33.980468-30.261719 77.78125-46.929688 123.332031-46.929688 102.292969 0 185.515625 83.222656 185.515625 185.515625 0 41.222656-13.316406 90.902344-36.53125 136.300781-11.300781 22.101563-33.691406 35.828125-58.429688 35.828125h-181.109374c-24.742188 0-47.132813-13.730469-58.433594-35.828125-23.210938-45.398437-36.527344-95.078125-36.527344-136.300781 0-42.996094 15.042969-84.902344 42.359375-118 2.636719-3.195313 2.183594-7.921875-1.011719-10.558594-3.191406-2.636719-7.921875-2.1875-10.558594 1.007813-29.527343 35.78125-45.789062 81.078125-45.789062 127.550781 0 43.519531 13.914062 95.6875 38.175781 143.128906 13.875 27.140625 41.382813 44 71.785157 44h181.109374c30.398438 0 57.90625-16.859375 71.785157-44 24.261719-47.445312 38.175781-99.613281 38.175781-143.128906 0-90.679687-60.515625-167.480469-143.277344-192.175781v-34.652344c9.628906-.25 20.085938-.179688 31.074219.4375 37.585937 2.113281 67.316406 9.703125 90.734375 19.59375-5.042969 9.675781-7.910156 20.65625-7.910156 32.300781 0 38.695313 31.480468 70.171875 70.175781 70.171875 38.691406 0 70.171875-31.476562 70.171875-70.171875 0-7.113281-1.0625-14.132812-3.15625-20.863281zm-308.328125-5.15625c-14.3125 0-28.460937 1.535156-42.238281 4.496094v-49.5c0-14.007813 11.394531-25.402344 25.398437-25.402344h33.679688c14.003906 0 25.398437 11.394531 25.398437 25.402344v49.496094c-13.621094-2.933594-27.75-4.492188-42.238281-4.492188zm0 0"></path><path d="m30 285.921875c0 38.925781 12.714844 86.117187 34.882812 129.46875 8.726563 17.0625 25.996094 27.660156 45.078126 27.660156h181.109374c19.078126 0 36.351563-10.597656 45.074219-27.660156 2.039063-3.984375 4.027344-8.0625 5.910157-12.121094 1.742187-3.757812.109374-8.214843-3.648438-9.960937-3.757812-1.742188-8.214844-.109375-9.960938 3.648437-1.800781 3.886719-3.703124 7.792969-5.65625 11.609375-6.144531 12.019532-18.300781 19.484375-31.71875 19.484375h-181.109374c-13.421876 0-25.574219-7.464843-31.722657-19.484375-15.65625-30.617187-26.355469-63.09375-30.851562-92.769531 3.769531 2.835937 21.386719 21.492187 79.589843 21.492187 24.839844 0 84.632813-4.941406 137.921876-12.929687 49.078124-7.355469 75.886718-14.375 90.277343-21.078125-1.894531 20.269531-6.960937 42.363281-14.953125 64.878906-1.386718 3.90625.515625 8.671875 4.558594 9.578125 5.761719 1.292969 8.484375-1.484375 9.574219-4.558593 10.910156-30.726563 16.675781-60.898438 16.675781-87.257813 0-11.699219-12.855469-24.453125-106.132812-38.433594-53.289063-7.988281-113.082032-12.933593-137.921876-12.933593-25.019531 0-48.664062 4.835937-66.570312 13.613281-19.609375 9.613281-30.40625 23.019531-30.40625 37.753906zm226.527344-24.503906c77.363281 11.160156 94.976562 21.328125 98.75 24.503906-3.773438 3.175781-21.386719 13.34375-98.75 24.503906-51.464844 7.425781-106.285156 11.863281-129.550782 11.863281-43.667968 0-81.976562-16.992187-81.976562-36.367187s38.308594-36.367187 81.976562-36.367187c23.265626 0 78.085938 4.4375 129.550782 11.863281zm0 0"></path><path d="m236.113281 197.0625v-20.429688c0-8.367187-6.804687-15.171874-15.167969-15.171874h-40.859374c-8.367188 0-15.171876 6.804687-15.171876 15.171874v20.429688c0 19.628906 15.972657 35.597656 35.601563 35.597656s35.597656-15.96875 35.597656-35.597656zm-56.199219 0s.078126-20.601562.171876-20.601562c0 0 41.027343.074218 41.027343.171874v20.425782c0 11.359375-9.242187 20.601562-20.597656 20.601562-11.359375 0-20.601563-9.238281-20.601563-20.597656zm0 0"></path><path d="m200.515625 31.636719c-12.40625 0-22.5 10.09375-22.5 22.5s10.09375 22.5 22.5 22.5 22.5-10.09375 22.5-22.5-10.09375-22.5-22.5-22.5zm0 30c-4.136719 0-7.5-3.363281-7.5-7.5s3.363281-7.5 7.5-7.5 7.5 3.363281 7.5 7.5-3.367187 7.5-7.5 7.5zm0 0"></path></svg>