<!-- icon666.com - MILLIONS OF FREE VECTOR ICONS --><svg viewBox="-35 0 512 512" xmlns="http://www.w3.org/2000/svg"><path d="m113.851562 14.230469c-9.195312 3.429687-14.933593 12.707031-13.894531 22.46875 2.886719 27.128906 14.316407 49.445312 34.234375 61.761719 23.707032 14.65625 54.71875 12.226562 85.160156-3.46875.441407-34.246094-11.246093-63.078126-34.953124-77.734376-19.914063-12.316406-44.988282-12.570312-70.546876-3.027343zm0 0" fill="#69d283"></path><path d="m264.738281 23.382812-13.585937-9.78125c-3.875-2.785156-9.300782-1.667968-11.742188 2.429688-10.515625 17.632812-34.539062 65.367188-34.539062 133.390625h32.921875c0-58.558594 20.503906-100.257813 29.242187-115.371094 2.09375-3.617187 1.097656-8.226562-2.296875-10.667969zm0 0" fill="#00c67f"></path><path d="m435.164062 317.789062c0-103.117187-95.734374-186.710937-213.832031-186.710937-118.09375 0-213.832031 83.59375-213.832031 186.710937 0 103.117188 95.738281 186.710938 213.832031 186.710938 118.097657 0 213.832031-83.59375 213.832031-186.710938zm0 0" fill="#ff9148"></path><path d="m57.5 317.789062c0-95.730468 82.519531-174.621093 188.832031-185.433593-8.199219-.835938-16.539062-1.277344-25-1.277344-118.09375 0-213.832031 83.59375-213.832031 186.710937 0 103.117188 95.738281 186.710938 213.832031 186.710938 8.460938 0 16.800781-.441406 25-1.277344-106.3125-10.8125-188.832031-89.703125-188.832031-185.433594zm0 0" fill="#ff7f5a"></path><path d="m126.953125 305.730469v15.722656c0 4.144531 3.359375 7.5 7.5 7.5 4.144531 0 7.5-3.355469 7.5-7.5v-15.722656c0-4.140625-3.355469-7.5-7.5-7.5-4.140625 0-7.5 3.359375-7.5 7.5zm0 0"></path><path d="m300.710938 305.730469v15.722656c0 4.144531 3.355468 7.5 7.5 7.5 4.140624 0 7.5-3.355469 7.5-7.5v-15.722656c0-4.140625-3.359376-7.5-7.5-7.5-4.144532 0-7.5 3.359375-7.5 7.5zm0 0"></path><path d="m237.128906 315.425781c-3.847656 4.398438-9.605468 6.921875-15.796875 6.921875-6.191406 0-11.949219-2.523437-15.796875-6.921875-2.722656-3.121093-7.460937-3.4375-10.582031-.710937-3.117187 2.722656-3.4375 7.460937-.710937 10.582031 6.695312 7.65625 16.570312 12.050781 27.089843 12.050781 10.523438 0 20.394531-4.394531 27.089844-12.050781 2.726563-3.121094 2.40625-7.859375-.710937-10.582031-3.117188-2.726563-7.855469-2.410156-10.582032.710937zm0 0"></path><path d="m380.289062 182.636719c-3.070312-2.777344-7.8125-2.542969-10.59375.527343-2.78125 3.070313-2.542968 7.8125.527344 10.59375 37.042969 33.535157 57.441406 77.585938 57.441406 124.03125 0 98.816407-92.558593 179.210938-206.332031 179.210938-46.785156 0-90.902343-13.269531-127.578125-38.378906-3.417968-2.339844-8.085937-1.464844-10.425781 1.953125s-1.464844 8.085937 1.953125 10.425781c39.183594 26.824219 86.230469 41 136.050781 41 58.933594 0 114.382813-20.078125 156.136719-56.535156 42.042969-36.710938 65.195312-85.605469 65.195312-137.675782 0-50.738281-22.152343-98.734374-62.375-135.152343zm0 0"></path><path d="m357.675781 173.800781c2.304688-3.4375 1.386719-8.097656-2.054687-10.40625-32.109375-21.53125-69.40625-34.660156-109.050782-38.574219 4.535157-44.136718 20.175782-75.28125 26.960938-87.015624 4.035156-6.980469 2.140625-15.796876-4.410156-20.511719l-13.589844-9.777344c-2.679688-1.929687-5.839844-2.949219-9.132812-2.949219-5.480469 0-10.625 2.921875-13.433594 7.625-3.808594 6.390625-9.765625 17.382813-15.722656 32.320313-6.570313-14.4375-16.34375-25.875-28.898438-33.636719-11.671875-7.214844-25.070312-10.875-39.816406-10.875-11.949219 0-24.5 2.421875-37.300782 7.203125-12.429687 4.640625-20.132812 17.09375-18.730468 30.289063 3.234375 30.375 16.640625 54.292968 37.75 67.347656 11.667968 7.210937 25.058594 10.871094 39.800781 10.871094 9.652344 0 19.664063-1.582032 29.878906-4.691407-.589843 4.414063-1.09375 8.941407-1.488281 13.585938-50.289062 4.507812-96.941406 23.816406-133.242188 55.511719-42.042968 36.707031-65.195312 85.601562-65.195312 137.671874 0 50 21.59375 97.488282 60.804688 133.71875 2.996093 2.765626 7.84375 2.566407 10.601562-.417968 2.808594-3.042969 2.621094-7.785156-.417969-10.597656-36.105469-33.359376-55.988281-76.9375-55.988281-122.703126 0-95.542968 86.53125-173.855468 195.097656-178.941406 9.4375-.441406 18.75.105469 28.171875.320313 39.734375 2.773437 77.125 15.316406 109 36.6875 3.4375 2.304687 8.097657 1.386719 10.40625-2.054688zm-187.628906-73.089843c-11.914063 0-22.648437-2.90625-31.910156-8.632813-17.082031-10.558594-27.992188-30.507813-30.722657-56.171875-.679687-6.382812 3.046876-12.40625 9.058594-14.648438 11.121094-4.152343 21.902344-6.257812 32.054688-6.257812 11.917968 0 22.660156 2.90625 31.925781 8.636719 14.335937 8.859375 24.242187 24.046875 28.726563 43.988281-1.027344 3.457031-1.976563 6.960938-2.875 10.480469l-52.320313-32.347657c-3.523437-2.183593-8.144531-1.089843-10.324219 2.433594-2.175781 3.523438-1.085937 8.144532 2.4375 10.324219l56.699219 35.054687c-.046875.226563-.097656.453126-.144531.679688-11.304688 4.289062-22.253906 6.460938-32.605469 6.460938zm43.523437 22.988281c.730469-10.933594 2.703126-21.796875 5.03125-32.492188 7.757813-35.585937 20.789063-60.496093 27.25-71.332031.1875-.320312.621094-.398438.917969-.183594l13.589844 9.777344c.269531.191406.347656.550781.1875.828125-7.308594 12.632813-24.1875 46.195313-28.960937 93.492187-1.582032-.0625-5.078126-.15625-5.238282-.160156-.707031-.011718-12.753906-.296875-12.777344.070313zm0 0"></path></svg>