<!-- icon666.com - MILLIONS OF FREE VECTOR ICONS --><svg version="1.1" id="Capa_1" xmlns="http://www.w3.org/2000/svg" xmlns:xlink="http://www.w3.org/1999/xlink" x="0px" y="0px" viewBox="0 0 512 512" style="enable-background:new 0 0 512 512;" xml:space="preserve"><path style="fill:#89C947;" d="M53.092,305.435h-9.304c-5.5,0-10-4.5-10-10v-47.004c0-5.5,4.5-10,10-10h9.304 c1.269,0,2.48,0.249,3.599,0.685v-27.015H17.5c-5.5,0-10,4.5-10,10v99.666c0,5.5,4.5,10,10,10h39.191v-27.016 C55.572,305.187,54.36,305.435,53.092,305.435z"></path><g style="opacity:0.1;"><path style="fill:#231F20;" d="M29.12,321.767v-99.666c0-5.5,4.5-10,10-10H17.5c-5.5,0-10,4.5-10,10v99.666c0,5.5,4.5,10,10,10 h21.62C33.62,331.767,29.12,327.267,29.12,321.767z"></path></g><path style="fill:#289E48;" d="M248.3,259.495c0-5.476,5.639-10.589,15.4-14.928v-79.306c0,15.705-46.34,28.436-103.505,28.436 c-57.164,0-103.504-12.732-103.504-28.436v207.983c0,4.399,3.938,12.861,30.316,20.108c19.55,5.371,45.542,8.329,73.188,8.329 s53.639-2.958,73.189-8.329c6.1-1.676,10.987-3.417,14.915-5.157v-128.7H248.3z"></path><path style="fill:#C73627;" d="M351.805,287.931c-54.969,0-99.92-11.773-103.294-26.641c-0.124,0.436-0.211,0.886-0.211,1.361 v204.826c0,4.399,3.939,12.861,30.316,20.108c19.55,5.371,45.542,8.329,73.189,8.329c27.646,0,53.638-2.958,73.188-8.329 c26.378-7.247,30.316-15.708,30.316-20.107V262.651c0-0.475-0.087-0.926-0.211-1.361 C451.725,276.158,406.772,287.931,351.805,287.931z"></path><ellipse style="fill:#EF5A50;" cx="351.8" cy="259.5" rx="103.5" ry="28.437"></ellipse><path style="opacity:0.1;fill:#231F20;enable-background:new ;" d="M56.902,167.057c-0.124,0.436-0.211,0.886-0.211,1.361 v204.826c0,4.399,3.938,12.861,30.316,20.108c0.651,0.179,1.328,0.348,1.993,0.521V185.9 C70.58,181.104,58.583,174.464,56.902,167.057z"></path><ellipse style="fill:#89C947;" cx="160.2" cy="165.259" rx="103.5" ry="28.437"></ellipse><path style="fill:#CB7C52;" d="M249.458,179.651c-17.986,8.402-51.217,14.046-89.263,14.046s-71.276-5.643-89.262-14.046 c17.986-8.402,51.216-14.045,89.262-14.045C198.242,165.606,231.472,171.249,249.458,179.651z"></path><g style="opacity:0.1;"><path style="fill:#231F20;" d="M192.737,175.999c20.27,0,39.171,1.602,55.129,4.37c0.542-0.237,1.075-0.476,1.592-0.717 c-17.986-8.402-51.217-14.045-89.263-14.045s-71.276,5.643-89.262,14.045c8.404,3.926,20.137,7.249,34.133,9.676 C123.378,181.324,155.784,175.999,192.737,175.999z"></path></g><path style="fill:#FEDC34;" d="M159.194,245.723c1.215-2.467,3.205-2.467,4.42,0l9.135,18.54c1.215,2.467,4.437,4.81,7.158,5.206 l20.416,2.971c2.721,0.396,3.338,2.292,1.37,4.213l-14.778,14.428c-1.968,1.921-3.198,5.711-2.734,8.421l3.49,20.381 c0.464,2.71-1.147,3.88-3.58,2.599l-18.263-9.617c-2.433-1.281-6.415-1.281-8.848,0l-18.263,9.617 c-2.434,1.281-4.044,0.112-3.581-2.599l3.49-20.381c0.464-2.71-0.766-6.5-2.734-8.421l-14.778-14.428 c-1.968-1.921-1.351-3.817,1.37-4.213l20.416-2.971c2.721-0.396,5.942-2.739,7.158-5.206L159.194,245.723z"></path><path style="fill:#EF5A50;" d="M494.5,306.335h-39.191v27.015c1.119-0.436,2.331-0.685,3.599-0.685h9.304c5.5,0,10,4.5,10,10v47.004 c0,5.5-4.5,10-10,10h-9.304c-1.269,0-2.48-0.249-3.599-0.685v27.015H494.5c5.5,0,10-4.5,10-10v-99.665 C504.5,310.835,500,306.335,494.5,306.335z"></path><path style="fill:#C73627;" d="M351.805,287.931c-57.165,0-103.505-12.732-103.505-28.436v207.983 c0,4.399,3.939,12.861,30.316,20.108c19.55,5.371,45.542,8.329,73.189,8.329c27.646,0,53.638-2.958,73.188-8.329 c26.378-7.247,30.316-15.708,30.316-20.107V259.495C455.309,275.199,408.968,287.931,351.805,287.931z"></path><path style="opacity:0.1;fill:#231F20;enable-background:new ;" d="M248.511,261.29c-0.124,0.436-0.211,0.886-0.211,1.361 v204.826c0,4.399,3.939,12.861,30.316,20.108c0.779,0.214,1.585,0.418,2.384,0.624V280.234 C262.36,275.429,250.204,268.749,248.511,261.29z"></path><ellipse style="fill:#EF5A50;" cx="351.8" cy="259.5" rx="103.5" ry="28.437"></ellipse><path style="fill:#FFD4B2;" d="M262.542,273.885c17.986,8.402,51.217,14.046,89.263,14.046s71.276-5.643,89.262-14.046 c-17.986-8.403-51.216-14.045-89.262-14.045S280.528,265.482,262.542,273.885z"></path><g style="opacity:0.1;"><path style="fill:#231F20;" d="M301,284.044c17.986-8.402,51.217-14.045,89.263-14.045c18.16,0,35.216,1.288,50.047,3.546 c-18.149-8.213-50.979-13.705-88.505-13.705c-38.046,0-71.277,5.643-89.263,14.045c9.401,4.392,22.973,8.027,39.214,10.5 C301.505,284.271,301.246,284.159,301,284.044z"></path></g><rect x="339.31" y="426.089" style="fill:#FFBB4A;" width="24.998" height="27.694"></rect><path style="fill:#289E48;" d="M390.827,421.738l-14.792-26.206h-48.461l-14.792,26.206c-1.352,2.395-0.208,4.354,2.542,4.354 h72.961C391.035,426.092,392.179,424.133,390.827,421.738z"></path><path style="fill:#89C947;" d="M382.476,391.178l-15.24-27h-30.861l-15.24,27c-1.352,2.395-0.207,4.354,2.543,4.354h56.257 C382.683,395.532,383.827,393.573,382.476,391.178z"></path><path style="fill:#289E48;" d="M332.028,364.178c-2.75,0-3.894-1.96-2.542-4.355l19.861-35.188c1.352-2.395,3.564-2.395,4.915,0.001 l19.86,35.187c1.352,2.395,0.207,4.355-2.543,4.355L332.028,364.178L332.028,364.178z"></path><path d="M201.403,265.017l-20.339-2.957c-0.459-0.119-1.369-0.781-1.587-1.113l-9.135-18.54c-1.862-3.779-5.203-6.036-8.938-6.036 c-3.734,0-7.076,2.256-8.938,6.035l-9.099,18.472c-0.254,0.4-1.165,1.063-1.547,1.167l-20.415,2.971 c-4.165,0.606-7.341,3.087-8.496,6.637c-1.154,3.549-0.046,7.424,2.966,10.365L130.6,296.39c0.303,0.368,0.653,1.446,0.634,1.845 l-3.49,20.381c-0.566,3.306,0.173,6.371,2.081,8.633c1.742,2.066,4.328,3.251,7.095,3.251c1.768,0,3.548-0.465,5.292-1.384 l18.192-9.583c0.086-0.034,0.455-0.131,1-0.131s0.914,0.097,0.929,0.097l18.263,9.617c1.744,0.918,3.524,1.384,5.292,1.384 c2.767,0,5.352-1.185,7.094-3.251c1.907-2.262,2.646-5.328,2.081-8.634l-3.479-20.304c-0.03-0.476,0.32-1.554,0.57-1.866 l14.778-14.428c3.012-2.941,4.12-6.815,2.966-10.365C208.744,268.104,205.568,265.623,201.403,265.017z M181.675,285.714 c-3.705,3.618-5.76,9.948-4.887,15.053l1.768,10.323l-9.233-4.863c-2.864-1.508-5.887-1.825-7.918-1.825s-5.054,0.316-7.919,1.825 l-9.234,4.863l1.767-10.324c0.874-5.105-1.182-11.435-4.887-15.053l-7.496-7.318l10.344-1.505 c5.129-0.747,10.515-4.663,12.805-9.313l4.618-9.372l4.618,9.371c2.29,4.65,7.676,8.566,12.805,9.313l10.344,1.505L181.675,285.714z "></path><path d="M494.5,298.835h-31.691c0-19.9,0-39.069,0-39.34c0-11.609-12.055-20.808-35.829-27.34 c-20.178-5.544-46.876-8.597-75.175-8.597c-28.3,0-54.998,3.053-75.176,8.597c-1.886,0.518-3.69,1.055-5.428,1.607 c0-19.429,0-68.041,0-68.501c0-11.61-12.055-20.808-35.829-27.34c-20.179-5.544-46.877-8.597-75.176-8.597 s-54.997,3.053-75.175,8.597c-23.774,6.532-35.829,15.73-35.829,27.34c0,0.157,0,16.216,0,39.34H17.5c-9.649,0-17.5,7.851-17.5,17.5 v99.666c0,9.649,7.851,17.5,17.5,17.5h31.691c0,20.316,0,33.977,0,33.977c0,11.61,12.055,20.809,35.83,27.34 c20.18,5.544,46.877,8.597,75.175,8.597s54.996-3.053,75.176-8.597c1.892-0.52,3.687-1.062,5.429-1.616c0,37.81,0,68.51,0,68.51 c0,11.609,12.055,20.808,35.83,27.34c20.18,5.543,46.877,8.597,75.175,8.597c28.297,0,54.995-3.053,75.175-8.597 c23.775-6.532,35.83-15.73,35.83-27.339v-33.978H494.5c9.649,0,17.5-7.851,17.5-17.5v-99.665 C512,306.685,504.149,298.835,494.5,298.835z M49.191,297.935h-5.403c-1.355,0-2.5-1.145-2.5-2.5v-47.004c0-1.355,1.145-2.5,2.5-2.5 h5.403C49.191,263.041,49.191,281.035,49.191,297.935z M49.191,230.932h-5.403c-9.649,0-17.5,7.851-17.5,17.5v47.004 c0,9.649,7.851,17.5,17.5,17.5h5.403c0,3.886,0,7.672,0,11.331H17.5c-1.355,0-2.5-1.145-2.5-2.5v-99.666c0-1.355,1.145-2.5,2.5-2.5 h31.691C49.191,223.279,49.191,227.063,49.191,230.932z M280.602,246.619c18.92-5.198,44.207-8.061,71.202-8.061 s52.281,2.863,71.202,8.061c20.389,5.602,24.803,11.673,24.803,12.876c0,0.708-1.537,3.109-6.97,6.108 c-20.188-8.336-53.02-13.263-89.034-13.263c-36.015,0-68.847,4.926-89.035,13.262c-5.433-2.998-6.97-5.399-6.97-6.107 C255.8,258.292,260.213,252.221,280.602,246.619z M417.003,273.882c-18.113,4.234-40.959,6.549-65.199,6.549 c-24.24,0-47.087-2.315-65.2-6.55c17.814-4.147,40.919-6.542,65.2-6.542C376.084,267.34,399.189,269.734,417.003,273.882z M88.994,152.385c18.92-5.198,44.207-8.061,71.202-8.061s52.282,2.863,71.202,8.061c20.389,5.602,24.803,11.673,24.803,12.876 c0,1.063-1.952,3.376-6.967,6.109c-20.188-8.337-53.022-13.264-89.038-13.264c-36.014,0-68.846,4.926-89.034,13.263 c-5.434-2.999-6.971-5.399-6.971-6.108C64.191,164.059,68.604,157.988,88.994,152.385z M231.397,386.12 c-18.922,5.198-44.208,8.061-71.202,8.061c-26.993,0-52.28-2.863-71.201-8.061c-20.413-5.608-24.757-11.585-24.803-12.876V184.667 c5.465,2.971,12.408,5.621,20.829,7.935c20.179,5.544,46.877,8.597,75.175,8.597c5.394,0,10.817-0.113,16.12-0.336 c4.138-0.174,7.352-3.67,7.178-7.809c-0.174-4.138-3.645-7.367-7.809-7.178c-5.093,0.214-10.305,0.323-15.489,0.323 c-24.24,0-47.086-2.315-65.199-6.55c17.815-4.147,40.919-6.542,65.199-6.542c24.283,0,47.39,2.395,65.206,6.543 c-2.146,0.501-4.414,0.99-6.835,1.462c-4.066,0.792-6.72,4.73-5.928,8.796c0.792,4.065,4.731,6.716,8.796,5.928 c11.901-2.319,24.995-5.87,34.766-11.206v55.241c-10.234,5.461-15.4,12.026-15.4,19.626c0,0.319,0,66.132,0,123.631 C238.123,384.117,235.023,385.124,231.397,386.12z M447.809,386.999v80.477c-0.046,1.293-4.393,7.27-24.803,12.878 c-18.922,5.198-44.208,8.061-71.201,8.061c-26.994,0-52.28-2.863-71.202-8.061c-20.411-5.608-24.757-11.585-24.803-12.876V278.899 c5.465,2.971,12.408,5.621,20.829,7.935c20.179,5.544,46.877,8.597,75.176,8.597s54.997-3.053,75.175-8.597 c8.421-2.313,15.364-4.963,20.829-7.935v64.1c0,4.142,3.358,7.5,7.5,7.5s7.5-3.358,7.5-7.5c0,0,0-1.022,0-2.834h5.403 c1.355,0,2.5,1.145,2.5,2.5v47.004c0,1.355-1.145,2.5-2.5,2.5h-5.403v-5.17c0-4.142-3.358-7.5-7.5-7.5 S447.809,382.856,447.809,386.999z M497,416c0,1.355-1.145,2.5-2.5,2.5h-31.691v-11.331h5.403c9.649,0,17.5-7.851,17.5-17.5v-47.004 c0-9.649-7.851-17.5-17.5-17.5h-5.403c0-3.495,0-7.327,0-11.33H494.5c1.355,0,2.5,1.145,2.5,2.5V416z"></path><path d="M387.346,400.313c0.73-0.658,1.37-1.414,1.874-2.277c1.827-3.129,1.748-7.071-0.212-10.544l-10.318-18.28 c0.859-0.713,1.606-1.552,2.178-2.53c1.827-3.129,1.748-7.071-0.212-10.544l-19.86-35.186c-1.982-3.513-5.343-5.61-8.989-5.61 c-3.646,0-7.006,2.097-8.989,5.609l-19.862,35.188c-1.96,3.473-2.039,7.414-0.212,10.543c0.572,0.979,1.32,1.817,2.179,2.531 l-10.318,18.28c-1.96,3.473-2.039,7.414-0.212,10.543c0.504,0.863,1.143,1.619,1.874,2.277l-10.012,17.738 c-1.961,3.472-2.041,7.414-0.214,10.543s5.299,4.998,9.287,4.998h16.481v20.194c0,4.142,3.358,7.5,7.5,7.5h24.999 c4.142,0,7.5-3.358,7.5-7.5v-20.194h16.481c3.988,0,7.459-1.868,9.286-4.998c1.827-3.129,1.748-7.07-0.212-10.543L387.346,400.313z M331.521,388.032l9.231-16.354h22.103l9.232,16.354H331.521z M351.804,335.539l11.931,21.138h-23.862L351.804,335.539z M356.804,446.286h-9.999v-12.694h9.999V446.286z M323.17,418.592l8.783-15.56h39.703l8.783,15.56H323.17z"></path><path d="M374.1,121.371c-4.142,0-7.5,3.358-7.5,7.5c0,4.142,3.358,7.5,7.5,7.5h12.722c8.346,0,15.137,6.807,15.137,15.173 c0,8.367-6.791,15.173-15.137,15.173H349.78c-9.81,0-17.79,8.089-17.79,18.032v23.138c0,4.142,3.358,7.5,7.5,7.5s7.5-3.358,7.5-7.5 v-23.138c0-1.644,1.278-3.032,2.79-3.032h37.042c16.618,0,30.137-13.536,30.137-30.173s-13.519-30.173-30.137-30.173 C386.822,121.371,374.1,121.371,374.1,121.371z"></path><path d="M317.882,137.401H333c4.142,0,7.5-3.358,7.5-7.5c0-4.142-3.358-7.5-7.5-7.5h-15.118c-8.346,0-15.136-6.807-15.136-15.174 s6.79-15.173,15.136-15.173h53.505c16.618,0,30.137-13.536,30.137-30.173c0-16.638-13.519-30.173-30.137-30.173h-48.36 c-4.142,0-7.5,3.358-7.5,7.5s3.358,7.5,7.5,7.5h48.36c8.346,0,15.137,6.807,15.137,15.173s-6.79,15.173-15.137,15.173h-53.505 c-16.617,0-30.136,13.536-30.136,30.173C287.746,123.865,301.265,137.401,317.882,137.401z"></path><path d="M129.659,68.93h53.505c8.346,0,15.137,6.807,15.137,15.173s-6.791,15.174-15.137,15.174h-18.521c-4.142,0-7.5,3.358-7.5,7.5 s3.358,7.5,7.5,7.5h18.521c16.618,0,30.137-13.536,30.137-30.174S199.782,53.93,183.164,53.93h-53.505 c-8.346,0-15.137-6.807-15.137-15.173s6.791-15.173,15.137-15.173h48.36c4.142,0,7.5-3.358,7.5-7.5s-3.358-7.5-7.5-7.5h-48.36 c-16.618,0-30.137,13.536-30.137,30.173C99.522,55.395,113.041,68.93,129.659,68.93z"></path></svg>