<!-- icon666.com - MILLIONS OF FREE VECTOR ICONS --><svg id="Capa_1" enable-background="new 0 0 512 512" viewBox="0 0 512 512" xmlns="http://www.w3.org/2000/svg"><g><g><path d="m468.134 230.746h36.366v50.508h-36.366z" fill="#3c5959"></path></g><g><path d="m7.5 230.746h36.366v50.508h-36.366z" fill="#3c5959" transform="matrix(-1 0 0 -1 51.366 512)"></path></g><g><path d="m468.134 225.695v60.61c0 44.632-36.181 80.813-80.813 80.813h-56.958c-20.669 0-40.058-10.009-52.03-26.858-5.139-7.232-13.462-11.529-22.334-11.529-8.872 0-17.195 4.296-22.334 11.529-11.972 16.849-31.361 26.858-52.03 26.858h-56.958c-44.632 0-80.813-36.181-80.813-80.813v-60.61c0-44.632 36.181-80.813 80.813-80.813h262.642c44.634 0 80.815 36.181 80.815 80.813z" fill="#eff3f5"></path></g><g><path d="m468.134 225.695v60.61c0 44.632-36.181 80.813-80.813 80.813h-56.958c-20.669 0-40.058-10.009-52.03-26.858-5.139-7.232-13.462-11.529-22.334-11.529-8.872 0-17.195 4.296-22.334 11.529-11.972 16.849-31.361 26.858-52.03 26.858h-56.958c-44.632 0-80.813-36.181-80.813-80.813v-60.61c0-44.632 36.181-80.813 80.813-80.813h262.642c44.634 0 80.815 36.181 80.815 80.813z" fill="#eff3f5"></path></g><g><g><path d="m207.402 340.26c-11.972 16.849-31.361 26.858-52.03 26.858h26.264c20.669 0 40.058-10.009 52.03-26.858 5.139-7.232 13.462-11.529 22.334-11.529 0 0-21.607 0-26.264 0-8.872.001-17.195 4.297-22.334 11.529z" fill="#c9e2e7"></path></g><g><path d="m387.321 144.882h-26.264c44.632 0 80.813 36.181 80.813 80.813v60.61c0 44.632-36.181 80.813-80.813 80.813h26.264c44.632 0 80.813-36.181 80.813-80.813v-60.61c0-44.632-36.181-80.813-80.813-80.813z" fill="#c9e2e7"></path></g></g><g><path d="m387.684 226.567c23.732 23.732 38.953 46.989 20.872 65.071-18.082 18.082-51.979 13.501-75.711-10.231s-28.313-57.629-10.231-75.711 41.337-2.861 65.07 20.871z" fill="#557981"></path></g><g><ellipse cx="256" cy="276.878" fill="#557981" rx="20.203" ry="15.152"></ellipse></g><g><path d="m124.316 226.567c-23.732 23.732-38.953 46.989-20.872 65.071 18.082 18.082 51.979 13.501 75.711-10.231s28.313-57.629 10.231-75.711-41.337-2.861-65.07 20.871z" fill="#557981"></path></g><g><path d="m504.5 223.246h-28.901c-1.302-47.568-40.401-85.864-88.278-85.864h-26.264c-4.142 0-7.5 3.358-7.5 7.5s3.358 7.5 7.5 7.5h26.264c40.425 0 73.313 32.888 73.313 73.313v60.609c0 40.425-32.888 73.313-73.313 73.313h-56.958c-18.206 0-35.371-8.86-45.917-23.702-5.057-7.119-12.577-12.002-20.947-13.851v-23.35c11.777-2.613 20.203-11.27 20.203-21.838 0-12.702-12.168-22.652-27.703-22.652s-27.703 9.95-27.703 22.652c0 10.568 8.426 19.225 20.203 21.838v23.35c-8.37 1.849-15.89 6.732-20.947 13.851-10.545 14.842-27.71 23.702-45.917 23.702h-21.895c-4.142 0-7.5 3.358-7.5 7.5s3.358 7.5 7.5 7.5h21.895c23.055 0 44.791-11.22 58.144-30.014 3.725-5.242 9.789-8.372 16.22-8.372s12.495 3.13 16.22 8.373c13.354 18.793 35.089 30.014 58.144 30.014h56.958c47.877 0 86.976-38.296 88.278-85.864h28.901c4.142 0 7.5-3.358 7.5-7.5v-50.508c0-4.142-3.358-7.5-7.5-7.5zm-261.203 53.632c0-3.612 5.433-7.652 12.703-7.652s12.703 4.04 12.703 7.652-5.433 7.652-12.703 7.652-12.703-4.04-12.703-7.652zm253.703-3.124h-21.366v-35.508h21.366z"></path><path d="m124.679 359.618c-40.425 0-73.313-32.888-73.313-73.313v-60.609c0-40.425 32.888-73.313 73.313-73.313h201.308c4.142 0 7.5-3.358 7.5-7.5s-3.358-7.5-7.5-7.5h-201.308c-47.877 0-86.976 38.296-88.278 85.864h-28.901c-4.142 0-7.5 3.358-7.5 7.5v50.508c0 4.142 3.358 7.5 7.5 7.5h28.901c1.302 47.568 40.401 85.864 88.278 85.864 4.142 0 7.5-3.358 7.5-7.5s-3.358-7.501-7.5-7.501zm-109.679-121.372h21.366v35.508h-21.366z"></path><path d="m304.616 242.436c2.151 15.918 10.293 31.641 22.925 44.273s28.355 20.774 44.273 22.925c2.808.379 5.564.567 8.26.567 13.313 0 25.103-4.58 33.784-13.261 7.332-7.332 14.478-19.973 6.884-38.556-4.415-10.804-13.234-22.6-27.755-37.121s-26.316-23.341-37.121-27.756c-18.583-7.593-31.225-.448-38.556 6.884-10.439 10.44-14.947 25.371-12.694 42.045zm23.301-31.437c3.859-3.859 7.958-5.756 12.694-5.756 2.921 0 6.084.722 9.582 2.151 8.774 3.585 19.303 11.592 32.188 24.477 33.192 33.192 29.177 46.158 20.872 54.464-7.051 7.052-17.502 10.049-29.429 8.436-12.682-1.713-25.352-8.343-35.676-18.667s-16.953-22.994-18.667-35.676c-1.612-11.927 1.384-22.378 8.436-29.429z"></path><path d="m360.047 273.602c13.047 0 23.663-10.615 23.663-23.663 0-4.142-3.358-7.5-7.5-7.5s-7.5 3.358-7.5 7.5c0 4.776-3.886 8.663-8.663 8.663s-8.663-3.886-8.663-8.663c0-4.142-3.358-7.5-7.5-7.5s-7.5 3.358-7.5 7.5c0 13.048 10.616 23.663 23.663 23.663z"></path><path d="m207.384 242.436c2.253-16.674-2.255-31.605-12.694-42.044-7.332-7.331-19.972-14.479-38.556-6.884-10.804 4.415-22.6 13.234-37.121 27.756-14.521 14.521-23.341 26.316-27.755 37.121-7.594 18.583-.448 31.225 6.884 38.556 8.682 8.682 20.469 13.261 33.784 13.261 2.695 0 5.454-.188 8.26-.567 15.918-2.151 31.641-10.293 44.273-22.925s20.774-28.356 22.925-44.274zm-69.207 52.334c-11.926 1.612-22.377-1.384-29.429-8.436-8.306-8.306-12.321-21.271 20.872-54.464 12.885-12.885 23.414-20.891 32.188-24.477 3.498-1.429 6.66-2.151 9.582-2.151 4.735 0 8.835 1.898 12.694 5.756 7.051 7.051 10.047 17.503 8.436 29.429-1.713 12.682-8.343 25.352-18.667 35.676s-22.994 16.953-35.676 18.667z"></path><path d="m168.116 242.439c-4.142 0-7.5 3.358-7.5 7.5 0 4.776-3.886 8.663-8.663 8.663s-8.663-3.886-8.663-8.663c0-4.142-3.358-7.5-7.5-7.5s-7.5 3.358-7.5 7.5c0 13.048 10.615 23.663 23.663 23.663s23.663-10.615 23.663-23.663c0-4.142-3.358-7.5-7.5-7.5z"></path></g></g></svg>