<!-- icon666.com - MILLIONS OF FREE VECTOR ICONS --><svg viewBox="0 0 96 96" xmlns="http://www.w3.org/2000/svg"><g id="Sweets_Candy_Chocolate" data-name="Sweets/Candy/Chocolate"><path d="m42.69 49.83-2.18 10.48a26.31 26.31 0 0 1 -11-11l10.49-2.21z" fill="#30aae7"></path><path d="m68.42 18.64 2.18-10.48a26.31 26.31 0 0 1 11 11l-10.45 2.21z" fill="#30aae7"></path><path d="m16.38 10.53h22.78v27.61h-22.78z" fill="#f9a959" transform="matrix(.707 .707 -.707 .707 25.34 -12.51)"></path><path d="m34.48 16.24h2.32a0 0 0 0 1 0 0v27.61a0 0 0 0 1 0 0h-2.32a4.32 4.32 0 0 1 -4.32-4.32v-19a4.32 4.32 0 0 1 4.32-4.32z" fill="#f98645" transform="matrix(.707 .707 -.707 .707 31.05 -14.87)"></path><rect fill="#f9d181" height="21.42" rx="2.13" transform="matrix(.707 .707 -.707 .707 21.03 -10.72)" width="4.26" x="21.33" y="9.31"></rect><path d="m32.2 1.02 2.01 4.28 4.28 2.01 2.01 4.28 4.28 2.01 2.02 4.29 4.28 2.02-5.49 2.72-16.11-16.12z" fill="#ff3d57"></path><path d="m23.34 47.65-2.01-4.28-4.28-2.02-2.01-4.27-4.28-2.02-2.02-4.28-4.28-2.02 5.49-2.72 16.11 16.11z" fill="#ff3d57"></path><circle cx="27.77" cy="24.33" fill="#f9a959" r="7.04"></circle><path d="m33.26 70.69c-.59 1.39-1.41 2-3.16 3.78a6.34 6.34 0 0 1 -9 0c-6.33-6.34-6.91-6.64-7.49-8.44a6.3 6.3 0 0 1 1.51-6.5l1.88-1.85a6.34 6.34 0 0 1 9 0l6 6a6.33 6.33 0 0 1 1.26 7.01z" fill="#43be9a"></path><path d="m14.9 60.15-10.49-2.18 2.5-1.18 1.18-2.5 2.5-1.17 1.17-2.5 2.51-1.18 1.18-2.51 2.13 10.25z" fill="#f9b86d"></path><path d="m32.26 72.05 10.49 2.18-2.5 1.18-1.18 2.5-2.5 1.17-1.17 2.5-2.51 1.18-1.18 2.51-2.14-10.33z" fill="#f9b86d"></path><path d="m29.44 61.15h-15.44c.6-1.19 1.3-1.75 3-3.47a6.34 6.34 0 0 1 9 0z" fill="#30aae7"></path><path d="m33.21 65.46-.28.46c-20.56 0-18.21 0-19.28.11a6.33 6.33 0 0 1 .35-4.88h15.44c2.45 2.45 3.18 3.02 3.77 4.31z" fill="#ff3d57"></path><path d="m33.26 70.69c-.59 1.39-1.41 2-3.16 3.78a6.34 6.34 0 0 1 -9 0l-3.77-3.78z" fill="#f9b86d"></path><path d="m70.91 29.68-19.91 19.89a6.33 6.33 0 0 1 -9 0l-1.86-1.86a6.33 6.33 0 0 1 0-9l19.86-19.71a6.33 6.33 0 0 1 9 0l1.86 1.86a6.33 6.33 0 0 1 .05 8.82z" fill="#30aae7"></path><path d="m54.76 45.84-3.76 3.73a6.33 6.33 0 0 1 -9 0l-1.86-1.86a6.33 6.33 0 0 1 0-9l3.86-3.71a6.33 6.33 0 0 0 0 9l1.86 1.86a6.33 6.33 0 0 0 8.9-.02z" fill="#306ece"></path><path d="m70.91 29.68-12 12a7.64 7.64 0 0 1 -10.85-10.76l11.94-11.92a6.33 6.33 0 0 1 9 0l1.86 1.86a6.33 6.33 0 0 1 .05 8.82z" fill="#f0f0f0"></path><path d="m70.91 29.68c-1.83 1.84-2.44 2.47-2.54 2.54a7.64 7.64 0 0 1 -10.71-10.9l2.34-2.32a6.33 6.33 0 0 1 9 0l1.86 1.86a6.33 6.33 0 0 1 .05 8.82z" fill="#30aae7"></path><path d="m63.05 30.38a3.64 3.64 0 0 1 -2.57-6.21c2.73-2.72 2.27-2.28 2.38-2.39a2.32 2.32 0 0 1 3.29 0l1.85 1.86a2.32 2.32 0 0 1 0 3.25c-2.51 2.56-2 2.11-2.42 2.47a3.61 3.61 0 0 1 -2.53 1.02z" fill="#62d2ff"></path><path d="m83.31 66.67a14.18 14.18 0 0 1 -18.8-18.81l7-7a14.2 14.2 0 0 1 18.79 18.83z" fill="#d72443"></path><path d="m81.29 64.27a11.17 11.17 0 0 1 -14.58-7.27 1.5 1.5 0 0 0 -1.62-1.06 1.49 1.49 0 0 0 -1.26 1.88 14.18 14.18 0 0 0 19.23 9 1.58 1.58 0 0 0 .48-.33l2.84-2.84a1.49 1.49 0 0 0 .1-2 1.51 1.51 0 0 0 -2.22-.11c-2.58 2.53-2.56 2.58-2.97 2.73z" fill="#b90b48"></path><path d="m87.31 53.88-10-10a1.31 1.31 0 0 1 1-2.24 12.19 12.19 0 0 1 11.24 11.24 1.31 1.31 0 0 1 -2.24 1z" fill="#ff8384"></path><path d="m90.35 64.52-2.2 2.2a3.37 3.37 0 0 1 -4.77 0l-18.95-18.94a3.38 3.38 0 0 1 0-4.75l2.2-2.2a3.39 3.39 0 0 1 4.74 0c14.79 14.8 10.9 10.91 18.95 19a3.39 3.39 0 0 1 .03 4.69z" fill="#dc2948"></path><path d="m83.89 58.07-2.2 2.2a3.39 3.39 0 0 1 -4.74 0l-12.52-12.49a3.38 3.38 0 0 1 0-4.75l2.2-2.2a3.39 3.39 0 0 1 4.74 0l12.52 12.47a3.37 3.37 0 0 1 0 4.77z" fill="#ff3d57"></path><path d="m37.14 94a3.22 3.22 0 0 1 .07-4.62l28.79-26.99 2.83 2.83-27.07 28.78a3.22 3.22 0 0 1 -4.62 0z" fill="#f0f0f0"></path><path d="m65.27 68.83 3.52-3.61-2.79-2.83-3.65 3.42a2.12 2.12 0 0 0 -.1 3 2.12 2.12 0 0 0 3.02.02z" fill="#c2c2c2"></path><g fill="#302d3d"><path d="m4 29.67 4 1.86 1.86 4c.22.45.29.39 4.44 2.34 2 4.34 1.9 4.22 2.33 4.43l4 1.86 1.86 4a1 1 0 0 0 1.8 0l2.64-5.34 19.23-19.36c.58-.27 1.91-.95 5.37-2.66a1 1 0 0 0 0-1.8l-4-1.86-1.87-4c-.2-.44-.08-.3-4.43-2.34-2-4.34-1.9-4.23-2.34-4.43l-3.89-1.82-1.9-3.96a1 1 0 0 0 -1.8 0l-2.65 5.34-19.3 19.29-5.35 2.64a1 1 0 0 0 0 1.81zm22 11.07-14.63-14.74 18.11-18.07 14.69 14.7zm6.1-37.42 1.13 2.4c.21.44.09.3 4.44 2.34 2 4.35 1.9 4.23 2.34 4.43l4 1.86 1.86 4c.21.43.3.4 2.89 1.62l-3 1.48c-20.64-20.69-13.55-13.59-15.07-15.13zm-22.36 23.93c.1 0-.22-.23 15.11 15.1l-1.48 3-1.14-2.41c-.2-.44-.08-.29-4.43-2.34-2-4.34-1.9-4.22-2.34-4.43l-4-1.86-1.87-4c-.2-.43-.31-.4-2.89-1.61z"></path><path d="m22.08 18.65a8 8 0 1 0 11.38 0 8 8 0 0 0 -11.38 0zm11.73 5.74a6 6 0 1 1 -6-6.1 6.05 6.05 0 0 1 6 6.1z"></path><path d="m36.3 82 1-2.18 2.17-1c.43-.2.41-.32 1.5-2.65l2.17-1a1 1 0 0 0 -.14-1.92l-9-1.85a3 3 0 0 0 .15-.31 7.29 7.29 0 0 0 -.06-6c-.61-1.49-1.09-1.78-7.41-8.09a7.37 7.37 0 0 0 -8.41-1.4l-1.84-8.84a1 1 0 0 0 -1.89-.22l-1 2.17-2.18 1c-.43.2-.41.33-1.51 2.65-2.16 1-2.43 1-2.65 1.51l-1.04 2.13-2.16 1.06a1 1 0 0 0 .21 1.94l8.85 1.84a7.38 7.38 0 0 0 1.39 8.4l6 6a7.37 7.37 0 0 0 8.45 1.37l1.85 8.92a1 1 0 0 0 1.89.22l1-2.18c2.17-1.08 2.44-1.1 2.66-1.57zm-21.91-17.17a5.27 5.27 0 0 1 .26-2.68h14.35c2.77 2.77 2.43 2.4 2.7 2.77-18.63 0-17.31.08-17.31-.09zm10-7.12a18.39 18.39 0 0 1 2.61 2.44h-10.76l2-2.22a5.34 5.34 0 0 1 6.18-.22zm-16.88-.12c.27-.2.2-.15 1.33-2.55 2.17-1 2.43-1 2.65-1.5l1-2.17c2.32-1.1 2.34-1 2.55-1.34l1.41 6.78c-.13.08-1.85 1.8-2.2 2.19zm7.67 9.33h17.47a5.31 5.31 0 0 1 -.08 2.77h-14.78a18.91 18.91 0 0 1 -2.61-2.77zm6.67 6.84-2.07-2.07h11.45l-2.35 2.52a5.35 5.35 0 0 1 -7.03-.45zm13.82 4.9-1 2.17c-2.32 1.1-2.34 1-2.55 1.34l-1.46-6.87c.22-.17 2-2 2.12-2.11l6.87 1.42c-.27.2-.2.15-1.33 2.54-2.17 1.03-2.43 1.04-2.65 1.51z"></path><path d="m39.51 38.05a7.37 7.37 0 0 0 -1.4 8.41l-8.84 1.84a1 1 0 0 0 -.68 1.45 27.37 27.37 0 0 0 11.41 11.45 1 1 0 0 0 1.45-.68l1.84-8.85a7.35 7.35 0 0 0 8.41-1.39c19.46-19.45 19.91-19.77 19.91-19.87a7.35 7.35 0 0 0 1.32-8.41l8.91-1.86a1 1 0 0 0 .68-1.45 27.37 27.37 0 0 0 -11.45-11.42 1 1 0 0 0 -1.45.73l-1.85 8.92a7.35 7.35 0 0 0 -8.45 1.37c-13.51 13.46-4.32 4.31-19.81 19.76zm.3 20.72a25.17 25.17 0 0 1 -8.81-8.77l8.34-1.73c.07.1 2.07 2.11 2.18 2.18zm10.51-9.91a5.31 5.31 0 0 1 -6.67.69.94.94 0 0 0 -.25-.43c-2.91-2.9-2.83-2.89-3.16-3a5.31 5.31 0 0 1 .69-6.68l3.93-3.93a8.63 8.63 0 0 0 9.4 9.38zm20.98-39.16a25.17 25.17 0 0 1 8.79 8.79l-8.42 1.75c0-.09-2-2.07-2.12-2.12zm-12.94 12.35s0 0 0 0c.5-.5.13-.15 2.35-2.36a5.33 5.33 0 0 1 6.78-.69.9.9 0 0 0 .22.34c2.62 2.61 2.92 2.95 3.07 2.95a5.34 5.34 0 0 1 -.58 6.71l-2.35 2.35a6.64 6.64 0 0 1 -11.44-4.59 6.55 6.55 0 0 1 1.95-4.71zm-3.92 3.95a8.62 8.62 0 0 0 9.4 9.37c-.7.7.84-.83-5.68 5.69a6.64 6.64 0 0 1 -9.39-9.39c2.5-2.54 4.33-4.36 5.67-5.67z"></path><path d="m88.14 43a15.25 15.25 0 0 0 -16.48-3.32 4.36 4.36 0 0 0 -5.71.41l-2.2 2.2a4.37 4.37 0 0 0 -.4 5.71 15.12 15.12 0 0 0 1.41 14.1l-28.23 26.59a4.22 4.22 0 0 0 2.89 7.31 4.18 4.18 0 0 0 3.07-1.33l26.51-28.23a15.24 15.24 0 0 0 14.12 1.39 4.36 4.36 0 0 0 5.71-.4l2.2-2.2a4.36 4.36 0 0 0 .41-5.71 15.25 15.25 0 0 0 -3.3-16.52zm-1.41 1.42a13.24 13.24 0 0 1 3.19 13.45c-16.48-16.44-16.76-16.62-16.66-16.62a13.27 13.27 0 0 1 13.47 3.21zm-19.33 20.83-26.4 28.03a2.22 2.22 0 1 1 -3.14-3.14l28-26.36zm22.24-1.44-2.2 2.19a2.41 2.41 0 0 1 -2.55.51c-.62-.23-.23.07-7.23-6.93a1 1 0 0 0 -1.41 0 1 1 0 0 0 0 1.41l5.29 5.3a13.2 13.2 0 0 1 -16.66-16.65l4.85 4.85a1 1 0 0 0 1.41 0 1 1 0 0 0 0-1.42l-5.21-5.21-.76-.76a2.36 2.36 0 0 1 0-3.36l2.2-2.2a2.36 2.36 0 0 1 2.57-.54c.77.33-.1-.36 18.94 18.68a4.73 4.73 0 0 1 1.28 1.55 2.38 2.38 0 0 1 -.52 2.58z"></path></g><rect fill="#fff" height="4.08" rx="1.1" transform="matrix(.707 .707 -.707 .707 55.98 -37.03)" width="14.08" x="65.65" y="47.02"></rect><rect fill="#b90b48" height="4.08" rx="1.1" transform="matrix(.707 .707 -.707 .707 69.24 -42.52)" width="2.67" x="84.61" y="60.28"></rect></g></svg>