<!-- icon666.com - MILLIONS OF FREE VECTOR ICONS --><svg id="Capa_1" enable-background="new 0 0 512 512" viewBox="0 0 512 512" xmlns="http://www.w3.org/2000/svg"><g><g><path d="m135.656 409.111-29.435-31.65 43.637-52.481 35.187-42.318 30.746 27.478z" fill="#ba5677"></path><path d="m317.248 460.008h41.078l-2.941-114.122-40.212.081z" fill="#ba5677"></path><path d="m213.366 481.038c-45.507-14.135-86.808-34.525-119.2-64.254-32.676-29.99-52.592-58.514-61.852-94.88-3.375-13.254-1.879-29.944 9.967-35.684 1.692-.82 3.492-1.482 5.385-1.965 15.147-3.857 30.552 5.297 34.41 20.443 13.993 54.959 70.953 105.354 145.111 128.388 73.681 22.885 151.305 13.107 193.159-24.332 4.368-3.908 9.614-6.21 15.014-6.948 10.796 2.51 14.994 5.291 21.509 12.574 10.421 11.65 8.047 22.908-3.603 33.328-57.026 51.015-146.464 62.351-239.9 33.33z" fill="#ff8cc0"></path><path d="m460.31 410.981c-6.486-7.249-15.86-10.37-24.824-9.186 4.649 10.036 2.451 22.329-6.22 30.086-52.018 46.532-140.701 59.493-225.93 33.021-41.51-12.893-79.068-34.042-108.615-61.159-29.806-27.356-50.025-59.349-58.471-92.52-2.495-9.803.986-19.719 8.151-25.913-13.163 5.098-20.747 19.335-17.176 33.358 9.259 36.365 31.425 71.438 64.101 101.428 32.392 29.728 73.567 52.914 119.074 67.048 93.435 29.021 190.659 14.812 247.686-36.2 11.648-10.421 12.645-28.312 2.224-39.963z" fill="#ff68c1"></path><path d="m220.185 112.403 61.697-45.476c7.249-5.343 9.049-15.205 4.02-22.027-5.029-6.822-14.981-8.021-22.23-2.678l-16.089 11.859-9.381-12.301c-5.029-6.822-14.981-8.021-22.23-2.678-7.249 5.343-9.049 15.205-4.02 22.027l9.381 12.301-32.588 24.02" fill="#ffddb6"></path><path d="m153.942 100.829-23.814-70.329c-2.798-8.263 1.238-17.097 9.015-19.73 7.777-2.633 16.349 1.931 19.147 10.194l6.21 18.34 14.272-4.574c7.777-2.633 16.349 1.931 19.148 10.194 2.798 8.263-1.238 17.097-9.015 19.73l-14.272 4.573 12.578 37.147" fill="#ffddb6"></path><path d="m297.826 351.356 70.26-4.133v-78.309l-19.277-14.148-86.108-31.596s-21.394-51.03-35.277-82.517c2.744-2.074 32.602-11.922 31.674-23.84s-10.43-15.386-25.144-14.125c-7.799.669-13.019 3.273-21.472 5.229-5.72-10.514-15.51-24.121-48.021-22.321-17.133.949-29.364 7.58-43.622 21.29-31.405 30.198-41.066 45.353-33.126 64.343 9.157 21.902 38.882 31.104 69.168 24.872 0 0 6.635 51.43 5.399 68.736-.283 3.967-.238 7.917.118 11.816 6.083 23.21 23.587 40.054 51.026 50.123z" fill="#c37777"></path><path d="m442.514 257.691c-6.095-10.529-22.972-12.155-37.694-3.632-8.871 5.136-14.93 12.785-17.015 20.357-4.698-4.715-10.332-8.628-16.767-11.404-3.476-1.365-17.946-6.576-23.379-8.668 3.099 2.859 5.339 6.583 6.751 10.23 2.77 9.173 2.698 19.289-.857 28.978-11.768 32.072-47.308 48.532-79.38 36.763l-82.229-30.172c-12.36-4.535-22.407-12.581-29.444-22.591 2.802 26.934 20.476 51.265 47.613 61.223l96.739 35.496c37.732 13.845 79.543-5.519 93.388-43.25 4.183-11.398 4.268-23.299 1.008-34.091 7.529 1.78 16.961.286 25.646-4.742 14.723-8.523 21.716-23.968 15.62-34.497z" fill="#ba5677"></path><circle cx="80.98" cy="144.915" fill="#ff8cc0" r="19.925"></circle><circle cx="153.825" cy="244.072" fill="#ffe35c" r="25.87"></circle></g><g fill="#4e0325"><path d="m326.692 348.581c3.322 0 6.016-2.694 6.016-6.016v-11.361c0-3.322-2.694-6.016-6.016-6.016s-6.016 2.694-6.016 6.016v11.361c0 3.322 2.694 6.016 6.016 6.016z"></path><path d="m358.326 320.684c3.322 0 6.016-2.694 6.016-6.016v-11.361c0-3.322-2.694-6.016-6.016-6.016s-6.016 2.694-6.016 6.016v11.361c0 3.322 2.694 6.016 6.016 6.016z"></path><path d="m303.609 314.523c3.322 0 6.016-2.694 6.016-6.016v-11.361c0-3.322-2.694-6.016-6.016-6.016s-6.016 2.694-6.016 6.016v11.361c0 3.322 2.694 6.016 6.016 6.016z"></path><path d="m467.782 404.296c-6.827-7.632-16.216-12.147-26.438-12.716-10.221-.57-20.054 2.878-27.682 9.703-12.372 11.066-28.156 19.53-46.168 25.26l-1.169-45.335c19.407-8.873 35.414-25.165 43.328-46.732 3.235-8.816 4.482-18.03 3.727-27.176 6.26-.83 12.619-3.006 18.539-6.433 19.812-11.472 28.278-32.643 19.272-48.199-9.006-15.555-31.581-18.755-51.397-7.284-6.185 3.582-11.405 8.233-15.288 13.502-3.99-2.595-8.276-4.736-12.828-6.407l-101.423-37.215c-1.17-2.781-2.892-6.87-4.985-11.825 1.74-2.005 3.309-4.064 4.646-6.182 2.957-4.681 1.558-10.875-3.125-13.831-3.18-2.009-7.056-2.003-10.143-.327-5.165-12.141-10.928-25.6-16.094-37.462 12.735-5.767 29.691-14.84 28.541-29.598-.697-8.962-4.842-14.237-8.196-17.084-.877-.744-1.817-1.417-2.809-2.033l29.74-21.922c5.571-4.105 9.31-10.046 10.53-16.729 1.261-6.909-.297-13.77-4.387-19.317-4.089-5.549-10.182-9.068-17.154-9.907-6.747-.817-13.526 1-19.097 5.106l-8.149 6.006-3.357-4.4c-4.089-5.506-10.158-8.997-17.098-9.832-6.746-.816-13.527 1-19.096 5.106-2.001 1.474-3.761 3.189-5.257 5.086-6.128-9.803-18.082-14.602-29.12-10.913l-4.812 1.542-3.046-8.999c-4.568-13.487-18.858-20.879-31.861-16.477-13 4.403-19.862 18.957-15.296 32.443l16.514 48.769c-7.724 3.871-15.235 9.467-23.253 17.177-7.702 7.405-13.73 13.562-18.566 18.97-4.262-2.336-9.151-3.667-14.345-3.667-16.516 0-29.952 13.436-29.952 29.951 0 15.62 12.02 28.477 27.294 29.828.049.118.093.237.142.355 9.68 23.149 37.504 35.73 69.712 32.473.039.333.08.694.12 1.038-.5.078-1.001.161-1.503.261-19.409 3.878-32.046 22.824-28.169 42.233 1.878 9.402 7.306 17.511 15.283 22.832 5.661 3.776 12.126 5.803 18.763 6.004.825 6.957 2.492 13.68 4.932 20.044l-41.404 49.796c-11.798-14.971-20.204-31.054-24.405-47.553-2.526-9.921-8.765-18.265-17.566-23.494-8.803-5.23-19.115-6.72-29.035-4.192-9.921 2.526-18.265 8.765-23.494 17.566-5.23 8.802-6.718 19.114-4.192 29.035 9.741 38.258 32.922 75.03 67.038 106.341 33.475 30.725 75.966 54.666 122.879 69.237 33.092 10.279 66.677 15.28 98.942 15.28 62.048 0 119.193-18.509 158.403-53.583 7.631-6.826 12.146-16.213 12.716-26.436.57-10.221-2.876-20.053-9.702-27.684zm-120.219 27.282c-6.719 1.303-13.647 2.284-20.751 2.914l-.837-45.963c1.958.14 3.913.227 5.862.227 4.924 0 9.803-.455 14.588-1.316zm-140.902-83.39 96.739 35.496c.813.298 1.63.565 2.446.836l.925 50.837c-24.756.003-50.899-3.859-76.609-11.845-24.92-7.741-47.787-18.645-67.541-31.772l37.479-46.289c2.134.995 4.318 1.914 6.561 2.737zm158.109-76.885c6.046 2.219 11.406 5.647 15.931 10.19 2.522 2.531 6.199 3.531 9.657 2.62 3.455-.91 6.165-3.59 7.114-7.034 1.474-5.348 6.098-10.71 12.371-14.343 10.291-5.956 21.156-4.923 23.994-.023 2.839 4.904-1.675 14.84-11.965 20.797-6.138 3.553-12.983 4.921-18.317 3.661-3.487-.826-7.153.276-9.61 2.888s-3.331 6.336-2.295 9.768c2.763 9.151 2.478 18.743-.823 27.739-11.918 32.479-48.036 49.206-80.521 37.291l-96.738-35.496c-23.438-8.601-39.383-29.816-41.255-54.526 11.966-7.208 19.003-21.041 17.091-35.462 17.285-1.514 41.551-9.759 59.909-22.17 2.52 5.98 4.084 9.708 4.141 9.844 1.078 2.57 3.177 4.577 5.794 5.536zm-142.851-224.13c1.442-1.062 3.155-1.534 4.8-1.34 1.008.121 2.418.549 3.41 1.896.032.044.066.088.099.132l9.382 12.3c3.317 4.352 9.513 5.238 13.922 1.991l16.089-11.859c1.442-1.062 3.152-1.542 4.799-1.34 1.009.121 2.418.548 3.411 1.896.992 1.346.983 2.819.801 3.818-.3 1.638-1.258 3.126-2.701 4.188l-46.196 34.051c-.105.078-.199.164-.3.245-4.256.67-7.89 1.764-11.419 2.836-.317.096-.636.193-.957.29-1.098-1.546-2.306-3.074-3.64-4.56l13.861-10.217c2.163-1.595 3.596-3.991 3.977-6.653.38-2.66-.323-5.362-1.954-7.5l-9.317-12.216c-1.692-2.36-.834-5.918 1.933-7.958zm-29.799 26.978c4.474-1.515 8.311-4.241 11.196-7.88.184.271.368.541.563.806.032.045.066.088.099.132l3.2 4.196-11.242 8.286c-2.447-.956-5.104-1.782-8.001-2.443l-.536-1.582 4.565-1.464c.052-.017.104-.033.156-.051zm-52.495-46.867c-1.02-3.013.207-6.162 2.734-7.018 2.529-.855 5.414.9 6.434 3.913l6.21 18.34c1.755 5.184 7.336 7.999 12.557 6.333l14.272-4.573c.052-.017.104-.034.157-.052 2.528-.855 5.414.899 6.434 3.912.531 1.568.472 3.199-.165 4.593-.379.827-1.121 1.911-2.514 2.405l-14.171 4.541c-2.56.82-4.682 2.633-5.893 5.033-1.21 2.4-1.406 5.186-.544 7.731l1.031 3.044c-.745.027-1.493.056-2.258.099-2.633.146-5.173.421-7.654.808zm-68.543 117.631c0-5.458 4.441-9.898 9.899-9.898s9.898 4.44 9.898 9.898-4.44 9.899-9.898 9.899-9.899-4.441-9.899-9.899zm26.932 24.617c7.798-5.413 12.917-14.426 12.917-24.617 0-3.956-.778-7.733-2.178-11.193 4.695-5.398 10.826-11.71 19.037-19.606 13.23-12.721 23.319-17.736 37.227-18.507 28.484-1.569 34.612 9.663 38.661 17.103 2.152 3.955 6.682 5.995 11.068 4.975 3.497-.809 6.472-1.713 9.099-2.511 3.99-1.211 7.141-2.168 10.968-2.496 9.498-.82 12.437.989 13.11 1.561.219.187.844.717 1.107 2.665-1.241 2.031-5.989 5.752-20.87 12.291-3.507 1.54-5.267 2.314-6.779 3.457-3.71 2.803-5.007 7.789-3.131 12.045 6.982 15.835 15.945 36.81 23.08 53.629-18.369 13.617-48.594 22.765-60.201 21.088-.449-.065-.893-.089-1.333-.094-3.141-3.285-6.875-5.948-10.992-7.847-1.065-9.577-1.966-16.576-1.977-16.655-.357-2.767-1.851-5.259-4.12-6.88-2.271-1.621-5.113-2.223-7.845-1.659-25.467 5.241-48.804-1.784-56.848-16.749zm52.708 59.004c1.044-.208 2.083-.309 3.109-.309 7.395 0 14.028 5.218 15.53 12.741 1.712 8.567-3.866 16.928-12.432 18.639v.001c-1.975.393-3.962.398-5.884.056l4.314-7.508c1.656-2.881.662-6.559-2.219-8.213-2.881-1.656-6.558-.661-8.213 2.219l-4.044 7.037c-1.259-1.784-2.153-3.819-2.593-6.024-1.711-8.566 3.866-16.927 12.432-18.639zm17.176 90.432c4.272 5.885 9.326 11.202 15.043 15.809l-36.543 45.133c-5.97-4.784-11.553-9.789-16.721-14.975zm289.564 111.899c-.271 4.873-2.424 9.349-6.062 12.604-54.453 48.711-147.883 62.097-238.027 34.098-44.101-13.698-83.959-36.126-115.267-64.86-31.237-28.67-52.387-62.044-61.165-96.516-1.204-4.73-.494-9.646 1.999-13.843 2.494-4.197 6.472-7.171 11.203-8.376 9.761-2.486 19.732 3.435 22.219 13.201 5.747 22.572 18.219 44.381 35.839 64.029.425.587.919 1.135 1.484 1.634 27.812 30.331 67.944 55.357 114.53 69.826 27.396 8.509 55.362 12.64 82.037 12.639 3.351 0 6.678-.072 9.984-.202.244.018.489.037.737.037.062 0 .124-.001.186-.002.485-.009.958-.064 1.423-.139 43.337-2.114 82.328-15.401 108.451-38.768 3.638-3.255 8.33-4.907 13.196-4.626 4.873.271 9.351 2.424 12.606 6.063 3.256 3.639 4.899 8.326 4.627 13.201z"></path><path d="m163.578 135.835c-.963-5.452-6.163-9.092-11.616-8.129-5.452.963-9.092 6.163-8.129 11.616s6.163 9.092 11.616 8.13c5.452-.964 9.092-6.165 8.129-11.617z"></path></g><g fill="#fff"><path d="m296.33 279.842c-1.216 0-2.453-.223-3.654-.693l-21.687-8.495c-5.156-2.02-7.698-7.837-5.679-12.994 2.021-5.155 7.835-7.698 12.994-5.679l21.687 8.495c5.156 2.02 7.698 7.837 5.679 12.994-1.551 3.954-5.334 6.372-9.34 6.372z"></path><path d="m245.734 259.183c-1.215 0-2.452-.223-3.652-.693l-1.426-.558c-5.156-2.018-7.7-7.835-5.681-12.992 2.017-5.156 7.834-7.701 12.992-5.681l1.426.558c5.156 2.018 7.7 7.835 5.681 12.992-1.548 3.955-5.333 6.374-9.34 6.374z"></path></g><g><path d="m441.495 19.969-8.236 23.16c-.353.992-1.051 1.777-1.932 2.174l-20.576 9.27c-2.907 1.31-2.907 5.942 0 7.251l20.576 9.27c.881.397 1.579 1.183 1.932 2.174l8.236 23.16c1.164 3.272 5.279 3.272 6.442 0l8.236-23.16c.353-.992 1.051-1.777 1.932-2.174l20.577-9.27c2.907-1.31 2.907-5.941 0-7.251l-20.577-9.27c-.881-.397-1.579-1.183-1.932-2.174l-8.236-23.16c-1.163-3.271-5.278-3.271-6.442 0z" fill="#ffc5dd"></path><path d="m377.155 154.467-6.11 17.179c-.262.736-.78 1.318-1.433 1.613l-15.263 6.877c-2.156.972-2.156 4.407 0 5.379l15.263 6.877c.653.294 1.171.877 1.433 1.613l6.11 17.18c.863 2.427 3.916 2.427 4.779 0l6.11-17.18c.262-.736.779-1.318 1.433-1.613l15.263-6.877c2.156-.972 2.156-4.407 0-5.379l-15.263-6.877c-.654-.294-1.171-.877-1.433-1.613l-6.11-17.179c-.863-2.427-3.916-2.427-4.779 0z" fill="#ffc5dd"></path><g fill="#ff8cc0"><path d="m459.724 164.841c0 9.933 8.052 17.985 17.985 17.985s17.985-8.052 17.985-17.985-8.052-17.985-17.985-17.985-17.985 8.052-17.985 17.985z"></path><ellipse cx="336.749" cy="106.375" rx="7.52" ry="7.52" transform="matrix(.973 -.23 .23 .973 -15.432 80.215)"></ellipse></g></g></g></svg>