<!-- icon666.com - MILLIONS OF FREE VECTOR ICONS --><svg id="Capa_1" enable-background="new 0 0 512 512" viewBox="0 0 512 512" xmlns="http://www.w3.org/2000/svg"><g><g><path d="m406.787 384.743-45.305-14.307c-16.579-5.235-27.85-20.614-27.85-38v-11.378c-1.524-4.015-3.903-7.779-7.136-11.013-6.762-6.762-15.843-9.782-24.682-9.073-1.468.118-2.69-1.104-2.572-2.572.709-8.839-2.312-17.921-9.073-24.682-7.555-7.555-18.006-10.441-27.779-8.669-1.444.262-2.767-.871-2.786-2.338v-20.773c-5.898 8.496-15.722 14.06-26.848 14.06-15.131 0-27.854-10.29-31.567-24.251v30.964c-.019 1.467-1.342 2.6-2.786 2.338-9.773-1.771-20.224 1.114-27.779 8.669-6.762 6.762-9.782 15.843-9.073 24.682.118 1.468-1.104 2.69-2.572 2.572-8.839-.709-17.921 2.311-24.682 9.073-2.414 2.414-4.332 5.132-5.794 8.022v83.886c0 56.635 45.911 102.546 102.546 102.546h157.28c33.856 0 61.301-27.446 61.301-61.301-.001-26.744-17.34-50.402-42.843-58.455z" fill="#e41f2d"></path></g><g><path d="m169.999 401.954v-127.576c-6.315 6.687-9.136 15.465-8.449 24.023.118 1.468-1.104 2.69-2.572 2.572-8.839-.709-17.921 2.311-24.682 9.073-2.414 2.414-4.332 5.132-5.794 8.022v83.886c0 56.635 45.911 102.546 102.546 102.546h41.497c-56.634 0-102.546-45.912-102.546-102.546z" fill="#c41926"></path></g><g><path d="m406.787 384.743-32.523-10.27-43.342 130.027h57.406c33.856 0 61.301-27.446 61.301-61.301 0-26.745-17.339-50.403-42.842-58.456z" fill="#08b865"></path></g><g><g><path d="m289.724 83.333h12.351c3.222 0 5.833 2.612 5.833 5.833v39.971h31.83c.311 0 .617.024.922.047 7.197-7.965 11.582-18.52 11.582-30.101 0-24.807-20.11-44.917-44.917-44.917-1.795 0-3.561.117-5.301.322-.508 11.163-5.095 21.258-12.3 28.845z" fill="#08b865"></path><path d="m239.331 15.346c6.438 6.438 4.524 18.789-4.274 27.587-1.287 1.287-2.656 2.408-4.065 3.396h23.833c3.222 0 5.833 2.612 5.833 5.833v28.975c0 .777-.155 1.518-.431 2.196h29.497c7.648-8.054 12.351-18.933 12.351-30.917 0-24.807-20.11-44.917-44.917-44.917-7.737 0-15.017 1.957-21.372 5.402 1.304.611 2.508 1.408 3.545 2.445z" fill="#fed2a4"></path><path d="m255.163 86.954v42.184h52.745v-39.971c0-3.221-2.612-5.833-5.833-5.833h-41.848c-.827 2.032-2.767 3.488-5.064 3.62z" fill="#fedf30"></path><g><g><g><path d="m157.176 46.329h22.573v-14.469c0-2.187.51-4.25 1.396-6.1-1.246-2.148-2.811-4.23-4.721-6.14-8.798-8.798-21.149-10.712-27.587-4.274s-4.524 18.789 4.274 27.587c1.287 1.287 2.655 2.409 4.065 3.396z" fill="#09a755"></path><path d="m208.079 31.86v14.469h22.913c1.409-.988 2.778-2.109 4.065-3.396 8.798-8.798 10.712-21.149 4.274-27.587s-18.789-4.524-27.587 4.274c-2.005 2.005-3.633 4.199-4.906 6.461.791 1.767 1.241 3.719 1.241 5.779z" fill="#09a755"></path><path d="m208.079 46.329v-14.469c0-7.823-6.342-14.165-14.165-14.165s-14.165 6.342-14.165 14.165v14.469z" fill="#46cc8d"></path></g></g><g><path d="m255.163 130.138v-43.184c-.113.006-.224.017-.339.017h-121.772c-.115 0-.226-.011-.339-.017v43.184z" fill="#e41f2d"></path></g><path d="m163.999 129.137v-42.166h-30.947c-.115 0-.226-.011-.339-.017v42.184h31.286z" fill="#c41926"></path><g><path d="m254.824 86.971h-121.772c-3.222 0-5.833-2.612-5.833-5.833v-28.975c0-3.222 2.612-5.833 5.833-5.833h121.772c3.222 0 5.833 2.612 5.833 5.833v28.975c.001 3.221-2.611 5.833-5.833 5.833z" fill="#fd4755"></path></g><g><path d="m158.56 81.138v-28.975c0-3.222 2.612-5.833 5.833-5.833h-31.342c-3.222 0-5.833 2.612-5.833 5.833v28.975c0 3.222 2.612 5.833 5.833 5.833h31.342c-3.221 0-5.833-2.612-5.833-5.833z" fill="#fb2b3a"></path></g><g><path d="m173.617 46.329h40.642v40.642h-40.642z" fill="#46cc8d"></path></g><g><path d="m173.617 46.329h20.74v40.642h-20.74z" fill="#00c27a"></path></g></g></g><path d="m122.397 213.998h2.878c2.948-6.026 3.856-12.798 2.704-19.282-.256-1.44.873-3.399 2.336-3.42h44.494s0 .001.001.002c-1.006-3.143-1.554-6.49-1.554-9.966 0-18.041 14.625-32.667 32.667-32.667 11.118 0 20.933 5.559 26.833 14.045 5.9-8.486 15.715-14.045 26.833-14.045 18.041 0 32.667 14.625 32.667 32.667 0 3.715-.629 7.281-1.771 10.608 0 0 0-.001.001-.001h39.992c1.462.021 2.591 1.337 2.336 2.777-1.152 6.484-.243 13.256 2.704 19.282h4.221c6.743 0 12.21-5.467 12.21-12.21v-60.44c0-6.743-5.467-12.21-12.21-12.21h-217.342c-6.744 0-12.21 5.467-12.21 12.21v60.44c0 6.743 5.466 12.21 12.21 12.21z" fill="#eef5f6"></path><path d="m122.397 213.998h2.878c2.948-6.026 3.856-12.798 2.704-19.282-.256-1.44.873-3.399 2.336-3.42h21.685v-49.948c0-6.743 5.467-12.21 12.21-12.21h-41.813c-6.744 0-12.21 5.467-12.21 12.21v60.44c0 6.743 5.466 12.21 12.21 12.21z" fill="#deecf1"></path><g><path d="m200.089 223.331c0-2.887.396-5.678 1.1-8.344v-1.255c-12.74-1.599-22.569-10.527-26.38-22.436h-44.494c-1.462.021-2.591 1.98-2.336 3.42 1.73 9.742-1.161 20.143-8.688 27.67-6.762 6.762-15.843 9.782-24.682 9.073-1.468-.118-2.69 1.104-2.573 2.572.709 8.839-2.311 17.921-9.073 24.682-5.18 5.18-11.721 8.165-18.472 8.96-1.695.2-2.636 2.016-1.828 3.519 9.017 16.754 9.682 36.814 1.987 54.054-.912 2.044 1.145 4.101 3.189 3.189 17.214-7.683 37.239-7.031 53.978 1.947 1.505.807 3.319-.208 3.521-1.904.802-6.737 3.787-13.263 8.957-18.433 6.762-6.762 15.843-9.782 24.682-9.073 1.468.118 2.69-1.104 2.572-2.572-.709-8.839 2.312-17.921 9.073-24.682 7.555-7.555 18.006-10.441 27.779-8.669 1.444.262 2.767-.871 2.786-2.338v-30.964c-.713-2.686-1.098-5.505-1.098-8.416z" fill="#46cc8d"></path><path d="m88.659 291.841c3.656-.431 7.243-1.527 10.593-3.243-.689-2.515-.052-5.317 1.923-7.293l22.596-22.596h-10.06c-4.143 0-7.5-3.357-7.5-7.5s3.357-7.5 7.5-7.5h25.06l16.841-16.841h-10.059c-4.143 0-7.5-3.357-7.5-7.5s3.357-7.5 7.5-7.5h25.059l4.639-4.639c-2.147-2.536-3.98-5.344-5.451-8.36h-33.846c.23 10.518-3.816 21.276-11.359 28.82-6.741 6.74-15.643 10.711-25.031 11.296-.585 9.39-4.556 18.29-11.296 25.031-4.577 4.576-10.062 7.863-16.111 9.695 5.81 13.972 6.841 29.63 2.993 44.227 5.777-1.523 11.724-2.281 17.664-2.281.224 0 .448.014.671.016-1-7.026-3.208-13.912-6.653-20.314-.81-1.502.132-3.318 1.827-3.518z" fill="#00c27a"></path></g><path d="m396.3 267.674c-6.751-.795-13.292-3.781-18.472-8.96-6.762-6.762-9.782-15.843-9.073-24.682.118-1.468-1.104-2.69-2.572-2.572-8.839.709-17.921-2.311-24.682-9.073-7.527-7.527-10.418-17.928-8.688-27.67.256-1.44-.873-2.756-2.336-2.777h-39.992c-3.947 11.499-14.126 20.095-26.509 21.758.939 3.046 1.446 6.281 1.446 9.635 0 6.914-2.154 13.322-5.819 18.601v20.778c.019 1.467 1.342 2.6 2.786 2.338 9.773-1.771 20.224 1.114 27.779 8.669 6.762 6.762 9.782 15.843 9.073 24.682-.118 1.468 1.104 2.69 2.572 2.572 8.839-.709 17.92 2.311 24.682 9.073 5.17 5.17 8.154 11.696 8.957 18.433.202 1.696 2.016 2.711 3.521 1.904 16.739-8.978 36.764-9.63 53.978-1.947 2.044.912 4.101-1.145 3.189-3.189-7.694-17.24-7.03-37.3 1.987-54.054.81-1.503-.132-3.319-1.827-3.519z" fill="#46cc8d"></path><g><path d="m368.641 300.715c-1.505.807-3.319-.208-3.521-1.904-.449-3.771-1.607-7.466-3.424-10.904-.257 1.466-.946 2.872-2.078 4.004-1.465 1.464-3.385 2.196-5.304 2.196s-3.839-.732-5.304-2.196l-22.596-22.595v10.058c0 4.143-3.357 7.5-7.5 7.5s-7.5-3.357-7.5-7.5v-25.058l-16.841-16.841v10.058c0 4.143-3.357 7.5-7.5 7.5s-7.5-3.357-7.5-7.5v-25.058l-4.222-4.222c-.87.373-1.761.705-2.66 1.018.136 1.337.231 2.687.231 4.059 0 7.764-2.06 15.017-5.891 21.168v12.558c10.526-.247 20.865 3.783 28.44 11.357 6.741 6.741 10.711 15.643 11.296 25.032 9.391.585 18.291 4.556 25.032 11.296 4.586 4.587 7.877 10.085 9.707 16.152 13.946-5.774 29.573-6.793 44.136-2.957-1.965-7.454-2.65-15.185-2.083-22.827-5.143 1.203-10.165 3.057-14.918 5.606z" fill="#00c27a"></path></g><path d="m259.589 213.998c-11.118 0-20.933-5.559-26.833-14.045-5.9 8.486-15.715 14.045-26.833 14.045-1.489 0-2.951-.109-4.387-.302-.939 3.046-1.446 6.281-1.446 9.635 0 18.041 14.625 32.667 32.667 32.667 18.041 0 32.667-14.625 32.667-32.667 0-3.354-.507-6.589-1.446-9.635-1.438.193-2.901.302-4.389.302z" fill="#fd8087"></path><path d="m220.999 223.331c0-5.573 1.409-10.809 3.87-15.398-5.345 3.814-11.881 6.065-18.948 6.065-1.489 0-2.951-.109-4.387-.302-.939 3.046-1.446 6.281-1.446 9.635 0 18.041 14.625 32.667 32.667 32.667 3.658 0 7.172-.61 10.456-1.719-12.912-4.361-22.212-16.564-22.212-30.948z" fill="#fe646f"></path><g><g><circle cx="205.922" cy="181.331" fill="#fd4755" r="32.667"></circle></g><g><path d="m193.999 181.331c0-14.414 9.34-26.639 22.295-30.975-3.26-1.091-6.745-1.691-10.372-1.691-18.041 0-32.667 14.625-32.667 32.667s14.625 32.667 32.667 32.667c3.627 0 7.112-.6 10.372-1.691-12.955-4.338-22.295-16.562-22.295-30.977z" fill="#fb2b3a"></path></g><g><circle cx="259.589" cy="181.331" fill="#fd4755" r="32.667"></circle></g><g><path d="m247.666 181.331c0-14.414 9.34-26.639 22.295-30.975-3.26-1.091-6.745-1.691-10.372-1.691-18.041 0-32.667 14.625-32.667 32.667s14.625 32.667 32.667 32.667c3.627 0 7.112-.6 10.372-1.691-12.955-4.338-22.295-16.562-22.295-30.977z" fill="#fb2b3a"></path></g></g></g><g><path d="m409.046 377.591-45.306-14.308c-11.901-3.758-20.358-13.812-22.217-25.835.337-.135.671-.282.995-.456 14.562-7.811 32.273-8.448 47.376-1.708 3.793 1.694 8.136.896 11.063-2.031s3.725-7.27 2.031-11.063c-6.753-15.132-6.102-32.868 1.742-47.442 1.56-2.896 1.586-6.361.072-9.27-1.513-2.906-4.364-4.87-7.627-5.253-5.361-.632-10.218-2.988-14.045-6.816-4.946-4.945-7.462-11.79-6.901-18.776.233-2.895-.811-5.732-2.863-7.786-2.053-2.052-4.881-3.1-7.784-2.863-5.966.468-11.823-1.295-16.487-4.896 6.153-3.332 10.352-9.822 10.352-17.299v-60.44c0-6.156-2.841-11.658-7.276-15.276 4.073-6.7 6.692-14.376 7.376-22.6.343-4.128-2.726-7.752-6.854-8.096-4.119-.347-7.752 2.724-8.096 6.854-.604 7.265-3.332 13.924-7.521 19.408h-21.67v-32.472c0-6.712-4.99-12.267-11.452-13.186 2.246-4.437 3.881-9.233 4.791-14.278 10.053.385 19.597 4.823 26.369 12.33 2.776 3.077 7.52 3.318 10.593.546 3.076-2.774 3.32-7.518.546-10.593-9.496-10.527-22.89-16.745-36.994-17.27-2.851-26.229-25.125-46.716-52.101-46.716-7.798 0-15.194 1.725-21.849 4.795-3.121-.81-6.524-.979-10.035-.437-6.743 1.044-13.402 4.557-18.764 9.892-3.552-2.548-7.9-4.055-12.596-4.055-4.61 0-8.884 1.452-12.4 3.915-5.337-5.255-11.936-8.717-18.62-9.752-7.521-1.164-14.581.906-19.36 5.685-4.778 4.779-6.85 11.835-5.685 19.36.497 3.206 1.568 6.388 3.112 9.426h-7.908c-7.352 0-13.333 5.981-13.333 13.334v28.975c0 4.42 2.171 8.334 5.494 10.761v29.739h-2.816c-10.868 0-19.71 8.842-19.71 19.71v60.44c0 7.154 3.841 13.413 9.559 16.865-4.747 3.898-10.828 5.833-17.036 5.331-2.894-.231-5.732.812-7.786 2.863-2.053 2.054-3.097 4.892-2.863 7.784.561 6.988-1.955 13.833-6.901 18.778-3.827 3.828-8.684 6.185-14.043 6.815-3.265.384-6.116 2.348-7.629 5.254-1.514 2.908-1.487 6.373.071 9.269 7.845 14.575 8.496 32.312 1.743 47.443-1.693 3.793-.896 8.136 2.031 11.063 2.926 2.927 7.268 3.726 11.063 2.031 15.104-6.741 32.815-6.103 47.378 1.709.866.465 1.788.774 2.728.961v64c0 60.68 49.366 110.046 110.046 110.046h157.279c37.938 0 68.802-30.864 68.802-68.802-.001-30.159-19.324-56.524-48.084-65.607zm-47.817-138.606c.585 9.389 4.556 18.29 11.296 25.031 4.577 4.576 10.061 7.863 16.111 9.695-5.81 13.971-6.841 29.63-2.993 44.226-14.563-3.836-30.189-2.817-44.136 2.957-1.83-6.067-5.121-11.565-9.707-16.152-6.741-6.74-15.642-10.711-25.032-11.296-.585-9.39-4.555-18.291-11.296-25.032-7.575-7.574-17.914-11.604-28.44-11.357v-12.558c3.83-6.151 5.891-13.403 5.891-21.168 0-1.373-.095-2.722-.231-4.059.9-.313 1.79-.645 2.66-1.018l4.222 4.222v25.058c0 4.143 3.357 7.5 7.5 7.5s7.5-3.357 7.5-7.5v-10.058l16.841 16.841v25.058c0 4.143 3.357 7.5 7.5 7.5s7.5-3.357 7.5-7.5v-10.058l22.596 22.595c1.465 1.464 3.385 2.196 5.304 2.196s3.839-.732 5.304-2.196c2.929-2.93 2.929-7.678 0-10.607l-22.596-22.596h10.059c4.143 0 7.5-3.357 7.5-7.5s-3.357-7.5-7.5-7.5h-25.059l-16.841-16.841h10.059c4.143 0 7.5-3.357 7.5-7.5s-3.357-7.5-7.5-7.5h-25.061l-2.195-2.195c3.004-3.01 5.546-6.481 7.481-10.316h29.372c-.23 10.518 3.816 20.788 11.359 28.332 6.742 6.741 15.642 10.711 25.032 11.296zm-137.6-39.795c-4.55 4.514-10.806 7.308-17.707 7.308-13.877 0-25.167-11.29-25.167-25.167s11.29-25.166 25.167-25.166c6.899 0 13.155 2.793 17.704 7.305-2.685 5.384-4.204 11.447-4.204 17.861s1.521 12.476 4.207 17.859zm-15.963 22.256c9.623-.414 18.371-4.229 25.084-10.274 6.716 6.044 15.468 9.868 25.094 10.282.046.62.077 1.245.077 1.877 0 13.877-11.29 25.167-25.167 25.167s-25.167-11.29-25.167-25.167c.001-.635.033-1.262.079-1.885zm26.756-40.115c0-13.877 11.289-25.166 25.166-25.166s25.167 11.289 25.167 25.166-11.29 25.167-25.167 25.167-25.166-11.29-25.166-25.167zm14.275-165.353c2.72-.634 5.55-.978 8.46-.978 20.632 0 37.417 16.785 37.417 37.417 0 8.857-3.096 17.001-8.26 23.416h-18.156v-23.67c0-7.353-5.981-13.334-13.333-13.334h-7.618c1.544-3.038 2.615-6.22 3.112-9.426.748-4.828.156-9.46-1.622-13.425zm51.711 74.855v30.805h-37.744v-29.739c.448-.328.871-.687 1.275-1.066zm-47.25-37.004v25.642h-31.398v-25.642zm-36.112-28.905c3.093-3.093 6.929-5.186 10.524-5.742.501-.078 1.134-.146 1.824-.146 1.533 0 3.351.331 4.633 1.614 1.859 1.859 1.718 4.843 1.468 6.456-.557 3.596-2.649 7.432-5.742 10.523-.42.42-.855.817-1.3 1.199h-12.875v-6.968c0-1.604-.18-3.165-.512-4.67.604-.786 1.262-1.548 1.98-2.266zm-29.798 6.936c0-3.675 2.99-6.665 6.665-6.665s6.665 2.99 6.665 6.665v6.969h-13.33zm-6.131 21.969h25.642v25.642h-25.642zm-26.977-33.18c1.282-1.282 3.098-1.613 4.631-1.613.691 0 1.324.067 1.825.146 3.596.557 7.432 2.649 10.523 5.742.63.63 1.194 1.278 1.719 1.931-.382 1.608-.59 3.282-.59 5.005v6.969h-12.534c-.445-.382-.88-.779-1.3-1.199-6.263-6.263-7.279-13.975-4.274-16.981zm-19.421 33.18h31.398v25.642h-31.398zm-17.032 87.519c0-2.597 2.113-4.71 4.71-4.71h57.603c4.143 0 7.5-3.357 7.5-7.5s-3.357-7.5-7.5-7.5h-39.786v-27.167h107.45v27.167h-32.664c-4.143 0-7.5 3.357-7.5 7.5s3.357 7.5 7.5 7.5h124.738c2.597 0 4.71 2.113 4.71 4.71v60.44c0 2.283-1.635 4.189-3.794 4.617-.896-3.338-1.079-6.876-.456-10.378.505-2.844-.264-5.755-2.107-7.987-1.857-2.248-4.594-3.56-7.505-3.601h-30.962c.079-1.027.132-2.062.132-3.108 0-22.147-18.019-40.166-40.167-40.166-10.312 0-19.726 3.909-26.845 10.319-7.117-6.405-16.515-10.319-26.821-10.319-22.148 0-40.167 18.019-40.167 40.166 0 .872.038 1.735.093 2.594h-35.639c-2.914.041-5.65 1.868-7.508 4.115-1.844 2.232-2.612 5.144-2.107 7.987.595 3.346.46 6.728-.334 9.934-1.52-.782-2.573-2.35-2.573-4.173v-60.44zm1.598 179.547c-8.416-3.485-17.438-5.237-26.473-5.237-5.94 0-11.887.758-17.664 2.281 3.848-14.597 2.816-30.255-2.993-44.227 6.05-1.832 11.534-5.119 16.111-9.695 6.74-6.741 10.711-15.642 11.296-25.031 9.389-.585 18.29-4.556 25.031-11.296 7.543-7.544 11.59-18.303 11.359-28.82h33.848c1.471 3.015 3.304 5.823 5.451 8.36l-4.639 4.639h-25.059c-4.143 0-7.5 3.357-7.5 7.5s3.357 7.5 7.5 7.5h10.059l-16.841 16.841h-25.06c-4.143 0-7.5 3.357-7.5 7.5s3.357 7.5 7.5 7.5h10.06l-22.596 22.596c-2.929 2.93-2.929 7.678 0 10.607 1.465 1.464 3.385 2.196 5.304 2.196s3.839-.732 5.304-2.196l22.596-22.596v10.059c0 4.143 3.357 7.5 7.5 7.5s7.5-3.357 7.5-7.5v-25.059l16.841-16.841v10.059c0 4.143 3.357 7.5 7.5 7.5s7.5-3.357 7.5-7.5v-25.059l5.752-5.752c1.866 1.003 3.819 1.865 5.846 2.567-.135 1.331-.229 2.674-.229 4.04 0 3.715.518 7.31 1.466 10.727l-.294 22.998c-10.544-.26-20.864 3.783-28.44 11.357-6.74 6.741-10.711 15.642-11.296 25.032-9.389.585-18.291 4.556-25.032 11.296-4.587 4.587-7.877 10.085-9.708 16.154zm269.042 176.105h-46.999l13.539-40.618c1.31-3.93-.813-8.178-4.743-9.487-3.932-1.307-8.178.813-9.487 4.743l-15.121 45.362h-94.468c-52.408 0-95.046-42.638-95.046-95.046v-82.008c.995-1.653 2.195-3.195 3.597-4.596 4.945-4.947 11.806-7.462 18.777-6.901 2.904.239 5.732-.812 7.786-2.863 2.053-2.054 3.097-4.892 2.863-7.784-.561-6.989 1.955-13.834 6.9-18.779 5.526-5.526 13.425-7.988 21.14-6.593 2.848.514 5.771-.247 8.014-2.095 2.256-1.861 3.572-4.604 3.608-7.527l.093-7.268c6.696 4.997 14.995 7.959 23.974 7.959 6.989 0 13.564-1.798 19.294-4.949l.054 4.262c.039 2.924 1.355 5.666 3.612 7.525 2.242 1.847 5.159 2.606 8.011 2.093 7.707-1.399 15.612 1.066 21.138 6.593 4.946 4.945 7.462 11.79 6.9 18.782-.23 2.895.814 5.731 2.867 7.783 2.053 2.051 4.881 3.091 7.781 2.861 6.991-.552 13.834 1.954 18.779 6.901 2.117 2.116 3.765 4.556 4.939 7.214v9.873c0 20.756 13.298 38.9 33.091 45.15l5.517 1.742-13.035 39.104c-1.31 3.93.813 8.178 4.743 9.487.787.262 1.587.387 2.373.387 3.14 0 6.066-1.987 7.114-5.13l13.11-39.33 25.483 8.047c22.49 7.103 37.601 27.721 37.601 51.305.003 29.666-24.133 53.801-53.799 53.801z"></path><path d="m271.824 327.173c-2.07-3.588-6.66-4.815-10.245-2.745l-21.704 12.531v-25.061c0-4.143-3.357-7.5-7.5-7.5s-7.5 3.357-7.5 7.5v25.061l-21.703-12.53c-3.589-2.071-8.175-.843-10.245 2.745-2.071 3.587-.842 8.174 2.745 10.245l21.704 12.531-21.704 12.531c-3.587 2.071-4.816 6.658-2.745 10.245 1.389 2.406 3.91 3.751 6.502 3.751 1.272 0 2.563-.324 3.743-1.006l21.703-12.53v25.059c0 4.143 3.357 7.5 7.5 7.5s7.5-3.357 7.5-7.5v-25.061l21.704 12.531c1.182.682 2.471 1.006 3.743 1.006 2.592 0 5.113-1.345 6.502-3.751 2.071-3.587.842-8.174-2.745-10.245l-21.704-12.531 21.704-12.531c3.587-2.071 4.817-6.658 2.745-10.245z"></path><circle cx="166.922" cy="346.5" r="7.5"></circle><circle cx="297.922" cy="346.5" r="7.5"></circle></g></g></svg>