<!-- icon666.com - MILLIONS OF FREE VECTOR ICONS --><svg id="Capa_1" enable-background="new 0 0 512.01 512.01" viewBox="0 0 512.01 512.01" xmlns="http://www.w3.org/2000/svg"><g><path d="m197.258 65.572v120.656h117.483c0-18.835 0-126.985 0-139.281-.294.046 7.023-1.114-117.483 18.625z" fill="#ea7a7a"></path><path d="m197.258 65.572v120.656h27.109v-40.572c0-11.16 9.12-20.05 20.28-20.025 25.271.057 51.56-10.248 70.094-28.605 0-14.537 0-35.078 0-50.079-.294.046 7.023-1.114-117.483 18.625z" fill="#ea5b5b"></path><path d="m321.268 165.645c-40.144 0-88.658 0-130.526 0-13.866 0-25.101 11.235-25.101 25.101v79.319h180.728v-79.319c0-13.866-11.236-25.101-25.101-25.101z" fill="#fcdfa0"></path><path d="m236.928 165.645c-18.938 0-36.112 0-46.186 0-13.866 0-25.101 11.235-25.101 25.101v79.319h46.186v-79.319c0-13.866 11.235-25.101 25.101-25.101z" fill="#ffc771"></path><path d="m351.72 256.009c-9.43 0-181.937 0-191.431 0-13.685 0-24.77 11.085-24.77 24.77v153.368c0 38.857 31.507 70.363 70.363 70.363h100.244c38.856 0 70.363-31.507 70.363-70.363 0-14.879 0-137.183 0-153.368.001-13.686-11.084-24.77-24.769-24.77z" fill="#e5f1f9"></path><path d="m180.701 434.146c0-14.879 0-137.36 0-153.368 0-13.685 11.085-24.77 24.77-24.77-24.366 0-42.659 0-45.182 0-13.685 0-24.77 11.085-24.77 24.77v153.368c0 38.857 31.507 70.363 70.363 70.363h45.182c-38.856.001-70.363-31.506-70.363-70.363z" fill="#c6def4"></path><path d="m135.519 308.721v45.182h240.971v-45.182c-9.663 0-236.884 0-240.971 0z" fill="#ea7a7a"></path><path d="m135.519 308.721v45.182h45.182c0-16.184 0-32.164 0-45.182z" fill="#ea5b5b"></path><path d="m286.338 10.429c-13.473-4.375-30.149-3.976-46.468 2.24-26.447 10.071-43.445 32.16-42.582 52.903.161 3.725.894 7.4 2.249 10.964 8.26 21.697 36.825 31.282 65.805 23.083 2.266-.641 4.535-1.378 6.797-2.239 25.392-9.679 42.079-30.433 42.602-50.433v-1.456c-.187-15.169-9.939-29.066-28.403-35.062z" fill="#d34444"></path><path d="m236.959 65.572c-.863-20.743 16.135-42.832 42.581-52.903 2.262-.862 4.531-1.598 6.797-2.24-13.473-4.375-30.149-3.976-46.468 2.24-26.447 10.071-43.445 32.16-42.582 52.903.161 3.725.894 7.4 2.249 10.964 8.26 21.697 36.825 31.282 65.805 23.083-18.203-5.912-27.749-19.375-28.382-34.047z" fill="#c93232"></path><path d="m279.791 425.18c0 14.699-10.643 26.617-23.786 26.617s-23.786-11.918-23.786-26.617c0-14.709 10.643-16.085 23.786-16.085s23.786 1.376 23.786 16.085z" fill="#303646"></path><g><path d="m353.869 248.588v-57.842c0-17.65-14.101-32.058-31.628-32.576 0-.101.001-112.669-.001-112.771-.227-18.529-12.293-36.041-35.645-42.744-15.265-4.38-32.805-3.313-49.395 3.005-28.617 10.897-47.988 35.247-47.419 59.431-.038.594-.02 63.176-.024 93.093-13.493.407-25.401 9.086-29.821 21.891-1.352 3.916.727 8.186 4.642 9.537 3.916 1.352 8.186-.727 9.537-4.642 2.442-7.073 9.124-11.826 16.626-11.826h130.525c9.705 0 17.602 7.896 17.602 17.601v57.763h-165.727v-30.905c0-4.142-3.358-7.5-7.5-7.5s-7.5 3.358-7.5 7.5v30.984c-16.795 1.11-30.122 15.119-30.122 32.19v153.368c0 42.934 34.929 77.863 77.863 77.863h100.244c42.934 0 77.863-34.929 77.863-77.863v-13.444c0-4.142-3.358-7.5-7.5-7.5-4.143 0-7.5 3.358-7.5 7.5v13.444c0 34.663-28.2 62.863-62.863 62.863h-100.243c-34.663 0-62.863-28.2-62.863-62.863v-72.743h225.97v24.157c0 4.142 3.357 7.5 7.5 7.5 4.142 0 7.5-3.358 7.5-7.5 0-37.855 0-83.313 0-104.782 0-17.07-13.326-31.079-30.121-32.189zm-149.111-152.049c15.157 13.097 41.986 18.539 70.052 7.849 13.084-4.987 24.233-12.738 32.431-22.019v75.776h-102.483zm37.781-76.861c13.577-5.171 27.753-6.097 39.917-2.605 14.199 4.075 24.59 14.189 24.784 28.546v1.188c-.485 17.361-16.007 35.269-37.772 43.564-13.578 5.171-27.753 6.096-39.917 2.605-13.923-3.996-24.167-13.777-24.771-27.723-.735-17.798 15.143-36.964 37.759-45.575zm-82.25 243.831h191.431c9.523 0 17.27 7.747 17.27 17.27v20.442h-225.971v-20.442c0-9.523 7.747-17.27 17.27-17.27zm-17.27 52.712h225.971v30.182h-225.971z"></path><path d="m173.473 403.131v12.049c0 4.142 3.358 7.5 7.5 7.5s7.5-3.358 7.5-7.5v-12.049c0-4.142-3.358-7.5-7.5-7.5-4.143 0-7.5 3.358-7.5 7.5z"></path><path d="m224.719 425.18c0 18.812 14.035 34.117 31.286 34.117s31.286-15.305 31.286-34.117c0-23.585-21.924-23.585-31.286-23.585s-31.286 0-31.286 23.585zm47.572 0c0 10.542-7.306 19.117-16.286 19.117s-16.286-8.576-16.286-19.117c0-5.953.659-8.585 16.286-8.585 15.628 0 16.286 2.632 16.286 8.585z"></path><path d="m323.537 403.131v12.049c0 4.142 3.357 7.5 7.5 7.5s7.5-3.358 7.5-7.5v-12.049c0-4.142-3.357-7.5-7.5-7.5s-7.5 3.358-7.5 7.5z"></path></g></g></svg>