<!-- icon666.com - MILLIONS OF FREE VECTOR ICONS --><svg id="Capa_1" enable-background="new 0 0 512 512" viewBox="0 0 512 512" xmlns="http://www.w3.org/2000/svg"><g><g><g><path d="m481 232.5c0 48.23-15.18 92.92-41.02 129.55-19.936 13.832-116.708 35.055-126.498 28.875 0 0-104.45-23.978-117.402-43.495-41.33-42.55-67.24-98.58-67.24-157.15 0-68.79 34.26-138.4 110.23-182.15 5.59-.42 11.23-.63 16.93-.63 124.26 0 225 100.74 225 225z" fill="#a4e7ff"></path><path d="m177.1 380.607c-9.79 6.18-91.717-10.127-105.08-18.557-25.84-36.63-41.02-81.32-41.02-129.55 0-118.56 91.72-215.72 208.07-224.37-45.85 44.29-74.36 106.42-74.36 175.21 0 67.2 27.2 128.04 71.2 172.11z" fill="#83deff"></path></g><path d="m432.544 364.145-36.553-51.891c-2.333-3.313.036-7.879 4.088-7.879h2.426c8.104 0 12.842-9.134 8.175-15.759l-30.015-42.61c-1.4-1.988.021-4.728 2.453-4.728h1.448c8.104 0 12.842-9.134 8.175-15.759l-47.021-66.751c-3.983-5.655-12.367-5.655-16.351 0l-58.122 82.51h26.507l-44.446 63.096h31.34l-42.104 59.77h190z" fill="#9cda82"></path><g><path d="m104.699 236.152v-81.751c0-5.523 4.477-10 10-10h28.29c5.523 0 10 4.477 10 10v57.606z" fill="#b8866b"></path><g><path d="m325.38 248.35v11.3c0 8.23-9.37 12.94-15.97 8.02l-9.97-7.42h-122.34c-23.54-17.452-28.86-42.457-12.38-75.54l28.78-21.25c7.06-5.22 16.7-5.22 23.76 0l104.06 76.84c2.56 1.89 4.06 4.87 4.06 8.05z" fill="#fff8e6"></path><path d="m177.1 260.25h-65.77l-9.98 7.42c-6.59 4.92-15.97.21-15.97-8.02v-11.3c0-3.18 1.51-6.16 4.06-8.05l75.28-55.59c.14 26.38 4.48 51.78 12.38 75.54z" fill="#ffeab7"></path></g><g><path d="m305.92 265.08v100.18h-59.62c-58.974-25.695-85.994-78.33-79.05-146.66l35.25-26.25c1.71-1.27 4.06-1.27 5.77 0z" fill="#eaaa83"></path><path d="m246.3 365.26h-141.46v-100.18l62.41-46.48c8.41 58.03 37.27 109.43 79.05 146.66z" fill="#e4996d"></path></g><g><path d="m241.6 306.16v54.8c-31.818-14.728-55.771-38.252-58.1-83.65 6.07-4.62 13.66-7.36 21.88-7.36 20.01 0 36.22 16.21 36.22 36.21z" fill="#df8a57"></path><path d="m241.6 360.96v3.85h-72.43v-58.65c0-10 4.05-19.05 10.61-25.6 1.16-1.16 2.4-2.25 3.72-3.25 13.34 31.89 33.27 60.35 58.1 83.65z" fill="#d97c41"></path></g></g><g><path d="m439.98 362.05c-17.69 25.07-40.37 46.37-66.6 62.44h-.01c-65.208 8.123-117.991-10.129-137.43-69.02l4.04 2.55c9.79 6.18 22.25 6.18 32.04 0l10.12-6.39c13.05-8.24 29.67-8.24 42.72 0l10.12 6.39c9.79 6.18 22.25 6.18 32.04 0l10.12-6.39c13.05-8.24 29.67-8.24 42.72 0l10.12 6.39c3.12 1.97 6.51 3.31 10 4.03z" fill="#fff8e6"></path><path d="m373.38 424.49c-16.38 10.03-34.15 18.04-52.95 23.65h-128.86c-48.89-14.59-90.81-45.36-119.55-86.09 3.49-.72 6.88-2.06 10-4.03l10.12-6.39c13.05-8.24 29.67-8.24 42.72 0l10.12 6.39c9.79 6.18 22.25 6.18 32.04 0l10.12-6.39c13.05-8.24 29.67-8.24 42.72 0l6.06 3.82c36.32 36.4 84.09 61.37 137.46 69.04z" fill="#ffeab7"></path></g><path d="m429.119 504.5h-346.238c-13.397 0-23.006-12.915-19.157-25.747l15.862-52.873c3.807-12.69 15.487-21.38 28.735-21.38h295.358c13.248 0 24.928 8.69 28.735 21.38l15.862 52.873c3.85 12.832-5.759 25.747-19.157 25.747z" fill="#8697a6"></path><g fill="#fff"><ellipse cx="175.192" cy="109.414" rx="29.816" ry="23.744"></ellipse><ellipse cx="336.807" cy="109.414" rx="29.816" ry="23.744"></ellipse></g></g><g><g><path d="m284.911 80.828c-4.142 0-7.5 3.358-7.5 7.5 0 3.835-3.12 6.956-6.956 6.956s-6.956-3.12-6.956-6.956c0-4.142-3.358-7.5-7.5-7.5s-7.5 3.358-7.5 7.5c0 3.835-3.12 6.956-6.956 6.956s-6.956-3.12-6.956-6.956c0-4.142-3.358-7.5-7.5-7.5s-7.5 3.358-7.5 7.5c0 12.106 9.849 21.956 21.956 21.956 5.531 0 10.591-2.056 14.456-5.444 3.865 3.388 8.924 5.444 14.456 5.444 12.106 0 21.956-9.849 21.956-21.956 0-4.142-3.358-7.5-7.5-7.5z"></path><path d="m194.478 55.248c-11.726 0-21.265 9.54-21.265 21.265 0 4.142 3.358 7.5 7.5 7.5s7.5-3.358 7.5-7.5c0-3.455 2.811-6.265 6.265-6.265s6.265 2.811 6.265 6.265c0 4.142 3.358 7.5 7.5 7.5s7.5-3.358 7.5-7.5c0-11.726-9.54-21.265-21.265-21.265z"></path><path d="m317.522 55.248c-11.726 0-21.265 9.54-21.265 21.265 0 4.142 3.358 7.5 7.5 7.5s7.5-3.358 7.5-7.5c0-3.455 2.811-6.265 6.265-6.265s6.265 2.811 6.265 6.265c0 4.142 3.358 7.5 7.5 7.5s7.5-3.358 7.5-7.5c.001-11.726-9.539-21.265-21.265-21.265z"></path></g><path d="m439.595 423.728c-3.381-11.292-11.575-19.966-21.978-24.087 45.232-43.727 70.883-103.795 70.883-167.141 0-56.059-20.236-110.207-56.98-152.471-2.718-3.125-7.455-3.457-10.581-.739s-3.457 7.455-.739 10.581c34.371 39.534 53.3 90.187 53.3 142.629 0 43.514-12.94 85.376-36.571 120.747-1.016-.448-1.999-.971-2.944-1.569l-1.883-1.189-27.309-38.767c5.639-.735 10.588-4.158 13.253-9.299 3.018-5.822 2.544-12.767-1.233-18.122l-25.868-36.717c3.888-1.516 7.164-4.403 9.16-8.254 3.02-5.825 2.547-12.773-1.231-18.129l-47.016-66.745c-3.272-4.653-8.622-7.431-14.31-7.431-5.689 0-11.039 2.778-14.307 7.426l-36.115 51.272-65.405-48.299c-9.771-7.216-22.901-7.216-32.672 0l-28.556 21.088v-24.112c0-9.649-7.851-17.5-17.5-17.5h-28.293c-9.649 0-17.5 7.851-17.5 17.5v70.85l-12.213 9.019c-4.449 3.285-7.104 8.548-7.104 14.078v11.307c0 6.658 3.696 12.651 9.646 15.639 2.503 1.257 5.194 1.876 7.87 1.876.649 0 1.296-.037 1.94-.11v63.739c-3.189 1.146-6.278 2.642-9.204 4.49l-10.12 6.391c-.946.597-1.929 1.12-2.944 1.568-23.631-35.371-36.571-77.233-36.571-120.747 0-119.93 97.57-217.5 217.5-217.5 51.236 0 100.986 18.156 140.085 51.124 3.167 2.67 7.898 2.268 10.568-.899s2.268-7.898-.899-10.568c-41.8-35.246-94.984-54.657-149.754-54.657-62.101 0-120.486 24.185-164.401 68.099s-68.099 102.3-68.099 164.401c0 63.346 25.651 123.414 70.883 167.141-10.403 4.121-18.596 12.794-21.977 24.083l-15.87 52.872c-2.522 8.413-.963 17.278 4.278 24.321s13.284 11.083 22.066 11.083h346.24c8.782 0 16.825-4.04 22.066-11.083s6.8-15.908 4.277-24.323zm-104.09-260.644c.648-.921 1.556-1.059 2.04-1.059.483 0 1.392.138 2.043 1.064l47.023 66.754c.759 1.076.435 2.081.174 2.584-.262.505-.899 1.353-2.226 1.353h-1.44c-3.938 0-7.511 2.171-9.325 5.667-1.813 3.493-1.533 7.662.734 10.882l30.023 42.614c.758 1.074.436 2.075.176 2.576-.262.505-.899 1.351-2.228 1.351h-2.42c-4.685 0-8.936 2.584-11.094 6.743-2.159 4.16-1.825 9.124.873 12.956l15.43 21.905c-11.006-1.572-22.469.699-32.154 6.814l-10.119 6.39c-7.301 4.608-16.734 4.607-24.032 0l-10.12-6.39c-4.802-3.032-10.041-5.118-15.444-6.26v-61.968c3.302.374 6.705-.204 9.816-1.767 5.95-2.988 9.646-8.98 9.646-15.639v-11.307c0-5.53-2.656-10.793-7.104-14.078l-26.586-19.633zm-223.305-8.684c0-1.378 1.122-2.5 2.5-2.5h28.29c1.378 0 2.5 1.122 2.5 2.5v35.189l-33.29 24.584zm-15.325 107.259c-1.076.802-2.1.488-2.615.229s-1.378-.893-1.378-2.234v-11.307c0-.79.379-1.542 1.015-2.011l104.059-76.845c4.442-3.28 10.41-3.28 14.851 0l104.06 76.846c.635.469 1.015 1.221 1.015 2.011v11.307c0 1.342-.863 1.976-1.378 2.234s-1.539.572-2.615-.229l-101.148-75.33c-4.333-3.217-10.383-3.217-14.721.006l-23.03 17.15c-3.322 2.474-4.01 7.172-1.536 10.495 2.474 3.322 7.173 4.01 10.495 1.536l21.435-15.962 93.035 69.293v69.416c-7.1.755-14.06 3.097-20.284 7.027l-10.119 6.39c-5.684 3.588-12.661 4.381-18.917 2.382v-47.9c0-24.102-19.613-43.71-43.72-43.71-11.682 0-22.659 4.549-30.899 12.803-8.261 8.249-12.811 19.225-12.811 30.907v48.963c-4.405.13-8.842-1.019-12.686-3.445l-10.12-6.39c-8.042-5.077-17.31-7.504-26.524-7.282v-69.159l43.54-32.432c3.322-2.474 4.009-7.173 1.535-10.495-2.474-3.321-7.172-4.009-10.495-1.535zm137.225 44.501v39.277l-.236-.149c-15.408-9.729-35.32-9.729-50.729 0l-6.466 4.083v-43.211c0-7.671 2.986-14.878 8.417-20.301 5.415-5.423 12.622-8.409 20.293-8.409 15.837 0 28.721 12.88 28.721 28.71zm205.052 185.802c-2.382 3.201-6.039 5.038-10.032 5.038h-346.24c-3.993 0-7.649-1.836-10.032-5.038s-3.091-7.232-1.944-11.056l15.871-52.875c2.871-9.589 11.53-16.031 21.545-16.031h157.93c4.142 0 7.5-3.358 7.5-7.5s-3.358-7.5-7.5-7.5h-152.541c-11.037-9.555-20.985-20.089-29.758-31.42.702-.383 1.394-.789 2.074-1.219l10.12-6.39c10.542-6.657 24.167-6.657 34.711 0l10.121 6.39c12.163 7.679 27.882 7.679 40.048 0l10.12-6.39c10.542-6.657 24.167-6.657 34.711 0l10.121 6.39c12.163 7.679 27.882 7.679 40.048 0l10.12-6.39c10.542-6.657 24.167-6.657 34.711 0l10.121 6.39c6.082 3.839 13.052 5.759 20.023 5.759s13.942-1.92 20.024-5.759l10.12-6.39c10.542-6.657 24.167-6.657 34.711 0l10.12 6.39c.68.429 1.372.835 2.074 1.219-8.774 11.33-18.722 21.865-29.759 31.42h-97.04c-4.142 0-7.5 3.358-7.5 7.5s3.358 7.5 7.5 7.5h102.43c10.015 0 18.674 6.442 21.546 16.036l15.869 52.868c1.148 3.826.44 7.857-1.943 11.058z"></path><circle cx="402" cy="134.413" r="7.5"></circle><circle cx="122.344" cy="99.413" r="7.5"></circle><circle cx="427.544" cy="191.394" r="7.5"></circle><circle cx="72.02" cy="197.525" r="7.5"></circle><circle cx="272.526" cy="150.163" r="7.5"></circle></g></g></svg>