<!-- icon666.com - MILLIONS OF FREE VECTOR ICONS --><svg id="Icons" viewBox="0 0 60 60" xmlns="http://www.w3.org/2000/svg"><path d="m3 26h40a0 0 0 0 1 0 0v29a4 4 0 0 1 -4 4h-32a4 4 0 0 1 -4-4v-29a0 0 0 0 1 0 0z" fill="#02a9f4" style="fill: rgb(245, 186, 237);"></path><path d="m40 26v29a4 4 0 0 1 -4 4h3a4 4 0 0 0 4-4v-29z" fill="#0377bc" style="fill: rgb(242, 179, 255);"></path><path d="m45 24a2.015 2.015 0 0 1 -2 2h-40a2.006 2.006 0 0 1 -2-2 1.955 1.955 0 0 1 .59-1.41 1.955 1.955 0 0 1 1.41-.59h40a2.006 2.006 0 0 1 2 2z" fill="#3f51b5" style="fill: rgb(255, 171, 171);"></path><path d="m43 22h-3a2.006 2.006 0 0 1 2 2 2.015 2.015 0 0 1 -2 2h3a2.015 2.015 0 0 0 2-2 2.006 2.006 0 0 0 -2-2z" fill="#283593" style="fill: rgb(255, 189, 189);"></path><path d="m43 54a7.481 7.481 0 0 1 1.44-1.32 28.907 28.907 0 0 1 4.62-2.5 37.057 37.057 0 0 0 4.57-2.4c.36-.23.71-.48 1.04-.74a11.182 11.182 0 0 0 3.85-5.38 10.164 10.164 0 0 0 -6.06-12.58 10.815 10.815 0 0 0 -9.46 1.1v5.03c2.08-2.09 5.11-3.47 8.07-2.38a6.147 6.147 0 0 1 3.65 7.59 7.365 7.365 0 0 1 -2.49 3.46c-.25.19-.52.37-.78.55a33.938 33.938 0 0 1 -4.08 2.13 36.671 36.671 0 0 0 -4.37 2.29z" fill="#3f51b5" style="fill: rgb(255, 171, 171);"></path><path d="m52.46 29.08a10.1 10.1 0 0 0 -5.075-.513 10 10 0 0 1 8.135 13.093 11.182 11.182 0 0 1 -3.85 5.38c-.33.26-.68.51-1.04.74a37.057 37.057 0 0 1 -4.57 2.4c-1.07.5-2.095.989-3.06 1.53v2.29a7.481 7.481 0 0 1 1.44-1.32 28.907 28.907 0 0 1 4.62-2.5 37.057 37.057 0 0 0 4.57-2.4c.36-.23.71-.48 1.04-.74a11.182 11.182 0 0 0 3.85-5.38 10.164 10.164 0 0 0 -6.06-12.58z" fill="#283593" style="fill: rgb(255, 189, 189);"></path><path d="m41.95 22h-38.49a3.321 3.321 0 0 1 -.34-.8c-.81-3.08 2.53-4.49 5.14-5.01 1.32-.27 2.51-.58 3.54-.9-.58-.51-3.84-6.83 2.49-7.54 6.71-.75 3.62-6.75 3.62-6.75s18.09 3 18.09 10.97a5.236 5.236 0 0 1 -.79 2.84 11.672 11.672 0 0 1 3.63 1.59 7.891 7.891 0 0 1 1.98 1.84 6.515 6.515 0 0 1 .88 1.62v.01a4.144 4.144 0 0 1 .25 2.13z" fill="#ffe0b2"></path><path d="m41.7 19.87v-.01a6.515 6.515 0 0 0 -.88-1.62 7.891 7.891 0 0 0 -1.98-1.84 11.672 11.672 0 0 0 -3.63-1.59 5.236 5.236 0 0 0 .79-2.84c0-7.97-18.09-10.97-18.09-10.97a6.53 6.53 0 0 1 .3.709c5.212 1.291 14.79 4.46 14.79 10.261a5.236 5.236 0 0 1 -.79 2.84 11.672 11.672 0 0 1 3.63 1.59 7.891 7.891 0 0 1 1.98 1.84 6.515 6.515 0 0 1 .88 1.62v.01a4.144 4.144 0 0 1 .25 2.13h3a4.144 4.144 0 0 0 -.25-2.13z" fill="#dfc49c"></path><path d="m58.07 12.15-1.18 2.76a2 2 0 1 1 -3.68-1.58l1.18-2.75a4 4 0 1 0 -7.35-3.16l-5.34 12.44a6.515 6.515 0 0 0 -.88-1.62 7.891 7.891 0 0 0 -1.98-1.84l4.52-10.55a8 8 0 0 1 14.71 6.3z" fill="#f44335"></path><path d="m53.87 1.65a7.974 7.974 0 0 0 -4.662-.5 7.985 7.985 0 0 1 5.862 11l-1.18 2.76a1.992 1.992 0 0 1 -.341.52 1.984 1.984 0 0 0 3.341-.52l1.18-2.76a8 8 0 0 0 -4.2-10.5z" fill="#c81e1e"></path><path d="m44 54.4a6.957 6.957 0 0 1 1.022-.9 28.3 28.3 0 0 1 4.514-2.431 37.441 37.441 0 0 0 4.632-2.439c.379-.242.756-.51 1.112-.791a12.177 12.177 0 0 0 4.191-5.862 11.176 11.176 0 0 0 -6.664-13.828 11.54 11.54 0 0 0 -8.807.398v-1.731a2.993 2.993 0 0 0 -1-5.816h-.028a5.769 5.769 0 0 0 -.2-1.084l5.19-12.1a3 3 0 0 1 5.513 2.371l-1.183 2.756a3 3 0 0 0 5.517 2.357l1.18-2.759a9 9 0 0 0 -16.548-7.085l-4.074 9.5a12.7 12.7 0 0 0 -1.763-.765 6.405 6.405 0 0 0 .4-2.226c-.004-8.713-18.154-11.823-18.927-11.951a.985.985 0 0 0 -.97.4 1 1 0 0 0 -.085 1.045c.314.618.981 2.5.307 3.744-.46.851-1.517 1.374-3.145 1.556-3.11.348-4.2 1.936-4.56 3.207a7.066 7.066 0 0 0 .644 4.72c-.712.191-1.442.372-2.2.527-1.53.3-4.276 1.1-5.478 3.028a3.9 3.9 0 0 0 -.49 2.911 2.981 2.981 0 0 0 -.1 5.664v28.184a4.948 4.948 0 0 0 1.026 3h-2.026a1 1 0 0 0 0 2h58a1 1 0 0 0 0-2h-16.026a4.948 4.948 0 0 0 1.026-3zm0-18.757c1.077-.99 3.725-2.975 6.723-1.87a5.138 5.138 0 0 1 3.046 6.342 6.33 6.33 0 0 1 -2.143 2.973c-.179.136-.369.266-.557.4l-.161.112a33.176 33.176 0 0 1 -3.96 2.063c-.879.409-1.905.894-2.948 1.459zm8.113-5.62a9.157 9.157 0 0 1 5.456 11.327 10.193 10.193 0 0 1 -3.517 4.9 11.78 11.78 0 0 1 -.967.687 35.949 35.949 0 0 1 -4.448 2.333 30.92 30.92 0 0 0 -4.637 2.505v-2.358a39.967 39.967 0 0 1 3.792-1.951 35.242 35.242 0 0 0 4.229-2.214l.181-.126c.214-.147.43-.295.643-.457a8.359 8.359 0 0 0 2.826-3.94 7.159 7.159 0 0 0 -4.255-8.837 8.067 8.067 0 0 0 -7.416 1.208v-2.337a9.673 9.673 0 0 1 8.113-.745zm-7.834-23.779a7 7 0 0 1 12.872 5.513l-1.178 2.754a1 1 0 1 1 -1.844-.787l1.18-2.75a5 5 0 1 0 -9.188-3.948l-4.535 10.574a8.788 8.788 0 0 0 -1.519-1.53zm-39.997 13.056c.587-.94 2.109-1.715 4.178-2.128 1.214-.248 2.375-.542 3.459-.873a.981.981 0 0 0 .44-.136c5.652-1.834 7.5-4.353 7.577-4.461a1 1 0 0 0 -1.625-1.166c-.015.021-1.525 1.988-6.1 3.568-.447-.849-1.07-2.568-.6-3.782.342-.877 1.282-1.407 2.8-1.576 2.323-.26 3.9-1.136 4.688-2.6a5.486 5.486 0 0 0 .331-3.832c5.517 1.172 15.57 4.405 15.57 9.653a4.2 4.2 0 0 1 -.644 2.312 7.046 7.046 0 0 1 -3.608 2.621 1 1 0 1 0 .713 1.868 9.534 9.534 0 0 0 4.143-2.8 8.732 8.732 0 0 1 4.417 2.873 4.824 4.824 0 0 1 .931 2.159h-36.842c-.006-.019-.017-.035-.023-.054a2 2 0 0 1 .195-1.646zm-1.282 3.7h40a1 1 0 0 1 0 2h-40a1 1 0 0 1 0-2zm4 35a3 3 0 0 1 -3-3v-28h38v28a3 3 0 0 1 -3 3z" fill="#000000"></path><circle cx="22" cy="7" r="1" fill="#000000"></circle><circle cx="28" cy="10" r="1" fill="#000000"></circle><circle cx="15" cy="18" r="1" fill="#000000"></circle><circle cx="24" cy="16" r="1" fill="#000000"></circle><path d="m36.291 45.893a1 1 0 0 0 -1.225-.707l-3.7.991-6.366-3.677 6.369-3.677 3.7.991a1.016 1.016 0 0 0 .26.035 1 1 0 0 0 .258-1.967l-1.766-.473.507-.293a1 1 0 0 0 -1-1.732l-.507.293.473-1.766a1 1 0 1 0 -1.932-.518l-.99 3.7-6.372 3.675v-7.354l2.707-2.707a1 1 0 0 0 -1.414-1.414l-1.293 1.293v-.586a1 1 0 0 0 -2 0v.586l-1.293-1.293a1 1 0 0 0 -1.414 1.414l2.707 2.707v7.354l-6.369-3.677-.99-3.7a1 1 0 1 0 -1.932.518l.473 1.766-.507-.293a1 1 0 0 0 -1 1.732l.507.293-1.766.473a1 1 0 0 0 .258 1.967 1.016 1.016 0 0 0 .26-.035l3.7-.991 6.366 3.679-6.369 3.677-3.7-.991a1 1 0 1 0 -.518 1.932l1.766.473-.507.293a1 1 0 1 0 1 1.732l.507-.293-.473 1.766a1 1 0 0 0 .707 1.225 1.016 1.016 0 0 0 .26.035 1 1 0 0 0 .965-.742l.99-3.7 6.372-3.675v7.354l-2.707 2.707a1 1 0 0 0 1.414 1.414l1.293-1.293v.586a1 1 0 0 0 2 0v-.586l1.293 1.293a1 1 0 0 0 1.414-1.414l-2.707-2.707v-7.354l6.369 3.677.99 3.7a1 1 0 0 0 .965.742 1.016 1.016 0 0 0 .26-.035 1 1 0 0 0 .707-1.225l-.473-1.766.507.293a1 1 0 1 0 1-1.732l-.507-.293 1.766-.473a1 1 0 0 0 .707-1.227z" fill="#000000"></path><circle cx="36" cy="30" r="1" fill="#000000"></circle><circle cx="39" cy="35" r="1" fill="#000000"></circle><circle cx="7" cy="52" r="1" fill="#000000"></circle><circle cx="9" cy="32" r="1" fill="#000000"></circle><circle cx="37" cy="53" r="1" fill="#000000"></circle><circle cx="11" cy="55" r="1" fill="#000000"></circle></svg>