<!-- icon666.com - MILLIONS OF FREE VECTOR ICONS --><svg id="Capa_1" enable-background="new 0 0 511.998 511.998" viewBox="0 0 511.998 511.998" xmlns="http://www.w3.org/2000/svg"><g><path d="m267.295 133.694c-.713 24.793-4.446 56.926-12.433 68.836.965 10.152 1.567 19.758 1.567 28.712v41.074c0 6.997-2.78 13.707-7.727 18.655l-68.675 68.674c-3.664 3.664-6.913 7.598-9.789 11.722 7.893 55.73 49.037 100.566 162.685 73.762l53.268-53.268c24.841-24.841 38.796-58.532 38.796-93.663v-38.001c-18.33-147.08-106.221-160.135-157.692-126.503z" fill="#cde9fa" style="fill: rgb(253, 207, 255);"></path><path d="m170.239 371.366c6.111 43.144 32.161 79.749 96.343 81.65-42.281-47.196-23.964-122.282-17.269-162.687-.201.215-.401.432-.61.641l-68.675 68.674c-3.664 3.665-6.914 7.599-9.789 11.722z" fill="#a2ddfd" style="fill: rgb(249, 189, 255);"></path><path d="m400.346 114.629-151.969 35.386c2.469 18.665 4.94 36.296 6.482 52.521h145.488v-87.907z" fill="#f6ee86"></path><path d="m332.925 445.128c-71.219-50.033-122.907-67.752-162.686-73.762-22.776 32.664-20.728 77.944 7.816 107.439 32.831 33.925 86.939 34.25 120.183 1.009z" fill="#b0ade2" style="fill: rgb(255, 128, 215);"></path><path d="m300.311 477.741c-40.011-19.11-55.292-51.553-59.456-85.539-27.253-11.732-50.466-17.791-70.616-20.836-22.776 32.664-20.728 77.944 7.816 107.439 32.831 33.925 86.939 34.25 120.183 1.009z" fill="#908cd6" style="fill: rgb(253, 191, 255);"></path><path d="m440.25 30.115c-.762-12.688-11.227-22.615-23.937-22.615h-151.206c-12.711 0-23.176 9.927-23.937 22.615-2.523 42.04 2.322 82.98 7.207 119.9h83.779c16.361 0 30.734 10.738 35.525 26.382 14.044 45.861 35.809 63.057 57.309 83.799v-28.955c-.001-51.578 19.856-124.542 15.26-201.126z" fill="#b0ade2" style="fill: rgb(255, 128, 215);"></path><path d="m150.742 255.855-.279-1.76c3.233 1.661 7.282.776 9.485-2.259 2.43-3.345 1.7-8.036-1.659-10.476l-11.122-8.081-3.087-19.493 13.371-13.372 19.495 3.088 8.081 11.122c2.447 3.368 7.141 4.082 10.476 1.659 2.973-2.159 3.962-6.178 2.266-9.483 1.483.216 2.005.371 2.933.371 3.625 0 6.813-2.634 7.398-6.328.648-4.091-2.143-7.933-6.234-8.581l-1.758-.278c2.579-2.562 2.986-6.686.782-9.718-2.434-3.351-7.123-4.093-10.475-1.66l-11.123 8.081-19.494-3.088-8.585-16.848 8.961-17.587 13.074-4.248c3.939-1.28 6.096-5.511 4.816-9.45-1.158-3.565-4.736-5.66-8.322-5.079l.809-1.587c1.881-3.69.413-8.207-3.277-10.087-3.691-1.88-8.207-.413-10.088 3.278l-.809 1.588c-1.639-3.245-5.439-4.907-9.001-3.748-3.94 1.28-6.096 5.511-4.815 9.45l4.248 13.076-8.96 17.585-18.677 2.958-13.957-13.957v-13.747c0-4.142-3.357-7.5-7.5-7.5-3.749 0-6.845 2.753-7.402 6.345l-1.259-1.259c-2.93-2.929-7.678-2.929-10.607 0s-2.929 7.678 0 10.606l1.26 1.26c-3.593.556-6.346 3.654-6.346 7.402 0 4.142 3.357 7.5 7.5 7.5h13.748l13.957 13.957-2.959 18.676-17.586 8.96-13.075-4.248c-3.934-1.281-8.17.876-9.45 4.816-1.159 3.564.503 7.361 3.748 9l-1.587.809c-3.69 1.88-5.158 6.397-3.277 10.087 1.325 2.6 3.958 4.097 6.688 4.097 2.485 0 3.906-1.169 4.978-1.623-.586 3.635 1.563 7.173 5.086 8.318 3.932 1.278 8.168-.868 9.451-4.815l4.249-13.075 17.585-8.96 16.85 8.585 3.087 19.493-8.081 11.123c-2.435 3.351-1.692 8.042 1.659 10.476 3.024 2.198 7.139 1.813 9.718-.785l.279 1.761c.65 4.107 4.508 6.881 8.58 6.234 4.091-.648 6.882-4.49 6.233-8.581zm-16.118-53.827-13.948-7.106 2.449-15.462 15.461-2.449 7.107 13.949zm215.021 56.613c-8.346 8.346-8.346 21.927 0 30.273 2.93 2.929 7.678 2.929 10.607 0s2.929-7.678 0-10.607c-2.5-2.5-2.509-6.551 0-9.06 2.504-2.504 6.555-2.504 9.059 0 2.93 2.929 7.678 2.929 10.608 0 2.929-2.929 2.929-7.678 0-10.607-8.369-8.366-21.906-8.366-30.274.001zm-82.212 95.988c-2.93-2.929-7.678-2.929-10.607 0s-2.929 7.678 0 10.607l8.485 8.485c2.93 2.929 7.678 2.929 10.608 0 2.929-2.929 2.929-7.678 0-10.606zm180.304-324.963c-.645-10.742-6.612-20.313-15.963-25.604-3.606-2.04-8.183-.77-10.222 2.835s-.77 8.181 2.835 10.221c4.906 2.775 8.038 7.802 8.377 13.447 4.542 75.681-15.274 148.373-15.274 200.677v11.434c-16.581-16.045-31.904-33.422-42.638-68.473-5.804-18.953-22.963-31.687-42.696-31.687h-77.198c-4.518-34.798-8.636-73.057-6.302-111.95.524-8.729 7.75-15.566 16.451-15.566h33.437v52.982c0 4.142 3.357 7.5 7.5 7.5 4.142 0 7.5-3.358 7.5-7.5v-52.982h52.333v52.982c0 4.142 3.357 7.5 7.5 7.5s7.5-3.358 7.5-7.5v-52.982h11.972c4.143 0 7.5-3.358 7.5-7.5s-3.357-7.5-7.5-7.5h-127.742c-16.622 0-30.426 13.031-31.424 29.666-4.651 77.507 15.247 150.721 15.247 201.576v41.074c0 5.043-1.964 9.785-5.531 13.352l-68.675 68.674c-21.064 21.065-30.947 51.155-26.436 80.49.629 4.087 4.448 6.902 8.553 6.273 4.094-.63 6.902-4.459 6.273-8.553-2.839-18.461 1.115-37.281 10.726-53.004 44.935 7.742 93.291 29.601 147.427 66.632l-28.332 28.332c-34.575 34.571-91.806 28.261-118.261-11.846-2.279-3.457-6.932-4.412-10.39-2.132-3.458 2.281-4.412 6.933-2.132 10.391 31.686 48.044 100.123 55.454 141.389 14.194l87.954-87.955c26.436-26.434 40.994-61.581 40.994-98.966v-66.956c.001-50.78 19.894-124.15 15.248-201.576zm-115.581 127.849c13.099 0 24.493 8.471 28.354 21.079 1.811 5.915 3.756 11.366 5.808 16.442h-104.682c-1.351-12.623-3.115-25.627-4.696-37.521zm85.334 140.682c0 33.378-12.998 64.759-36.601 88.36l-48.831 48.831c-53.838-37.137-102.435-59.859-147.967-69.163 1.261-1.32 4.785-4.806 69.914-69.952 6.4-6.399 9.925-14.908 9.925-23.958-.228-37.65.561-43.206-.896-62.279h110.201c12.424 23.649 26.769 36.686 44.255 53.372zm-88.83 4.075c-4.133.284-7.253 3.864-6.969 7.996.307 4.462-1.326 8.83-4.478 11.982-3.154 3.153-7.516 4.783-11.983 4.479-4.116-.286-7.713 2.836-7.996 6.969-.284 4.132 2.836 7.712 6.969 7.996 8.853.605 17.437-2.658 23.617-8.837 6.219-6.219 9.44-14.827 8.836-23.616-.283-4.133-3.875-7.242-7.996-6.969z" fill="#000000"></path></g></svg>