<!-- icon666.com - MILLIONS OF FREE VECTOR ICONS --><svg viewBox="-35 1 511 511.999" xmlns="http://www.w3.org/2000/svg"><path d="m424.066406 282.554688-47.191406 50.90625c-14.007812 15.109374-37.613281 16.003906-52.722656 1.996093l-56.5-52.378906c-10.578125-9.808594-16.675782-23.523437-16.863282-37.949219l-.59375-45.410156c-.234374-17.589844 13.375-32.269531 30.933594-33.371094l45.324219-2.839844c14.398437-.902343 28.539063 4.140626 39.117187 13.945313l56.5 52.378906c15.109376 14.007813 16.003907 37.613281 1.996094 52.722657zm0 0" fill="#f2ad9a"></path><path d="m361.035156 254.40625c5.78125-33.960938-2.632812-64.824219-12.8125-87.65625-6.882812-2.578125-14.285156-3.710938-21.769531-3.242188l-45.324219 2.839844c-17.558594 1.101563-31.167968 15.78125-30.9375 33.375l.597656 45.40625c.1875 14.425782 6.285157 28.144532 16.863282 37.949219l56.5 52.378906c15.109375 14.007813 38.714844 13.113281 52.722656-1.996093l10.242188-11.050782c-18.359376-7.492187-33.257813-25.890625-26.082032-68.003906zm0 0" fill="#e7896e"></path><path d="m222.328125 7.5h-94.554687c-28.652344 0-51.875 23.226562-51.875 51.875v77.925781h198.304687v-77.925781c0-28.648438-23.226563-51.875-51.875-51.875zm0 0" fill="#e7896e"></path><path d="m202.597656 7.5h-74.824218c-28.652344 0-51.875 23.226562-51.875 51.875v77.925781h74.824218v-77.925781c0-28.648438 23.222656-51.875 51.875-51.875zm0 0" fill="#dd6642"></path><path d="m276.1875 219.859375h-202.273438l-41.738281 55.347656c-15.6875 20.808594-24.175781 46.160157-24.175781 72.21875v84.707031c0 39.96875 32.398438 72.367188 72.367188 72.367188h189.367187c39.96875 0 72.367187-32.398438 72.367187-72.367188v-84.707031c0-26.058593-8.488281-51.410156-24.175781-72.214843zm0 0" fill="#b0f0ef"></path><path d="m139.710938 341.242188c136.433593-17.992188 170.550781-76.191407 170.554687-76.191407l-34.078125-45.191406h-202.273438l-41.738281 55.351563c-15.6875 20.804687-24.175781 46.15625-24.175781 72.214843v84.707031c0 39.96875 32.398438 72.367188 72.367188 72.367188h29.789062c-20.824219-25.808594-15.761719-68.074219-15.761719-68.074219s-.320312-20.785156-.496093-42.488281c-.222657-26.609375 19.433593-49.21875 45.8125-52.695312zm0 0" fill="#76e7e7"></path><path d="m8 347.425781v84.707031c0 39.96875 32.398438 72.367188 72.367188 72.367188h189.367187c39.964844 0 72.367187-32.398438 72.367187-72.367188v-84.707031c0-10.488281-1.398437-20.855469-4.0625-30.863281h-325.976562c-2.664062 10.007812-4.0625 20.375-4.0625 30.863281zm0 0" fill="#60daa8" style="fill: rgb(99, 21, 21);"></path><path d="m139.710938 341.242188c41.320312-5.449219 73.257812-14.589844 97.703124-24.679688h-225.351562c-2.664062 10.007812-4.0625 20.375-4.0625 30.863281v84.707031c0 39.96875 32.398438 72.367188 72.367188 72.367188h29.789062c-20.828125-25.808594-15.761719-68.074219-15.761719-68.074219s-.320312-20.785156-.5-42.488281c-.21875-26.609375 19.4375-49.21875 45.816407-52.695312zm0 0" fill="#00ce8e" style="fill: rgb(115, 34, 34);"></path><path d="m274.785156 189.601562h-199.46875c-22.625 0-40.964844-18.339843-40.964844-40.964843s18.339844-40.964844 40.964844-40.964844h199.46875c22.625 0 40.964844 18.339844 40.964844 40.964844s-18.339844 40.964843-40.964844 40.964843zm0 0" fill="#b0f0ef"></path><path d="m120.347656 148.636719c0-22.625 18.34375-40.96875 40.96875-40.96875h-86c-22.625 0-40.96875 18.34375-40.96875 40.96875s18.34375 40.964843 40.96875 40.964843h86c-22.625 0-40.96875-18.339843-40.96875-40.964843zm0 0" fill="#76e7e7"></path><path d="m273.992188 250.121094h-197.882813c-16.710937 0-30.257813-13.546875-30.257813-30.261719 0-16.710937 13.546876-30.257813 30.257813-30.257813h197.882813c16.710937 0 30.257812 13.546876 30.257812 30.257813 0 16.714844-13.546875 30.261719-30.257812 30.261719zm0 0" fill="#8697a6"></path><path d="m111.027344 416.492188c0-13.183594-13.417969-23.871094-29.972656-23.871094-16.554688 0-29.972657 10.6875-29.972657 23.871094 0 13.179687 13.417969 23.867187 29.972657 23.867187 16.554687 0 29.972656-10.6875 29.972656-23.867187zm0 0" fill="#ffb3dd"></path><path d="m299.019531 416.492188c0-13.183594-13.421875-23.871094-29.972656-23.871094-16.554687 0-29.972656 10.6875-29.972656 23.871094 0 13.179687 13.417969 23.867187 29.972656 23.867187 16.550781 0 29.972656-10.6875 29.972656-23.867187zm0 0" fill="#ffb3dd"></path><path d="m193.371094 391.339844c-10.789063 8.367187-25.855469 8.367187-36.640625 0-3.273438-2.539063-7.984375-1.945313-10.523438 1.328125-2.539062 3.273437-1.945312 7.984375 1.328125 10.523437 8.101563 6.285156 17.808594 9.425782 27.515625 9.425782s19.414063-3.140626 27.511719-9.425782c3.273438-2.539062 3.867188-7.25 1.328125-10.523437-2.535156-3.273438-7.25-3.867188-10.519531-1.328125zm0 0" fill="#000000"></path><path d="m94.394531 380.464844c-7.140625 0-13.742187 3.5625-17.660156 9.527344-2.273437 3.460937-1.3125 8.113281 2.148437 10.386718 3.460938 2.273438 8.113282 1.3125 10.386719-2.152344 1.640625-2.492187 4.128907-2.761718 5.125-2.761718.992188 0 3.441407.296875 5.121094 2.761718 3.503906 5.144532 9.117187 2.984376 10.386719 2.152344 3.460937-2.273437 4.425781-6.925781 2.148437-10.386718-3.917969-5.964844-10.519531-9.527344-17.65625-9.527344zm0 0" fill="#000000"></path><path d="m255.707031 380.464844c-7.136719 0-13.742187 3.5625-17.660156 9.527344-2.273437 3.460937-1.308594 8.113281 2.152344 10.386718 3.460937 2.273438 8.109375 1.3125 10.386719-2.152344 1.636718-2.492187 4.125-2.761718 5.121093-2.761718.992188 0 3.441407.296875 5.121094 2.761718 3.503906 5.144532 9.117187 2.984376 10.386719 2.152344 3.460937-2.273437 4.425781-6.925781 2.152344-10.386718-3.917969-5.964844-10.523438-9.527344-17.660157-9.527344zm0 0" fill="#000000"></path><path d="m427.167969 224.332031-56.5-52.375c-23.875-21.507812-48.019531-15.726562-48.019531-15.726562.394531-2.472657.601562-5.011719.601562-7.59375 0-26.726563-21.742188-48.46875-48.464844-48.46875h-191.386718v-40.792969c0-24.46875 19.902343-44.375 44.375-44.375h94.554687c24.46875 0 44.375 19.90625 44.375 44.375v15.011719c0 4.140625 3.359375 7.5 7.5 7.5 4.144531 0 7.5-3.359375 7.5-7.5v-15.011719c0-32.738281-26.632813-59.375-59.375-59.375h-94.554687c-32.742188 0-59.375 26.636719-59.375 59.375v41.296875c-23.460938 3.367187-41.550782 23.589844-41.550782 47.964844 0 18.195312 10.085938 34.074219 24.953125 42.359375-8.21875 6.929687-13.453125 17.296875-13.453125 28.863281 0 8.941406 3.132813 17.164063 8.347656 23.636719l-20.507812 27.195312c-16.566406 21.96875-25.6875 49.222656-25.6875 76.734375v84.707031c0 44.039063 35.828125 79.867188 79.867188 79.867188h189.367187c44.039063 0 79.867187-35.828125 79.867187-79.867188v-79.230468c12.347657-.019532 24.234376-5.136719 32.769532-14.34375l47.195312-50.90625c16.796875-18.117188 15.71875-46.523438-2.398437-63.320313zm-351.851563-42.230469c-18.453125 0-33.46875-15.011718-33.46875-33.464843s15.015625-33.464844 33.46875-33.464844h199.46875c18.453125 0 33.464844 15.011719 33.464844 33.464844s-15.011719 33.464843-33.464844 33.464843zm-37.152344 97.621094 20.070313-26.613281c5.324219 2.875 11.414063 4.511719 17.875 4.511719h21.722656c4.144531 0 7.5-3.359375 7.5-7.5s-3.355469-7.5-7.5-7.5h-21.722656c-12.550781 0-22.761719-10.210938-22.761719-22.761719 0-12.546875 10.210938-22.757813 22.761719-22.757813h197.882813c12.546874 0 22.757812 10.210938 22.757812 22.757813 0 12.550781-10.210938 22.761719-22.757812 22.761719h-146.613282c-4.140625 0-7.5 3.359375-7.5 7.5s3.359375 7.5 7.5 7.5h146.609375c6.464844 0 12.554688-1.636719 17.878907-4.507813l20.066406 26.613281c6.738281 8.929688 12.058594 18.859376 15.859375 29.335938h-305.488281c3.804687-10.476562 9.125-20.40625 15.859374-29.339844zm296.4375 152.410156c0 35.769532-29.101562 64.867188-64.867187 64.867188h-189.367187c-35.769532 0-64.867188-29.101562-64.867188-64.867188v-84.707031c0-7.863281.859375-15.699219 2.496094-23.363281h314.109375c1.636719 7.664062 2.496093 15.5 2.496093 23.363281zm83.964844-154.679687-47.191406 50.90625c-5.757812 6.210937-13.8125 9.609375-22.152344 9.53125-1.847656-24.214844-10.664062-47.773437-25.308594-67.199219l-20.507812-27.195312c5.214844-6.472656 8.34375-14.695313 8.34375-23.636719 0-11.570313-5.234375-21.933594-13.453125-28.867187 8.085937-4.503907 14.757813-11.253907 19.160156-19.40625 0 0 22.496094-4.566407 43.011719 11.367187l56.5 52.378906c12.054688 11.175781 12.769531 30.070313 1.597656 42.121094zm0 0" fill="#000000"></path></svg>