<!-- icon666.com - MILLIONS OF FREE VECTOR ICONS --><svg id="Capa_1" enable-background="new 0 0 512 512" viewBox="0 0 512 512" xmlns="http://www.w3.org/2000/svg"><g><path d="m374.871 212.775v-19.951c-22.46-10.398-40.743-51.589-51.803-89.855h-134.135c-11.06 38.266-29.342 79.457-51.803 89.855v19.951z" fill="#00b662"></path><path d="m448.219 286.497h-384.438v154.86c0 34.873 28.27 63.142 63.142 63.142h258.153c34.873 0 63.142-28.27 63.142-63.142v-154.86z" fill="#e9a982"></path><path d="m63.781 286.497v154.86c0 34.873 28.27 63.142 63.142 63.142h86.774c-50.146-37.135-47.417-131.706-47.26-218.003h-102.656z" fill="#e6886e"></path><path d="m279.091 19.959c15.985 24.299 37.6 53.888 63.545 77.14 7.483 6.707 4.941 19.032-4.624 22.114-19.55 6.3-49.803 8.074-72.219-3.126-6.162-3.079-13.425-3.079-19.587 0-22.416 11.199-52.669 9.425-72.219 3.126-9.565-3.082-12.107-15.407-4.624-22.114 25.945-23.253 47.561-52.841 63.545-77.14 10.929-16.612 35.256-16.612 46.183 0z" fill="#00ce8e"></path><path d="m157.559 193.245c0 20.101-18.822 36.395-42.04 36.395s-42.04-16.295-42.04-36.395c0-20.101 18.822-64.224 42.04-64.224s42.04 44.123 42.04 64.224z" fill="#ff6e80"></path><path d="m354.442 193.245c0 20.101 18.822 36.395 42.04 36.395s42.039-16.295 42.039-36.395c0-20.101-18.822-64.224-42.039-64.224s-42.04 44.123-42.04 64.224z" fill="#ff6e80"></path><path d="m493.915 235.649c-1.039-30.159-27.373-56.765-57.521-58.091-12.779-.562-24.725 2.859-34.706 9.123-7.637 4.793-17.334 4.686-24.983-.088-19.431-12.128-44.293-12.124-63.72-.007-7.702 4.804-17.426 4.806-25.128.001-19.43-12.122-44.286-12.116-63.71-.001-7.702 4.804-17.426 4.806-25.128.001-19.434-12.124-44.296-12.116-63.721.006-7.65 4.774-17.348 4.883-24.985.089-9.981-6.265-21.928-9.686-34.707-9.124-30.148 1.326-56.483 27.933-57.521 58.092-.533 15.485 4.785 29.711 13.907 40.659 4.353 5.225 6.631 11.869 6.631 18.669v20.297c0 18.075 14.653 32.728 32.728 32.728 18.075 0 32.728-14.653 32.728-32.728 0-9.512 7.711-17.224 17.224-17.224h130.275c12.323 0 22.314 9.99 22.314 22.314v7.272c0 18.075 14.653 32.728 32.728 32.728 18.075 0 32.728-14.653 32.728-32.728v-7.272c0-12.324 9.99-22.314 22.314-22.314h29.036c9.512 0 17.223 7.711 17.223 17.224 0 18.075 14.653 32.728 32.728 32.728 18.075 0 32.728-14.653 32.728-32.728v-20.297c0-6.8 2.278-13.445 6.631-18.669 9.122-10.948 14.44-25.175 13.907-40.66z" fill="#fff0ce"></path><path d="m180.231 178.93c-15.163-3.351-31.371-.8-44.932 7.662-7.65 4.774-17.348 4.883-24.985.089-9.981-6.265-21.928-9.686-34.707-9.123-30.148 1.326-56.483 27.933-57.521 58.092-.533 15.485 4.785 29.711 13.907 40.659 4.353 5.225 6.631 11.869 6.631 18.669v20.297c0 18.075 14.653 32.728 32.728 32.728 18.075 0 32.728-14.653 32.728-32.728 0-9.512 7.711-17.224 17.224-17.224h89.774c-38.935-21.822-48.706-92.701-30.847-119.121z" fill="#ffddb9"></path><g><g fill="#fff"><ellipse cx="176.444" cy="433.969" rx="29.355" ry="23.377"></ellipse><ellipse cx="335.557" cy="433.969" rx="29.355" ry="23.377"></ellipse></g></g><path d="m213.698 346.97c0 4.123 3.342 7.465 7.465 7.465s7.465-3.342 7.465-7.465-3.342-7.465-7.465-7.465-7.465 3.342-7.465 7.465zm-27.646 52.496v12c0 4.142 3.358 7.5 7.5 7.5s7.5-3.358 7.5-7.5v-12c0-4.142-3.358-7.5-7.5-7.5s-7.5 3.358-7.5 7.5zm-62.243-23.586c0 4.123 3.342 7.465 7.465 7.465s7.465-3.342 7.465-7.465-3.342-7.465-7.465-7.465-7.465 3.342-7.465 7.465zm377.601-140.49c-1.109-32.23-27.914-60.826-59.661-64.874-6.898-21.174-23.094-48.995-45.267-48.995-18.74 0-33.39 20.098-41.669 39.481-5.574-9.359-10.969-20.897-15.968-34.195.493-.15.987-.3 1.469-.455 15.047-4.849 19.154-24.24 7.329-34.837-20.5-18.373-40.874-43.127-62.286-75.677-6.523-9.918-17.497-15.838-29.356-15.838 0 0 .001 0 0 0-11.858 0-22.834 5.921-29.357 15.837-2.814 4.278-5.63 8.454-8.371 12.412-2.358 3.405-1.51 8.077 1.895 10.436 3.406 2.359 8.078 1.51 10.436-1.896 2.809-4.055 5.693-8.331 8.572-12.709 3.796-5.77 9.929-9.08 16.826-9.08 6.896 0 13.029 3.31 16.825 9.08 22.132 33.646 43.33 59.357 64.806 78.604 3.186 2.856 2.123 8.089-1.919 9.391-17.909 5.771-46.38 7.39-66.566-2.696-8.23-4.112-18.06-4.111-26.291 0-20.186 10.085-48.656 8.467-66.567 2.696-4.031-1.299-5.112-6.527-1.919-9.39 11.555-10.355 23.276-22.866 34.84-37.186 2.602-3.223 2.1-7.944-1.123-10.547-3.223-2.602-7.944-2.1-10.547 1.123-11.06 13.695-22.224 25.619-33.181 35.439-11.82 10.594-7.724 29.986 7.329 34.838.482.155.976.305 1.469.455-4.999 13.298-10.394 24.836-15.968 34.195-8.28-19.383-22.93-39.481-41.669-39.481-22.176 0-38.37 27.825-45.267 48.995-31.748 4.049-58.554 32.646-59.663 64.877-.574 16.687 4.98 32.923 15.641 45.717 3.155 3.787 4.893 8.712 4.893 13.869v20.297c0 16.854 10.423 31.311 25.157 37.288v88.794c0 38.953 31.69 70.643 70.643 70.643h231.613c4.143 0 7.5-3.358 7.5-7.5s-3.357-7.5-7.5-7.5h-231.614c-30.682 0-55.642-24.961-55.642-55.643v-85.856c22.433 0 40.299-18.193 40.299-40.226 0-5.362 4.362-9.724 9.724-9.724h130.275c8.168 0 14.813 6.646 14.813 14.814v7.272c0 22.182 18.047 40.228 40.229 40.228s40.228-18.046 40.228-40.228v-7.272c0-8.168 6.645-14.814 14.813-14.814h29.036c5.361 0 9.724 4.362 9.724 9.724 0 21.992 17.825 40.226 40.298 40.226v85.856c0 27.634-20.604 51.327-47.927 55.113-4.103.569-6.968 4.355-6.399 8.458.568 4.103 4.355 6.969 8.458 6.4 34.7-4.808 60.868-34.889 60.868-69.971v-88.794c14.735-5.977 25.158-20.434 25.158-37.288v-20.297c0-5.157 1.737-10.081 4.892-13.868 10.66-12.796 16.215-29.033 15.639-45.721zm-104.928-98.869c5.659 0 12.174 4.67 18.345 13.15 4.186 5.754 8.054 13.132 10.986 20.789-9.965 1.153-19.535 4.487-28.112 9.868-5.108 3.207-11.79 3.169-17.025-.098-4.624-2.886-9.537-5.153-14.613-6.813 6.551-18.922 19.178-36.896 30.419-36.896zm-208.564-6.367c19.597 3.1 43.082 1.915 61.642-7.357 4.033-2.015 8.848-2.015 12.882 0 12.678 6.334 27.651 8.897 42.119 8.896 6.711 0 13.31-.556 19.522-1.538 4.578 12.388 10.88 27.081 18.71 39.921-11.784.351-23.491 3.73-33.777 10.146-5.304 3.307-11.89 3.308-17.189.001-21.762-13.576-49.885-13.576-71.648-.001-5.304 3.308-11.89 3.308-17.189.001-10.288-6.418-21.997-9.798-33.783-10.148 7.83-12.841 14.133-27.533 18.711-39.921zm-90.744 19.517c6.171-8.48 12.686-13.15 18.345-13.15 11.241 0 23.868 17.975 30.42 36.898-5.076 1.66-9.988 3.926-14.611 6.811-5.235 3.267-11.918 3.306-17.028.1-8.578-5.383-18.141-8.721-28.112-9.873 2.931-7.656 6.8-15.032 10.986-20.786zm377.071 121.838c-5.397 6.477-8.368 14.812-8.368 23.47v20.297c0 13.911-11.317 25.228-25.229 25.228-13.91 0-25.228-11.317-25.228-25.228 0-13.633-11.091-24.724-24.724-24.724h-29.036c-16.439 0-29.813 13.375-29.813 29.814v7.272c0 13.911-11.317 25.228-25.229 25.228-13.91 0-25.228-11.317-25.228-25.228v-7.272c0-16.439-13.374-29.814-29.813-29.814h-130.273c-13.633 0-24.724 11.091-24.724 24.724 0 13.911-11.317 25.228-25.228 25.228s-25.228-11.317-25.228-25.228v-20.297c0-8.658-2.972-16.993-8.369-23.47-8.298-9.959-12.621-22.602-12.174-35.6.908-26.407 23.968-49.697 50.354-50.857 10.795-.481 21.312 2.285 30.391 7.983 9.939 6.238 22.87 6.207 32.943-.079 16.943-10.573 38.838-10.575 55.78-.005 10.197 6.361 22.867 6.361 33.067-.001 16.941-10.567 38.834-10.567 55.771.001 10.195 6.361 22.867 6.361 33.066-.001 16.946-10.57 38.841-10.567 55.779.006 10.072 6.287 23.004 6.317 32.941.079 9.08-5.698 19.589-8.457 30.391-7.983 26.386 1.16 49.445 24.45 50.354 50.856v.001c.45 12.997-3.874 25.64-12.173 35.6zm-196.854 133.945c-3.122-2.721-7.861-2.397-10.581.727-2.728 3.132-6.669 4.928-10.81 4.928s-8.081-1.796-10.81-4.928c-2.722-3.123-7.458-3.447-10.582-.727-3.122 2.722-3.448 7.459-.727 10.582 5.579 6.401 13.641 10.073 22.119 10.073s16.54-3.671 22.118-10.073c2.722-3.123 2.396-7.861-.727-10.582zm33.558-5.988v12c0 4.142 3.357 7.5 7.5 7.5s7.5-3.358 7.5-7.5v-12c0-4.142-3.357-7.5-7.5-7.5s-7.5 3.358-7.5 7.5zm92.998-8.655c0-4.123-3.342-7.465-7.465-7.465s-7.465 3.342-7.465 7.465 3.342 7.465 7.465 7.465c4.122 0 7.465-3.342 7.465-7.465z"></path></g></svg>