<!-- icon666.com - MILLIONS OF FREE VECTOR ICONS --><svg viewBox="0 0 60 60" xmlns="http://www.w3.org/2000/svg"><g id="Icons"><path d="m30 59a19.64 19.64 0 0 1 -7.27-1.191 4.971 4.971 0 0 1 -1.938-1.393 9.117 9.117 0 0 1 -1.982-5.216h-.363c-5.208 0-9.026-.857-11.347-2.55a4.969 4.969 0 0 1 -1.983-4.779 24.1 24.1 0 0 1 3.5-9.446c-.117-.122-.223-.241-.319-.353a4.976 4.976 0 0 1 -.96-4.772 22.069 22.069 0 0 1 5.568-8.759 4.985 4.985 0 0 1 -.257-4.815c5.27-10.995 14.256-14.012 16-14.5a4.948 4.948 0 0 1 2.7 0c1.747.493 10.733 3.51 16.006 14.51a4.979 4.979 0 0 1 -.26 4.809 22.08 22.08 0 0 1 5.567 8.755 4.976 4.976 0 0 1 -.95 4.777c-.1.115-.2.235-.325.359a24.108 24.108 0 0 1 3.5 9.454 4.967 4.967 0 0 1 -1.987 4.765c-2.32 1.692-6.138 2.549-11.346 2.549h-.364a9.126 9.126 0 0 1 -1.988 5.22 4.946 4.946 0 0 1 -1.917 1.38 19.642 19.642 0 0 1 -7.285 1.196z" fill="#ff9801"></path><path d="m54.884 43.883a24.108 24.108 0 0 0 -3.5-9.454c.12-.124.227-.244.325-.359a4.976 4.976 0 0 0 .95-4.777 22.08 22.08 0 0 0 -5.567-8.755 4.979 4.979 0 0 0 .26-4.809c-5.271-11-14.252-14.017-16.004-14.51a4.948 4.948 0 0 0 -2.695 0c-.04.011-.1.031-.153.046 2.031.6 10.7 3.72 15.854 14.464a4.979 4.979 0 0 1 -.26 4.809 22.08 22.08 0 0 1 5.567 8.755 4.976 4.976 0 0 1 -.95 4.777c-.1.115-.2.235-.325.359a24.108 24.108 0 0 1 3.5 9.454 4.967 4.967 0 0 1 -1.986 4.772c-2.32 1.692-6.138 2.549-11.346 2.549h-.364a9.126 9.126 0 0 1 -1.988 5.22 4.946 4.946 0 0 1 -1.917 1.38 18.411 18.411 0 0 1 -5.785 1.152c.476.026.971.044 1.5.044a19.642 19.642 0 0 0 7.285-1.2 4.946 4.946 0 0 0 1.917-1.38 9.126 9.126 0 0 0 1.988-5.22h.363c5.208 0 9.026-.857 11.346-2.549a4.967 4.967 0 0 0 1.985-4.768z" fill="#f57c00"></path><path d="m48.86 30.53a20.041 20.041 0 0 0 -6.97-9.23.991.991 0 0 1 -.33-1.1c-2.17.93-2.51 4.8-5.27 4.8-3.15 0-3.15-5-6.29-5s-3.14 5-6.29 5c-2.76 0-3.1-3.87-5.27-4.8a.991.991 0 0 1 -.33 1.1 20.041 20.041 0 0 0 -6.97 9.23 1 1 0 0 0 .2.95 4.157 4.157 0 0 0 1.87 1.24 1.417 1.417 0 0 1 .18.08c1.22-1.48 1.9-3.8 4.04-3.8 3.14 0 3.14 5 6.28 5s3.15-5 6.29-5 3.14 5 6.29 5 3.14-5 6.28-5c2.14 0 2.82 2.32 4.04 3.8a1.417 1.417 0 0 1 .18-.08 4.157 4.157 0 0 0 1.87-1.24 1 1 0 0 0 .2-.95z" fill="#f5f5f5"></path><path d="m48.86 30.53a20.041 20.041 0 0 0 -6.97-9.23.991.991 0 0 1 -.33-1.1 4.421 4.421 0 0 0 -1.806 1.8 19.386 19.386 0 0 1 6.106 8.53.993.993 0 0 1 -.18.919 13.177 13.177 0 0 0 .93 1.351 1.417 1.417 0 0 1 .18-.08 4.157 4.157 0 0 0 1.87-1.24 1 1 0 0 0 .2-.95z" fill="#cfd8dc"></path><path d="m16.4 18.55a.994.994 0 0 1 -.15-1.09c4.53-9.45 12-11.97 13.49-12.39a.92.92 0 0 1 .52 0c1.49.42 8.96 2.94 13.49 12.39a.994.994 0 0 1 -.15 1.09 4.025 4.025 0 0 1 -1.47 1.04.989.989 0 0 0 -.56.61h-.01c-2.17.93-2.51 4.8-5.27 4.8-3.15 0-3.15-5-6.29-5s-3.14 5-6.29 5c-2.76 0-3.1-3.87-5.27-4.8h-.01a.989.989 0 0 0 -.56-.61 4.025 4.025 0 0 1 -1.47-1.04z" fill="#60a917"></path><path d="m43.75 17.46c-4.53-9.45-12-11.97-13.49-12.39a.92.92 0 0 0 -.52 0c-.252.071-.688.21-1.24.425 2.708 1.055 8.488 4.116 12.25 11.965a.994.994 0 0 1 -.15 1.09 4.025 4.025 0 0 1 -1.47 1.04.989.989 0 0 0 -.56.61h-.01c-1.7.728-2.281 3.253-3.777 4.317a2.513 2.513 0 0 0 1.507.483c2.76 0 3.1-3.87 5.27-4.8h.01a.989.989 0 0 1 .56-.61 4.025 4.025 0 0 0 1.47-1.04.994.994 0 0 0 .15-1.09z" fill="#549414"></path><path d="m37.17 48.18c.15 1.54.21 4.21-1.01 5.65a1.054 1.054 0 0 1 -.39.27 15.847 15.847 0 0 1 -5.77.9 15.847 15.847 0 0 1 -5.77-.9 1.054 1.054 0 0 1 -.39-.27c-1.22-1.44-1.16-4.11-1.01-5.65a.98.98 0 0 0 -.98-1.09c2.29-.16 4.99-.46 8.15-.98 3.16.52 5.86.82 8.15.98a.98.98 0 0 0 -.98 1.09z" fill="#a0522d"></path><path d="m38.15 47.09c-2.29-.16-4.99-.46-8.15-.98-.519.085-1.006.156-1.5.23 2.516.376 4.736.616 6.65.75a.98.98 0 0 0 -.98 1.09c.15 1.54.21 4.21-1.01 5.65a1.054 1.054 0 0 1 -.39.27 14.436 14.436 0 0 1 -4.27.845c.468.032.959.055 1.5.055a15.847 15.847 0 0 0 5.77-.9 1.054 1.054 0 0 0 .39-.27c1.22-1.44 1.16-4.11 1.01-5.65a.98.98 0 0 1 .98-1.09z" fill="#783e22"></path><path d="m50.54 45.42c-1.03.75-4.12 2.2-12.32 1.67h-.07c-2.29-.16-4.99-.46-8.15-.98-3.16.52-5.86.82-8.15.98h-.07c-8.2.53-11.29-.92-12.32-1.67a.978.978 0 0 1 -.39-.94 19.936 19.936 0 0 1 4.6-10.15.99.99 0 0 0 -.28-1.53c1.22-1.48 1.9-3.8 4.04-3.8 3.14 0 3.14 5 6.28 5s3.15-5 6.29-5 3.14 5 6.29 5 3.14-5 6.28-5c2.14 0 2.82 2.32 4.04 3.8a.99.99 0 0 0 -.28 1.53 19.936 19.936 0 0 1 4.6 10.15.978.978 0 0 1 -.39.94z" fill="#60a917"></path><path d="m50.93 44.48a19.936 19.936 0 0 0 -4.6-10.15.99.99 0 0 1 .28-1.53c-1.22-1.48-1.9-3.8-4.04-3.8a2.5 2.5 0 0 0 -1.509.488c1.065.757 1.671 2.246 2.549 3.312a.99.99 0 0 0 -.28 1.53 19.936 19.936 0 0 1 4.6 10.15.978.978 0 0 1 -.39.94c-.8.582-2.85 1.581-7.553 1.754 6.88.227 9.6-1.061 10.553-1.754a.978.978 0 0 0 .39-.94z" fill="#549414"></path></g><g id="Icons_copy" data-name="Icons copy"><path d="m52.624 34.532a5.973 5.973 0 0 0 .988-5.548 22.6 22.6 0 0 0 -5.291-8.622 5.951 5.951 0 0 0 -.066-5.066c-5.455-11.386-14.816-14.525-16.636-15.04a5.991 5.991 0 0 0 -3.237 0c-1.82.514-11.182 3.653-16.634 15.034a5.963 5.963 0 0 0 -.069 5.073 22.591 22.591 0 0 0 -5.293 8.628 5.972 5.972 0 0 0 .989 5.54 25.123 25.123 0 0 0 -3.246 9.2 5.963 5.963 0 0 0 2.382 5.736c2.414 1.761 6.254 2.682 11.416 2.739a9.652 9.652 0 0 0 2.1 4.861 5.974 5.974 0 0 0 2.327 1.674 20.631 20.631 0 0 0 7.646 1.259 20.706 20.706 0 0 0 7.663-1.271 5.91 5.91 0 0 0 2.3-1.658 9.68 9.68 0 0 0 2.11-4.87c5.162-.057 9-.977 11.415-2.738a5.961 5.961 0 0 0 2.385-5.729 25.167 25.167 0 0 0 -3.249-9.202zm-.313 13.316c-2.146 1.563-5.765 2.352-10.758 2.352h-.363a1 1 0 0 0 -1 .908 8.173 8.173 0 0 1 -1.755 4.665 3.923 3.923 0 0 1 -1.528 1.1 18.667 18.667 0 0 1 -6.907 1.127 18.627 18.627 0 0 1 -6.892-1.117 3.993 3.993 0 0 1 -1.555-1.115 8.168 8.168 0 0 1 -1.747-4.657 1 1 0 0 0 -1-.908h-.363c-4.993 0-8.612-.793-10.759-2.357a3.977 3.977 0 0 1 -1.582-3.824 23.09 23.09 0 0 1 3.35-9.056 1 1 0 0 0 -.121-1.231c-.1-.107-.2-.21-.278-.307a3.985 3.985 0 0 1 -.768-3.824 20.912 20.912 0 0 1 5.322-8.357 1 1 0 0 0 .143-1.24 3.968 3.968 0 0 1 -.2-3.852c5.084-10.607 13.7-13.5 15.375-13.975a3.965 3.965 0 0 1 2.15 0c1.675.473 10.29 3.37 15.376 13.981a3.961 3.961 0 0 1 -.206 3.845 1 1 0 0 0 .143 1.24 20.927 20.927 0 0 1 5.32 8.353 3.984 3.984 0 0 1 -.758 3.821c-.086.1-.179.2-.284.312a1 1 0 0 0 -.124 1.234 23.133 23.133 0 0 1 3.358 9.066 3.971 3.971 0 0 1 -1.589 3.816z"></path><circle cx="30" cy="35" r="1"></circle><circle cx="30" cy="25" r="1"></circle><circle cx="24" cy="19" r="1"></circle><circle cx="36" cy="19" r="1"></circle><circle cx="36" cy="29" r="1"></circle><circle cx="30" cy="16" r="1"></circle><circle cx="24" cy="29" r="1"></circle><circle cx="42" cy="35" r="1"></circle><circle cx="18" cy="35" r="1"></circle><path d="m47.108 33.671a5.226 5.226 0 0 0 2.316-1.541 2.02 2.02 0 0 0 .383-1.912c-1.54-4.756-5.238-8.126-7.279-9.708a5.218 5.218 0 0 0 1.821-1.3 2.009 2.009 0 0 0 .3-2.191c-4.715-9.831-12.587-12.482-14.117-12.913a1.962 1.962 0 0 0 -1.064 0c-1.531.432-9.4 3.083-14.115 12.918a2.01 2.01 0 0 0 .3 2.191 5.036 5.036 0 0 0 1.847 1.291c-2.067 1.586-5.765 4.956-7.306 9.713a2.022 2.022 0 0 0 .385 1.912 5.191 5.191 0 0 0 2.339 1.541 21 21 0 0 0 -4.834 10.653 1.975 1.975 0 0 0 .783 1.9c1.269.924 4.645 2.4 12.971 1.848-.205 2.013-.156 4.757 1.242 6.4a1.967 1.967 0 0 0 .772.55 16.778 16.778 0 0 0 6.148.977 16.765 16.765 0 0 0 6.152-.976 1.952 1.952 0 0 0 .766-.546c1.4-1.643 1.449-4.387 1.24-6.389 8.335.535 11.706-.934 12.975-1.859a1.976 1.976 0 0 0 .784-1.9 21.237 21.237 0 0 0 -4.809-10.659zm-29.953-15.781c4.345-9.061 11.471-11.469 12.834-11.859 1.385.39 8.513 2.8 12.869 11.851.234.5-2.029.515-4.272 4.083-.793 1.262-1.328 2.035-2.296 2.035s-1.511-.773-2.3-2.035c-.836-1.321-1.869-2.965-3.99-2.965s-3.154 1.644-3.985 2.965c-.794 1.262-1.33 2.035-2.305 2.035s-1.5-.773-2.3-2.035c-2.319-3.696-4.546-3.465-4.255-4.075zm-5.055 12.943c1.373-4.24 4.736-7.3 6.619-8.739a1.922 1.922 0 0 0 .221-.221 12.824 12.824 0 0 1 .785 1.156c.828 1.324 1.863 2.971 3.985 2.971s3.165-1.647 4-2.971c.79-1.258 1.323-2.029 2.29-2.029s1.5.771 2.293 2.029c.832 1.324 1.868 2.971 4 2.971s3.157-1.647 3.989-2.971a12.824 12.824 0 0 1 .785-1.156 2.087 2.087 0 0 0 .221.22c1.883 1.444 5.246 4.5 6.614 8.741a3.087 3.087 0 0 1 -.949.739c-.132-.2-.263-.4-.4-.618-.831-1.316-1.865-2.955-3.983-2.955s-3.157 1.646-3.987 2.969c-.791 1.259-1.325 2.031-2.293 2.031s-1.511-.773-2.3-2.035c-.836-1.321-1.869-2.965-3.99-2.965s-3.154 1.644-3.985 2.965c-.794 1.262-1.33 2.035-2.305 2.035s-1.5-.772-2.293-2.031c-.83-1.323-1.864-2.969-3.987-2.969s-3.152 1.639-3.982 2.955c-.135.214-.266.42-.4.618a3.169 3.169 0 0 1 -.948-.74zm23.3 22.338a14.928 14.928 0 0 1 -5.4.829 15.23 15.23 0 0 1 -5.4-.819c-.724-.851-1.007-2.636-.776-4.9a2.068 2.068 0 0 0 0-.352c1.921-.18 3.988-.448 6.174-.8 2.186.354 4.253.622 6.174.8a2.068 2.068 0 0 0 0 .352c.228 2.264-.052 4.049-.772 4.89zm2.888-7.078c-2.434-.157-5.169-.483-8.126-.967a.967.967 0 0 0 -.322 0c-2.957.484-5.692.81-8.126.967-8.211.527-11.009-1-11.651-1.469a18.968 18.968 0 0 1 4.359-9.635 1.98 1.98 0 0 0 .427-1.822 2.029 2.029 0 0 0 -.174-.425c.162-.239.315-.481.466-.72.79-1.253 1.324-2.022 2.289-2.022s1.5.772 2.294 2.032c.83 1.322 1.864 2.968 3.986 2.968s3.165-1.647 4-2.971c.79-1.258 1.323-2.029 2.29-2.029s1.5.771 2.293 2.029c.832 1.324 1.868 2.971 4 2.971s3.156-1.646 3.986-2.968c.788-1.26 1.321-2.032 2.291-2.032s1.5.769 2.29 2.022c.151.239.3.481.466.72a2.029 2.029 0 0 0 -.174.425 1.98 1.98 0 0 0 .426 1.821 19.1 19.1 0 0 1 4.377 9.625c-.655.487-3.455 2.007-11.667 1.48z"></path></g></svg>