<!-- icon666.com - MILLIONS OF FREE VECTOR ICONS --><svg id="Capa_1" enable-background="new 0 0 512 512" viewBox="0 0 512 512" xmlns="http://www.w3.org/2000/svg"><g><g><path d="m454.331 504.5h-396.662c-27.707 0-50.168-22.461-50.168-50.168v-396.662c0-27.707 22.461-50.168 50.168-50.168h396.663c27.707 0 50.168 22.461 50.168 50.168v396.663c-.001 27.706-22.462 50.167-50.169 50.167z" fill="#f9f6f9"></path><path d="m87.601 504.498h-29.93c-27.71 0-50.17-22.46-50.17-50.17v-396.658c0-27.71 22.46-50.17 50.17-50.17h29.93c-27.71 0-50.17 22.46-50.17 50.17v396.658c0 27.71 22.46 50.17 50.17 50.17z" fill="#e7ecf6"></path><g><path d="m142.898 51.043-14.637 14.637-14.637-14.637c-14.294-14.294-37.469-14.294-51.763 0-14.294 14.294-14.294 37.469 0 51.763l14.637 14.637 51.763 51.763 51.763-51.763 14.637-14.637c14.294-14.294 14.294-37.469 0-51.763-14.294-14.294-37.469-14.294-51.763 0z" fill="#9dc6fb"></path></g><g><path d="m307.133 48.395-11.021 11.021-11.022-11.021c-10.763-10.763-28.213-10.763-38.976 0-10.763 10.763-10.763 28.213 0 38.976l11.021 11.021 38.976 38.976 38.976-38.976 11.021-11.021c10.763-10.763 10.763-28.213 0-38.976-10.763-10.763-28.213-10.763-38.975 0z" fill="#d57080"></path></g><g><path d="m424.346 44.85-6.182 6.182-6.182-6.182c-6.037-6.037-15.825-6.037-21.862 0-6.037 6.037-6.037 15.825 0 21.862l6.182 6.182 21.862 21.862 21.862-21.862 6.182-6.182c6.037-6.037 6.037-15.825 0-21.862-6.037-6.037-15.825-6.037-21.862 0z" fill="#f6e266"></path></g><g><path d="m195.932 193.576c6.898-11.948 20.459-17.642 33.28-15.117 4.223-12.366 15.935-21.263 29.731-21.263 13.797 0 25.508 8.897 29.731 21.263 12.821-2.526 26.382 3.168 33.28 15.117 6.898 11.948 5.049 26.539-3.549 36.38 8.598 9.841 10.447 24.431 3.549 36.38-6.898 11.948-20.459 17.642-33.28 15.117-4.223 12.366-15.935 21.263-29.731 21.263-13.797 0-25.508-8.897-29.731-21.263-12.821 2.526-26.382-3.168-33.28-15.117-6.898-11.948-5.049-26.539 3.549-36.38-8.598-9.841-10.447-24.431-3.549-36.38z" fill="#b3e59f"></path><circle cx="258.944" cy="229.956" fill="#f6e266" r="23.978"></circle></g><g><path d="m173.502 379.058c5.819-10.079 17.258-14.882 28.074-12.752 3.563-10.432 13.442-17.937 25.08-17.937 11.638 0 21.517 7.505 25.08 17.937 10.816-2.13 22.255 2.673 28.074 12.752 5.819 10.079 4.259 22.387-2.994 30.688 7.253 8.301 8.813 20.609 2.994 30.688-5.819 10.079-17.258 14.882-28.074 12.752-3.563 10.432-13.442 17.937-25.08 17.937-11.638 0-21.517-7.505-25.08-17.937-10.816 2.131-22.255-2.673-28.074-12.752-5.819-10.079-4.259-22.387 2.994-30.688-7.254-8.301-8.814-20.609-2.994-30.688z" fill="#d57080"></path><circle cx="226.656" cy="409.746" fill="#b3e59f" r="20.226"></circle></g><circle cx="418.164" cy="162.871" fill="#b3e59f" r="30.591"></circle><circle cx="418.164" cy="255.996" fill="#9dc6fb" r="30.591"></circle><g><circle cx="390.699" cy="389.52" fill="#f6e266" r="81.367"></circle></g><path d="m114.888 361.158 23.72 23.72c7.702 7.702 7.702 20.189 0 27.891l-23.72 23.72c-7.702 7.702-20.189 7.702-27.891 0l-23.72-23.72c-7.702-7.702-7.702-20.189 0-27.891l23.72-23.72c7.702-7.701 20.189-7.701 27.891 0z" fill="#9dc6fb"></path><path d="m114.111 212.013 31.752 31.752c10.31 10.31 10.31 27.026 0 37.336l-31.752 31.752c-10.31 10.31-27.026 10.31-37.336 0l-31.752-31.752c-10.31-10.31-10.31-27.026 0-37.336l31.752-31.752c10.31-10.31 27.026-10.31 37.336 0z" fill="#f6e266"></path></g><g><path d="m454.33 0h-328.89c-4.143 0-7.5 3.358-7.5 7.5s3.357 7.5 7.5 7.5h328.89c23.528 0 42.67 19.142 42.67 42.67v396.66c0 23.528-19.142 42.67-42.67 42.67h-396.66c-23.528 0-42.67-19.142-42.67-42.67v-396.66c0-23.528 19.142-42.67 42.67-42.67h37.77c4.143 0 7.5-3.358 7.5-7.5s-3.357-7.5-7.5-7.5h-37.77c-31.8 0-57.67 25.871-57.67 57.67v396.66c0 31.799 25.87 57.67 57.67 57.67h396.66c31.8 0 57.67-25.871 57.67-57.67v-396.66c0-31.799-25.87-57.67-57.67-57.67z"></path><path d="m118.928 45.74c-8.33-8.33-19.405-12.917-31.186-12.917s-22.855 4.587-31.185 12.917c-8.329 8.33-12.917 19.405-12.917 31.185s4.588 22.855 12.917 31.185l66.4 66.4c1.407 1.407 3.314 2.197 5.304 2.197s3.896-.79 5.304-2.197l66.4-66.4c8.329-8.33 12.917-19.405 12.917-31.185s-4.588-22.855-12.917-31.185c-8.33-8.33-19.405-12.917-31.186-12.917-11.779 0-22.854 4.588-31.185 12.917h.001l-9.335 9.334zm29.274 10.606c5.496-5.497 12.805-8.524 20.577-8.524 7.773 0 15.082 3.027 20.578 8.524 11.347 11.347 11.347 29.81.001 41.156l-61.097 61.098-61.097-61.098c-11.347-11.347-11.347-29.81 0-41.156 5.496-5.497 12.805-8.524 20.578-8.524s15.082 3.027 20.578 8.524l14.637 14.637c1.407 1.407 3.314 2.197 5.304 2.197s3.896-.79 5.304-2.197z"></path><path d="m326.62 32.823c-9.364 0-18.169 3.646-24.791 10.269l-5.718 5.718-5.718-5.718c-6.622-6.622-15.427-10.269-24.791-10.269-9.365 0-18.17 3.646-24.792 10.269-13.67 13.67-13.67 35.912 0 49.582l49.997 49.997c1.465 1.464 3.385 2.197 5.304 2.197s3.839-.732 5.304-2.197l49.997-49.997c13.67-13.67 13.67-35.912 0-49.582-6.622-6.623-15.427-10.269-24.792-10.269zm14.185 49.244-44.693 44.694-44.693-44.694c-7.821-7.821-7.821-20.548 0-28.369 3.91-3.911 9.047-5.866 14.185-5.866 5.137 0 10.273 1.955 14.184 5.866l11.021 11.021c2.93 2.929 7.678 2.929 10.607 0l11.021-11.021c7.821-7.822 20.549-7.82 28.368 0 7.821 7.821 7.821 20.548 0 28.369z"></path><path d="m451.512 39.547c-8.953-8.952-23.517-8.954-32.47 0l-.878.879-.879-.879c-4.337-4.336-10.103-6.725-16.235-6.725s-11.897 2.388-16.234 6.725c-4.336 4.336-6.724 10.102-6.724 16.234 0 6.133 2.388 11.898 6.725 16.235l28.044 28.044c1.465 1.464 3.385 2.197 5.304 2.197s3.839-.732 5.304-2.197l28.044-28.044c8.95-8.952 8.95-23.517-.001-32.469zm-10.608 21.863-22.74 22.741-22.741-22.741c-3.104-3.104-3.104-8.153 0-11.256 1.503-1.503 3.502-2.331 5.627-2.331 2.126 0 4.125.828 5.629 2.332l6.183 6.182c1.406 1.406 3.313 2.196 5.303 2.196s3.897-.791 5.304-2.197l6.182-6.182c3.103-3.104 8.154-3.103 11.255 0 3.102 3.103 3.102 8.152-.002 11.256z"></path><path d="m189.438 189.826c-7.286 12.619-6.842 28.066.727 40.13-7.568 12.063-8.013 27.511-.727 40.13 7.285 12.618 20.896 19.95 35.116 19.436 6.663 12.586 19.818 20.694 34.391 20.694 14.571 0 27.727-8.108 34.39-20.694 14.253.503 27.831-6.818 35.117-19.436 7.285-12.619 6.841-28.066-.728-40.13 7.568-12.064 8.013-27.511.728-40.13s-20.886-19.962-35.117-19.435c-6.663-12.586-19.818-20.695-34.39-20.695s-27.728 8.108-34.391 20.694c-14.221-.515-27.83 6.818-35.116 19.436zm46.873-8.943c3.306-9.682 12.401-16.187 22.634-16.187 10.231 0 19.327 6.505 22.634 16.188 1.214 3.551 4.862 5.663 8.547 4.934 10.043-1.975 20.22 2.647 25.336 11.508 5.115 8.86 4.03 19.99-2.702 27.695-2.469 2.826-2.469 7.043 0 9.869 6.732 7.705 7.817 18.835 2.702 27.695s-15.295 13.485-25.336 11.508c-3.684-.726-7.333 1.383-8.547 4.934-3.307 9.682-12.402 16.188-22.634 16.188s-19.328-6.505-22.634-16.187c-1.053-3.082-3.941-5.077-7.093-5.077-.48 0-.967.046-1.454.143-10.041 1.976-20.22-2.648-25.336-11.508-5.116-8.861-4.03-19.991 2.701-27.695 2.47-2.827 2.47-7.043 0-9.87-6.731-7.704-7.817-18.834-2.701-27.695 5.115-8.86 15.295-13.483 25.336-11.508 3.683.73 7.334-1.383 8.547-4.935z"></path><path d="m258.944 261.434c17.356 0 31.478-14.121 31.478-31.478s-14.121-31.478-31.478-31.478-31.478 14.121-31.478 31.478 14.122 31.478 31.478 31.478zm0-47.955c9.086 0 16.478 7.392 16.478 16.478s-7.392 16.478-16.478 16.478-16.478-7.392-16.478-16.478 7.392-16.478 16.478-16.478z"></path><path d="m286.305 375.308c-6.24-10.81-17.807-17.156-29.951-17-5.924-10.629-17.217-17.438-29.698-17.438s-23.774 6.809-29.698 17.438c-.171-.002-.342-.004-.513-.004-11.977 0-23.285 6.348-29.438 17.004-6.241 10.809-5.99 23.994.253 34.438-6.243 10.445-6.494 23.629-.253 34.438 6.241 10.81 17.833 17.174 29.95 17 5.924 10.63 17.217 17.439 29.698 17.439s23.774-6.809 29.698-17.439c12.13.182 23.711-6.191 29.951-17 6.241-10.809 5.99-23.994-.253-34.438 6.244-10.444 6.495-23.629.254-34.438zm-15.136 39.373c5.348 6.121 6.21 14.964 2.146 22.004-4.064 7.041-12.155 10.712-20.13 9.143-3.682-.726-7.333 1.383-8.547 4.935-2.627 7.692-9.854 12.861-17.982 12.861s-15.355-5.168-17.982-12.861c-1.053-3.082-3.941-5.077-7.093-5.077-.48 0-.968.046-1.455.143-7.976 1.569-16.063-2.104-20.128-9.143-4.064-7.04-3.202-15.883 2.146-22.004 2.47-2.826 2.47-7.043 0-9.869-5.348-6.121-6.21-14.964-2.146-22.004 4.063-7.04 12.153-10.713 20.129-9.144 3.684.727 7.334-1.382 8.547-4.935 2.627-7.692 9.854-12.86 17.982-12.86s15.355 5.168 17.982 12.86c1.214 3.552 4.864 5.661 8.547 4.935 7.977-1.569 16.065 2.104 20.13 9.144s3.202 15.883-2.146 22.004c-2.47 2.825-2.47 7.042 0 9.868z"></path><path d="m226.655 382.02c-15.288 0-27.727 12.438-27.727 27.727s12.438 27.727 27.727 27.727 27.727-12.438 27.727-27.727-12.439-27.727-27.727-27.727zm0 40.453c-7.018 0-12.727-5.709-12.727-12.727s5.709-12.727 12.727-12.727 12.727 5.709 12.727 12.727-5.709 12.727-12.727 12.727z"></path><path d="m418.164 124.78c-21.003 0-38.091 17.087-38.091 38.091s17.088 38.091 38.091 38.091 38.091-17.087 38.091-38.091-17.088-38.091-38.091-38.091zm0 61.182c-12.732 0-23.091-10.358-23.091-23.091s10.358-23.091 23.091-23.091 23.091 10.358 23.091 23.091-10.359 23.091-23.091 23.091z"></path><path d="m418.164 217.906c-21.003 0-38.091 17.087-38.091 38.09s17.088 38.091 38.091 38.091 38.091-17.087 38.091-38.091c0-21.003-17.088-38.09-38.091-38.09zm0 61.181c-12.732 0-23.091-10.358-23.091-23.091 0-12.732 10.358-23.09 23.091-23.09s23.091 10.358 23.091 23.09c0 12.733-10.359 23.091-23.091 23.091z"></path><path d="m301.83 389.52c0 49.003 39.867 88.87 88.87 88.87 12.529 0 24.64-2.555 35.993-7.595 3.786-1.681 5.492-6.112 3.812-9.898s-6.109-5.491-9.897-3.812c-9.425 4.184-19.487 6.305-29.907 6.305-40.732 0-73.87-33.138-73.87-73.87s33.138-73.87 73.87-73.87 73.87 33.138 73.87 73.87c0 19.671-7.647 38.184-21.535 52.127-2.923 2.935-2.913 7.684.021 10.606 2.935 2.922 7.683 2.914 10.607-.021 16.706-16.774 25.906-39.046 25.906-62.712 0-49.003-39.867-88.87-88.87-88.87s-88.87 39.867-88.87 88.87z"></path><path d="m347.75 390.836c-2.929 2.929-2.929 7.678 0 10.606 11.842 11.841 27.396 17.762 42.949 17.762s31.107-5.92 42.949-17.762c2.929-2.929 2.929-7.678 0-10.606-2.93-2.929-7.678-2.929-10.607 0-17.832 17.833-46.852 17.833-64.684 0-2.929-2.928-7.677-2.928-10.607 0z"></path><path d="m382.981 372.852v-24.161c0-4.142-3.357-7.5-7.5-7.5s-7.5 3.358-7.5 7.5v24.161c0 4.142 3.357 7.5 7.5 7.5s7.5-3.358 7.5-7.5z"></path><path d="m413.417 372.852v-24.161c0-4.142-3.357-7.5-7.5-7.5s-7.5 3.358-7.5 7.5v24.161c0 4.142 3.357 7.5 7.5 7.5s7.5-3.358 7.5-7.5z"></path><path d="m120.191 355.855c-5.142-5.142-11.978-7.973-19.249-7.973s-14.106 2.832-19.249 7.973l-23.719 23.72c-5.143 5.142-7.974 11.978-7.974 19.249s2.831 14.107 7.973 19.249l23.72 23.72c5.142 5.142 11.979 7.973 19.249 7.973 7.271 0 14.107-2.832 19.248-7.973l23.722-23.72c10.612-10.614 10.612-27.883 0-38.497zm13.115 51.611-23.722 23.72c-2.308 2.308-5.377 3.579-8.642 3.579s-6.333-1.271-8.642-3.58l-23.721-23.72c-2.308-2.309-3.579-5.377-3.579-8.642s1.271-6.333 3.58-8.642l23.719-23.72c2.309-2.309 5.378-3.58 8.643-3.58s6.334 1.271 8.642 3.58l23.721 23.72c4.765 4.766 4.765 12.52.001 17.285z"></path><path d="m151.166 238.462-31.752-31.752c-6.403-6.403-14.916-9.929-23.972-9.929-9.055 0-17.567 3.526-23.971 9.929l-31.753 31.752c-13.217 13.218-13.217 34.725 0 47.942l31.753 31.752c6.403 6.403 14.916 9.929 23.971 9.929 9.056 0 17.568-3.526 23.972-9.929l31.751-31.752c6.403-6.403 9.931-14.916 9.931-23.971s-3.528-17.568-9.93-23.971zm-10.607 37.336-31.752 31.752c-3.569 3.57-8.315 5.536-13.364 5.536-5.048 0-9.794-1.966-13.363-5.536l-31.753-31.752c-7.369-7.369-7.369-19.36 0-26.729l31.753-31.752c3.569-3.57 8.315-5.536 13.363-5.536 5.049 0 9.795 1.966 13.364 5.536l31.753 31.752c3.569 3.57 5.536 8.316 5.536 13.365s-1.967 9.794-5.537 13.364z"></path></g></g></svg>