<!-- icon666.com - MILLIONS OF FREE VECTOR ICONS --><svg viewBox="0 0 512.00027 512" xmlns="http://www.w3.org/2000/svg"><path d="m210.527344 301.472656c-9.296875-9.296875-24.375-9.296875-33.671875 0l-83.398438 83.402344v-55.75c0-13.152344-10.660156-23.8125-23.808593-23.8125-13.152344 0-23.8125 10.660156-23.8125 23.8125v103.367188l-31.363282 31.363281c-9.296875 9.296875-9.296875 24.375 0 33.671875s24.375 9.296875 33.671875 0l162.382813-162.382813c9.296875-9.296875 9.296875-24.375 0-33.671875zm0 0" fill="#ddaf89"></path><path d="m176.855469 301.472656-45.164063 45.164063c4.789063 5.933593 10.121094 11.886719 15.953125 17.71875s11.785157 11.160156 17.71875 15.953125l45.164063-45.164063c9.296875-9.296875 9.296875-24.375 0-33.671875s-24.375-9.296875-33.671875 0zm0 0" fill="#c9a07d"></path><path d="m131.191406 254.578125c-13.457031 13.453125 3.898438 52.617187 38.753906 87.476563 34.859376 34.859374 74.023438 52.210937 87.476563 38.757812l82.578125-82.578125-126.234375-126.234375zm0 0" fill="#f3e5b7"></path><path d="m257.421875 380.8125 82.578125-82.578125-17.621094-17.621094c-51.558594 57.398438-100.890625 74.898438-131.292968 80.09375 28.320312 21.890625 55.566406 30.875 66.335937 20.105469zm0 0" fill="#e8d8a5"></path><path d="m183.988281 279.875c6.191407-6.1875 4.90625-17.507812-2.863281-25.28125-7.773438-7.769531-19.089844-9.054688-25.28125-2.863281-6.1875 6.1875-4.90625 17.507812 2.867188 25.277343 7.773437 7.773438 19.089843 9.054688 25.277343 2.867188zm0 0" fill="#eb8d9a"></path><path d="m232.121094 328.015625c-6.1875 6.1875-4.90625 17.507813 2.867187 25.277344 7.773438 7.773437 19.089844 9.054687 25.277344 2.867187 6.191406-6.1875 4.90625-17.507812-2.863281-25.277344-7.773438-7.773437-19.089844-9.058593-25.28125-2.867187zm0 0" fill="#eb8d9a"></path><path d="m340 298.230469c13.453125-13.453125-3.902344-52.617188-38.757812-87.476563-34.859376-34.855468-74.023438-52.207031-87.476563-38.753906s3.898437 52.617188 38.757813 87.472656c34.859374 34.859375 74.019531 52.210938 87.476562 38.757813zm0 0" fill="#e8d8a5"></path><path d="m364.496094 147.503906c9.296875 9.296875 9.296875 24.371094 0 33.671875l-67.269532 67.269531c-5.628906 5.628907-17.34375 2.265626-26.640624-7.03125-9.300782-9.296874-12.660157-21.011718-7.03125-26.640624l67.269531-67.269532c9.300781-9.300781 24.375-9.300781 33.671875 0zm0 0" fill="#ddaf89"></path><path d="m330.824219 147.503906-39.140625 39.140625c4.792968 5.933594 10.121094 11.886719 15.953125 17.71875s11.785156 11.160157 17.71875 15.953125l39.140625-39.140625c9.300781-9.296875 9.300781-24.375 0-33.671875-9.296875-9.300781-24.371094-9.300781-33.671875 0zm0 0" fill="#c9a07d"></path><path d="m291.183594 94.582031c-13.453125 13.453125 3.898437 52.621094 38.757812 87.476563 34.855469 34.859375 74.019532 52.210937 87.472656 38.757812l82.578126-82.574218-126.234376-126.234376zm0 0" fill="#f3e5b7"></path><path d="m417.414062 220.816406 82.578126-82.574218-17.617188-17.621094c-51.558594 57.394531-100.890625 74.894531-131.292969 80.09375 28.320313 21.886718 55.566407 30.871094 66.332031 20.101562zm0 0" fill="#e8d8a5"></path><path d="m499.988281 138.238281c13.453125-13.453125-3.898437-52.617187-38.757812-87.476562-34.855469-34.859375-74.019531-52.210938-87.472657-38.757813-13.453124 13.453125 3.898438 52.617188 38.757813 87.476563 34.855469 34.859375 74.019531 52.210937 87.472656 38.757812zm0 0" fill="#e8d8a5"></path><path d="m505.589844 99.492188c-7.6875-17.347657-21.554688-36.535157-39.050782-54.03125-17.496093-17.496094-36.683593-31.363282-54.03125-39.046876-19.136718-8.480468-34.511718-8.539062-43.457031-.242187-.167969.136719-.328125.285156-.488281.433594-.035156.035156-.074219.066406-.105469.097656-.003906.003906-.007812.007813-.011719.011719l-21.242187 21.242187c-2.933594 2.929688-2.933594 7.679688-.003906 10.609375 1.464843 1.464844 3.386719 2.195313 5.304687 2.195313 1.921875 0 3.839844-.730469 5.304688-2.195313l4.820312-4.820312c1 5.234375 2.84375 10.933594 5.535156 17.011718 7.6875 17.34375 21.554688 36.53125 39.050782 54.03125 17.496094 17.496094 36.683594 31.363282 54.027344 39.046876 6.078124 2.691406 11.777343 4.535156 17.011718 5.535156l-66.140625 66.140625c-3.980469 3.980469-14.46875 2.902343-27.371093-2.8125-10.230469-4.535157-21.261719-11.546875-32.195313-20.367188-.113281-.097656-.230469-.191406-.347656-.28125-5.722657-4.636719-11.417969-9.757812-16.957031-15.292969-5.535157-5.539062-10.65625-11.230468-15.292969-16.957031-.089844-.117187-.183594-.230469-.28125-.347656-8.816407-10.933594-15.832031-21.964844-20.367188-32.195313-5.714843-12.902343-6.792969-23.390624-2.8125-27.367187l36.683594-36.683594c2.929687-2.929687 2.929687-7.679687 0-10.609375-2.929687-2.925781-7.679687-2.925781-10.609375 0l-36.683594 36.683594c-8.851562 8.855469-8.953125 24.5-.289062 44.054688 4.324218 9.761718 10.605468 20.105468 18.390625 30.40625l-21.070313 21.070312c-32.183594-24.367188-61.023437-31.539062-74.445312-18.113281l-82.578125 82.574219c-8.851563 8.855468-8.953125 24.5-.289063 44.054687 4.324219 9.761719 10.605469 20.105469 18.390625 30.40625l-43.03125 43.03125v-37.640625c.003907-8.367188-3.253906-16.230469-9.167969-22.144531-5.914062-5.910157-13.777343-9.167969-22.140624-9.167969-8.363282 0-16.226563 3.257812-22.140626 9.167969-5.914062 5.914062-9.171874 13.777343-9.167968 22.140625l-.003906 100.261718-29.164063 29.167969c-5.914063 5.914063-9.171875 13.777344-9.171875 22.140625 0 8.359375 3.257812 16.226563 9.171875 22.140625 6.105469 6.101563 14.121094 9.15625 22.136719 9.152344 8.019531 0 16.039062-3.050781 22.140625-9.152344l10.789062-10.789062c2.929688-2.929688 2.929688-7.679688 0-10.609375-2.929687-2.925782-7.679687-2.925782-10.605469 0l-10.789062 10.789062c-6.359375 6.359375-16.707031 6.359375-23.066406 0-3.078125-3.082031-4.773438-7.175781-4.773438-11.53125 0-4.355468 1.695313-8.453125 4.773438-11.53125l31.363281-31.363281c1.40625-1.40625 2.199219-3.3125 2.199219-5.304687v-103.367188c0-4.355469 1.695312-8.453125 4.777344-11.53125 3.078124-3.082031 7.175781-4.777344 11.53125-4.777344 4.355468 0 8.449218 1.695313 11.53125 4.777344 3.082031 3.078125 4.777343 7.175781 4.777343 11.53125v55.75c0 3.03125 1.824219 5.769531 4.628907 6.929688 2.804687 1.164062 6.027343.519531 8.171874-1.625l54.75-54.75c3.515626 4.035156 7.230469 8.027343 11.136719 11.929687 3.902344 3.90625 7.894531 7.617187 11.929688 11.132813l-97.800781 97.804687c-2.929688 2.929687-2.929688 7.675781 0 10.605469 1.460937 1.464844 3.382812 2.195312 5.300781 2.195312 1.921875 0 3.839843-.730468 5.304687-2.195312l98.886719-98.886719c10.300781 7.785156 20.644531 14.070313 30.40625 18.394531 9.667969 4.28125 18.378906 6.421875 25.789063 6.421875 7.574218 0 13.789062-2.238281 18.265624-6.714843l82.574219-82.578126c13.425781-13.421874 6.253907-42.261718-18.113281-74.445312l21.074219-21.074219c10.296875 7.785157 20.644531 14.070313 30.40625 18.394531 9.667969 4.285157 18.378906 6.425782 25.785156 6.425782 7.578125 0 13.789063-2.242188 18.265625-6.71875l82.578125-82.574219c.191406-.191406.367187-.390625.535156-.597656 8.292969-8.949219 8.234375-24.324219-.242187-43.457031zm-253.472656 276.015624c-3.976563 3.976563-14.464844 2.898438-27.367188-2.816406-10.234375-4.535156-21.265625-11.550781-32.203125-20.371094-.109375-.09375-.222656-.183593-.335937-.269531-5.726563-4.640625-11.421876-9.761719-16.960938-15.300781-5.535156-5.535156-10.660156-11.234375-15.296875-16.957031-.089844-.117188-.179687-.230469-.277344-.339844-8.820312-10.9375-15.835937-21.96875-20.367187-32.199219-5.71875-12.902344-6.792969-23.390625-2.816406-27.371094l66.140624-66.140624c1 5.234374 2.84375 10.933593 5.535157 17.011718 7.6875 17.34375 21.554687 36.53125 39.050781 54.027344s36.683594 31.363281 54.027344 39.050781c6.078125 2.691407 11.777344 4.535157 17.011718 5.535157zm82.503906-102.90625c3.195312 9.578126 3.226562 17.179688.074218 20.328126-3.980468 3.980468-14.46875 2.902343-27.371093-2.8125-15.695313-6.957032-33.273438-19.722657-49.496094-35.941407-35.292969-35.292969-46.527344-69.101562-38.757813-76.871093 3.148438-3.148438 10.75-3.121094 20.328126.074218 9.785156 3.265625 21.222656 9.625 32.789062 18.15625l-13.9375 13.933594c-4.609375 4.613281-6.074219 11.613281-4.019531 19.210938 1.675781 6.183593 5.601562 12.589843 11.050781 18.039062s11.855469 9.375 18.039062 11.050781c2.253907.609375 4.457032.910157 6.558594.910157 4.984375 0 9.40625-1.6875 12.652344-4.929688l13.933594-13.9375c8.53125 11.566406 14.890625 23.003906 18.15625 32.789062zm-42.699219-29.460937c-.675781.675781-2.511719.734375-4.679687.148437-3.640626-.988281-7.777344-3.605468-11.355469-7.179687-3.574219-3.574219-6.1875-7.710937-7.175781-11.351563-.585938-2.167968-.527344-4.003906.148437-4.679687l44.644531-44.648437c3.515625 4.035156 7.226563 8.027343 11.132813 11.933593s7.894531 7.617188 11.929687 11.132813zm202.765625-110.203125c-3.980469 3.976562-14.464844 2.898438-27.367188-2.816406-15.699218-6.953125-33.277343-19.71875-49.5-35.941406-35.289062-35.289063-46.527343-69.097657-38.757812-76.867188 1.59375-1.589844 4.226562-2.375 7.640625-2.375 5.117187 0 11.988281 1.761719 19.730469 5.191406 15.695312 6.953125 33.277344 19.71875 49.496094 35.941406 35.292968 35.289063 46.527343 69.097657 38.757812 76.867188zm-305.722656 119.617188-4.972656 4.96875c-2.929688 2.929687-2.925782 7.679687.003906 10.609374 1.464844 1.460938 3.382812 2.195313 5.300781 2.195313 1.921875 0 3.839844-.734375 5.304687-2.199219l4.96875-4.96875c2.929688-2.929687 2.929688-7.679687 0-10.605468-2.929687-2.929688-7.679687-2.929688-10.605468 0zm37.429687 40.839843c-2.109375.148438-4.179687-.625-5.671875-2.117187-1.492187-1.488282-2.261718-3.558594-2.117187-5.671875.285156-4.132813-2.835938-7.710938-6.96875-7.996094-4.125-.269531-7.714844 2.835937-8 6.96875-.441407 6.441406 1.921875 12.75 6.480469 17.308594 4.195312 4.195312 9.871093 6.527343 15.773437 6.527343.507813 0 1.019531-.015624 1.53125-.050781 4.132813-.285156 7.253906-3.863281 6.96875-7.996093-.285156-4.132813-3.871094-7.261719-7.996094-6.972657zm22.445313 19.035157-4.96875 4.96875c-2.929688 2.929687-2.929688 7.679687-.003906 10.609374 1.464843 1.464844 3.386718 2.195313 5.304687 2.195313 1.921875 0 3.839844-.730469 5.304687-2.195313l4.96875-4.96875c2.929688-2.929687 2.929688-7.679687 0-10.609374-2.925781-2.929688-7.675781-2.929688-10.605468 0zm0 0"></path></svg>