<!-- icon666.com - MILLIONS OF FREE VECTOR ICONS --><svg id="Capa_1" enable-background="new 0 0 512 512" viewBox="0 0 512 512" xmlns="http://www.w3.org/2000/svg"><g><path d="m262.006 177.5c22.113 0 40.501-42.533 44.286-98.594.781-11.571-8.359-21.406-19.956-21.406h-48.66c-11.597 0-20.737 9.835-19.956 21.406 3.786 56.06 22.173 98.594 44.286 98.594z" fill="#d4d4d5"></path><g><path d="m298.414 127.999c-11.785-2.287-23.954-3.499-36.408-3.499-104.934 0-190 85.066-190 190s85.066 190 190 190c45.598 0 87.439-16.069 120.185-42.845 42.611-34.843 69.815-87.819 69.815-147.155 0-92.48-66.077-169.515-153.592-186.501z" fill="#ff8e9e"></path><path d="m251.128 364.816c-43.599-81.499-21.775-180.542 47.286-236.817-11.785-2.287-23.954-3.499-36.408-3.499-75.854 0-141.327 44.451-171.789 108.726-11.678 24.64-18.211 52.194-18.211 81.274 0 104.934 85.066 190 190 190 45.598 0 87.439-16.069 120.185-42.845-54.043-10.603-103.058-44.49-131.063-96.839z" fill="#ea5b70"></path></g><g><ellipse cx="182.45" cy="288.767" fill="#ff8e9e" rx="29.355" ry="23.376"></ellipse><ellipse cx="341.563" cy="288.767" fill="#ffb5c0" rx="29.355" ry="23.376"></ellipse></g><g fill="#fce3a0"><path d="m108.402 240.931c-5.576-3.413-11.69-6.033-18.184-7.705-1.672-6.494-4.292-12.608-7.704-18.184-4.155-6.79-13.884-6.79-18.039 0-3.412 5.577-6.033 11.69-7.705 18.185-6.494 1.672-12.608 4.292-18.184 7.705-6.789 4.155-6.789 13.883 0 18.038 5.576 3.413 11.69 6.033 18.184 7.706 1.672 6.494 4.292 12.607 7.705 18.184 4.155 6.789 13.884 6.789 18.038 0 3.413-5.576 6.033-11.69 7.705-18.184 6.495-1.672 12.608-4.293 18.184-7.706 6.789-4.156 6.789-13.885 0-18.039z"></path><path d="m218.187 400.236c-4.182-2.559-8.768-4.524-13.638-5.778-1.254-4.871-3.219-9.456-5.778-13.639-3.116-5.092-10.413-5.092-13.529 0-2.559 4.182-4.524 8.768-5.778 13.639-4.871 1.253-9.456 3.219-13.638 5.778-5.092 3.116-5.092 10.413 0 13.529 4.182 2.56 8.768 4.525 13.638 5.779 1.254 4.871 3.219 9.456 5.778 13.638 3.117 5.092 10.413 5.092 13.529 0 2.56-4.182 4.524-8.768 5.778-13.638 4.871-1.254 9.456-3.219 13.638-5.779 5.092-3.117 5.092-10.413 0-13.529z"></path><path d="m371.202 188.992c4.182 2.56 8.768 4.525 13.638 5.779 1.254 4.87 3.219 9.456 5.779 13.638 3.116 5.092 10.413 5.092 13.529 0 2.559-4.182 4.429-8.404 5.683-13.275 4.871-1.254 9.551-3.583 13.733-6.142 5.092-3.116 5.092-10.412 0-13.529-4.182-2.559-8.768-4.524-13.638-5.778-1.254-4.871-3.219-9.456-5.778-13.639-3.116-5.092-10.413-5.092-13.529 0-2.56 4.183-4.497 8.658-5.75 13.529-4.871 1.253-9.484 3.328-13.667 5.887-5.092 3.118-5.092 10.414 0 13.53z"></path><path d="m472.237 385.145c-6.865-4.202-14.393-7.428-22.389-9.486-2.059-7.996-5.285-15.524-9.486-22.39-5.116-8.359-17.095-8.359-22.21 0-4.202 6.866-7.428 14.394-9.487 22.39-7.996 2.058-15.522 5.284-22.389 9.486-8.359 5.116-8.359 17.094 0 22.21 6.865 4.202 14.393 7.428 22.39 9.487 2.059 7.996 5.284 15.523 9.486 22.389 5.115 8.359 17.094 8.359 22.21 0 4.201-6.866 7.427-14.393 9.486-22.389 7.996-2.059 15.523-5.285 22.389-9.487 8.359-5.116 8.359-17.094 0-22.21z"></path></g><g><path d="m207.058 266.356v-12c0-4.143-3.358-7.5-7.5-7.5s-7.5 3.357-7.5 7.5v12c0 4.143 3.358 7.5 7.5 7.5s7.5-3.357 7.5-7.5z"></path><path d="m316.955 254.356v12c0 4.143 3.358 7.5 7.5 7.5s7.5-3.357 7.5-7.5v-12c0-4.143-3.358-7.5-7.5-7.5s-7.5 3.358-7.5 7.5z"></path><path d="m272.816 261.071c-2.729 3.133-6.669 4.929-10.81 4.929s-8.081-1.796-10.81-4.929c-2.722-3.122-7.459-3.447-10.582-.727-3.123 2.722-3.448 7.459-.727 10.582 5.579 6.401 13.641 10.073 22.119 10.073s16.54-3.672 22.119-10.073c2.721-3.123 2.396-7.86-.727-10.582-3.123-2.721-7.86-2.396-10.582.727z"></path><path d="m476.152 378.747c-6.358-3.891-13.148-6.963-20.235-9.161-.708-2.271-1.512-4.528-2.405-6.753 14.465-57.474 2.253-117.569-31.666-164.314 1.836-.917 3.709-1.952 5.635-3.13 9.88-6.048 9.863-20.285-.002-26.323-3.641-2.228-7.503-4.038-11.527-5.404-1.366-4.024-3.177-7.887-5.405-11.528-6.044-9.882-20.29-9.862-26.324-.001-1.018 1.664-1.936 3.375-2.775 5.116-21.934-16.669-47.164-28.605-73.874-34.928 4.755-20.397 6.267-41.334 6.267-44.793 0-14.187-10.779-25.899-24.57-27.369 3.307-5.088 5.237-11.15 5.237-17.658 0-17.921-14.58-32.5-32.5-32.5s-32.5 14.579-32.5 32.5c0 6.508 1.93 12.57 5.237 17.658-13.791 1.47-24.57 13.182-24.57 27.368 0 1.704.381 6.194.528 7.891.36 4.127 4.001 7.188 8.124 6.82 4.126-.36 7.18-3.997 6.82-8.123-.087-1-.472-5.564-.472-6.588 0-6.907 5.609-12.526 12.503-12.526h48.66c6.894 0 12.503 5.62 12.503 12.527 0 1.01-1.11 21.089-5.993 41.896-20.543-3.225-41.219-3.231-61.694-.013-.496-2.113-.969-4.266-1.411-6.45-.823-4.059-4.78-6.678-8.84-5.86-4.06.823-6.684 4.78-5.861 8.84.435 2.148.901 4.267 1.387 6.357-52.78 12.473-97.991 46.253-125.169 92.961-.738-1.399-1.518-2.777-2.346-4.131-7.085-11.58-23.756-11.561-30.834-.001-3.092 5.053-5.559 10.434-7.361 16.046-5.615 1.803-10.996 4.271-16.044 7.36-11.58 7.087-11.559 23.76-.001 30.832 5.051 3.092 10.432 5.56 16.046 7.362 2.54 7.907 7.302 19.104 14.697 22.811-11.119 116.644 80.857 216.462 196.589 216.462 23.38 0 46.267-4.049 68.026-12.034 3.888-1.428 5.884-5.736 4.457-9.625-1.427-3.888-5.733-5.882-9.625-4.457-20.098 7.376-41.246 11.116-62.858 11.116-106.983 0-192.44-92.486-181.566-200.94 8.294-3.457 13.081-14.772 15.831-23.332 11.964-3.841 24.842-9.982 24.842-22.503 0-9.088-6.819-16.268-20.255-21.423 31.511-59.076 93.844-96.802 161.148-96.802 38.967 0 76.624 12.338 108.065 35.459-.935.508-1.864 1.043-2.785 1.607-9.877 6.048-9.862 20.283-.001 26.321.001.001.001.001.002.002 3.644 2.229 7.506 4.04 11.529 5.406 1.366 4.023 3.177 7.887 5.405 11.527 2.837 4.637 7.758 7.405 13.163 7.405 5.406 0 10.326-2.769 13.161-7.405.431-.704.824-1.403 1.216-2.104 26.645 38.276 38.12 86.184 30.356 133.833-9.393-7.625-23.717-5.553-30.362 5.302-3.89 6.354-6.962 13.143-9.162 20.232-7.085 2.197-13.873 5.27-20.233 9.161-13.148 8.05-13.128 26.966.001 35.005 6.358 3.891 13.148 6.964 20.237 9.162.578 1.855 1.228 3.7 1.932 5.528-14.581 18.214-32.554 33.673-53.52 45.412-3.614 2.023-4.903 6.594-2.88 10.208 2.025 3.618 6.6 4.901 10.208 2.88 20.22-11.322 38.275-26.088 53.452-43.744 8.076 13.107 26.949 13.045 34.969-.054 3.889-6.355 6.961-13.144 9.16-20.232 7.087-2.198 13.876-5.271 20.233-9.161 13.153-8.05 13.125-26.971 0-35.003zm-214.146-363.747c9.649 0 17.5 7.851 17.5 17.5s-7.851 17.5-17.5 17.5-17.5-7.851-17.5-17.5 7.851-17.5 17.5-17.5zm-155.893 235.225c0 .761-.875 1.887-1.625 2.347-5.025 3.075-10.455 5.376-16.14 6.839-2.646.682-4.712 2.748-5.394 5.394-1.464 5.687-3.765 11.116-6.839 16.139-1.224 2-4.012 2.013-5.244 0-3.074-5.022-5.375-10.452-6.84-16.14-.681-2.646-2.747-4.711-5.393-5.392-5.686-1.465-11.116-3.766-16.139-6.84-2.014-1.232-2.015-4.01.001-5.244 5.02-3.072 10.45-5.373 16.138-6.838 2.646-.681 4.712-2.747 5.394-5.393 1.463-5.685 3.765-11.115 6.838-16.139 1.234-2.014 4.012-2.018 5.246-.001 3.074 5.022 5.375 10.452 6.838 16.14.68 2.639 2.802 4.685 5.3 5.368 14.578 3.953 17.859 8.484 17.859 9.76zm290.903-45.731c-2.208-3.608-3.861-7.509-4.913-11.593-.681-2.646-2.747-4.712-5.393-5.394-4.082-1.051-7.982-2.703-11.592-4.912-.318-.193-.323-.541-.004-.734 3.8-2.324 7.708-4.014 11.573-5.009 6.848-1.759 4.057-6.645 10.329-16.893.191-.314.538-.317.733.002 2.208 3.608 3.861 7.509 4.912 11.594.682 2.646 2.748 4.712 5.394 5.393 4.085 1.053 7.986 2.705 11.592 4.911.319.194.321.54.001.736-11.217 6.862-15.472 4.358-17.084 10.678-1.019 3.951-2.548 7.518-4.815 11.224-.194.316-.54.315-.733-.003zm71.306 196.464c-6.331 3.875-13.176 6.775-20.344 8.621-7.504 1.931-3.587 8.701-14.013 25.735-2.192 3.582-7.226 3.579-9.417 0-10.371-16.94-6.466-23.792-14.013-25.736-7.168-1.845-14.013-4.745-20.344-8.619-3.58-2.191-3.581-7.226-.002-9.417 6.335-3.876 13.18-6.775 20.344-8.619 2.646-.682 4.712-2.747 5.394-5.393 1.848-7.172 4.748-14.018 8.621-20.345 2.191-3.58 7.226-3.581 9.416-.001 1.785 2.917 3.398 6.024 4.793 9.236 1.575 3.623 2.863 7.36 3.828 11.108.681 2.646 2.747 4.712 5.394 5.394 7.166 1.844 14.011 4.744 20.343 8.619 3.581 2.192 3.578 7.228 0 9.417z"></path><path d="m178.845 376.904c-2.229 3.642-4.039 7.505-5.406 11.528-4.022 1.366-7.885 3.177-11.527 5.405-9.88 6.045-9.867 20.293-.001 26.324 3.641 2.229 7.504 4.039 11.528 5.405 1.367 4.023 3.177 7.887 5.407 11.53 6.048 9.878 20.283 9.861 26.323-.001 2.229-3.643 4.039-7.505 5.406-11.529 4.024-1.366 7.887-3.177 11.527-5.405 9.883-6.047 9.863-20.292 0-26.324-3.643-2.229-7.506-4.039-11.528-5.405-1.367-4.023-3.177-7.887-5.406-11.528-6.047-9.881-20.285-9.863-26.323 0zm18.441 19.424c.681 2.646 2.748 4.713 5.395 5.394 4.082 1.05 7.982 2.702 11.593 4.911 0 .001.001.001.001.001 1.895 1.168-9.449 5.093-11.595 5.646-2.646.682-4.712 2.748-5.394 5.394-.697 2.709-4.549 13.389-5.647 11.595-2.208-3.61-3.861-7.511-4.913-11.595-.681-2.646-2.748-4.712-5.394-5.393-2.672-.688-13.401-4.547-11.593-5.647 3.61-2.209 7.51-3.861 11.592-4.911 2.646-.681 4.713-2.747 5.395-5.394 1.035-4.022 4.279-11.828 5.28-11.828 1-.001 4.243 7.796 5.28 11.827z"></path></g></g></svg>