<!-- icon666.com - MILLIONS OF FREE VECTOR ICONS --><svg id="Capa_1" enable-background="new 0 0 512 512" viewBox="0 0 512 512" xmlns="http://www.w3.org/2000/svg"><g><g><g><g><path d="m504.5 112.5v260l-70 30.96c-178.5 13.408-242.5-178.96-265.6-302.85 111.28-13.66 226.77-9.69 335.6 11.89z" fill="#fff8e6"></path><path d="m434.5 393.46c9.56 10.665 5.166 17.988 0 49.04h-310c-16.57 0-30-13.43-30-30v-300c24.5-4.86 49.34-8.83 74.4-11.89 34.44 4.23 62.31 8.36 62.31 8.36 0 145.11 69.02 241.12 203.29 284.49z" fill="#ffeab7"></path></g><path d="m504.5 372.5-70 70v-50c0-11.046 8.954-20 20-20z" fill="#ffbe73"></path><g><g><path d="m252.249 193.578c.007 13.438-13.667 24.338-30.541 24.346s-30.559-10.878-30.566-24.315c-.007-13.438 13.667-24.338 30.541-24.347 16.874-.008 30.559 10.878 30.566 24.316z" fill="#ffa1ac"></path><path d="m356.751 193.526c.007 13.438 13.691 24.324 30.566 24.315 16.874-.008 30.548-10.908 30.541-24.346s-13.691-24.325-30.566-24.316c-16.874.008-30.548 10.909-30.541 24.347z" fill="#ffa1ac"></path><path d="m334.444 182.537c-.009-18.509-13.419-20.242-29.96-20.233-16.54.008-29.949 1.754-29.939 20.263.009 18.509 13.426 33.506 29.966 33.498 16.541-.008 29.942-15.019 29.933-33.528z" fill="#666667"></path></g></g><g><path d="m504.5 72.5v40h-152.16c-50.521-8.902-83.131-31.985-53.26-70h175.42c16.57 0 30 13.43 30 30z" fill="#93bce8"></path><path d="m352.345 112.5h-257.845v-40c0-16.569 13.431-30 30-30h174.576c.191 36.896 16.977 60.569 53.269 70z" fill="#7fb0e4"></path></g><g><path d="m212 60v-35c0-9.665-7.835-17.5-17.5-17.5-9.665 0-17.5 7.835-17.5 17.5v35c0 9.665 7.835 17.5 17.5 17.5 9.665 0 17.5-7.835 17.5-17.5z" fill="#a8e1f6"></path><path d="m422 60v-35c0-9.665-7.835-17.5-17.5-17.5-9.665 0-17.5 7.835-17.5 17.5v35c0 9.665 7.835 17.5 17.5 17.5 9.665 0 17.5-7.835 17.5-17.5z" fill="#c2eafb"></path><path d="m352 60v-35c0-9.665-7.835-17.5-17.5-17.5-9.665 0-17.5 7.835-17.5 17.5v35c0 9.665 7.835 17.5 17.5 17.5 9.665 0 17.5-7.835 17.5-17.5z" fill="#c2eafb"></path><path d="m282 60v-35c0-9.665-7.835-17.5-17.5-17.5-9.665 0-17.5 7.835-17.5 17.5v35c0 9.665 7.835 17.5 17.5 17.5 9.665 0 17.5-7.835 17.5-17.5z" fill="#a8e1f6"></path></g></g><g><path d="m117.5 198.37v32.5c-26.667 12.84-53.333 12.84-80 0v-32.5c0-16.57 13.43-30 30-30h20c16.57 0 30 13.43 30 30z" fill="#a8e1f6"></path><path d="m117.5 230.87v103.88c-54.97 6.069-79.703-36.226-80-94.25v-9.63z" fill="#ffa1ac"></path><path d="m117.5 334.75v29.62c-24.79 21.22-51.34 22.51-80 0v-123.87c2.21 49.69 29.34 81.54 80 94.25z" fill="#ff8a98"></path><path d="m90.496 430.272 27.004 19.096-31.521 50.432c-3.917 6.267-13.043 6.267-16.96 0l-31.519-50.432 18.512-23.907z" fill="#a8e1f6"></path><path d="m37.5 364.368h80v85h-80z" fill="#7fb0e4"></path></g></g><g><g><path d="m409.5 255.085h-210c-4.143 0-7.5-3.357-7.5-7.5s3.357-7.5 7.5-7.5h210c4.143 0 7.5 3.357 7.5 7.5s-3.357 7.5-7.5 7.5z"></path><path d="m409.5 295.085h-210c-4.143 0-7.5-3.357-7.5-7.5s3.357-7.5 7.5-7.5h210c4.143 0 7.5 3.357 7.5 7.5s-3.357 7.5-7.5 7.5z"></path><path d="m409.5 335.085h-210c-4.143 0-7.5-3.357-7.5-7.5s3.357-7.5 7.5-7.5h210c4.143 0 7.5 3.357 7.5 7.5s-3.357 7.5-7.5 7.5z"></path><path d="m409.5 375.085h-92.4c-4.143 0-7.5-3.357-7.5-7.5s3.357-7.5 7.5-7.5h92.4c4.143 0 7.5 3.357 7.5 7.5s-3.357 7.5-7.5 7.5z"></path><path d="m283.5 375.085h-84c-4.143 0-7.5-3.357-7.5-7.5s3.357-7.5 7.5-7.5h84c4.143 0 7.5 3.357 7.5 7.5s-3.357 7.5-7.5 7.5z"></path></g><g><path d="m304.497 223.565c-10.157 0-19.659-4.369-26.758-12.305-6.891-7.703-10.688-17.892-10.694-28.689-.013-27.748 25.28-27.761 37.436-27.768h.541c12.348 0 36.909.387 36.922 27.729.012 22.614-16.778 41.021-37.428 41.032-.006.001-.013.001-.019.001zm.107-53.761c-.039 0-.077 0-.116 0-19.354.011-22.448 3.039-22.443 12.76.004 7.105 2.445 13.745 6.874 18.696 4.215 4.712 9.747 7.306 15.578 7.306h.011c12.379-.007 22.443-11.681 22.436-26.024-.006-10.965-5.314-12.738-22.34-12.738z"></path><path d="m224.946 174.615c-4.141 0-7.498-3.355-7.5-7.496-.003-5.888 2.287-11.424 6.448-15.59 4.161-4.165 9.695-6.461 15.583-6.464h.012c5.883 0 11.415 2.29 15.578 6.448 4.165 4.161 6.461 9.695 6.464 15.583.002 4.143-3.354 7.502-7.496 7.504-.001 0-.003 0-.004 0-4.141 0-7.498-3.355-7.5-7.496-.001-1.881-.734-3.649-2.065-4.979-1.33-1.329-3.098-2.061-4.978-2.061-.001 0-.002 0-.003 0-1.882.001-3.649.734-4.979 2.065-1.33 1.33-2.062 3.1-2.061 4.98.002 4.143-3.354 7.502-7.496 7.504 0 .002-.002.002-.003.002z"></path><path d="m354.942 174.55c-4.141 0-7.498-3.355-7.5-7.496-.003-5.888 2.287-11.424 6.448-15.59 4.161-4.165 9.695-6.461 15.583-6.464h.012c5.883 0 11.415 2.29 15.578 6.448 4.165 4.161 6.461 9.695 6.464 15.583.002 4.143-3.354 7.502-7.496 7.504-.001 0-.003 0-.004 0-4.141 0-7.498-3.355-7.5-7.496-.001-1.881-.734-3.649-2.065-4.979-1.33-1.329-3.098-2.061-4.978-2.061-.001 0-.002 0-.003 0-1.882.001-3.649.734-4.979 2.065-1.33 1.33-2.062 3.1-2.061 4.98.002 4.143-3.354 7.502-7.496 7.504 0 .002-.002.002-.003.002z"></path></g><path d="m504.5 288.37c4.143 0 7.5-3.357 7.5-7.5v-208.37c0-20.678-16.822-37.5-37.5-37.5h-45v-10c0-13.785-11.215-25-25-25s-25 11.215-25 25v10h-20v-10c0-13.785-11.215-25-25-25s-25 11.215-25 25v10h-20v-10c0-13.785-11.215-25-25-25s-25 11.215-25 25v10h-20v-10c0-13.785-11.215-25-25-25s-25 11.215-25 25v10h-45c-20.678 0-37.5 16.822-37.5 37.5v88.367h-19.5c-20.678 0-37.5 16.822-37.5 37.5v45.754c-17.096 3.484-30 18.636-30 36.746v65c0 4.143 3.357 7.5 7.5 7.5s7.5-3.357 7.5-7.5v-65c0-9.778 6.27-18.119 15-21.215v32.418c0 4.143 3.357 7.5 7.5 7.5s7.5-3.357 7.5-7.5v-53.7h65v118.495h-65v-29.795c0-4.143-3.357-7.5-7.5-7.5s-7.5 3.357-7.5 7.5v122.295c0 1.461.418 2.823 1.14 3.976l31.521 50.433c3.221 5.151 8.768 8.226 14.839 8.226s11.618-3.075 14.841-8.228l31.52-50.431c.616-.984 1.011-2.121 1.113-3.341h309.526c1.989 0 3.896-.79 5.304-2.196l70-70c1.406-1.407 2.196-3.314 2.196-5.304v-56.63c0-4.143-3.357-7.5-7.5-7.5s-7.5 3.357-7.5 7.5v49.13h-42.5c-15.163 0-27.5 12.337-27.5 27.5v42.5h-302v-236.633c0-15.54-9.501-28.902-23-34.583v-43.784h119.99c4.143 0 7.5-3.357 7.5-7.5s-3.357-7.5-7.5-7.5h-119.99v-32.5c0-12.406 10.094-22.5 22.5-22.5h45v10c0 13.785 11.215 25 25 25s25-11.215 25-25v-10h20v10c0 13.785 11.215 25 25 25s25-11.215 25-25v-10h20v10c0 13.785 11.215 25 25 25s25-11.215 25-25v-10h20v10c0 13.785 11.215 25 25 25s25-11.215 25-25v-10h45c12.406 0 22.5 10.094 22.5 22.5v32.5h-240.01c-4.143 0-7.5 3.357-7.5 7.5s3.357 7.5 7.5 7.5h240.01v160.87c0 4.143 3.357 7.5 7.5 7.5zm-62.5 104.13c0-6.893 5.607-12.5 12.5-12.5h31.894l-44.394 44.394zm-362.378 103.321c-.642 1.026-1.605 1.179-2.122 1.179s-1.48-.153-2.12-1.177l-24.349-38.958h52.938zm30.378-53.956h-65v-70h65zm0-243.498v25.003h-65v-25.003c0-12.406 10.094-22.5 22.5-22.5h20c12.406 0 22.5 10.094 22.5 22.5zm94.5-138.367c0 5.514-4.486 10-10 10s-10-4.486-10-10v-35c0-5.514 4.486-10 10-10s10 4.486 10 10zm70 0c0 5.514-4.486 10-10 10s-10-4.486-10-10v-35c0-5.514 4.486-10 10-10s10 4.486 10 10zm70 0c0 5.514-4.486 10-10 10s-10-4.486-10-10v-35c0-5.514 4.486-10 10-10s10 4.486 10 10zm70 0c0 5.514-4.486 10-10 10s-10-4.486-10-10v-35c0-5.514 4.486-10 10-10s10 4.486 10 10z"></path></g></g><g></g><g></g><g></g><g></g><g></g><g></g><g></g><g></g><g></g><g></g><g></g><g></g><g></g><g></g><g></g></svg>