<!-- icon666.com - MILLIONS OF FREE VECTOR ICONS --><svg id="Capa_1" enable-background="new 0 0 512.011 512.011" viewBox="0 0 512.011 512.011" xmlns="http://www.w3.org/2000/svg"><g><g><path d="m76.003 271.011c-41.353 0-76-33.647-76-75v-90c0-8.291 6.709-15 15-15 41.353 0 76 33.647 76 75v90c0 8.291-6.709 15-15 15z" fill="#ff73b9"></path></g><path d="m61.829 371.267-30.925 63.843c13.198 8.701 32.199 18.9 53.798 28.801l31.388-67.343-18.347-38.555z" fill="#7c7380"></path><path d="m388.491 367.704-34.221-10.242-17.946 40.361 36.779 63.688c21.899-10.199 39.901-20.999 52.5-29.399z" fill="#5f5266"></path><g><path d="m467.003 241.011c24.901 0 45-20.099 45-45l-35.93-30-54.07 30c0 24.901 20.1 45 45 45z" fill="#d9e5ff"></path></g><g><path d="m455.123 93.809c-2.856 0-5.742-.82-8.306-2.52-6.899-4.6-8.76-13.901-4.16-20.801l41.865-63.798c4.57-6.899 13.872-8.774 20.801-4.16 6.899 4.6 8.76 13.901 4.16 20.801l-41.865 63.799c-2.885 4.335-7.646 6.679-12.495 6.679z" fill="#ffbe40"></path></g><path d="m452.003 61.011h-30v-45.808c0-5.101-2.401-9.6-6.301-12.301-3.9-2.999-9.3-3.6-13.799-2.1-23.701 8.701-39.901 34.711-39.901 60.21l-60 120-30 45h-46-45l-30-45c-49.501 0-90 40.499-90 90 0 21 7.5 41.4 20.7 57.599l-19.874 42.656 54.261 25.302 17.512-37.357.3.3c5.4.899 11.1 1.5 17.1 1.5h75 76c4.2 0 8.401-.3 12.599-.901l21.722 37.712 52.167-30.119-20.488-35.493c15.3-16.5 24-38.399 24-61.199 0-8.101-1.199-15.901-2.999-23.699l32.999-51.301h90v-75c.002-33-26.998-60.001-59.998-60.001z" fill="#ecf2ff"></path><path d="m314.603 360.111 21.722 37.712 52.167-30.119-20.488-35.493c15.3-16.5 24-38.399 24-61.199 0-8.101-1.199-15.901-2.999-23.699l32.999-51.301h90v-75c0-32.999-27.001-60-60-60h-30v-45.809c0-5.101-2.401-9.6-6.301-12.301-3.9-2.999-9.3-3.6-13.799-2.1-23.701 8.701-39.901 34.711-39.901 60.21l-60 120-30 45h-46v135h76c4.201-.001 8.401-.301 12.6-.901z" fill="#d9e5ff"></path><g><circle cx="437.003" cy="136.011" fill="#45364d" r="15"></circle></g><g><path d="m226.003 181.011h-75v75c0 8.291 6.709 15 15 15h60 61c8.291 0 15-6.709 15-15v-75z" fill="#ff73b9"></path><path d="m302.003 256.011v-75h-76v90h61c8.291 0 15-6.709 15-15z" fill="#f25588"></path><path d="m448.737 411.666c-5.156-6.445-14.561-7.559-21.079-2.388-.894.718-92.538 72.733-201.654 72.733s-200.762-72.015-201.655-72.733c-6.489-5.171-15.923-4.058-21.079 2.388-5.156 6.489-4.087 15.908 2.373 21.064 4.014 3.208 100.507 79.281 220.36 79.281s216.347-76.073 220.36-79.281c6.461-5.156 7.53-14.575 2.374-21.064z" fill="#5f5166"></path><path d="m448.737 411.666c-5.156-6.445-14.561-7.559-21.079-2.388-.894.718-92.538 72.733-201.654 72.733v30c119.854 0 216.347-76.073 220.36-79.281 6.46-5.156 7.529-14.575 2.373-21.064z" fill="#5f5266"></path></g></g></svg>