<!-- icon666.com - MILLIONS OF FREE VECTOR ICONS --><svg id="Layer_1" enable-background="new 0 0 512 512" viewBox="0 0 512 512" xmlns="http://www.w3.org/2000/svg"><g><path d="m428.885 504.5h-345.77c-41.761 0-75.615-33.854-75.615-75.615v-345.77c0-41.761 33.854-75.615 75.615-75.615h345.769c41.761 0 75.615 33.854 75.615 75.615v345.769c.001 41.762-33.853 75.616-75.614 75.616z" fill="#deecf1"></path><path d="m428.885 7.5h-30c41.761 0 75.615 33.854 75.615 75.615v345.77c0 41.761-33.854 75.615-75.615 75.615h30c41.761 0 75.615-33.854 75.615-75.615v-345.77c0-41.761-33.854-75.615-75.615-75.615z" fill="#cbe5e8"></path><path d="m83.115 474.5c-25.152 0-45.615-20.463-45.615-45.615v-345.77c0-25.152 20.463-45.615 45.615-45.615h345.77c25.152 0 45.615 20.463 45.615 45.615v345.77c0 25.152-20.463 45.615-45.615 45.615z" fill="#eef5f6"></path><path d="m329.513 77.216c12.567 0 22.879 4.516 30.495 10.007 7.616-5.49 17.928-10.007 30.495-10.007 25.648 0 45.743 22.463 45.743 51.134 0 18.366-8.994 53.846-69.232 85.199-2.196 1.153-4.601 1.723-7.006 1.723s-4.81-.569-7.006-1.723c-60.238-31.353-69.232-66.834-69.232-85.199 0-28.672 20.094-51.134 45.743-51.134z" fill="#fe646f"></path><g fill="#fd4755"><path d="m390.503 77.216c-5.711 0-10.95.939-15.688 2.472 18.43 6.573 31.431 25.604 31.431 48.662 0 17.521-8.187 50.616-61.238 80.846 2.559 1.458 5.222 2.911 7.994 4.354 2.196 1.154 4.601 1.723 7.006 1.723s4.809-.569 7.006-1.723c60.238-31.353 69.232-66.833 69.232-85.199-.001-28.672-20.095-51.135-45.743-51.135z"></path><path d="m330.008 87.223c4.203-3.029 9.23-5.758 15-7.599-4.687-1.496-9.862-2.408-15.495-2.408-5.022 0-9.825.872-14.312 2.472 5.688 1.84 10.651 4.539 14.807 7.535z"></path></g><circle cx="146.346" cy="146.244" fill="#ab695d" r="72"></circle><path d="m146.346 74.244c-5.145 0-10.161.55-15 1.576 32.563 6.902 57 35.805 57 70.424s-24.437 63.521-57 70.424c4.839 1.026 9.855 1.576 15 1.576 39.764 0 72-32.236 72-72 0-39.765-32.236-72-72-72z" fill="#935b50"></path><path d="m205.459 367.176-46.995 46.995c-17.183 17.183-45.042 17.183-62.225 0-17.183-17.183-17.183-45.042 0-62.225l46.995-46.995c17.183-17.183 45.042-17.183 62.225 0 17.183 17.183 17.183 45.042 0 62.225z" fill="#935b50"></path><path d="m205.458 304.951c-12.469-12.469-30.559-15.881-46.113-10.253 5.88 2.127 11.399 5.539 16.113 10.253 17.183 17.183 17.183 45.042 0 62.225l-46.995 46.996c-4.714 4.714-10.233 8.125-16.113 10.253 15.554 5.628 33.643 2.216 46.113-10.253l46.995-46.996c17.184-17.183 17.184-45.042 0-62.225z" fill="#7e4c42"></path><ellipse cx="367.392" cy="356.64" fill="#ecbba3" rx="62.08" ry="78.672" transform="matrix(.707 -.707 .707 .707 -144.576 364.243)"></ellipse><path d="m411.29 312.742c-22.089-22.089-51.329-31.011-75.03-25.272 15.755 3.41 31.695 11.938 45.03 25.272 30.723 30.724 35.976 75.283 11.732 99.527-6.814 6.813-15.232 11.297-24.497 13.54 20.546 4.446 40.776.182 54.497-13.54 24.244-24.244 18.991-68.803-11.732-99.527z" fill="#e8ad8c"></path><g><path d="m360.008 222.772c3.647 0 7.275-.893 10.469-2.57 63.75-33.181 73.269-71.79 73.269-91.852.069-47.774-46.602-73.044-83.737-50.1-37.147-22.935-83.801 2.314-83.738 50.1 0 20.061 9.518 58.669 73.245 91.839 3.216 1.691 6.844 2.583 10.492 2.583zm-68.738-94.421c0-24.468 16.799-43.635 38.243-43.635 11.729 0 20.673 4.672 26.109 8.591 2.619 1.889 6.152 1.889 8.771 0 5.437-3.919 14.38-8.591 26.109-8.591 21.444 0 38.242 19.167 38.242 43.635 0 16.662-8.47 49.021-65.219 78.559-2.148 1.129-4.864 1.141-7.062-.012-56.724-29.526-65.193-61.886-65.193-78.547z"></path><path d="m428.885 0h-52.295c-4.143 0-7.5 3.357-7.5 7.5s3.357 7.5 7.5 7.5h52.295c37.558 0 68.115 30.557 68.115 68.115v345.77c0 37.558-30.557 68.115-68.115 68.115h-345.77c-37.559 0-68.115-30.557-68.115-68.115v-345.77c0-37.558 30.556-68.115 68.115-68.115h258.397c4.143 0 7.5-3.357 7.5-7.5s-3.357-7.5-7.5-7.5h-258.397c-45.83 0-83.115 37.285-83.115 83.115v345.77c0 45.83 37.285 83.115 83.115 83.115h345.77c45.83 0 83.115-37.285 83.115-83.115v-345.77c0-45.83-37.285-83.115-83.115-83.115z"></path><path d="m37.5 398.346c-4.142 0-7.5 3.357-7.5 7.5v23.039c0 29.288 23.828 53.115 53.115 53.115h345.77c29.288 0 53.115-23.827 53.115-53.115v-345.77c0-29.288-23.827-53.115-53.115-53.115h-345.77c-29.287 0-53.115 23.827-53.115 53.115v287.244c0 4.143 3.358 7.5 7.5 7.5s7.5-3.357 7.5-7.5v-287.244c0-21.016 17.099-38.115 38.115-38.115h345.77c21.016 0 38.115 17.099 38.115 38.115v345.77c0 21.016-17.099 38.115-38.115 38.115h-345.77c-21.016 0-38.115-17.099-38.115-38.115v-23.039c0-4.143-3.358-7.5-7.5-7.5z"></path><path d="m224.265 130.453c-2.846-14.067-9.423-26.792-18.642-37.111-.331-.465-.736-.905-1.171-1.275-9.477-10.157-21.57-17.835-35.202-21.945-.307-.11-.62-.197-.937-.267-55.827-16.86-111.671 33.991-100.066 91.185.038.316.09.63.168.94 2.84 14.088 9.421 26.832 18.651 37.164.33.462.733.9 1.164 1.269 9.491 10.175 21.607 17.862 35.266 21.969.324.114.652.212.986.281 55.78 16.761 111.517-34.024 99.97-91.154-.037-.355-.097-.708-.187-1.056zm-120.177 64.458 94.619-86.261c4.528 6.29 7.959 13.417 9.995 21.109l-84.525 77.059c-7.435-2.729-14.22-6.804-20.089-11.907zm-20.099-32.183 84.532-77.055c7.429 2.729 14.21 6.8 20.076 11.899l-94.618 86.259c-4.526-6.288-7.955-13.413-9.99-21.103zm62.357-80.984c1.366 0 2.718.057 4.062.141l-68.514 62.454c1.014-34.685 29.525-62.595 64.452-62.595zm0 129c-1.364 0-2.714-.057-4.057-.141l68.509-62.458c-1.013 34.688-29.525 62.599-64.452 62.599z"></path><path d="m137.93 299.646s-46.996 46.996-46.996 46.996c-9.727 9.728-15.084 22.66-15.084 36.416-.038 45.627 55.601 68.67 87.916 36.416 0 .001 46.995-46.996 46.995-46.996 9.727-9.728 15.084-22.66 15.084-36.416.375-45.362-56.018-68.73-87.915-36.416zm62.225 10.609c14.157 13.587 14.161 38.031 0 51.617 0 0-46.995 46.996-46.995 46.996-14.232 14.232-37.388 14.23-51.619.001-6.894-6.895-10.69-16.061-10.69-25.811 0-9.749 3.796-18.915 10.69-25.809l46.996-46.996c13.585-14.157 38.033-14.16 51.618.002z"></path><path d="m306.459 295.706c-48.009 49.616 10.637 140.732 77.5 139.217 16.888.001 32.693-5.677 44.367-17.35 62.271-67.952-53.942-184.131-121.867-121.867zm111.26 111.26c-53.36 48.765-149.413-47.324-100.652-100.653 8.809-8.81 20.805-13.07 33.812-13.07 53.592-1.255 105.133 73.479 66.84 113.723z"></path><path d="m256 88.5c-4.142 0-7.5 3.357-7.5 7.5v152.5h-152.5c-4.142 0-7.5 3.357-7.5 7.5s3.358 7.5 7.5 7.5h152.5v152.5c0 4.143 3.358 7.5 7.5 7.5 4.143 0 7.5-3.357 7.5-7.5v-152.5h152.5c4.143 0 7.5-3.357 7.5-7.5s-3.357-7.5-7.5-7.5h-152.5v-152.5c0-4.143-3.357-7.5-7.5-7.5z"></path><path d="m384.83 385.897 15.665-15.665c13.667-13.388 5.664-35.908-13.363-34.252-5.17.504-10.164 2.929-14.063 6.827l-15.665 15.665c-2.693 2.691-6.251 3.159-7.63 1.78 0 0-1.433-1.434-1.433-1.434-1.816-2.446-.138-5.591 1.779-7.631 0 0 15.665-15.665 15.665-15.665 8.441-8.442 9.239-21.382 1.778-28.846-7.423-8.771-21.172-8.642-30.225.4 0 0-7.833 7.833-7.833 7.833-6.789 7.248 3.381 17.39 10.608 10.607 0 0 7.833-7.833 7.833-7.833 2.692-2.693 6.251-3.16 7.631-1.778 0 0 1.379 1.378 1.379 1.378 1.382 1.382.915 4.939-1.778 7.632l-15.665 15.665c-8.559 8.301-9.64 22.497-.346 30.277 7.463 7.463 20.402 6.661 28.844-1.778l15.665-15.665c2.108-2.012 5.687-3.812 7.989-1.421 1.382 1.381.915 4.939-1.778 7.631l-15.664 15.665c-7.884 7.495-9.67 21.132-1.779 28.846 8.087 7.88 20.88 6.196 28.844-1.778 0 0 7.833-7.833 7.833-7.833 2.929-2.93 2.929-7.678 0-10.607-2.93-2.928-7.678-2.928-10.607 0 0 0-7.833 7.833-7.833 7.833-2.691 2.693-6.249 3.16-7.631 1.778-1.805-2.48-.155-5.558 1.78-7.631z"></path></g></g></svg>