<!-- icon666.com - MILLIONS OF FREE VECTOR ICONS --><svg id="Layer_1" enable-background="new 0 0 512 512" viewBox="0 0 512 512" xmlns="http://www.w3.org/2000/svg"><g><g><path d="m412.067 161.057c15.23-3.178 26.626-16.797 26.356-33.032-.303-18.204-15.605-32.603-33.811-32.603h-132.027c-18.518 0-36.277 7.356-49.372 20.45l-62.117 62.117v197.566c0 70.908 57.483 128.391 128.391 128.391h49.432c20.558-2.068 40.172-10.09 56.169-23.392 48.612-40.422 79.343-101.611 78.576-169.952-.653-58.348-23.991-110.952-61.597-149.545z" fill="#b9f0ff"></path><path d="m282.818 480.606c-14.849-12.338-28.026-26.618-39.154-42.443-24.883-35.386-39.499-78.515-39.499-125.062v-.001c0-59.14 23.595-112.76 61.871-151.991-15.181-3.041-26.619-16.443-26.619-32.519 0-18.318 14.85-33.168 33.168-33.168h-165.842c-18.319 0-33.168 14.85-33.168 33.168 0 16.076 11.438 29.478 26.619 32.519-38.276 39.231-61.871 92.851-61.871 151.991 0 67.362 30.598 127.577 78.653 167.506 18.72 15.555 42.393 23.894 66.732 23.894h144.587c3.562 0 7.106-.2 10.625-.554-20.531-2.064-40.123-10.062-56.102-23.34z" fill="#7ce3ff"></path></g><g><path d="m204.165 313.101h-73.75-25.757c0 45.137 19.941 87.593 54.711 116.483 6.659 5.532 15.302 8.579 24.338 8.579h59.957v-85.563z" fill="#ffb357"></path><path d="m204.165 313.101c0 46.309 14.491 89.499 39.499 125.062h84.631c9.041 0 17.699-3.06 24.382-8.616 34.798-28.935 54.644-71.294 54.652-116.446-10.802 0-192.23 0-203.164 0z" fill="#ffce71"></path></g><g><path d="m291.361 161.11h-17.895c-5.359 0-10.311 2.859-12.99 7.5l-13.278 22.998v30.498l25.867 20 26.956-20 13.278-22.998c2.679-4.641 2.679-10.359 0-15l-8.948-15.498c-2.679-4.641-7.631-7.5-12.99-7.5z" fill="#ffce71"></path><path d="m313.299 245.104-13.278-22.998h-35.216l-17.608-30.498h-26.556c-5.359 0-10.311 2.859-12.99 7.5l-8.948 15.498c-2.679 4.641-2.679 10.359 0 15l8.948 15.498c2.68 4.641 7.631 7.5 12.99 7.5h26.556l13.278 22.998c2.679 4.641 7.631 7.5 12.99 7.5h17.895c5.359 0 10.311-2.859 12.99-7.5l8.948-15.498c2.68-4.642 2.68-10.36.001-15z" fill="#ffb357"></path></g><g><path d="m387.032 7.5h-108.063l-31.547 15.522v56.509h184.61v-27.031c0-24.853-20.147-45-45-45z" fill="#f2d4d3"></path><path d="m253.355 70.355c0-23.507 9.213-46.054 25.614-62.855h-153.928c-24.853 0-45 20.147-45 45v27.031h173.315v-9.176z" fill="#e8b5b1"></path></g><g><path d="m433.569 113.531h-161.935l-24.212-5.894v-28.173l5.933-5.933h178.677l12.157 9.726c12.548 10.038 5.45 30.274-10.62 30.274z" fill="#e8b5b1"></path><path d="m253.355 83.89v-10.359h-173.314l-12.157 9.726c-12.548 10.038-5.45 30.274 10.62 30.274h193.13c-11.206-5.631-18.279-17.1-18.279-29.641z" fill="#d6948c"></path></g><g><path d="m446.355 419.04c-3.546-2.141-8.157-1.002-10.297 2.543-12.194 20.193-27.591 38.095-45.764 53.205-17.225 14.323-39.244 22.212-61.999 22.212h-144.588c-22.742 0-44.739-7.871-61.938-22.163-48.265-40.102-75.946-99.053-75.946-161.736-.001-29.393 5.949-57.824 17.686-84.507 1.668-3.791-.054-8.217-3.846-9.885-3.791-1.665-8.218.054-9.885 3.846-12.579 28.597-18.956 59.062-18.955 90.546 0 67.157 29.654 130.313 81.36 173.273 19.887 16.525 45.287 25.626 71.524 25.626h144.588c26.251 0 51.676-9.119 71.589-25.679 19.463-16.183 35.953-35.355 49.014-56.984 2.141-3.546 1.003-8.156-2.543-10.297z"></path><path d="m481.165 310.519c-.611-54.467-20.437-106.037-56.067-146.436 15.733-8.849 24.248-27.434 19.537-45.565 14.861-7.374 19.046-29.273 4.24-41.117l-9.342-7.474v-17.427c0-28.948-23.552-52.5-52.5-52.5h-261.993c-28.948 0-52.5 23.552-52.5 52.5v17.427l-9.341 7.473c-14.763 11.808-10.663 33.653 4.158 41.078-.843 3.294-1.283 6.695-1.283 10.112 0 15.073 8.362 28.596 21.026 35.609-8.499 9.635-16.178 19.991-22.906 30.901-2.174 3.525-1.079 8.146 2.447 10.32 3.517 2.17 8.141 1.085 10.32-2.447 7.602-12.326 16.518-23.882 26.503-34.418h11.771c4.143 0 7.5-3.357 7.5-7.5s-3.357-7.5-7.5-7.5h-14.376c-11.509-2.7-19.786-13.054-19.786-24.966 0-2.607.382-5.135 1.129-7.56h347.561c.725 2.281 1.118 4.648 1.159 7.072l.004.487c0 11.877-8.282 22.263-19.772 24.966h-14.13c-4.143 0-7.5 3.357-7.5 7.5s3.357 7.5 7.5 7.5h11.826c58.219 61.538 72.897 151.522 40.418 227.286-1.632 3.807.132 8.217 3.938 9.849 3.807 1.631 8.217-.131 9.849-3.938 12.315-28.725 18.435-59.289 18.11-91.232zm-408.595-221.406 10.102-8.082h11.826v8.5c0 4.143 3.357 7.5 7.5 7.5s7.5-3.357 7.5-7.5v-8.5h35v8.5c0 4.143 3.357 7.5 7.5 7.5s7.5-3.357 7.5-7.5v-8.5h36.957v8.5c0 4.143 3.357 7.5 7.5 7.5s7.5-3.357 7.5-7.5v-8.5h36.957v8.5c0 4.143 3.357 7.5 7.5 7.5s7.5-3.357 7.5-7.5v-8.5h36.957v8.5c0 4.143 3.357 7.5 7.5 7.5s7.5-3.357 7.5-7.5v-8.5h36.957v8.5c0 4.143 3.357 7.5 7.5 7.5s7.5-3.357 7.5-7.5v-8.5h.971c4.143 0 7.5-3.357 7.5-7.5s-3.357-7.5-7.5-7.5h-280.757v-13.531c0-20.678 16.822-37.5 37.5-37.5h261.992c20.678 0 37.5 16.822 37.5 37.5v13.531h-26.138c-4.143 0-7.5 3.357-7.5 7.5s3.357 7.5 7.5 7.5h3.931v8.5c0 4.143 3.357 7.5 7.5 7.5s7.5-3.357 7.5-7.5v-8.5h12.076l10.102 8.082c6.449 5.158 3.582 14.795-3.453 16.601-1.379-.297-2.843-.207-4.226.317h-351.532c-1.452-.592-3.002-.69-4.451-.367-6.875-1.913-9.684-11.422-3.271-16.551z"></path><path d="m149.169 205.595c-3.063-2.79-7.806-2.569-10.595.495-26.612 29.225-41.309 67.071-41.405 106.616-.006.131-.01.263-.01.396 0 47.373 20.928 91.932 57.418 122.251 8.002 6.648 18.348 10.311 29.13 10.311h144.588c10.789 0 21.15-3.676 29.177-10.35 36.442-30.302 57.349-74.846 57.356-122.212 0-39.905-14.595-77.908-41.095-107.011-2.789-3.063-7.533-3.283-10.595-.496-3.063 2.789-3.284 7.533-.496 10.596 22.315 24.506 35.294 56.014 36.989 89.411h-287.261c1.718-33.207 14.803-64.713 37.294-89.412 2.789-3.063 2.568-7.807-.495-10.595zm198.713 218.185c-5.338 4.438-12.294 6.883-19.587 6.883h-144.588c-7.288 0-14.229-2.432-19.544-6.848-31.115-25.854-49.728-63.138-51.801-103.214h287.265c-2.077 40.07-20.671 77.341-51.745 103.179z"></path><path d="m187.713 356.12c-4.143 0-7.5 3.357-7.5 7.5v12c0 4.143 3.357 7.5 7.5 7.5s7.5-3.357 7.5-7.5v-12c0-4.142-3.357-7.5-7.5-7.5z"></path><path d="m312.611 356.12c-4.143 0-7.5 3.357-7.5 7.5v12c0 4.143 3.357 7.5 7.5 7.5s7.5-3.357 7.5-7.5v-12c0-4.142-3.358-7.5-7.5-7.5z"></path><path d="m271.553 369.608c-3.123-2.723-7.86-2.396-10.581.728-5.726 6.57-15.899 6.563-21.62-.001-2.723-3.124-7.46-3.448-10.582-.727-3.123 2.722-3.447 7.46-.727 10.582 11.728 13.454 32.57 13.391 44.237-.001 2.722-3.122 2.396-7.86-.727-10.581z"></path><path d="m319.794 180.357-8.948-15.497c-4.005-6.94-11.472-11.251-19.485-11.251h-17.896c-8.012 0-15.479 4.311-19.485 11.25l-11.112 19.248h-22.226c-8.014 0-15.48 4.311-19.485 11.25l-8.948 15.498c-4.007 6.939-4.007 15.561 0 22.5l8.948 15.497c4.005 6.94 11.472 11.251 19.485 11.251h22.226l11.112 19.248c4.007 6.939 11.474 11.25 19.485 11.25h17.896c8.014 0 15.48-4.311 19.485-11.25l8.948-15.498c4.007-6.94 4.007-15.562 0-22.5l-11.113-19.248 11.113-19.248c4.007-6.938 4.007-15.559 0-22.5zm-52.824-7.998c1.336-2.313 3.824-3.75 6.495-3.75h17.896c2.671 0 5.16 1.437 6.495 3.75l8.948 15.498c1.335 2.313 1.336 5.187 0 7.5l-11.113 19.248h-26.556c-4.805-8.322-8.473-14.676-13.277-22.998zm-52.823 68.995-8.948-15.498c-1.336-2.313-1.336-5.187 0-7.5l8.948-15.499c1.335-2.313 3.824-3.749 6.495-3.749h22.226c4.805 8.322 8.473 14.676 13.277 22.998-4.805 8.322-8.473 14.676-13.277 22.998h-22.226c-2.671 0-5.16-1.437-6.495-3.75zm92.657 15-8.948 15.499c-1.335 2.313-3.824 3.749-6.495 3.749h-17.896c-2.671 0-5.159-1.438-6.495-3.75l-11.112-19.248c4.805-8.322 8.473-14.676 13.277-22.998h26.556l11.113 19.248c1.336 2.313 1.335 5.186 0 7.5z"></path></g></g></svg>